<?xml version="1.0" encoding="UTF-8" standalone="no"?>
<svg width="344px" height="94px" viewBox="0 0 344 94" version="1.1" xmlns="http://www.w3.org/2000/svg" xmlns:xlink="http://www.w3.org/1999/xlink" xmlns:sketch="http://www.bohemiancoding.com/sketch/ns">
    <!-- Generator: Sketch 3.4.2 (15855) - http://www.bohemiancoding.com/sketch -->
    <title>dropbox</title>
    <desc>Created with Sketch.</desc>
    <defs></defs>
    <g id="Page-1" stroke="none" stroke-width="1" fill="none" fill-rule="evenodd" sketch:type="MSPage">
        <g id="dropbox" sketch:type="MSLayerGroup" fill="#007EE5">
            <g id="Layer_1" sketch:type="MSShapeGroup">
                <g id="Group">
                    <path d="M30.116,0.021 L0.486,19.367 L20.974,35.773 L50.849,17.326 L30.116,0.021 Z" id="Shape"></path>
                    <path d="M0.486,52.18 L30.116,71.526 L50.849,54.22 L20.974,35.773 L0.486,52.18 Z" id="Shape"></path>
                    <path d="M50.849,54.22 L71.582,71.526 L101.211,52.18 L80.724,35.773 L50.849,54.22 Z" id="Shape"></path>
                    <path d="M101.211,19.367 L71.582,0.021 L50.849,17.326 L80.724,35.773 L101.211,19.367 Z" id="Shape"></path>
                    <path d="M50.909,57.943 L30.116,75.198 L21.219,69.389 L21.219,75.901 L50.909,93.707 L80.601,75.901 L80.601,69.389 L71.704,75.198 L50.909,57.943 Z" id="Shape"></path>
                </g>
            </g>
            <g id="Layer_2" transform="translate(9.000000, 19.000000)" sketch:type="MSShapeGroup">
                <g id="Group" transform="translate(107.000000, 0.000000)">
                    <path d="M0.297,52.491 L13.995,52.491 C17.987,52.491 23.623,52.491 28.243,48.897 C33.88,44.601 36.776,35.851 36.776,26.083 C36.776,0.458 20.57,0.379 12.586,0.379 L0.297,0.379 L0.297,52.491 L0.297,52.491 Z M11.727,9.365 L13.682,9.365 C18.301,9.365 24.643,9.912 24.643,25.927 C24.643,42.959 18.224,43.507 13.682,43.507 L11.727,43.507 L11.727,9.365 L11.727,9.365 Z" id="Shape"></path>
                    <path d="M40.712,13.974 L40.712,52.491 L51.435,52.491 L51.435,35.851 C51.435,32.881 51.435,23.975 59.34,23.975 C59.733,23.975 60.201,23.975 61.139,24.131 L61.139,13.662 C60.593,13.506 60.047,13.427 59.261,13.427 C53,13.427 51.121,19.991 50.182,23.272 L50.182,13.975 L40.712,13.975 L40.712,13.974 Z" id="Shape"></path>
                    <path d="M78.333,13.114 C66.827,13.114 62.601,21.162 62.601,33.194 C62.601,45.616 67.139,53.272 78.256,53.272 C89.528,53.272 93.99,45.539 93.99,33.194 C93.99,21.162 89.764,13.114 78.333,13.114 L78.333,13.114 Z M78.333,20.615 C81.623,20.615 82.874,23.271 82.874,33.194 C82.874,43.507 81.465,45.774 78.333,45.774 C75.124,45.774 73.716,43.429 73.716,33.194 C73.716,23.741 74.812,20.615 78.256,20.615 L78.333,20.615 L78.333,20.615 Z" id="Shape"></path>
                    <path d="M97.171,13.974 L97.171,65.539 L107.739,65.539 L107.739,49.68 C108.913,50.929 110.87,53.037 115.097,53.037 C127.386,53.037 128.17,38.193 128.17,32.725 C128.17,26.241 126.918,20.224 123.159,16.396 C121.282,14.521 118.385,13.426 115.802,13.426 C110.557,13.426 108.443,17.254 107.112,19.755 L107.112,13.974 L97.171,13.974 L97.171,13.974 Z M107.739,29.443 C107.739,26.006 107.739,20.538 112.592,20.538 C116.741,20.538 117.054,25.928 117.054,32.725 C117.054,40.851 116.664,45.616 112.279,45.616 C107.74,45.616 107.74,42.334 107.74,36.787 L107.74,29.443 L107.739,29.443 Z" id="Shape"></path>
                    <path d="M131.363,0.379 L131.363,52.491 L137.705,52.491 C138.565,49.757 138.958,48.976 139.741,47.491 C140.679,49.444 142.48,53.272 148.666,53.272 C150.701,53.272 152.814,52.882 154.928,51.789 C161.974,48.117 162.444,36.554 162.444,32.959 C162.444,23.663 159.469,13.426 149.995,13.426 C145.378,13.426 143.266,15.927 141.933,17.569 L141.933,0.379 L131.363,0.379 L131.363,0.379 Z M141.932,27.569 C141.932,25.616 141.932,23.663 143.187,22.177 C143.969,21.162 145.221,20.538 146.63,20.538 C149.683,20.538 151.326,23.116 151.326,33.272 C151.326,43.195 149.841,45.85 146.472,45.85 C141.931,45.85 141.931,40.851 141.931,36.475 L141.931,27.569 L141.932,27.569 Z" id="Shape"></path>
                    <path d="M180.872,13.114 C169.363,13.114 165.136,21.162 165.136,33.194 C165.136,45.616 169.678,53.272 180.793,53.272 C192.065,53.272 196.527,45.539 196.527,33.194 C196.527,21.162 192.299,13.114 180.872,13.114 L180.872,13.114 Z M180.872,20.615 C184.157,20.615 185.411,23.271 185.411,33.194 C185.411,43.507 184.003,45.774 180.872,45.774 C177.661,45.774 176.25,43.429 176.25,33.194 C176.25,23.741 177.348,20.615 180.793,20.615 L180.872,20.615 L180.872,20.615 Z" id="Shape"></path>
                    <path d="M196.11,13.974 L206.053,32.804 L194.624,52.492 L203.937,52.492 L210.435,40.93 L216.071,52.492 L227.735,52.492 L216.227,30.929 L226.167,13.975 L216.855,13.975 L211.922,22.881 L207.774,13.975 L196.11,13.975 L196.11,13.974 Z" id="Shape"></path>
                </g>
            </g>
        </g>
    </g>
</svg>