<?xml version="1.0" encoding="utf-8"?>
<!-- Generator: Adobe Illustrator 18.0.0, SVG Export Plug-In . SVG Version: 6.00 Build 0)  -->
<!DOCTYPE svg PUBLIC "-//W3C//DTD SVG 1.1//EN" "http://www.w3.org/Graphics/SVG/1.1/DTD/svg11.dtd">
<svg version="1.1" id="图层_1" xmlns="http://www.w3.org/2000/svg" xmlns:xlink="http://www.w3.org/1999/xlink" x="0px" y="0px"
	 viewBox="34.2 111.5 99.8 32" enable-background="new 34.2 111.5 99.8 32" xml:space="preserve">
<g>
	<path fill="#FFA447" d="M37.9,113.6c0,0-3.3,2.7-2.4,17.8c0,0,0,9.3,4.1,9.5c0,0,8.4,3.3,23.5-0.1c0,0,1.9-0.3,2.9-4.7
		c0,0,1.8-9.3-0.6-20.8c0,0-0.5-2.5-5.5-3.1C59.8,112.2,50,109.8,37.9,113.6z"/>
	<path fill="#FFFFFF" d="M58.2,128.2c0,0-2.2-2.7-7,0c0,0-3.4,3.1-3.3,4.4c0,0,0.2,1.1,7-1.2c0,0,3.9-1.2,4.5,3.8
		c0,0-1.2,3.4-3.8,1.7c0,0-1.6-0.9-1.7-2.9c0,0-7,4.9-10.2,2.3c0,0-1.9-1.7-0.1-4.3c0,0,4.7-3.3,4.7-4.5c0-1.2-3.7-0.1-4.9,1
		c-3.1,2.5-5.4-1.9-4.9-2.6c0,0,0.6-5.3,6.2-1.7c0,0,1.2,1.5,5.7-0.3c0,0,1.1-1,3.7,0.8c2.6,1.7,3.6-1.1,5.7-1.5s4.1,0.4,4.2,3.3
		C63.8,129.3,59.8,129.9,58.2,128.2z M54.9,120.8c-3.4-2-3.9-1.8-3.9-1.8c-0.1-0.5-3.8,1.7-3.8,1.7c-5.4,0.6-4-4.1-4-4.1
		c1.7-3,4.1-1.5,4.1-1.5c3.3,3.3,6.8,0.1,6.8,0.1c4.3-1.8,4.7,2.6,4.7,2.6C58.5,121.8,54.9,120.8,54.9,120.8z"/>
	<path fill="#68686A" d="M131.1,116.6h-17.6V114h18.9L131.1,116.6z M113.9,134.7v1.5c-0.4-0.3-0.9-0.5-1.3-0.5c-0.5,0-1,0.2-1.3,0.5
		c-0.3,0.3-0.5,0.8-0.5,1.4c0,0.6,0.2,1,0.5,1.3c0.3,0.3,0.7,0.5,1.3,0.5c0.5,0,0.9-0.2,1.4-0.5v1.5c-0.4,0.3-1,0.4-1.8,0.4
		c-0.9,0-1.7-0.3-2.3-0.9c-0.6-0.6-0.9-1.3-0.9-2.2c0-1,0.3-1.9,0.9-2.5c0.6-0.6,1.5-0.9,2.5-0.9C113,134.4,113.6,134.5,113.9,134.7
		z M111.2,130.4l-1,2.1H92.6v-2.1h7.4v-1.7h-7.2v-2.1h7.2v-1.5h-7.2V114h17.9v8.7l-3.2,2.5h-4.2v1.5h7.5l-1.1,2.1h-6.5v1.7H111.2z
		 M100,116.1h-3.9v2.4h3.9V116.1z M100,120.6h-3.9v2.4h3.9V120.6z M107.5,123v-6.9h-4.1v2.4h3.9l-0.9,2.1h-3v2.4H107.5z M92.9,138.1
		c0,0.9,0.4,1.4,1.1,1.4c0.4,0,0.6-0.1,0.9-0.4c0.2-0.3,0.3-0.6,0.3-1v-3.5H97v6.2h-1.8v-0.9h0c-0.5,0.7-1.1,1.1-1.9,1.1
		c-1.4,0-2.1-0.9-2.1-2.6v-3.7h1.8V138.1z M89.6,116.4v13.8l-2.6,2.5l-2.1,0v-2.3h1.9v-13.9h-8V114h11.9l-0.9,2.4H89.6z M74.4,130.7
		v1.2l-2.8,1.3V114h6.6v7l-1.3,1.2l1.3,1.1v5.2l-2.3,2.3H74.4z M75.5,116.2h-1.1v4.7l1.1,0V116.2z M75.5,123.2h-1.1v5.2h1.1V123.2z
		 M73.8,134.4c1.7,0,2.6,0.9,2.6,2.6v3.7h-1.7v-0.9h0c-0.4,0.7-1,1-1.8,1c-0.6,0-1-0.2-1.4-0.5c-0.4-0.3-0.5-0.8-0.5-1.4
		c0-1.2,0.7-1.9,2.1-2.1l1.7-0.2c0-0.7-0.4-1.1-1.1-1.1c-0.7,0-1.4,0.2-2.1,0.7V135c0.3-0.2,0.7-0.3,1.1-0.4
		C73.1,134.5,73.5,134.4,73.8,134.4z M73.5,138c-0.6,0.1-1,0.4-1,0.9c0,0.2,0.1,0.4,0.2,0.6c0.2,0.1,0.4,0.2,0.6,0.2
		c0.4,0,0.7-0.1,0.9-0.4c0.2-0.3,0.4-0.6,0.4-1v-0.4L73.5,138z M79.7,140.7h-1.8v-9.1h1.8V140.7z M82.2,131.7c0.3,0,0.6,0.1,0.8,0.3
		c0.2,0.2,0.3,0.4,0.3,0.7c0,0.3-0.1,0.5-0.3,0.7c-0.2,0.2-0.4,0.3-0.8,0.3c-0.3,0-0.5-0.1-0.7-0.3c-0.2-0.2-0.3-0.4-0.3-0.7
		c0-0.3,0.1-0.5,0.3-0.7C81.6,131.7,81.9,131.7,82.2,131.7z M83.1,140.7h-1.8v-6.2h1.8V140.7z M79.4,118.2h6.7v10.5l-2.4,2.2h-4.3
		V118.2z M82,128.7h1.4v-8.3H82V128.7z M85.8,134.6l1.2,3.9c0.1,0.2,0.1,0.5,0.2,0.8h0c0-0.2,0.1-0.5,0.2-0.8l1.2-3.9h1.8l-2.5,6.7
		c-0.6,1.6-1.5,2.3-2.7,2.3c-0.5,0-0.8,0-1.1-0.1V142c0.2,0.1,0.5,0.2,0.8,0.2c0.5,0,0.8-0.2,1-0.7l0.3-0.8l-2.5-6.1H85.8z
		 M100.4,135.6L100.4,135.6c0.5-0.8,1.1-1.1,2-1.1c1.4,0,2,0.8,2,2.5v3.8h-1.8v-3.4c0-1-0.4-1.5-1.1-1.5c-0.3,0-0.6,0.1-0.9,0.4
		c-0.2,0.3-0.3,0.6-0.3,1v3.5h-1.8v-6.2h1.8V135.6z M106.8,139c0.3,0,0.5,0.1,0.8,0.3c0.2,0.2,0.3,0.4,0.3,0.7
		c0,0.3-0.1,0.5-0.3,0.7c-0.2,0.2-0.5,0.3-0.8,0.3c-0.3,0-0.5-0.1-0.7-0.3c-0.2-0.2-0.3-0.4-0.3-0.7c0-0.3,0.1-0.5,0.3-0.7
		C106.3,139.1,106.5,139,106.8,139z M118.2,134.4c1,0,1.8,0.3,2.4,0.9c0.6,0.6,0.9,1.3,0.9,2.3c0,1-0.3,1.8-0.9,2.4
		c-0.6,0.6-1.4,0.9-2.4,0.9c-1,0-1.8-0.3-2.4-0.9c-0.6-0.6-0.9-1.4-0.9-2.3c0-1,0.3-1.8,0.9-2.4S117.1,134.4,118.2,134.4z
		 M118.1,139.5c1,0,1.4-0.6,1.4-1.9c0-1.2-0.5-1.8-1.5-1.8c-0.5,0-0.8,0.2-1.1,0.5c-0.3,0.3-0.4,0.8-0.4,1.4
		C116.6,138.9,117.1,139.5,118.1,139.5z M130.1,124.3l2.2,8.4h-3.5l-0.4-1.7l-0.5,1.6l-14.2,0v-2.3l3.4-7.3h-3.6v-2.6h18.8L131,123
		h-10.5l-3.2,7h10.7l-1.4-5.8H130.1z M124.5,135.5L124.5,135.5c0.2-0.4,0.5-0.6,0.9-0.8c0.4-0.2,0.7-0.3,1.1-0.3
		c0.9,0,1.5,0.4,1.8,1.2c0.5-0.8,1.2-1.2,2.1-1.2c1.3,0,2,0.8,2,2.5v3.8h-1.8v-3.5c0-0.9-0.3-1.4-1-1.4c-0.3,0-0.6,0.1-0.8,0.4
		c-0.2,0.3-0.3,0.6-0.3,1v3.5h-1.8v-3.6c0-0.9-0.3-1.4-1-1.4c-0.3,0-0.6,0.1-0.8,0.4c-0.2,0.3-0.3,0.6-0.3,1.1v3.4h-1.8v-6.2h1.8
		V135.5z"/>
</g>
</svg>
