<?xml version="1.0" encoding="utf-8"?>
<!-- Generator: Adobe Illustrator 18.0.0, SVG Export Plug-In . SVG Version: 6.00 Build 0)  -->
<!DOCTYPE svg PUBLIC "-//W3C//DTD SVG 1.1//EN" "http://www.w3.org/Graphics/SVG/1.1/DTD/svg11.dtd">
<svg version="1.1" id="图层_1" xmlns="http://www.w3.org/2000/svg" xmlns:xlink="http://www.w3.org/1999/xlink" x="0px" y="0px"
	 viewBox="34.2 111.5 116.2 32" enable-background="new 34.2 111.5 116.2 32" xml:space="preserve">
<g>
	<g>
		<circle fill="#F22300" cx="55.6" cy="117.1" r="2.5"/>
		<circle fill="#F37B00" cx="55.7" cy="137.7" r="2.5"/>
		<path fill="#F36609" d="M49.8,120.8c3.2,0,5.9,2.4,6.3,5.5l4.5,0.1c-0.2-2.5-1.2-4.7-2.7-6.4c-0.6,0.4-1.3,0.6-2,0.6
			c-2.1,0-3.7-1.7-3.7-3.7c0-0.1,0-0.1,0-0.2c-0.7-0.2-1.5-0.2-2.3-0.2c-1.6,0-3.2,0.4-4.6,1l2.1,3.9C48.1,121,49,120.8,49.8,120.8z
			"/>
		<path fill="#F22300" d="M55.3,130.3c-1.6,2.8-5,3.9-7.9,2.7l-2.3,3.8c2.2,1.1,4.6,1.3,6.9,0.8c0-0.7,0.1-1.4,0.5-2.1
			c1-1.8,3.3-2.4,5.1-1.4c0.1,0,0.1,0.1,0.2,0.1c0.5-0.6,1-1.2,1.4-1.9c0.8-1.4,1.3-2.9,1.4-4.5l-4.5-0.2
			C56,128.7,55.8,129.5,55.3,130.3z"/>
		<circle fill="#F36609" cx="37.8" cy="127.2" r="2.5"/>
		<path fill="#F5AA43" d="M44.4,123.9c-1.7,2.8-1,6.3,1.4,8.2l-2.3,3.9c-2-1.4-3.4-3.4-4.1-5.7c0.6-0.3,1.2-0.8,1.6-1.4
			c1.1-1.8,0.5-4.1-1.3-5.1c-0.1,0-0.1-0.1-0.2-0.1c0.2-0.7,0.6-1.4,1-2.1c0.8-1.4,2-2.5,3.2-3.4l2.3,3.8
			C45.5,122.6,44.9,123.2,44.4,123.9z"/>
	</g>
	<g>
		<path d="M68.1,125.4c0,0,0.3-2.3,2.7-0.9c0,0,0.5,0.5,0.4,0.8c-0.1,0.3,0,7,0,7s0.5,2.3,3.4,1.6c0,0,1-0.5,1.2-1.2
			c0.2-0.7,0-7.1,0-7.1s0.5-2,2.1-1.5c0,0,1.1,0.3,1.3,1.7v6.7c0,0-0.7,4.1-4.9,4.3s-6-2.2-6.1-4.2
			C67.8,130.7,68.1,125.4,68.1,125.4z"/>
		<path d="M98.7,125.5c0,0,0.3-2.3,2.7-0.9c0,0,0.5,0.5,0.4,0.8c-0.1,0.3,0,7,0,7s0.5,2.3,3.4,1.6c0,0,1-0.5,1.2-1.2
			c0.2-0.7,0-7.1,0-7.1s0.5-2,2.1-1.5c0,0,1.1,0.3,1.3,1.7v6.7c0,0-0.7,4.1-4.9,4.3c-4.3,0.2-6-2.2-6.1-4.2
			C98.4,130.7,98.7,125.5,98.7,125.5z"/>
		<path d="M138.1,125.5c0,0,0.3-2.3,2.7-0.9c0,0,0.5,0.5,0.4,0.8c-0.1,0.3,0,7,0,7s0.5,2.3,3.4,1.6c0,0,1-0.5,1.2-1.2
			c0.2-0.7,0-7.1,0-7.1s0.5-2,2.1-1.5c0,0,1.1,0.3,1.3,1.7v6.7c0,0-0.7,4.1-4.9,4.3c-4.3,0.2-6-2.2-6.1-4.2
			C137.8,130.7,138.1,125.5,138.1,125.5z"/>
		<path d="M92.9,125.4c-3.6-3.1-6.6-0.2-6.6-0.2v-5.5c-1.8-2.3-3.2-0.1-3.2-0.1l0,15.9c1.9,2.6,3.3-0.3,3.3-0.3
			c4.8,3.7,7.7-1.5,7.7-1.5S96.5,128.5,92.9,125.4z M89,133.8c-1.5,0-2.7-1.5-2.7-3.5s1.2-3.5,2.7-3.5c1.5,0,2.7,1.5,2.7,3.5
			S90.5,133.8,89,133.8z"/>
		<path d="M113.7,135.3v-9.7c0,0,0.9-3.1,3.1-0.7c0,0,0,0.9,0.6,0.1c0,0,3.1-3.1,6.9,1c0,0,0.7,1.1,0.5,2.6v6.4c0,0-0.1,1.4-1.6,1.6
			c0,0-1.4-0.3-1.7-1.4l0-6.7c0,0-0.4-2.4-2.9-2c0,0-1.4,0.3-1.6,1.9v6.8c0,0-0.4,1.6-2.3,1.2"/>
		<path d="M129.7,124.2v-2.3c0,0-0.2-2.3,2.4-1.4c0,0,0.8,0.3,0.8,1.4v2.4h1.7c0,0,1.1,0.3,0.9,1.3c-0.2,1-0.5,1.1-0.8,1.3h-1.7v8.2
			c0,0-0.6,2.4-2.6,1.2c0,0-0.6-0.4-0.7-1.1c0-0.6,0-8.2,0-8.2l-1.4,0c0,0-0.9-0.6-0.6-1.8s1.4-1,1.4-1L129.7,124.2z"/>
	</g>
</g>
</svg>
