<?xml version="1.0" encoding="utf-8"?>
<!-- Generator: Adobe Illustrator 18.0.0, SVG Export Plug-In . SVG Version: 6.00 Build 0)  -->
<!DOCTYPE svg PUBLIC "-//W3C//DTD SVG 1.1//EN" "http://www.w3.org/Graphics/SVG/1.1/DTD/svg11.dtd">
<svg version="1.1" id="图层_1" xmlns="http://www.w3.org/2000/svg" xmlns:xlink="http://www.w3.org/1999/xlink" x="0px" y="0px"
	 viewBox="34.4 111.5 66.5 23.9" enable-background="new 34.4 111.5 66.5 23.9" xml:space="preserve">
<g>
	<g>
		<g>
			<g>
				<path fill="#056FFD" d="M42.8,120.4l2.8,0.5c0.6-3.5,3.5-6,7.1-6l0-2.9c0,0,0,0,0,0C47.9,111.9,43.6,115.4,42.8,120.4z"/>
				<path fill="#056FFD" d="M54.3,112.1c-0.5-0.1-1.1-0.1-1.6-0.1v2.9c0.4,0,0.8,0,1.2,0.1c2.4,0.4,4.3,1.9,5.3,4c1-0.2,2-0.3,3-0.3
					C60.9,115.3,58,112.7,54.3,112.1z"/>
			</g>
		</g>
		<path fill="#01C6D7" d="M49.7,133c-4.6-0.2-7.5-0.7-7.8-0.8c-2.5-0.7-3.9-3.3-3.1-5.8c0.6-1.8,2.2-3.1,4.1-3.3
			c0.6-0.1,1.2,0,1.8,0.2c0.8,0.2,2.5,1.3,4.6,2.9l2.1-2c-2.3-1.6-4.6-3.3-5.8-3.6c-1-0.3-1.9-0.4-2.9-0.3c-3,0.3-5.8,2.3-6.7,5.3
			c-1.2,4,1,8.2,5.1,9.4c1.9,0.6,12-0.1,12-0.1l0.2,0L49.7,133z"/>
		<path fill="#04A3FC" d="M60.9,122.9L60.9,122.9c1.9,0,3.6,1.1,4.3,2.9c0.9,2.3-0.2,5-2.6,6c-0.3,0.1-2.2,0.7-10.6,0.7
			c-1.1,0-2.3,0-3.3,0c4.6-4.5,9-8.6,10.5-9.2C59.8,123,60.4,122.9,60.9,122.9 M60.9,120c-0.9,0-1.9,0.2-2.8,0.5
			c-3.8,1.5-16.1,14.5-16.1,14.5l10,0.2c0,0,9.8-0.2,11.7-0.9c3.8-1.5,5.7-5.9,4.2-9.7C66.7,121.8,63.9,120,60.9,120L60.9,120z"/>
	</g>
	<g>
		<path d="M73,124.3h2.4v7.7c0,0.6-0.3,0.9-0.9,0.9c-0.4,0-0.7,0-0.9,0c0-0.2-0.1-0.4-0.1-0.6c0.3,0,0.6,0.1,0.8,0.1
			c0.3,0,0.4-0.1,0.4-0.4v-2.2h-1.1v0.1c0,1.4-0.3,2.5-0.8,3.2c-0.1-0.2-0.3-0.4-0.5-0.5c0.4-0.6,0.6-1.5,0.6-2.7V124.3z
			 M74.7,124.9h-1.1v1.8h1.1V124.9z M73.6,129.1h1.1v-1.8h-1.1V129.1z M77.5,129l-0.2,0.8h1.8l0.2-1.1h-2.4v-0.2
			c-0.3,0.2-0.6,0.5-0.9,0.7c-0.2-0.2-0.3-0.4-0.5-0.5c0.7-0.5,1.3-0.9,1.7-1.4h-1.4v-0.5h1.8c0.1-0.2,0.2-0.5,0.3-0.7H76v-0.5h2
			c0.1-0.5,0.2-1.1,0.2-1.8h0.7c0,0.7-0.1,1.3-0.2,1.8h2.6v0.5h-2.8c-0.1,0.3-0.2,0.5-0.3,0.7h3.3v0.5h-1.8c0.5,0.6,1.1,1,2,1.3
			c-0.2,0.2-0.3,0.4-0.5,0.6c-0.5-0.2-1-0.5-1.4-0.8l-0.2,1.5H81c-0.1,0.8-0.1,1.4-0.1,1.9c0,0.8-0.4,1.1-1.2,1.1
			c-0.4,0-0.8,0-1.2,0c0-0.2-0.1-0.4-0.1-0.7c0.5,0,0.9,0.1,1.2,0.1c0.4,0,0.6-0.2,0.6-0.6c0-0.4,0.1-0.8,0.1-1.2h-3.8l0.3-1.4H77.5
			z M75.7,131h4.1v0.5h-4.1V131z M76.1,124.4l0.5-0.3c0.3,0.3,0.5,0.7,0.8,1.1l-0.6,0.4C76.6,125.1,76.4,124.7,76.1,124.4z
			 M77.2,128.2h2.6c-0.3-0.3-0.5-0.6-0.7-0.9h-1.1C77.7,127.6,77.5,127.9,77.2,128.2z M79.5,125.1c0.3-0.4,0.6-0.8,0.8-1.1l0.6,0.4
			c-0.3,0.4-0.6,0.8-0.9,1.1L79.5,125.1z"/>
		<path d="M85,130.5c0.1,0.3,0.1,0.6,0.2,0.8c-0.5,0.3-0.9,0.7-1.4,1c-0.2,0.2-0.3,0.3-0.5,0.6l-0.6-0.6c0.2-0.2,0.4-0.6,0.4-1v-3.6
			h-1.1V127h1.8v4.4C84.1,131.2,84.5,130.9,85,130.5z M82.8,123.9c0.6,0.6,1.1,1.1,1.5,1.6l-0.6,0.5c-0.4-0.6-0.9-1.1-1.4-1.6
			L82.8,123.9z M84.3,127.9h1.8v-2.9h-1.6v-0.7h5.2v2.9c-0.1,2.5,0.1,4,0.5,4.6c0.1,0.1,0.2,0.2,0.3,0.2c0.1,0,0.1-0.1,0.2-0.3
			c0-0.5,0.1-1,0.1-1.5c0.3,0.1,0.5,0.2,0.7,0.2c0,0.6-0.1,1.2-0.2,1.6c-0.1,0.7-0.3,1-0.6,1c-0.4,0-0.7-0.2-1-0.7
			c-0.5-0.8-0.7-2.4-0.6-4.8v-2.5h-2.1v2.9h1.7v0.7h-1.7v4.5h-0.7v-4.5h-1.8V127.9z"/>
		<path d="M97.7,128.9c0.9,1,1.8,2.1,2.8,3.3l-0.7,0.5c-0.2-0.3-0.5-0.6-0.7-0.9c-2.2,0.1-4.1,0.2-5.7,0.3c-0.3,0-0.5,0.1-0.8,0.2
			l-0.4-0.9c0.4-0.2,0.7-0.4,0.9-0.7c0.7-0.8,1.3-1.7,1.9-2.6h-3.4v-0.7h9.2v0.7h-4.8c-0.9,1.4-1.8,2.5-2.4,3.3
			c2.1-0.1,3.8-0.1,4.9-0.2c-0.5-0.6-1-1.2-1.5-1.8L97.7,128.9z M92.6,124.4h7.4v0.7h-7.4V124.4z"/>
	</g>
</g>
</svg>
