<?xml version="1.0" standalone="no"?><!DOCTYPE svg PUBLIC "-//W3C//DTD SVG 1.1//EN" "http://www.w3.org/Graphics/SVG/1.1/DTD/svg11.dtd"><svg t="1517305255827" class="icon" style="" viewBox="0 0 1024 1024" version="1.1" xmlns="http://www.w3.org/2000/svg" p-id="1509" xmlns:xlink="http://www.w3.org/1999/xlink" width="200" height="200"><defs><style type="text/css"></style></defs><path d="M960 490.666667 115.2 490.666667l177.066667-177.066667c4.266667-4.266667 6.4-8.533333 6.4-14.933333 0-12.8-8.533333-21.333333-21.333333-21.333333-6.4 0-10.666667 2.133333-14.933333 6.4l-213.333333 213.333333C44.8 501.333333 42.666667 505.6 42.666667 512s2.133333 10.666667 6.4 14.933333l213.333333 213.333333c4.266667 4.266667 8.533333 6.4 14.933333 6.4 12.8 0 21.333333-8.533333 21.333333-21.333333 0-6.4-2.133333-10.666667-6.4-14.933333L115.2 533.333333 960 533.333333c12.8 0 21.333333-8.533333 21.333333-21.333333S972.8 490.666667 960 490.666667z" p-id="1510" fill="#3a79c6"></path></svg>