<svg id="图层_1" data-name="图层 1" xmlns="http://www.w3.org/2000/svg" viewBox="0 0 148.67 130"><defs><style>.cls-1{fill:none;stroke-width:3px;}.cls-1,.cls-2{stroke:#00bde4;stroke-miterlimit:10;}.cls-2,.cls-3{fill:#00bde4;}.cls-2{stroke-width:2px;}</style></defs><title>DMOS-LOGO</title><path class="cls-1" d="M75.75,65.82A25.58,25.58,0,0,1,82.86,48.1L61.37,35.7a5.41,5.41,0,0,0-8.11,4.68V90.64a5.41,5.41,0,0,0,8.11,4.68l21.1-12.18A25.58,25.58,0,0,1,75.75,65.82Z"/><path class="cls-1" d="M104.89,60.82l-15.63-9a18.52,18.52,0,0,0-.42,27.66l16.05-9.27A5.41,5.41,0,0,0,104.89,60.82Z"/><circle class="cls-2" cx="93.42" cy="65.82" r="2.57"/><path class="cls-3" d="M43.86,37.54,28.08,28.43a3.14,3.14,0,0,0-4.71,2.72V49.38a3.14,3.14,0,0,0,4.71,2.72L43.86,43A3.14,3.14,0,0,0,43.86,37.54Zm-1.12,4.32L27.91,50.42a1.84,1.84,0,0,1-2.77-1.6V31.7a1.84,1.84,0,0,1,2.77-1.6l14.83,8.56A1.84,1.84,0,0,1,42.74,41.86Z"/><path class="cls-3" d="M56.38,103l-18-10.4A3.58,3.58,0,0,0,33,95.74v20.79a3.58,3.58,0,0,0,5.38,3.1l18-10.4A3.58,3.58,0,0,0,56.38,103ZM55.1,108l-16.92,9.77A2.1,2.1,0,0,1,35,115.91V96.36a2.1,2.1,0,0,1,3.15-1.82l16.92,9.77A2.1,2.1,0,0,1,55.1,108Z"/><path class="cls-3" d="M85.26,11.8l-18-10.41a3.59,3.59,0,0,0-5.38,3.11V25.32a3.59,3.59,0,0,0,5.38,3.11L85.26,18A3.59,3.59,0,0,0,85.26,11.8ZM84,16.73,67,26.52a2.11,2.11,0,0,1-3.16-1.82V5.12A2.11,2.11,0,0,1,67,3.29l17,9.79A2.11,2.11,0,0,1,84,16.73Z"/><path class="cls-3" d="M125.28,27.93l-20-11.55a4,4,0,0,0-6,3.45v23.1a4,4,0,0,0,6,3.45l20-11.55A4,4,0,0,0,125.28,27.93Zm-1.42,5.47-18.8,10.86a2.34,2.34,0,0,1-3.51-2V20.53a2.34,2.34,0,0,1,3.51-2l18.8,10.86A2.34,2.34,0,0,1,123.86,33.41Z"/><path class="cls-3" d="M43.17,69.52,19.06,55.59a4.8,4.8,0,0,0-7.2,4.16V87.6a4.8,4.8,0,0,0,7.2,4.16L43.17,77.83A4.8,4.8,0,0,0,43.17,69.52ZM41.89,76.2,18.45,89.73a2.91,2.91,0,0,1-4.37-2.52V60.14a2.91,2.91,0,0,1,4.37-2.52L41.89,71.15A2.91,2.91,0,0,1,41.89,76.2Z"/><path class="cls-3" d="M119.92,104,98.2,91.41a4.32,4.32,0,0,0-6.48,3.74v25.08A4.32,4.32,0,0,0,98.2,124l21.72-12.54A4.32,4.32,0,0,0,119.92,104Zm-1.15,6L97.65,122.16a2.62,2.62,0,0,1-3.94-2.27V95.51a2.62,2.62,0,0,1,3.94-2.27l21.11,12.19A2.62,2.62,0,0,1,118.77,110Z"/><path class="cls-3" d="M51.55,17.65l-10-5.76a2,2,0,0,0-3,1.72V25.13a2,2,0,0,0,3,1.72l10-5.76A2,2,0,0,0,51.55,17.65Zm-1.14,2.67-8.85,5.11a1.1,1.1,0,0,1-1.65-1V14.26a1.1,1.1,0,0,1,1.65-1l8.85,5.11A1.1,1.1,0,0,1,50.41,20.32Z"/><path class="cls-3" d="M92.21,32.74l-9.52-5.5a1.9,1.9,0,0,0-2.84,1.64v11a1.9,1.9,0,0,0,2.84,1.64L92.21,36A1.9,1.9,0,0,0,92.21,32.74Zm-1.08,2.55-8.46,4.88a1.05,1.05,0,0,1-1.58-.91V29.5a1.05,1.05,0,0,1,1.58-.91l8.46,4.88A1.05,1.05,0,0,1,91.13,35.29Z"/><path class="cls-3" d="M85.31,99l-8.06-4.66a1.6,1.6,0,0,0-2.41,1.39V105a1.6,1.6,0,0,0,2.41,1.39l8.06-4.66A1.6,1.6,0,0,0,85.31,99Zm-.92,2.16-7.16,4.13a.89.89,0,0,1-1.33-.77V96.26a.89.89,0,0,1,1.33-.77l7.16,4.13A.89.89,0,0,1,84.39,101.16Z"/><path class="cls-3" d="M77.7,117.41,66,110.63a2.33,2.33,0,0,0-3.5,2V126.2a2.33,2.33,0,0,0,3.5,2l11.73-6.77A2.33,2.33,0,0,0,77.7,117.41Zm-1.34,3.14-10.42,6A1.29,1.29,0,0,1,64,125.44v-12a1.29,1.29,0,0,1,1.94-1.12l10.42,6A1.29,1.29,0,0,1,76.36,120.55Z"/><path class="cls-3" d="M127.38,82.17l-11.73-6.77a2.33,2.33,0,0,0-3.5,2V91a2.33,2.33,0,0,0,3.5,2l11.73-6.77A2.33,2.33,0,0,0,127.38,82.17ZM126,85.31l-10.42,6a1.29,1.29,0,0,1-1.94-1.12v-12a1.29,1.29,0,0,1,1.94-1.12l10.42,6A1.29,1.29,0,0,1,126,85.31Z"/><path class="cls-3" d="M136.41,56.39l-13.35-7.71a2.66,2.66,0,0,0-4,2.3V66.4a2.66,2.66,0,0,0,4,2.3L136.41,61A2.66,2.66,0,0,0,136.41,56.39ZM134.89,60,123,66.81a1.47,1.47,0,0,1-2.21-1.28V51.85A1.47,1.47,0,0,1,123,50.57l11.85,6.84A1.47,1.47,0,0,1,134.89,60Z"/></svg>