<?xml version="1.0" encoding="utf-8"?><!DOCTYPE svg PUBLIC "-//W3C//DTD SVG 1.1//EN" "http://www.w3.org/Graphics/SVG/1.1/DTD/svg11.dtd"><svg version="1.1" baseProfile="full" xmlns="http://www.w3.org/2000/svg" xmlns:xlink="http://www.w3.org/1999/xlink" xmlns:ev="http://www.w3.org/2001/xml-events"   height="186px"   width="186px" ><path fill="rgb( 0, 189, 226 )" d="M93.3609999999999,185.885 C42.3789999999999,185.885 0.89300000000003,144.403 0.89300000000003,93.4219999999996 C0.89300000000003,42.4409999999998 42.3789999999999,0.96000000000004 93.3609999999999,0.96000000000004 C144.343,0.96000000000004 185.817,42.4409999999998 185.817,93.4219999999996 C185.817,144.403 144.343,185.885 93.3609999999999,185.885 ZM93.3609999999999,4.05199999999968 C44.0820000000001,4.05199999999968 3.9849999999999,44.143 3.9849999999999,93.4219999999996 C3.9849999999999,142.7 44.0820000000001,182.792 93.3609999999999,182.792 C142.639,182.792 182.725,142.7 182.725,93.4219999999996 C182.725,44.143 142.639,4.05199999999968 93.3609999999999,4.05199999999968 ZM139.632,146.301 C139.632,146.301 139.632,144.755 139.632,144.755 C139.632,144.755 142.676,144.755 142.676,144.755 C142.676,144.755 142.676,138.593 142.676,138.593 C142.676,138.593 159.892,138.593 159.892,138.593 C159.892,138.593 159.892,144.755 159.892,144.755 C159.892,144.755 162.802,144.755 162.802,144.755 C162.802,144.755 162.802,146.301 162.802,146.301 C162.802,146.301 139.632,146.301 139.632,146.301 ZM147.846,140.097 C147.846,140.097 144.403,140.097 144.403,140.097 C144.403,140.097 144.403,144.755 144.403,144.755 C144.403,144.755 147.846,144.755 147.846,144.755 C147.846,144.755 147.846,140.097 147.846,140.097 ZM152.981,140.097 C152.981,140.097 149.538,140.097 149.538,140.097 C149.538,140.097 149.538,144.755 149.538,144.755 C149.538,144.755 152.981,144.755 152.981,144.755 C152.981,144.755 152.981,140.097 152.981,140.097 ZM158.163,140.097 C158.163,140.097 154.672,140.097 154.672,140.097 C154.672,140.097 154.672,144.755 154.672,144.755 C154.672,144.755 158.163,144.755 158.163,144.755 C158.163,144.755 158.163,140.097 158.163,140.097 ZM151.906,137.421 C150.915,136.612 149.694,135.736 148.233,134.8 C148.233,134.8 149.187,133.604 149.187,133.604 C150.674,134.45 151.93,135.259 152.956,136.044 C152.956,136.044 151.906,137.421 151.906,137.421 ZM159.335,134.963 C159.335,136.745 158.562,137.645 157.04,137.656 C156.206,137.675 155.204,137.656 154.008,137.608 C153.935,137.046 153.815,136.449 153.658,135.808 C154.648,135.917 155.554,135.971 156.376,135.971 C157.161,135.971 157.547,135.525 157.547,134.637 C157.547,134.637 157.547,133.229 157.547,133.229 C157.547,133.229 145.599,133.229 145.599,133.229 C145.176,135.494 143.787,137.488 141.432,139.203 C140.996,138.629 140.562,138.11 140.151,137.656 C142.048,136.443 143.244,134.963 143.739,133.229 C143.739,133.229 139.934,133.229 139.934,133.229 C139.934,133.229 139.934,131.682 139.934,131.682 C139.934,131.682 144.017,131.682 144.017,131.682 C144.089,131.2 144.126,129.423 144.101,126.343 C144.101,126.343 149.164,126.343 149.164,126.343 C149.441,125.582 149.683,124.784 149.888,123.957 C149.888,123.957 151.906,124.447 151.906,124.447 C151.653,125.063 151.374,125.696 151.085,126.343 C151.085,126.343 159.335,126.343 159.335,126.343 C159.335,126.343 159.335,131.682 159.335,131.682 C159.335,131.682 162.537,131.682 162.537,131.682 C162.537,131.682 162.537,133.229 162.537,133.229 C162.537,133.229 159.335,133.229 159.335,133.229 C159.335,133.229 159.335,134.963 159.335,134.963 ZM157.547,127.841 C157.547,127.841 145.889,127.841 145.889,127.841 C145.901,129.388 145.878,130.668 145.817,131.682 C145.817,131.682 157.547,131.682 157.547,131.682 C157.547,131.682 157.547,127.841 157.547,127.841 ZM153.597,130.094 C153.597,130.094 152.485,131.496 152.485,131.496 C151.41,130.656 150.299,129.864 149.139,129.134 C149.139,129.134 150.106,127.938 150.106,127.938 C151.349,128.638 152.51,129.357 153.597,130.094 ZM137.541,146.048 C132.504,144.839 128.891,141.746 126.705,136.757 C125.907,137.771 125.002,138.738 123.974,139.651 C123.974,139.651 123.974,144.663 123.974,144.663 C126.04,143.993 127.949,143.286 129.713,142.555 C129.7,143.244 129.713,143.921 129.737,144.592 C127.864,145.231 125.932,145.933 123.926,146.7 C123.504,146.874 123.093,147.074 122.693,147.309 C122.693,147.309 121.582,145.6 121.582,145.6 C122.029,145.286 122.247,144.851 122.247,144.29 C122.247,144.29 122.247,141.063 122.247,141.063 C120.627,142.278 118.792,143.37 116.738,144.355 C116.399,143.812 116.001,143.274 115.542,142.743 C119.577,141.088 122.754,138.871 125.05,136.086 C125.05,136.086 115.795,136.086 115.795,136.086 C115.795,136.086 115.795,134.473 115.795,134.473 C115.795,134.473 126.293,134.473 126.293,134.473 C126.293,134.473 126.293,132.081 126.293,132.081 C126.293,132.081 117.463,132.081 117.463,132.081 C117.463,132.081 117.463,130.469 117.463,130.469 C117.463,130.469 126.293,130.469 126.293,130.469 C126.293,130.469 126.293,128.173 126.293,128.173 C126.293,128.173 116.533,128.173 116.533,128.173 C116.533,128.173 116.533,126.555 116.533,126.555 C116.533,126.555 126.293,126.555 126.293,126.555 C126.293,126.555 126.293,123.933 126.293,123.933 C126.293,123.933 128.143,123.933 128.143,123.933 C128.143,123.933 128.143,126.555 128.143,126.555 C128.143,126.555 137.964,126.555 137.964,126.555 C137.964,126.555 137.964,128.173 137.964,128.173 C137.964,128.173 128.143,128.173 128.143,128.173 C128.143,128.173 128.143,130.469 128.143,130.469 C128.143,130.469 136.95,130.469 136.95,130.469 C136.95,130.469 136.95,132.081 136.95,132.081 C136.95,132.081 128.143,132.081 128.143,132.081 C128.143,132.081 128.143,134.473 128.143,134.473 C128.143,134.473 138.616,134.473 138.616,134.473 C138.616,134.473 138.616,136.086 138.616,136.086 C138.616,136.086 128.202,136.086 128.202,136.086 C128.855,137.608 129.7,138.932 130.739,140.049 C132.298,139.27 134.025,138.237 135.898,136.956 C135.898,136.956 137.191,138.569 137.191,138.569 C137.191,138.569 131.948,141.197 131.948,141.197 C133.784,142.695 136.091,143.685 138.846,144.168 C138.314,144.857 137.88,145.48 137.541,146.048 ZM113.488,146.959 C110.758,145.636 108.426,144.03 106.505,142.132 C104.379,144.241 101.782,145.956 98.7139999999999,147.285 C98.4589999999998,146.863 98.0729999999999,146.301 97.5410000000002,145.6 C100.562,144.301 103.087,142.646 105.128,140.635 C102.108,137.034 100.344,132.535 99.837,127.14 C99.837,127.14 101.757,126.814 101.757,126.814 C102.18,131.827 103.751,135.947 106.469,139.167 C109.272,135.796 110.89,131.574 111.338,126.506 C111.338,126.506 113.367,126.863 113.367,126.863 C112.727,132.443 110.89,137.04 107.871,140.659 C109.792,142.477 112.147,143.951 114.938,145.086 C114.345,145.817 113.863,146.44 113.488,146.959 ZM106.372,130.444 C105.574,128.445 104.753,126.651 103.908,125.057 C103.908,125.057 105.599,124.332 105.599,124.332 C106.481,125.83 107.339,127.569 108.149,129.551 C108.149,129.551 106.372,130.444 106.372,130.444 ZM74.8520000000001,108.843 C74.8520000000001,108.843 93.3609999999999,10.5770000000002 93.3609999999999,10.5770000000002 C93.3609999999999,10.5770000000002 112.195,110.674 112.195,110.674 C112.195,110.674 74.5150000000001,110.674 74.5150000000001,110.674 C74.5150000000001,110.674 74.8520000000001,108.843 74.8520000000001,108.843 ZM108.474,107.581 C108.474,107.581 93.3609999999999,27.2960000000003 93.3609999999999,27.2960000000003 C93.3609999999999,27.2960000000003 78.2359999999999,107.581 78.2359999999999,107.581 C78.2359999999999,107.581 108.474,107.581 108.474,107.581 ZM99.7370000000001,93.4200000000001 C99.7370000000001,96.9449999999997 96.8800000000001,99.8010000000004 93.357,99.8010000000004 C89.8339999999998,99.8010000000004 86.9769999999999,96.9449999999997 86.9769999999999,93.4200000000001 C86.9769999999999,89.8969999999999 89.8339999999998,87.0410000000002 93.357,87.0410000000002 C96.8800000000001,87.0410000000002 99.7370000000001,89.8969999999999 99.7370000000001,93.4200000000001 ZM73.8630000000001,141.759 C72.2919999999999,143.486 70.1769999999999,144.344 67.5440000000001,144.344 C64.9580000000001,144.344 62.8920000000001,143.498 61.346,141.807 C59.788,140.11 59.0150000000001,137.904 59.0150000000001,135.186 C59.0150000000001,132.256 59.8119999999999,129.931 61.395,128.198 C62.9780000000001,126.463 65.1279999999999,125.593 67.8340000000001,125.593 C70.3589999999999,125.593 72.3879999999999,126.44 73.922,128.137 C75.4569999999999,129.828 76.2310000000002,132.039 76.2310000000002,134.752 C76.2310000000002,137.698 75.4450000000002,140.03 73.8630000000001,141.759 ZM72.135,129.61 C71.059,128.336 69.5740000000001,127.701 67.6880000000001,127.701 C65.8399999999999,127.701 64.3420000000001,128.372 63.1949999999999,129.719 C62.047,131.06 61.479,132.818 61.479,134.999 C61.479,137.191 62.0350000000001,138.955 63.1579999999999,140.278 C64.27,141.601 65.731,142.26 67.5440000000001,142.26 C69.4770000000001,142.26 70.999,141.625 72.0989999999999,140.357 C73.21,139.089 73.7660000000001,137.312 73.7660000000001,135.035 C73.7660000000001,132.692 73.222,130.886 72.135,129.61 ZM45.2909999999999,141.867 C43.732,140.218 42.9590000000001,138.031 42.9590000000001,135.313 C42.9590000000001,132.395 43.829,130.046 45.5799999999999,128.264 C47.3320000000001,126.482 49.5550000000001,125.593 52.249,125.593 C53.9760000000001,125.593 55.415,125.842 56.5509999999999,126.331 C56.5509999999999,126.331 56.5509999999999,128.783 56.5509999999999,128.783 C55.2460000000001,128.064 53.819,127.701 52.2729999999999,127.701 C50.2439999999999,127.701 48.6010000000001,128.378 47.3320000000001,129.725 C46.0519999999999,131.073 45.423,132.885 45.423,135.173 C45.423,137.348 46.0160000000001,139.07 47.2,140.345 C48.384,141.625 49.942,142.26 51.8620000000001,142.26 C53.6510000000001,142.26 55.221,141.855 56.5509999999999,141.046 C56.5509999999999,141.046 56.5509999999999,143.293 56.5509999999999,143.293 C55.21,143.993 53.53,144.344 51.5250000000001,144.344 C48.915,144.344 46.837,143.523 45.2909999999999,141.867 ZM30.854,144.041 C30.854,144.041 25.865,144.041 25.865,144.041 C25.865,144.041 25.865,125.901 25.865,125.901 C25.865,125.901 31.0360000000001,125.901 31.0360000000001,125.901 C33.79,125.901 36.0730000000001,126.699 37.8969999999999,128.3 C39.721,129.901 40.627,132.045 40.627,134.739 C40.627,137.554 39.721,139.808 37.8969999999999,141.499 C36.0730000000001,143.196 33.729,144.041 30.854,144.041 ZM36.182,129.696 C34.8520000000001,128.554 33.1130000000001,127.986 30.95,127.986 C30.95,127.986 28.2080000000001,127.986 28.2080000000001,127.986 C28.2080000000001,127.986 28.2080000000001,141.97 28.2080000000001,141.97 C28.2080000000001,141.97 30.8420000000001,141.97 30.8420000000001,141.97 C33.1500000000001,141.97 34.9380000000001,141.342 36.23,140.085 C37.5229999999999,138.829 38.175,137.065 38.175,134.8 C38.175,132.535 37.511,130.831 36.182,129.696 ZM83.7570000000001,142.295 C86.3049999999998,142.295 87.5749999999998,141.39 87.5749999999998,139.578 C87.5749999999998,139.07 87.4409999999998,138.618 87.1750000000002,138.207 C86.8980000000001,137.801 86.5230000000001,137.445 86.0390000000002,137.131 C85.569,136.818 84.6750000000002,136.34 83.357,135.693 C81.5459999999998,134.788 80.3499999999999,133.941 79.77,133.168 C79.1900000000001,132.389 78.9000000000001,131.502 78.9000000000001,130.505 C78.9000000000001,128.994 79.5039999999999,127.799 80.7130000000002,126.917 C81.9319999999998,126.035 83.4549999999999,125.593 85.2910000000002,125.593 C87.1030000000001,125.593 88.4200000000001,125.811 89.2660000000001,126.253 C89.2660000000001,126.253 89.2660000000001,128.801 89.2660000000001,128.801 C88.1779999999999,128.047 86.7890000000002,127.666 85.1219999999998,127.666 C84.011,127.666 83.1039999999998,127.902 82.404,128.367 C81.7150000000001,128.832 81.364,129.478 81.364,130.306 C81.364,131.037 81.6060000000002,131.634 82.0889999999999,132.093 C82.5729999999999,132.558 83.623,133.187 85.2429999999999,133.978 C87.018,134.83 88.2629999999999,135.682 88.9749999999999,136.533 C89.6889999999999,137.385 90.0390000000002,138.339 90.0390000000002,139.402 C90.0390000000002,140.997 89.4589999999998,142.218 88.3110000000001,143.069 C87.152,143.921 85.5450000000001,144.344 83.491,144.344 C82.7779999999998,144.344 81.9319999999998,144.246 80.9789999999998,144.047 C80.0230000000001,143.848 79.3229999999999,143.601 78.8879999999999,143.305 C78.8879999999999,143.305 78.8879999999999,140.635 78.8879999999999,140.635 C79.4430000000002,141.118 80.181,141.516 81.1109999999999,141.83 C82.0410000000002,142.138 82.9229999999998,142.295 83.7570000000001,142.295 ZM98.9670000000001,124.868 C98.23,126.928 97.4319999999998,128.837 96.5749999999998,130.584 C96.5749999999998,130.584 96.5749999999998,147.146 96.5749999999998,147.146 C96.5749999999998,147.146 94.7979999999998,147.146 94.7979999999998,147.146 C94.7979999999998,147.146 94.7979999999998,133.851 94.7979999999998,133.851 C94.0010000000002,135.138 93.1799999999998,136.322 92.3099999999999,137.403 C92.0799999999999,136.726 91.8270000000002,136.032 91.5610000000001,135.313 C93.9769999999999,132.051 95.8139999999999,128.361 97.069,124.235 C97.069,124.235 98.9670000000001,124.868 98.9670000000001,124.868 Z "/></svg>