<?xml version="1.0" encoding="utf-8"?><!DOCTYPE svg PUBLIC "-//W3C//DTD SVG 1.1//EN" "http://www.w3.org/Graphics/SVG/1.1/DTD/svg11.dtd"><svg version="1.1" baseProfile="full" xmlns="http://www.w3.org/2000/svg" xmlns:xlink="http://www.w3.org/1999/xlink" xmlns:ev="http://www.w3.org/2001/xml-events"   height="186px"   width="185px" ><path fill="rgb( 0, 189, 226 )" d="M92.502,185.012 C41.502,185.012 0.01299999999992,143.513 0.01299999999992,92.509 C0.01299999999992,41.5039999999999 41.502,0.00500000000011 92.502,0.00500000000011 C143.503,0.00500000000011 184.993,41.5039999999999 184.993,92.509 C184.993,143.513 143.503,185.012 92.502,185.012 ZM41.856,165.843 C56.239,175.819 73.7049999999999,181.667 92.502,181.667 C100.38,181.667 108.023,180.641 115.298,178.715 C115.298,178.715 98.721,125.494 98.721,125.494 C96.71,125.873 94.6320000000001,126.07 92.502,126.07 C85.3310000000001,126.07 78.6689999999999,123.802 73.2089999999998,119.948 C73.2089999999998,119.948 41.856,165.843 41.856,165.843 ZM101.975,124.71 C101.975,124.71 118.513,177.799 118.513,177.799 C155.026,166.634 181.649,132.622 181.649,92.509 C181.649,86.4399999999996 181.035,80.5069999999996 179.872,74.7780000000002 C179.872,74.7780000000002 125.671,87.3800000000001 125.671,87.3800000000001 C125.933,89.0529999999999 126.063,90.7640000000001 126.063,92.509 C126.063,107.724 115.887,120.608 101.975,124.71 ZM23.645,149.079 C28.204,154.607 33.404,159.585 39.1389999999999,163.884 C39.1389999999999,163.884 70.569,117.884 70.569,117.884 C69.25,116.74 68.0219999999999,115.493 66.8850000000002,114.159 C66.8850000000002,114.159 23.645,149.079 23.645,149.079 ZM3.97199999999998,82.0619999999999 C3.56600000000003,85.4920000000002 3.35799999999995,88.9740000000002 3.35799999999995,92.509 C3.35799999999995,112.767 10.1510000000001,131.466 21.568,146.453 C21.568,146.453 64.8600000000001,111.5 64.8600000000001,111.5 C61.1370000000002,106.097 58.9549999999999,99.5510000000004 58.9549999999999,92.509 C58.9549999999999,92.201 58.9549999999999,91.9009999999998 58.9690000000001,91.5940000000001 C58.9690000000001,91.5940000000001 3.97199999999998,82.0619999999999 3.97199999999998,82.0619999999999 ZM92.502,62.2929999999997 C75.8470000000002,62.2929999999997 62.3000000000002,75.8490000000002 62.3000000000002,92.509 C62.3000000000002,109.168 75.8470000000002,122.725 92.502,122.725 C109.16,122.725 122.719,109.168 122.719,92.509 C122.719,75.8490000000002 109.16,62.2929999999997 92.502,62.2929999999997 ZM4.41599999999994,78.7439999999997 C4.41599999999994,78.7439999999997 59.23,88.2489999999998 59.23,88.2489999999998 C61.3209999999999,71.7460000000001 75.4430000000002,58.9480000000003 92.502,58.9480000000003 C96.54,58.9480000000003 100.419,59.6660000000002 103.999,60.9790000000003 C103.999,60.9790000000003 120.89,7.98199999999997 120.89,7.98199999999997 C111.967,4.97699999999986 102.419,3.35000000000036 92.502,3.35000000000036 C48.0340000000001,3.35000000000036 11.0519999999999,36.0950000000003 4.41599999999994,78.7439999999997 ZM123.163,78.8800000000001 C123.921,80.5519999999997 124.535,82.2969999999996 124.993,84.1059999999998 C124.993,84.1059999999998 179.154,71.5100000000002 179.154,71.5100000000002 C177.507,64.7160000000003 175.078,58.2290000000003 171.982,52.1329999999998 C171.982,52.1329999999998 123.163,78.8800000000001 123.163,78.8800000000001 ZM112.581,65.6379999999999 C116.266,68.3869999999997 119.362,71.884 121.66,75.8950000000004 C121.66,75.8950000000004 170.401,49.1869999999999 170.401,49.1869999999999 C163.948,37.6229999999996 154.999,27.6400000000003 144.286,19.9709999999995 C144.286,19.9709999999995 112.581,65.6379999999999 112.581,65.6379999999999 ZM107.096,62.2860000000001 C108.023,62.7370000000001 108.938,63.2330000000002 109.812,63.7619999999997 C109.812,63.7619999999997 141.531,18.076 141.531,18.076 C136.084,14.4759999999997 130.231,11.4579999999996 124.051,9.11300000000028 C124.051,9.11300000000028 107.096,62.2860000000001 107.096,62.2860000000001 Z "/></svg>