<svg id="图层_1" data-name="图层 1" xmlns="http://www.w3.org/2000/svg" viewBox="0 0 148.67 130"><defs><style>.cls-1{fill:none;stroke:#00bde4;stroke-miterlimit:10;stroke-width:2px;}.cls-2{fill:#00bde4;}</style></defs><title>DMOS-LOGO</title><path class="cls-1" d="M73.66,23.92s7.92,0,13.72-12.52c0,0,3.66-7.93,10.68-8.24,0,0-2.75,1.22,0,8.85,0,0,4.88,13.73,0,16.78a2.48,2.48,0,0,1-1.72.44,4.45,4.45,0,0,0-6.12,3.59h0a4.44,4.44,0,0,0,4.42,5,6.89,6.89,0,0,1,1.93-.06c2.28.79,4.61,2.68,3.66,7.33,0,0-2.87,10.89-3.1,16a3.93,3.93,0,0,0-.1.83,3.4,3.4,0,0,0,.69,2c-.67.24-5.88-1.68-9.11-7.19L84,49.61h0a10.67,10.67,0,1,0-16.35,13,19.82,19.82,0,0,1,6-38.7Z"/><path class="cls-1" d="M81.21,122.65a28.13,28.13,0,0,0,21.62-10.1,16.48,16.48,0,0,1-28.91,9.15A28.22,28.22,0,0,0,81.21,122.65Z"/><path class="cls-2" d="M37.93,99.55q1,1.22,2.14,2.37h69.6q1.11-1.15,2.14-2.37Z"/><path class="cls-2" d="M35.2,96Q36,97.21,37,98.36h75.82q.92-1.16,1.76-2.37Z"/><path class="cls-2" d="M41.25,103.1q1.27,1.23,2.63,2.37h62q1.36-1.14,2.63-2.37Z"/><path class="cls-2" d="M104.38,106.65h-59Q47,107.91,48.71,109H101Q102.76,107.91,104.38,106.65Z"/><path class="cls-1" d="M60.3,115.15q-1.18-.44-2.32-1H89.73a38.76,38.76,0,0,0,3.73-1.9h-39c.4.23.8.46,1.21.68A14,14,0,0,1,41.06,118a14,14,0,0,0,25.58-1.2,39.13,39.13,0,0,0,20.75-1.67Z"/><path class="cls-2" d="M32.94,92.44q.69,1.21,1.46,2.37h81q.76-1.16,1.46-2.37Z"/><path class="cls-1" d="M81.37,80.87a9.15,9.15,0,0,1-17.31-4.14h5a4.14,4.14,0,0,0,8.28,0h44q.43-2.09.69-4.24c0-.15,0-.3.05-.45v0h0c.14-1.27.23-2.55.26-3.85H74.58l-.25,0a24.35,24.35,0,0,1,0-48.68l.21,0a47.5,47.5,0,0,0-47.16,47.5A48.05,48.05,0,0,0,27.65,72h0A47.18,47.18,0,0,0,33,89.52h83.64a47.26,47.26,0,0,0,3.61-8.65Z"/><path class="cls-2" d="M69.71,75.73a3.78,3.78,0,1,0,7.3,0Z"/></svg>