<svg id="图层_1" data-name="图层 1" xmlns="http://www.w3.org/2000/svg" xmlns:xlink="http://www.w3.org/1999/xlink" viewBox="0 0 148.67 130"><defs><style>.cls-1,.cls-3{fill:none;}.cls-2{clip-path:url(#clip-path);}.cls-3{stroke:#00bde4;stroke-miterlimit:10;stroke-width:3px;}.cls-4{fill:#00bde4;}</style><clipPath id="clip-path"><circle class="cls-1" cx="75.12" cy="68.91" r="57.1"/></clipPath></defs><title>DMOS-LOGO</title><g class="cls-2"><path class="cls-3" d="M53.72,100.13a3.23,3.23,0,0,0-.5-4.66l0,0A3.22,3.22,0,0,0,48.7,96a41.75,41.75,0,0,0-7,13q-.56-.78-1.08-1.61a28.58,28.58,0,0,1,.79-12.75A28,28,0,0,1,51,81.41a2.93,2.93,0,0,0,.42-4.23l0,0a2.92,2.92,0,0,0-4.08-.33A36,36,0,0,0,36.15,93c-.16.5-.3,1-.43,1.49a43.58,43.58,0,0,1-.22-13.39,4.24,4.24,0,0,0-3.84-4.81H31.6A4.23,4.23,0,0,0,27,80c-.6,5.86-.73,17.11,4.77,28.08,7.92,15.8,23.32,22.58,23.32,22.58L61,124.52a51.79,51.79,0,0,1-14.38-9.78A31.42,31.42,0,0,1,53.72,100.13Z"/><path class="cls-3" d="M121.21,92.25a1.83,1.83,0,0,0-1.94-1.67,22.48,22.48,0,0,0-11.6,4.06c-.27.2-.52.41-.77.61a27.24,27.24,0,0,1,4.83-6.87,2.65,2.65,0,0,0-.17-3.85l0,0a2.65,2.65,0,0,0-3.7.23,32.58,32.58,0,0,0-7.93,15.95,32.94,32.94,0,0,0,3.48,20l5.28-.94A32.52,32.52,0,0,1,105,109.52a19.68,19.68,0,0,1,8.93-4.8,2,2,0,0,0,1.46-2.54v0a2,2,0,0,0-2.47-1.36,26.11,26.11,0,0,0-8.31,4c0-.4,0-.81.05-1.22a17.86,17.86,0,0,1,5.08-6.15,17.5,17.5,0,0,1,9.71-3.19,1.83,1.83,0,0,0,1.77-2Z"/><path class="cls-3" d="M98.39,81.62a5.66,5.66,0,0,0,2.89-7.7l0-.08a5.65,5.65,0,0,0-7.47-2.64,73.33,73.33,0,0,0-21.18,15q-.26-1.67-.42-3.37a50.2,50.2,0,0,1,11.27-19.4c8.51-8.73,19.13-12.06,25.43-13.32a5.14,5.14,0,0,0,4-6.31l0-.08A5.13,5.13,0,0,0,106.68,40c-6.94,1.64-19.88,5.95-30.26,16.6-.64.66-1.25,1.33-1.84,2a76.55,76.55,0,0,1,10.2-21.2A7.45,7.45,0,0,0,82.54,26.8l-.1-.06A7.43,7.43,0,0,0,72.3,29.09c-5.55,8.73-14.63,26.29-14.63,47.84,0,31,18.84,53.81,18.84,53.81l14.18-5A91,91,0,0,1,75.82,99,55.18,55.18,0,0,1,98.39,81.62Z"/></g><path class="cls-4" d="M75.12,8.91a60.27,60.27,0,0,0-12,1.2v3A57.09,57.09,0,1,1,26.16,39.51H22.81A60,60,0,1,0,75.12,8.91Z"/><path class="cls-4" d="M39,1.16a16.6,16.6,0,1,0,16.6,16.6A16.6,16.6,0,0,0,39,1.16ZM39,32A14.25,14.25,0,1,1,53.25,17.76,14.25,14.25,0,0,1,39,32Z"/><path class="cls-4" d="M44.29,41.19a5.23,5.23,0,1,0,5.23,5.23A5.23,5.23,0,0,0,44.29,41.19Zm0,9.72a4.49,4.49,0,1,1,4.49-4.49A4.49,4.49,0,0,1,44.29,50.91Z"/><path class="cls-4" d="M52.17,53.8a2.1,2.1,0,1,0,2.1,2.1A2.1,2.1,0,0,0,52.17,53.8Zm0,3.91A1.81,1.81,0,1,1,54,55.9,1.81,1.81,0,0,1,52.17,57.71Z"/></svg>