<?xml version="1.0" encoding="utf-8"?><!DOCTYPE svg PUBLIC "-//W3C//DTD SVG 1.1//EN" "http://www.w3.org/Graphics/SVG/1.1/DTD/svg11.dtd"><svg version="1.1" baseProfile="full" xmlns="http://www.w3.org/2000/svg" xmlns:xlink="http://www.w3.org/1999/xlink" xmlns:ev="http://www.w3.org/2001/xml-events"   height="664px"   width="498px" ><path fill="rgb( 0, 189, 226 )" d="M447.873,615.125 C417.989,647.175 368.157,663.443 299.791,663.443 C299.791,663.443 0.47000000000003,663.443 0.47000000000003,663.443 C0.47000000000003,663.443 0.47000000000003,539.543 0.47000000000003,539.543 C0.47000000000003,539.543 292.642,539.543 292.642,539.543 C338.234,539.543 360.428,513.801 360.428,460.817 C360.428,460.817 360.428,0.28899999999976 360.428,0.28899999999976 C360.428,0.28899999999976 497.871,0.28899999999976 497.871,0.28899999999976 C497.871,0.28899999999976 497.871,460.817 497.871,460.817 C497.871,527.527 481.039,579.445 447.873,615.125 ZM487.231,10.9520000000002 C487.231,10.9520000000002 371.068,10.9520000000002 371.068,10.9520000000002 C371.068,10.9520000000002 371.068,460.817 371.068,460.817 C371.068,520.131 344.678,550.206 292.642,550.206 C292.642,550.206 11.11,550.206 11.11,550.206 C11.11,550.206 11.11,652.78 11.11,652.78 C11.11,652.78 299.791,652.78 299.791,652.78 C365.084,652.78 412.299,637.659 440.059,607.836 C471.352,574.22 487.231,524.733 487.231,460.817 C487.231,460.817 487.231,10.9520000000002 487.231,10.9520000000002 ZM159.813,616.998 C159.813,616.998 223.65,553.017 223.65,553.017 C223.65,553.017 231.217,560.558 231.217,560.558 C231.217,560.558 167.38,624.539 167.38,624.539 C167.38,624.539 159.813,616.998 159.813,616.998 ZM74.696,627.661 C74.696,627.661 149.173,553.017 149.173,553.017 C149.173,553.017 156.74,560.558 156.74,560.558 C156.74,560.558 82.263,635.202 82.263,635.202 C82.263,635.202 74.696,627.661 74.696,627.661 Z "/></svg>