<svg id="图层_1" data-name="图层 1" xmlns="http://www.w3.org/2000/svg" viewBox="0 0 148.67 130"><defs><style>.cls-1{fill:#00bde4;}.cls-2{fill:none;stroke:#00bde4;stroke-miterlimit:10;stroke-width:1.95px;}</style></defs><title>DMOS-LOGO</title><circle class="cls-1" cx="103.85" cy="10.51" r="2.24"/><path class="cls-2" d="M103.8,81.7a6.37,6.37,0,0,0,4.85-2.1,5.86,5.86,0,0,0,2.08,1.52q.25-1.27.47-2.54A5.86,5.86,0,0,1,108.83,77,6.3,6.3,0,0,1,104,79a6.65,6.65,0,0,1-3.31-.86,23.27,23.27,0,0,1-.42,2.56A6.69,6.69,0,0,0,103.8,81.7Z"/><path class="cls-2" d="M82.93,81.53a6.92,6.92,0,0,0,1.48.17,6.37,6.37,0,0,0,4.85-2.1,6.65,6.65,0,0,0,9.69,0l.2.21q.55-1,1.08-2a5.52,5.52,0,0,1-1-.89,6.57,6.57,0,0,1-9.58,0A6.3,6.3,0,0,1,84.89,79a6.87,6.87,0,0,1-1.5-.17A4.09,4.09,0,0,0,82.93,81.53Z"/><path class="cls-2" d="M94.11,84.52a6.37,6.37,0,0,1-4.85-2.1,6.37,6.37,0,0,1-4.85,2.1h0c.49.68,1.12,1.52,1.82,2.43A5.9,5.9,0,0,0,89,85.19a6.24,6.24,0,0,0,4.74,2.05l.55,0c.7-.94,1.43-2,2.18-3.12A6.86,6.86,0,0,1,94.11,84.52Z"/><path class="cls-2" d="M108,88a6.51,6.51,0,0,1-9.49,0,5.46,5.46,0,0,1-.95.86c-.49,1.14-1,2.18-1.39,3.08a5.69,5.69,0,0,0,1.66-1.3,6.57,6.57,0,0,0,9.58,0,5.42,5.42,0,0,0,.67.65q.41-1.24.77-2.5A5.44,5.44,0,0,1,108,88Z"/><path class="cls-2" d="M89.68,74.17a6.57,6.57,0,0,0,9.58,0,6.57,6.57,0,0,0,9.58,0,6,6,0,0,0,2.79,1.77q.2-1.37.37-2.73a5.86,5.86,0,0,1-2.57-1.69,6.51,6.51,0,0,1-9.49,0,6.51,6.51,0,0,1-9.49,0,5.65,5.65,0,0,1-1.65,1.29c-1.19,1.28-2.33,2.45-3.23,3.39A6.19,6.19,0,0,0,89.68,74.17Z"/><path class="cls-2" d="M90.68,66a6.37,6.37,0,0,1-4.85,2.1,6.93,6.93,0,0,1-2-.3c-.08,1-.17,1.91-.26,2.67a6.76,6.76,0,0,0,1.88.33,60,60,0,0,0,6.24-3.88A5.59,5.59,0,0,1,90.68,66Z"/><path class="cls-2" d="M84,65a7,7,0,0,0,1.81.25,6.37,6.37,0,0,0,4.85-2.1A6.12,6.12,0,0,0,94,65.12c.5-.42,1-.84,1.39-1.26a8.88,8.88,0,0,1-.63,1.38,7.12,7.12,0,0,0,.72,0,6.37,6.37,0,0,0,4.85-2.1,6.65,6.65,0,0,0,9.69,0,6,6,0,0,0,2.63,1.73c.67-14.18-1.33-26.41-3.59-31.18-4.46-9.43-7.77-10.09-14.39-10.09H81.48c-1.06,4.51-.28,11.3,1.6,20.34C84.39,50.29,84.37,58.81,84,65Z"/><path class="cls-2" d="M102.63,95.46a6.3,6.3,0,0,1-4.79-2.07A6,6,0,0,1,94.9,95.2,3.34,3.34,0,0,0,96,98.66c.88.88,2.87,2.2,4.85,8.16a65.56,65.56,0,0,0,6.49-13.33A6.32,6.32,0,0,1,102.63,95.46Z"/><path class="cls-2" d="M89,88a5.53,5.53,0,0,1-1.21,1c.84,1.06,1.69,2.09,2.43,2.94a14.19,14.19,0,0,0,2-2.1A6,6,0,0,1,89,88Z"/><path class="cls-2" d="M110.06,66a6.65,6.65,0,0,1-9.69,0,6.37,6.37,0,0,1-4.85,2.1,6.87,6.87,0,0,1-2.34-.41c-.5.67-1.05,1.36-1.63,2a6.5,6.5,0,0,0,3.64,1.08,6.24,6.24,0,0,0,4.74-2.05,6.51,6.51,0,0,0,9.49,0,5.91,5.91,0,0,0,2.86,1.78q.14-1.45.24-2.88A6,6,0,0,1,110.06,66Z"/><path class="cls-2" d="M103.26,87.24A6.24,6.24,0,0,0,108,85.19a5.6,5.6,0,0,0,1.5,1.22q.36-1.36.67-2.74a5.73,5.73,0,0,1-1.53-1.24,6.37,6.37,0,0,1-4.85,2.1,6.56,6.56,0,0,1-4.12-1.4c-.25.82-.52,1.64-.81,2.44A6.33,6.33,0,0,0,103.26,87.24Z"/><path class="cls-2" d="M84.09,63.66c4.11-7,5.21-16.69,5.41-20.18s-.36-9.17,5-19.84h-13c-1.06,4.51-.28,11.3,1.6,20.34C84.3,49.84,84.37,57.6,84.09,63.66Z"/><path class="cls-2" d="M51.84,83.5a7.62,7.62,0,0,1-5.69-2.37,7.37,7.37,0,0,1-4.47,2.27c.22.77.49,1.63.84,2.6a7,7,0,0,0,2.7-1.82,8.1,8.1,0,0,0,11.49,0l.14.14c.57-.81,1.11-1.6,1.6-2.36a6.39,6.39,0,0,1-.93-.84A7.62,7.62,0,0,1,51.84,83.5Z"/><path class="cls-2" d="M45.23,87.41a6.7,6.7,0,0,1-1.66,1.33q.38,1,.84,2c.11-.11.23-.22.33-.33a7.62,7.62,0,0,0,5,2.38q1.61-1.62,3-3.21A8.62,8.62,0,0,1,51,89.8,7.69,7.69,0,0,1,45.23,87.41Z"/><path class="cls-2" d="M73.95,89.8a7.69,7.69,0,0,1-5.74-2.39,7.69,7.69,0,0,1-5.74,2.39A8.28,8.28,0,0,1,58.83,89q-.52,1.4-1.05,2.66a8.21,8.21,0,0,0,4.39,1.23A7.78,7.78,0,0,0,68,90.45a7.78,7.78,0,0,0,5.81,2.42h0q.47-1.52.91-3.11C74.47,89.78,74.21,89.8,73.95,89.8Z"/><path class="cls-2" d="M61.52,99.26a7.62,7.62,0,0,0,5.69-2.37,7.37,7.37,0,0,0,4.44,2.26q.57-1.51,1.12-3.1A7.58,7.58,0,0,1,68,93.71a7.78,7.78,0,0,1-5.81,2.42,7.89,7.89,0,0,1-5.47-2.08,34.46,34.46,0,0,1-2.19,4,6.53,6.53,0,0,0,1.33-1.12A7.62,7.62,0,0,0,61.52,99.26Z"/><path class="cls-2" d="M47,95.38a7.54,7.54,0,0,1-.84-.45l.39.87Z"/><path class="cls-2" d="M68.91,81.14a7.62,7.62,0,0,1-5.69,2.37,8.44,8.44,0,0,1-2.47-.36q-.45,1.56-.93,3a8.47,8.47,0,0,0,2.64.42,7.69,7.69,0,0,0,5.74-2.39,7.69,7.69,0,0,0,5.74,2.39,8.62,8.62,0,0,0,1.66-.16c.25-1,.49-2,.71-3.08a8.54,8.54,0,0,1-1.71.17A7.62,7.62,0,0,1,68.91,81.14Z"/><path class="cls-2" d="M100.61,3.19C88.7-.12,72.17,3,64.45,4.51s-20.06.88-21.61.88c1.76,3.31,5.73,5.51,7.06,6.17s3.09,1.1,7.72-.22S68,9.14,71.06,9.58c-6,1.1-27.34,5.73-35.28,18.08,7.94-2.87,16.54-1.76,18.74-1.32C47,27.22,38.87,30.53,35.79,33s-3.75,2.43-4,15.21c8.6-5.07,19.84-6.39,22.27-6.17C46.37,44.42,37.77,51.47,36,53.9S32.26,59.19,37.11,72C45.49,62.28,55,58.09,57,57.43A79.68,79.68,0,0,0,43.26,73.51a7.2,7.2,0,0,0,3.17-2,8.2,8.2,0,0,0,11.63,0,8.2,8.2,0,0,0,11.63,0,7.78,7.78,0,0,0,5.81,2.42A8.62,8.62,0,0,0,78,73.56a129.39,129.39,0,0,0-.74-36.42c-1.76-11.91-.44-22,10.36-24.69-4.41,3.31-5.07,6.17-5.29,7.94H92.89c6.34,0,11.47-.33,14.77,5.29C114.72,18.84,112.52,6.49,100.61,3.19ZM100,12.37c-.33-1.76-.87-3.18-1.74-3.81h5.09a3.39,3.39,0,1,1,0,6.78S100.7,15.61,100,12.37Z"/><path class="cls-2" d="M68,107.59a6.66,6.66,0,0,1-1.51-1.23,8.1,8.1,0,0,1-11.49,0,7.07,7.07,0,0,1-2.94,1.91c.55,1.62,1.37,3.58,2.45,6A21.72,21.72,0,0,1,56.07,126S62.14,119.71,68,107.59Z"/><path class="cls-2" d="M69.68,74.76a7.78,7.78,0,0,1-5.81,2.42A8.73,8.73,0,0,1,62.31,77q-.35,1.6-.74,3.12a8.55,8.55,0,0,0,1.65.16,7.62,7.62,0,0,0,5.69-2.37,7.62,7.62,0,0,0,5.69,2.37A8.45,8.45,0,0,0,77,80q.27-1.49.51-3a8.71,8.71,0,0,1-2,.23A7.78,7.78,0,0,1,69.68,74.76Z"/><path class="cls-2" d="M52.24,77.18a7.78,7.78,0,0,1-5.81-2.42,7.62,7.62,0,0,1-5,2.38,6.23,6.23,0,0,0-.4,3.15,7.51,7.51,0,0,0,5.11-2.34,8,8,0,0,0,11.38,0,6.86,6.86,0,0,0,2.38,1.69c.6-1,1.12-1.94,1.59-2.79a7.27,7.27,0,0,1-3.44-2.08A7.78,7.78,0,0,1,52.24,77.18Z"/><path class="cls-2" d="M60.76,105.53a7.69,7.69,0,0,0,5.74-2.39A7,7,0,0,0,69.24,105q.63-1.39,1.24-2.87a7.09,7.09,0,0,1-3.27-2,8,8,0,0,1-11.38,0,7.33,7.33,0,0,1-4.26,2.24,6.05,6.05,0,0,0-.26,2.95A7.26,7.26,0,0,0,55,103.14,7.69,7.69,0,0,0,60.76,105.53Z"/></svg>