<?xml version="1.0" encoding="utf-8"?><!DOCTYPE svg PUBLIC "-//W3C//DTD SVG 1.1//EN" "http://www.w3.org/Graphics/SVG/1.1/DTD/svg11.dtd"><svg version="1.1" baseProfile="full" xmlns="http://www.w3.org/2000/svg" xmlns:xlink="http://www.w3.org/1999/xlink" xmlns:ev="http://www.w3.org/2001/xml-events"   height="195px"   width="178px" ><path fill="rgb( 0, 189, 226 )" d="M173.953,5.15200000000004 C173.953,5.15200000000004 173.953,32.326 173.953,32.326 C173.953,32.326 69.9569999999999,32.326 69.9569999999999,32.326 C59.221,32.326 51.9609999999998,34.451 47.7860000000001,38.7979999999998 C44.645,42.0200000000004 43.1170000000002,47.1000000000004 43.1170000000002,54.3280000000004 C43.1170000000002,54.3280000000004 43.1170000000002,126.444 43.1170000000002,126.444 C43.1170000000002,146.489 44.4250000000002,151.366 45.8229999999999,153.63 C49.4969999999998,159.661 56.3290000000002,162.719 66.1300000000001,162.719 C66.1300000000001,162.719 173.953,162.719 173.953,162.719 C173.953,162.719 173.953,189.893 173.953,189.893 C173.953,189.893 44.5459999999998,189.893 44.5459999999998,189.893 C32.1219999999998,189.893 22.4299999999998,186.008 14.895,177.993 C7.59700000000021,170.344 4.04799999999977,160.18 4.04799999999977,146.915 C4.04799999999977,146.915 4.04799999999977,44.7489999999998 4.04799999999977,44.7489999999998 C4.04799999999977,33.8879999999999 7.59700000000021,24.8890000000001 14.8789999999999,17.2569999999996 C22.7440000000001,9.11099999999988 31.9940000000001,5.15200000000004 43.1529999999998,5.15200000000004 C43.1529999999998,5.15200000000004 173.953,5.15200000000004 173.953,5.15200000000004 M177.999,0.99099999999999 C177.999,0.99099999999999 43.1529999999998,0.99099999999999 43.1529999999998,0.99099999999999 C30.9749999999999,0.99099999999999 20.5920000000001,5.43599999999969 12.0079999999998,14.326 C4.00599999999986,22.7139999999999 0.00199999999995,32.8549999999996 0.00199999999995,44.7489999999998 C0.00199999999995,44.7489999999998 0.00199999999995,146.915 0.00199999999995,146.915 C0.00199999999995,161.188 4.00599999999986,172.521 12.0079999999998,180.907 C20.2440000000001,189.669 31.0900000000001,194.054 44.5459999999998,194.054 C44.5459999999998,194.054 177.999,194.054 177.999,194.054 C177.999,194.054 177.999,158.559 177.999,158.559 C177.999,158.559 66.1300000000001,158.559 66.1300000000001,158.559 C57.777,158.559 52.152,156.182 49.252,151.421 C47.8600000000001,149.168 47.163,140.842 47.163,126.444 C47.163,126.444 47.163,54.3280000000004 47.163,54.3280000000004 C47.163,48.3180000000002 48.3229999999999,44.1229999999996 50.6439999999998,41.7449999999999 C54.0070000000001,38.2420000000002 60.4459999999999,36.4859999999999 69.9569999999999,36.4859999999999 C69.9569999999999,36.4859999999999 177.999,36.4859999999999 177.999,36.4859999999999 C177.999,36.4859999999999 177.999,0.99099999999999 177.999,0.99099999999999 C177.999,0.99099999999999 177.999,0.99099999999999 177.999,0.99099999999999 Z "/></svg>