<svg id="图层_1" data-name="图层 1" xmlns="http://www.w3.org/2000/svg" viewBox="0 0 148.67 130"><defs><style>.cls-1{fill:#00bde4;fill-rule:evenodd;}</style></defs><title>DMOS-LOGO</title><path class="cls-1" d="M97.19,34.73c3.18,4.15,4,5.27,8.77,11.26a117.59,117.59,0,0,1-4.71,13.36c-4.62.41-9.39.68-14.22.78-2.42-4.25-4.55-8-6.93-12.76,2.06-3.84,4-7.51,6-12,3.76-.09,7.48-.29,11.07-.61ZM76.37,47.3l8.71,16.36,18.49-1,6-17.28L98.36,31.3l-14.23.78L76.37,47.3Z"/><path class="cls-1" d="M44.59,69.76c1.23,1.89,2.54,3.89,4.75,6.87Q46.66,80,44,83.41c-3.66-.12-7.25-.32-10.69-.6A73.39,73.39,0,0,1,29,75.52c1.89-2.08,3-3.27,5.89-6.31,3.14.25,6.4.44,9.7.55Zm.95,16.45c2.52-3.17,5-6.35,7.52-9.55a73.26,73.26,0,0,1-6.73-9.56q-6.28-.16-12.54-.71c-2.77,2.86-5.54,5.72-8.19,8.69a94.37,94.37,0,0,0,6,10.34c4.65.4,9.3.65,14,.79Z"/><path class="cls-1" d="M110.89,39q-2.71-3.15-5.45-6.28l-3.82-4.39c.29-4.24.43-6.62-.27-10.36,2-.37,3.88-.79,5.58-1.26,3.39,2.56,6.64,5,10.77,8.52a44.07,44.07,0,0,1,2.51,11.71c-2.81.78-5.94,1.47-9.32,2.06Zm-5.41-25A35.11,35.11,0,0,1,98,15.35c.89,4.52.79,9.42.67,14L109.92,42.6l13.44-3L120,23.84S108,15.07,105.48,14Z"/><path class="cls-1" d="M106.23,10.92A33.26,33.26,0,0,0,98.57,4s1-.41,1.05-.45c3.73,1.24,6.71,2.89,11.64,5.11a47.11,47.11,0,0,1,9.14,8.3,17.71,17.71,0,0,1-2.82,1.64c-3.16-2.29-6.49-4.67-11.36-7.73ZM124,18.42S118,11.16,112.14,7L96.81,1.31l-3.49,2s7.47,4.67,11.05,9.11l14.46,9.26L124,18.42Z"/><path class="cls-1" d="M135.8,51.66A114.48,114.48,0,0,0,127.66,41a55.37,55.37,0,0,0-2.49-12.59,21.8,21.8,0,0,0,3.82-2.3,76.16,76.16,0,0,1,8.48,8.75,62.75,62.75,0,0,1,3.38,13.7,25,25,0,0,1-5.05,3.07ZM121.62,26.29a64.88,64.88,0,0,1,3.21,15.83,145.49,145.49,0,0,1,10.24,13.67,29.6,29.6,0,0,0,8.44-5.12,77.65,77.65,0,0,0-4.15-17.14,99.66,99.66,0,0,0-11.19-11.24,22.6,22.6,0,0,1-6.54,4Z"/><path class="cls-1" d="M124.64,48.68a116.29,116.29,0,0,1,7.72,11,89.39,89.39,0,0,1-3.72,14.78A119.06,119.06,0,0,1,117,77.07c-2.24-3.84-3.76-6.42-7.62-12.14A102.64,102.64,0,0,0,114.06,51c3.83-.67,7.39-1.46,10.58-2.35Zm-9.51,32.24a126.3,126.3,0,0,0,15.58-3.46,102.5,102.5,0,0,0,4.66-18.56,151,151,0,0,0-10-14.06,117.22,117.22,0,0,1-14,3.11,135.25,135.25,0,0,1-6,17.41c3.38,5.09,6.69,10.23,9.68,15.56Z"/><path class="cls-1" d="M86.6,97.91c-2.7-4.24-4.73-7.44-7.28-11.73,1.83-3.12,4.46-7.63,7.53-13.17,5.07-.1,10.1-.37,14.94-.8,2.14,3.44,4.39,7.06,7.36,12.22-2.19,3.7-4.5,7.56-8.14,12.7-4.69.41-9.54.67-14.42.77Zm17-29.4c-6.25.6-12.53.93-18.81,1-3.11,5.57-6.26,11.13-9.52,16.62q4.56,7.59,9.37,15,9.08-.13,18.12-1c3.68-5.19,7.19-10.48,10.34-16-3.06-5.29-6.21-10.52-9.5-15.68Z"/><path class="cls-1" d="M61.82,40.2A62.44,62.44,0,0,1,60.3,28.42c5-5.52,6.5-7.24,8.53-9.56,2.29.25,4.69.44,7.12.56A71.2,71.2,0,0,0,79.63,29.7C78,32.77,76.34,36,73.29,41.09c-3.92-.18-7.77-.47-11.47-.88Zm-2.6,3.12c2,.52,15.75,1.23,15.75,1.23s8-14.69,8-14.81a102.65,102.65,0,0,1-4.7-13.29,78.53,78.53,0,0,1-10.1-.75L57.31,27.58a71.66,71.66,0,0,0,1.91,15.75Z"/><path class="cls-1" d="M61.27,111.21c-2.67-3-5.23-5.85-8.5-10.22,1.11-2.6,2.33-5.38,4.78-10,4.56.51,9.31.87,14.15,1.09,2.36,3.73,4,6.37,7.37,11.25-4,6-4.85,7.18-5.92,8.82-4.06-.18-8.06-.49-11.89-.92Zm21.81-7.89c-3.23-4.8-6.41-9.62-9.43-14.56q-9.09-.33-18.1-1.41A144.76,144.76,0,0,0,49.14,101c3.43,4.47,7,8.8,10.87,12.91,5,.59,10,1,15,1.15,2.66-3.93,5.36-7.84,8.06-11.75Z"/><path class="cls-1" d="M34.77,40.84c2.6-2.82,5.33-5.75,9.74-9.92a81.63,81.63,0,0,0,8,2,66.63,66.63,0,0,0,1.38,12.56c-3.11,4.12-5.63,7.45-8.56,11.64A102.31,102.31,0,0,1,35,54.55a66.85,66.85,0,0,1-.24-13.72ZM32.35,57.37a110.86,110.86,0,0,0,14.27,3.57q5.22-7.5,10.7-14.81a80.31,80.31,0,0,1-1.81-16,86.71,86.71,0,0,1-11.1-2.76c-4.25,4-8.49,8-12.34,12.33a84,84,0,0,0,.29,17.71Z"/><path class="cls-1" d="M8.2,95.14a61,61,0,0,1-4.45-9.26,47.33,47.33,0,0,1,3.11-7.2c2.13.65,4.49,1.23,7.05,1.74A90.34,90.34,0,0,0,18.06,90c-1.13,2.25-2.21,4.41-3.18,6.86A67.81,67.81,0,0,1,8.2,95.14Zm7.7-17.36A81,81,0,0,1,5.68,75.21a60.55,60.55,0,0,0-4.6,10.38A76.45,76.45,0,0,0,6.83,97.5a75.23,75.23,0,0,0,9.91,2.44q2-5,4.53-9.81A112.76,112.76,0,0,1,15.9,77.78Z"/><path class="cls-1" d="M56.31,120.08c-2.23-.47-4.28-1-6.13-1.58a84.37,84.37,0,0,1-10.74-8.74A17.67,17.67,0,0,1,38,103.18c2.84.85,6,1.62,9.43,2.29a125,125,0,0,0,9.06,9.81,15.82,15.82,0,0,0-.2,4.79Zm3.51-5.21a144.69,144.69,0,0,1-11.08-12.19A103.4,103.4,0,0,1,35,99.2c.08,4,.26,7.3,1.93,11.06,1.77,1.64,10.2,8.69,12.87,10.45,2.83,1.36,7,1.9,10.1,2.48a16.85,16.85,0,0,1-.12-8.32Z"/><path class="cls-1" d="M143.64,61.12a38.24,38.24,0,0,1,1.88,10.22c-2.34,11.24-4,14.29-4.28,14.78a23.59,23.59,0,0,1-4.89,3.09,43.89,43.89,0,0,0-2.12-9.82,88.64,88.64,0,0,0,4.13-15.2,30.14,30.14,0,0,0,5.28-3.06Zm4,9.71a51,51,0,0,0-3.12-14.75A30.17,30.17,0,0,1,136,61.47a146.73,146.73,0,0,1-4.94,18.3c.49,0,2.6,11.4,2.74,13.83C137,92.22,140,91,142.47,88.5c2.12-5.13,4.87-12.1,5.2-17.68Z"/><path class="cls-1" d="M94.58,121.82c-3.11.28-6.34.45-9.6.52-1.63-2-3.27-3.91-4.9-5.86,2.06-2.72,4.13-5.43,6.18-8.15,4.56-.09,9.08-.33,13.45-.71a58.61,58.61,0,0,1,3.32,7.25,102.93,102.93,0,0,1-8.44,7Zm12-6.6a96.25,96.25,0,0,0-4.72-10.85q-8.65.84-17.35.94c-2.76,3.74-5.54,7.46-8.26,11.23L80,120.86l3.45,4c4-.05,7.93-.33,11.87-.62a123.43,123.43,0,0,0,11.25-9Z"/><path class="cls-1" d="M112,121a36.4,36.4,0,0,1-14.27,6,.76.76,0,0,1-1-.87,118.49,118.49,0,0,0,10.74-7.72c2.59-.45,5-1,7.26-1.53-.73,1.27-1.06,2.88-2.7,4.16Zm7.33-8.09c-5.23,2.15-12.73,3-12.73,3s-11.46,10.34-12.8,10.95l.52,1.37c6-1.1,12.36-2.68,19-7.06.82-.53,5.75-6.06,6-8.21Z"/><path class="cls-1" d="M122,113.88a17.25,17.25,0,0,0,1-2.22,90.81,90.81,0,0,0,9.71-11.24,32.61,32.61,0,0,0,3-1.58c-3,5.78-8.8,11.06-13.77,15Zm11-16-11.11,13.33c.06.75-3.56,7.3-3.56,7.3,10.78-6.76,18.34-15.43,23-27.3a19.72,19.72,0,0,1-8.36,6.67Z"/><path class="cls-1" d="M111.23,110a46.75,46.75,0,0,0-3.19-8,126.81,126.81,0,0,0,8.51-12.38c4.17-.72,8-1.57,11.49-2.53a39,39,0,0,1,1.83,9.28c-6.05,8.65-8.51,11-9,11.49a98,98,0,0,1-9.63,2.17Zm21.55-13.55A53.27,53.27,0,0,0,130.11,83a125.07,125.07,0,0,1-15.4,3.46,169.5,169.5,0,0,1-10.55,15.47,39.88,39.88,0,0,1,4.55,11.29,105.22,105.22,0,0,0,12.1-2.61l12-14.2Z"/></svg>