<?xml version="1.0" encoding="utf-8"?>
<!-- Generator: Adobe Illustrator 18.0.0, SVG Export Plug-In . SVG Version: 6.00 Build 0)  -->
<!DOCTYPE svg PUBLIC "-//W3C//DTD SVG 1.1//EN" "http://www.w3.org/Graphics/SVG/1.1/DTD/svg11.dtd">
<svg version="1.1" id="图层_1" xmlns="http://www.w3.org/2000/svg" xmlns:xlink="http://www.w3.org/1999/xlink" x="0px" y="0px"
	 viewBox="0 0 512 512" enable-background="new 0 0 512 512" xml:space="preserve">
<g id="XMLID_747_">
	<g id="XMLID_594_">
		<g id="XMLID_713_">
			<path id="XMLID_714_" fill="#4DA0DA" d="M262.1,201.9H61.7c-19.2,0-34.7-15.6-34.7-34.7v-5c0-19.2,15.6-34.7,34.7-34.7H262
				c19.2,0,34.7,15.6,34.7,34.7v5C296.8,186.4,281.2,201.9,262.1,201.9z M61.7,133.9c-15.7,0-28.4,12.7-28.4,28.4v5
				c0,15.7,12.7,28.4,28.4,28.4H262c15.7,0,28.4-12.7,28.4-28.4v-5c0-15.7-12.7-28.4-28.4-28.4C262.1,133.9,61.7,133.9,61.7,133.9z"
				/>
		</g>
		<g id="XMLID_702_">
			<g id="XMLID_711_">
				<circle id="XMLID_712_" fill="#4DA0DA" cx="70" cy="164.8" r="15.8"/>
			</g>
			<g id="XMLID_709_">
				<circle id="XMLID_710_" fill="#4DA0DA" cx="131.3" cy="164.8" r="15.8"/>
			</g>
			<g id="XMLID_705_">
				<circle id="XMLID_707_" fill="#4DA0DA" cx="192.5" cy="164.8" r="15.8"/>
			</g>
			<g id="XMLID_703_">
				<circle id="XMLID_704_" fill="#4DA0DA" cx="253.7" cy="164.8" r="15.8"/>
			</g>
		</g>
		<g id="XMLID_687_">
			<g id="XMLID_698_">
				<path id="XMLID_699_" fill="#4DA0DA" d="M94.8,117.8H64.9c-6.6,0-11.8-5.3-11.8-11.8V72.8c0-6.6,5.3-11.8,11.8-11.8h29.9
					c6.6,0,11.8,5.3,11.8,11.8v33.1C106.6,112.4,101.3,117.8,94.8,117.8z M64.9,63.5c-5.2,0-9.4,4.2-9.4,9.4V106
					c0,5.2,4.2,9.4,9.4,9.4h29.9c5.2,0,9.4-4.2,9.4-9.4V72.8c0-5.2-4.2-9.4-9.4-9.4L64.9,63.5L64.9,63.5z"/>
			</g>
			<g id="XMLID_688_">
				<g id="XMLID_695_">
					<rect id="XMLID_696_" x="62.7" y="72.1" fill="#4DA0DA" width="2.5" height="34.5"/>
				</g>
				<g id="XMLID_693_">
					<rect id="XMLID_694_" x="73.3" y="72.1" fill="#4DA0DA" width="2.5" height="34.5"/>
				</g>
				<g id="XMLID_691_">
					<rect id="XMLID_692_" x="83.8" y="72.1" fill="#4DA0DA" width="2.5" height="34.5"/>
				</g>
				<g id="XMLID_689_">
					<rect id="XMLID_690_" x="94.3" y="72.1" fill="#4DA0DA" width="2.5" height="34.5"/>
				</g>
			</g>
		</g>
		<g id="XMLID_670_">
			<g id="XMLID_681_">
				<path id="XMLID_682_" fill="#4DA0DA" d="M163.7,117.8h-29.9c-6.6,0-11.8-5.3-11.8-11.8V72.8c0-6.6,5.3-11.8,11.8-11.8h29.9
					c6.6,0,11.8,5.3,11.8,11.8v33.1C175.6,112.4,170.3,117.8,163.7,117.8z M133.8,63.5c-5.2,0-9.4,4.2-9.4,9.4V106
					c0,5.2,4.2,9.4,9.4,9.4h29.9c5.2,0,9.4-4.2,9.4-9.4V72.8c0-5.2-4.2-9.4-9.4-9.4L133.8,63.5L133.8,63.5z"/>
			</g>
			<g id="XMLID_671_">
				<g id="XMLID_679_">
					<rect id="XMLID_680_" x="131.8" y="72.1" fill="#4DA0DA" width="2.5" height="34.5"/>
				</g>
				<g id="XMLID_677_">
					<rect id="XMLID_678_" x="142.2" y="72.1" fill="#4DA0DA" width="2.5" height="34.5"/>
				</g>
				<g id="XMLID_674_">
					<rect id="XMLID_676_" x="152.8" y="72.1" fill="#4DA0DA" width="2.5" height="34.5"/>
				</g>
				<g id="XMLID_672_">
					<rect id="XMLID_673_" x="163.3" y="72.1" fill="#4DA0DA" width="2.5" height="34.5"/>
				</g>
			</g>
		</g>
		<g id="XMLID_654_">
			<g id="XMLID_666_">
				<path id="XMLID_667_" fill="#4DA0DA" d="M232.7,117.8h-29.9c-6.6,0-11.8-5.3-11.8-11.8V72.8c0-6.6,5.3-11.8,11.8-11.8h29.9
					c6.6,0,11.8,5.3,11.8,11.8v33.1C244.5,112.4,239.3,117.8,232.7,117.8z M202.8,63.5c-5.2,0-9.4,4.2-9.4,9.4V106
					c0,5.2,4.2,9.4,9.4,9.4h29.9c5.2,0,9.4-4.2,9.4-9.4V72.8c0-5.2-4.2-9.4-9.4-9.4L202.8,63.5L202.8,63.5z"/>
			</g>
			<g id="XMLID_655_">
				<g id="XMLID_663_">
					<rect id="XMLID_665_" x="200.7" y="72.1" fill="#4DA0DA" width="2.5" height="34.5"/>
				</g>
				<g id="XMLID_660_">
					<rect id="XMLID_661_" x="211.2" y="72.1" fill="#4DA0DA" width="2.5" height="34.5"/>
				</g>
				<g id="XMLID_658_">
					<rect id="XMLID_659_" x="221.8" y="72.1" fill="#4DA0DA" width="2.5" height="34.5"/>
				</g>
				<g id="XMLID_656_">
					<rect id="XMLID_657_" x="232.2" y="72.1" fill="#4DA0DA" width="2.5" height="34.5"/>
				</g>
			</g>
		</g>
		<g id="XMLID_637_">
			<g id="XMLID_649_">
				<path id="XMLID_650_" fill="#4DA0DA" d="M304.8,129.7c-1.3,0-2.5-0.2-3.8-0.6l-28.4-9.6c-3-1-5.5-3.1-6.8-6
					c-1.4-2.8-1.7-6.1-0.6-9.1l10.6-31.3c2.1-6.2,8.8-9.6,15.1-7.4l28.4,9.6c6.2,2.1,9.6,8.8,7.4,15.1l-10.6,31.3
					C314.4,126.5,309.8,129.7,304.8,129.7z M301.9,126.6c2.3,0.8,4.9,0.6,7.1-0.5s3.9-3,4.7-5.4l10.6-31.3c1.7-4.9-1-10.2-5.9-11.8
					L290,68c-4.9-1.7-10.2,1-11.8,5.9l-10.6,31.3c-0.8,2.3-0.6,4.9,0.5,7.1c1.1,2.2,3,3.9,5.4,4.7L301.9,126.6z"/>
			</g>
			<g id="XMLID_638_">
				<g id="XMLID_647_">
					
						<rect id="XMLID_648_" x="279.8" y="75.1" transform="matrix(0.9477 0.3191 -0.3191 0.9477 44.1582 -84.8583)" fill="#4DA0DA" width="2.5" height="34.5"/>
				</g>
				<g id="XMLID_645_">
					
						<rect id="XMLID_646_" x="289.7" y="78.4" transform="matrix(0.9477 0.3191 -0.3191 0.9477 45.7176 -87.8441)" fill="#4DA0DA" width="2.5" height="34.5"/>
				</g>
				<g id="XMLID_643_">
					
						<rect id="XMLID_644_" x="299.7" y="81.8" transform="matrix(0.9477 0.3191 -0.3191 0.9477 47.3328 -90.8561)" fill="#4DA0DA" width="2.5" height="34.5"/>
				</g>
				<g id="XMLID_639_">
					
						<rect id="XMLID_641_" x="309.6" y="85.2" transform="matrix(0.9477 0.3191 -0.3191 0.9477 48.9319 -93.8396)" fill="#4DA0DA" width="2.5" height="34.5"/>
				</g>
			</g>
		</g>
		<g id="XMLID_622_">
			<g id="XMLID_633_">
				<path id="XMLID_634_" fill="#4DA0DA" d="M347.6,200.9c-1.7,0-3.2-0.4-4.8-1.1l-32.3-14.4c-6-2.6-8.7-9.7-6.1-15.7l13.4-30.2
					c1.3-2.9,3.6-5.1,6.6-6.3c2.9-1.2,6.2-1.1,9.1,0.2l32.3,14.4c6,2.6,8.7,9.7,6.1,15.7l-13.4,30.2c-1.3,2.9-3.6,5.1-6.6,6.3
					C350.5,200.7,349,200.9,347.6,200.9z M328.7,135.1c-1.2,0-2.2,0.2-3.3,0.6c-2.3,0.9-4.2,2.6-5.2,4.9l-13.4,30.2
					c-2.1,4.7,0,10.3,4.7,12.3l32.3,14.4c2.2,1,4.8,1.1,7.1,0.2c2.3-0.9,4.2-2.6,5.2-4.9l13.4-30.2c2.1-4.7,0-10.3-4.7-12.3
					l-32.3-14.4C331.3,135.3,330,135.1,328.7,135.1z"/>
			</g>
			<g id="XMLID_623_">
				<g id="XMLID_630_">
					
						<rect id="XMLID_632_" x="321.1" y="142.3" transform="matrix(0.9137 0.4063 -0.4063 0.9137 92.6169 -117.1974)" fill="#4DA0DA" width="2.5" height="34.5"/>
				</g>
				<g id="XMLID_628_">
					
						<rect id="XMLID_629_" x="331.5" y="147.1" transform="matrix(0.9137 0.4063 -0.4063 0.9137 95.5022 -121.0154)" fill="#4DA0DA" width="2.5" height="34.5"/>
				</g>
				<g id="XMLID_626_">
					
						<rect id="XMLID_627_" x="342.1" y="151.8" transform="matrix(0.9137 0.4063 -0.4063 0.9137 98.2935 -124.948)" fill="#4DA0DA" width="2.5" height="34.5"/>
				</g>
				<g id="XMLID_624_">
					
						<rect id="XMLID_625_" x="352.9" y="156.5" transform="matrix(0.9137 0.4063 -0.4063 0.9137 101.146 -128.9232)" fill="#4DA0DA" width="2.5" height="34.5"/>
				</g>
			</g>
		</g>
		<g id="XMLID_616_">
			<path id="XMLID_617_" fill="#4DA0DA" d="M335.2,264.7c-6.4,0-11.6-5.1-11.8-11.4l-1.1-29.9c-0.1-3.1,1-6.2,3.1-8.5
				s5.1-3.6,8.2-3.8l33.1-1.2c6.6-0.3,12,4.9,12.3,11.4l1.1,29.9c0.2,6.6-4.9,12-11.4,12.3l-33.1,1.2
				C335.5,264.7,335.3,264.7,335.2,264.7z M325.9,253.2c0.2,5.2,4.5,9.2,9.7,9l33.1-1.2c5.2-0.2,9.2-4.5,9-9.7l-1.1-29.9
				c-0.2-5.2-4.6-9.2-9.7-9l-33.1,1.2c-2.5,0.1-4.8,1.2-6.5,2.9c-1.7,1.9-2.5,4.2-2.5,6.7L325.9,253.2z"/>
		</g>
		<g id="XMLID_606_">
			<g id="XMLID_612_">
				
					<rect id="XMLID_613_" x="349.7" y="205" transform="matrix(3.662978e-02 0.9993 -0.9993 3.662978e-02 560.2711 -136.5998)" fill="#51A5DC" width="2.5" height="34.5"/>
			</g>
			<g id="XMLID_610_">
				
					<rect id="XMLID_611_" x="350" y="215.5" transform="matrix(3.662978e-02 0.9993 -0.9993 3.662978e-02 570.9706 -126.8753)" fill="#51A5DC" width="2.5" height="34.5"/>
			</g>
			<g id="XMLID_607_">
				
					<rect id="XMLID_608_" x="350.5" y="226.1" transform="matrix(3.662978e-02 0.9993 -0.9993 3.662978e-02 582.0237 -117.0849)" fill="#51A5DC" width="2.5" height="34.5"/>
			</g>
		</g>
		<g id="XMLID_601_">
			<g id="XMLID_602_">
				<path id="XMLID_603_" fill="#4DA0DA" d="M228.3,238.2l71,94.1c14.1,18.7,21.7,41.4,21.7,64.8v53.4c0,10.2,8.2,18.3,18.3,18.3
					H369c10.2,0,18.3-8.2,18.3-18.3v-53.3c0-23.4,7.6-46.1,21.7-64.8l71-94.1c7.3-9.7,0.4-23.5-11.7-23.5H240
					C227.9,214.8,221,228.6,228.3,238.2z"/>
			</g>
		</g>
		<g id="XMLID_595_">
			<path id="XMLID_597_" fill="#FFFFFF" d="M338.4,310.3v-10.1c-7.2-5.2-12-13.8-12-23.4c0-6.8,2.4-13.5,6.9-18.7
				c1.8-2.1,4.8-2.2,6.7-0.5c2.1,1.8,2.2,4.8,0.5,6.7c-2.9,3.4-4.6,7.9-4.6,12.4c0,10.6,8.6,19.2,19.2,19.2s19.2-8.6,19.2-19.2
				c0-4.6-1.7-9-4.6-12.4c-1.8-2.1-1.5-5.1,0.5-6.7c2.1-1.8,5.1-1.5,6.7,0.5c4.5,5.2,6.9,11.8,6.9,18.7c0,9.6-4.7,18.1-12,23.4v10.1
				h13.1c11.5-0.4,20.7-9.9,20.7-21.5c0-8.8-5.3-16.3-12.9-19.8c0.1-0.9,0.1-1.8,0.1-2.6c0-16.3-13.2-29.5-29.5-29.5
				c-9.7,0-18.2,4.6-23.6,11.7c-2.4-1.4-5.3-2.2-8.3-2.2c-9.3,0-16.7,7.5-16.7,16.7c0,2,0.3,3.7,1,5.5c-8,3.1-13.7,11-13.7,20.1
				c0,11.9,9.7,21.5,21.5,21.5L338.4,310.3L338.4,310.3L338.4,310.3z M355.2,289.5c-6.7,0-12-5.4-12-12c0-6.7,5.4-12,12-12
				s12,5.4,12,12C367.1,284.1,361.7,289.5,355.2,289.5z"/>
		</g>
	</g>
	<rect id="XMLID_592_" x="333" y="340" fill="#FFFFFF" width="42.1" height="4.7"/>
	<rect id="XMLID_591_" x="333" y="361.6" fill="#FFFFFF" width="42.1" height="4.7"/>
	<rect id="XMLID_590_" x="333" y="383.1" fill="#FFFFFF" width="42.1" height="4.7"/>
	<rect id="XMLID_589_" x="333" y="404.7" fill="#FFFFFF" width="42.1" height="4.7"/>
	<rect id="XMLID_588_" x="333" y="426.3" fill="#FFFFFF" width="42.1" height="4.7"/>
	<rect id="XMLID_587_" x="333" y="448" fill="#FFFFFF" width="42.1" height="4.7"/>
</g>
</svg>
