<?xml version="1.0" encoding="utf-8"?>
<!-- Generator: Adobe Illustrator 18.0.0, SVG Export Plug-In . SVG Version: 6.00 Build 0)  -->
<!DOCTYPE svg PUBLIC "-//W3C//DTD SVG 1.1//EN" "http://www.w3.org/Graphics/SVG/1.1/DTD/svg11.dtd">
<svg version="1.1" id="图层_1" xmlns:ev="http://www.w3.org/2001/xml-events"
	 xmlns="http://www.w3.org/2000/svg" xmlns:xlink="http://www.w3.org/1999/xlink" x="0px" y="0px" viewBox="0 0 283.5 283.5"
	 enable-background="new 0 0 283.5 283.5" xml:space="preserve">
<path fill="#FFFFFF" d="M109.5,283.5c-51.5,0-93.3-41.9-93.3-93.3S58,96.8,109.5,96.8c51.5,0,93.3,41.9,93.3,93.3
	c0,5-0.4,9.9-1.1,14.6c-0.1,0.8-0.9,1.4-1.7,1.2c-0.8-0.1-1.4-0.9-1.2-1.7c0.7-4.6,1.1-9.3,1.1-14.2c0-49.8-40.5-90.3-90.3-90.3
	s-90.3,40.5-90.3,90.3c0,49.8,40.5,90.3,90.3,90.3c36.4,0,69.2-21.7,83.3-55.3c0.6-1.4,1-2.4,1.4-3.5c0.3-0.8,1.1-1.2,1.9-0.9
	c0.8,0.3,1.2,1.1,0.9,1.9c-0.4,1.1-0.8,2.2-1.5,3.7C180.9,261,147.1,283.5,109.5,283.5z"/>
<path fill="#FFFFFF" d="M141,138.4h-6.9L111.9,179c-1.1,1.6-2.1,4-3,7.1h-0.4c-0.4-1.4-1.5-3.7-3.3-6.9l-22-40.9h-7.3l26.9,49.2
	H78.4v6H105v17.6H78.4v6H105v23.7h6.6v-23.7h26.7v-6h-26.7v-17.6h26.7v-6h-24.6L141,138.4z"/>
<path fill="#FFFFFF" d="M212.2,281.1c-1,0-2.1,0-3.1-0.1c-13.2-1.1-24.8-9.3-30.3-21.3c-0.3-0.8,0-1.6,0.7-2c0.8-0.3,1.6,0,2,0.7
	c5.1,11.1,15.8,18.6,27.8,19.6c9,0.8,17.7-2,24.6-7.9c6.9-5.8,11.1-14,11.9-22.9c0.8-9-2-17.7-7.9-24.6c-5.8-6.9-14-11.1-22.9-11.9
	c-9-0.8-17.7,2-24.6,7.9c-6.9,5.8-11.1,14-11.9,22.9c-0.1,0.8-0.8,1.4-1.6,1.4c-0.8-0.1-1.4-0.8-1.4-1.6c0.8-9.8,5.4-18.6,12.9-25
	c7.5-6.3,17-9.4,26.8-8.6c9.8,0.8,18.6,5.4,25,12.9c6.3,7.5,9.4,17,8.6,26.8c-0.8,9.8-5.4,18.6-12.9,25
	C229.1,278.1,220.8,281.1,212.2,281.1z"/>
<path fill="#FEFEFF" d="M219.7,260c1.4-1.5,2-3.4,2-5.7c0-1.8-0.6-3.5-1.7-4.8c-1.2-1.4-3.2-2.8-6.1-4.5v-14.6
	c2.5,0,4.6,0.5,6.3,1.5v-2.5c-1.7-0.7-3.8-1-6.3-1V224H212v4.3c-2.4,0.4-4.3,1.4-5.8,3c-1.4,1.6-2.1,3.5-2.1,5.7
	c0,1.8,0.5,3.4,1.6,4.7c1,1.3,3.1,2.9,6.3,4.7v14.4c-2.8,0-5.4-0.8-7.9-2.4v2.5c2.3,1.3,4.9,1.9,7.9,1.9v5h1.9v-5.1
	C216.4,262.5,218.3,261.5,219.7,260z M212,244c-2.3-1.3-3.7-2.5-4.5-3.5c-0.7-1-1.1-2.3-1.1-3.7c0-1.7,0.5-3.1,1.5-4.2
	c1-1.2,2.4-1.8,4-2.1L212,244L212,244z M218.2,251.1c0.8,1,1.2,2.3,1.2,3.8c0,1.6-0.5,2.9-1.4,4c-0.9,1.1-2.3,1.8-4.1,2.1v-13.2
	C216,248.9,217.5,250,218.2,251.1z"/>
<path fill="#FFFFFF" d="M153.8,1.7c-0.1,0.3-0.2,0.5-0.3,0.7c-0.2,0.2-0.4,0.4-0.6,0.5s-0.5,0.2-0.8,0.3s-0.7,0-1-0.1
	c-0.2-0.1-0.4-0.1-0.6-0.2c-0.2-0.1-0.4-0.2-0.5-0.4c-0.2-0.2-0.3-0.3-0.4-0.5c-0.1-0.2-0.2-0.4-0.2-0.6c-0.1,0.2-0.3,0.3-0.4,0.4
	s-0.3,0.2-0.5,0.2c-0.2,0.1-0.4,0.1-0.5,0.1c-0.2,0-0.4,0-0.6-0.1c-0.3-0.1-0.6-0.2-0.8-0.3c-0.2-0.2-0.4-0.3-0.6-0.5
	s-0.3-0.4-0.3-0.6c-0.1-0.2-0.1-0.5,0-0.7s0.2-0.5,0.3-0.6c0.2-0.2,0.3-0.3,0.6-0.5c0.2-0.1,0.5-0.2,0.7-0.2c0.3-0.1,0.5,0,0.8,0.1
	c0.2,0.1,0.4,0.1,0.5,0.2c0.2,0.1,0.3,0.2,0.5,0.3c0.2,0.1,0.3,0.3,0.4,0.4s0.2,0.3,0.2,0.5c0.1-0.2,0.3-0.3,0.5-0.5
	s0.4-0.2,0.6-0.3c0.2-0.1,0.4-0.1,0.6-0.1s0.4,0,0.6,0.1c0.4,0.1,0.7,0.2,0.9,0.4c0.3,0.2,0.5,0.4,0.6,0.6s0.3,0.5,0.3,0.7
	C153.9,1.2,153.9,1.4,153.8,1.7z M149.2,0.2c-0.1-0.2-0.1-0.3-0.3-0.5c-0.1-0.2-0.3-0.3-0.4-0.4s-0.4-0.2-0.6-0.3
	C147.8-1,147.6-1,147.4-1s-0.4,0.1-0.6,0.2c-0.2,0.1-0.3,0.2-0.4,0.3c-0.1,0.2-0.2,0.3-0.2,0.5c-0.1,0.2-0.1,0.4,0,0.5
	c0.1,0.2,0.2,0.3,0.3,0.5s0.3,0.3,0.4,0.4s0.4,0.2,0.6,0.2c0.2,0.1,0.4,0.1,0.6,0.1s0.4-0.1,0.6-0.2c0.2-0.1,0.3-0.2,0.4-0.3
	c0.1-0.2,0.2-0.3,0.2-0.5C149.2,0.5,149.2,0.4,149.2,0.2z M153.4,1c-0.1-0.2-0.2-0.4-0.3-0.6s-0.3-0.3-0.5-0.4
	c-0.2-0.1-0.5-0.2-0.7-0.3s-0.5-0.1-0.7-0.1s-0.5,0.1-0.6,0.2c-0.2,0.1-0.4,0.2-0.5,0.4c-0.2,0.2-0.3,0.4-0.3,0.6
	c-0.1,0.2-0.1,0.4,0,0.6c0.1,0.2,0.2,0.4,0.3,0.6c0.2,0.2,0.3,0.3,0.5,0.4c0.2,0.1,0.5,0.2,0.7,0.3s0.5,0.1,0.8,0.1
	c0.3,0,0.5-0.1,0.6-0.2c0.2-0.1,0.4-0.2,0.5-0.4c0.1-0.2,0.2-0.4,0.3-0.6C153.4,1.4,153.4,1.2,153.4,1z M148.8,5.2
	c0.6,0.4,1.2,0.7,1.8,1c0.6,0.3,1.3,0.6,1.9,0.8l-0.1,0.5c-0.7-0.3-1.3-0.5-1.9-0.8s-1.2-0.6-1.7-1c-0.6-0.4-1.1-0.7-1.7-1.1
	c-0.5-0.4-1.1-0.8-1.6-1.2l-0.8,3.5l-0.5-0.1l0.9-4l0.2,0.1c0.6,0.5,1.2,0.9,1.8,1.3C147.7,4.4,148.2,4.8,148.8,5.2z M144.1,8.8
	c-0.1,0.3-0.1,0.6,0.1,0.9c0.2,0.3,0.4,0.6,0.7,0.8c0.3,0.3,0.7,0.5,1.2,0.7c0.5,0.2,1,0.4,1.6,0.5l0,0c-0.8-0.5-1.2-1.2-0.9-1.9
	c0.1-0.3,0.2-0.5,0.4-0.7c0.2-0.2,0.4-0.4,0.6-0.5s0.5-0.2,0.8-0.2c0.3,0,0.6,0,1,0.1s0.7,0.2,1,0.4c0.3,0.2,0.6,0.4,0.7,0.6
	c0.2,0.2,0.3,0.5,0.4,0.7c0.1,0.3,0.1,0.5,0,0.8c-0.1,0.3-0.2,0.6-0.4,0.7c-0.2,0.2-0.5,0.4-0.8,0.5c-0.4,0.1-0.7,0.2-1.2,0.1
	c-0.5,0-1-0.1-1.6-0.2c-0.7-0.2-1.3-0.4-1.8-0.6c-0.5-0.3-1-0.5-1.4-0.8c-0.4-0.3-0.6-0.6-0.7-1c-0.2-0.4-0.2-0.7-0.1-1.2
	c0.1-0.4,0.2-0.7,0.4-0.9l0.5,0.1C144.3,8.2,144.2,8.5,144.1,8.8z M148,11.8c0.2,0.1,0.4,0.2,0.7,0.3c0.3,0.1,0.6,0.1,0.9,0.1
	c0.3,0,0.6-0.1,0.8-0.2c0.3-0.1,0.4-0.2,0.6-0.4s0.3-0.4,0.3-0.6c0.1-0.2,0.1-0.4,0-0.6c-0.1-0.2-0.2-0.4-0.3-0.6
	c-0.2-0.2-0.4-0.3-0.6-0.5c-0.3-0.2-0.5-0.2-0.8-0.3c-0.3-0.1-0.6-0.1-0.9-0.1s-0.5,0.1-0.7,0.2c-0.2,0.1-0.4,0.2-0.5,0.4
	s-0.3,0.4-0.3,0.6c-0.1,0.2-0.1,0.4,0.1,0.6c0.1,0.2,0.2,0.4,0.3,0.6C147.6,11.5,147.8,11.7,148,11.8z M146.7,14.7
	c0.6,0.4,1.2,0.7,1.8,1c0.6,0.3,1.3,0.6,1.9,0.8l-0.1,0.5c-0.7-0.3-1.3-0.5-1.9-0.8c-0.6-0.3-1.2-0.6-1.7-1
	c-0.6-0.4-1.1-0.7-1.7-1.1s-1.1-0.8-1.6-1.2l-0.8,3.5l-0.5-0.1l0.9-4l0.2,0.1c0.6,0.5,1.2,0.9,1.8,1.3
	C145.5,14,146.1,14.4,146.7,14.7z M142.9,17.6c0.3-0.1,0.5,0,0.8,0.1c0.2,0.1,0.4,0.1,0.5,0.2c0.2,0.1,0.3,0.2,0.5,0.3
	c0.2,0.1,0.3,0.3,0.4,0.4s0.2,0.3,0.2,0.5c0.1-0.2,0.3-0.3,0.5-0.5c0.2-0.1,0.4-0.2,0.6-0.3c0.2-0.1,0.4-0.1,0.6-0.1s0.4,0,0.6,0.1
	c0.4,0.1,0.7,0.2,0.9,0.4s0.5,0.4,0.6,0.6c0.2,0.2,0.3,0.5,0.3,0.7s0.1,0.5,0,0.8c-0.1,0.3-0.2,0.5-0.3,0.7s-0.4,0.4-0.6,0.5
	c-0.3,0.1-0.5,0.2-0.8,0.3c-0.3,0.1-0.7,0-1-0.1c-0.2-0.1-0.4-0.1-0.6-0.2s-0.4-0.2-0.5-0.4s-0.3-0.3-0.4-0.5
	c-0.1-0.2-0.2-0.4-0.2-0.6c-0.1,0.2-0.3,0.3-0.4,0.4s-0.3,0.2-0.5,0.2c-0.2,0.1-0.4,0.1-0.5,0.1c-0.2,0-0.4,0-0.6-0.1
	c-0.3-0.1-0.6-0.2-0.8-0.3c-0.2-0.2-0.4-0.3-0.6-0.5s-0.3-0.4-0.3-0.6s-0.1-0.5,0-0.7c0.1-0.3,0.2-0.5,0.3-0.7
	c0.2-0.2,0.3-0.3,0.6-0.5C142.4,17.7,142.6,17.7,142.9,17.6z M145.4,20.5c0.1,0.2,0.2,0.4,0.3,0.6c0.1,0.2,0.3,0.3,0.5,0.4
	s0.5,0.2,0.7,0.3s0.5,0.1,0.8,0.1c0.3,0,0.5-0.1,0.6-0.2c0.2-0.1,0.4-0.2,0.5-0.4s0.2-0.4,0.3-0.6c0.1-0.2,0.1-0.4,0-0.6
	s-0.2-0.4-0.3-0.6c-0.2-0.2-0.3-0.3-0.5-0.4s-0.5-0.2-0.7-0.3s-0.5-0.1-0.7-0.1s-0.5,0.1-0.6,0.2c-0.2,0.1-0.4,0.2-0.5,0.4
	c-0.2,0.2-0.3,0.4-0.3,0.6C145.4,20.1,145.4,20.3,145.4,20.5z M141.8,19c-0.1,0.2-0.1,0.4,0,0.5s0.2,0.3,0.3,0.5
	c0.1,0.2,0.3,0.3,0.4,0.4s0.4,0.2,0.6,0.2c0.2,0.1,0.4,0.1,0.6,0.1s0.4-0.1,0.6-0.2c0.2-0.1,0.3-0.2,0.4-0.3
	c0.1-0.2,0.2-0.3,0.2-0.5c0.1-0.2,0.1-0.4,0-0.5c-0.1-0.2-0.1-0.3-0.3-0.5c-0.1-0.2-0.3-0.3-0.4-0.4s-0.4-0.2-0.6-0.3
	c-0.2-0.1-0.4-0.1-0.6-0.1s-0.4,0.1-0.6,0.2s-0.3,0.2-0.4,0.3C141.9,18.7,141.8,18.9,141.8,19z M142.7,22.5c0.2,0.1,0.4,0.1,0.5,0.2
	s0.3,0.2,0.5,0.3c0.2,0.1,0.3,0.3,0.4,0.4s0.2,0.3,0.2,0.5c0.1-0.2,0.3-0.3,0.5-0.5c0.2-0.1,0.4-0.2,0.6-0.3
	c0.2-0.1,0.4-0.1,0.6-0.1s0.4,0,0.6,0.1c0.4,0.1,0.7,0.2,0.9,0.4c0.3,0.2,0.5,0.4,0.6,0.6s0.3,0.5,0.3,0.7s0.1,0.5,0,0.8
	c-0.1,0.3-0.2,0.5-0.3,0.7s-0.4,0.4-0.6,0.5c-0.3,0.1-0.5,0.2-0.8,0.3s-0.7,0-1-0.1c-0.2-0.1-0.4-0.1-0.6-0.2
	c-0.2-0.1-0.4-0.2-0.5-0.4c-0.2-0.2-0.3-0.3-0.4-0.5c-0.1-0.2-0.2-0.4-0.2-0.6c-0.1,0.2-0.3,0.3-0.4,0.4S143.2,26,143,26
	c-0.2,0.1-0.4,0.1-0.5,0.1c-0.2,0-0.4,0-0.6-0.1c-0.3-0.1-0.6-0.2-0.8-0.3c-0.2-0.2-0.4-0.3-0.6-0.5s-0.3-0.4-0.3-0.6
	c-0.1-0.2-0.1-0.5,0-0.7c0.1-0.3,0.2-0.5,0.3-0.6c0.2-0.2,0.3-0.3,0.6-0.5s0.5-0.2,0.7-0.2C142.1,22.4,142.4,22.4,142.7,22.5z
	 M144.3,25.3c0.1,0.2,0.2,0.4,0.3,0.6c0.1,0.2,0.3,0.3,0.5,0.4c0.2,0.1,0.5,0.2,0.7,0.3s0.5,0.1,0.8,0.1c0.3,0,0.5-0.1,0.6-0.2
	c0.2-0.1,0.4-0.2,0.5-0.4c0.1-0.2,0.2-0.4,0.3-0.6c0.1-0.2,0.1-0.4,0-0.6c-0.1-0.2-0.2-0.4-0.3-0.6c-0.1-0.2-0.3-0.3-0.5-0.4
	c-0.2-0.1-0.5-0.2-0.7-0.3s-0.5-0.1-0.7-0.1s-0.5,0.1-0.6,0.2c-0.2,0.1-0.4,0.2-0.5,0.4c-0.2,0.2-0.3,0.4-0.3,0.6
	S144.3,25.1,144.3,25.3z M141,23.4c-0.1,0.2-0.2,0.3-0.2,0.5c-0.1,0.2-0.1,0.4,0,0.5s0.2,0.3,0.3,0.5s0.3,0.3,0.4,0.4
	c0.2,0.1,0.4,0.2,0.6,0.2c0.2,0.1,0.4,0.1,0.6,0.1s0.4-0.1,0.6-0.2c0.2-0.1,0.3-0.2,0.4-0.3c0.1-0.2,0.2-0.3,0.2-0.5
	c0.1-0.2,0.1-0.4,0-0.5s-0.1-0.3-0.3-0.5c-0.1-0.2-0.3-0.3-0.4-0.4c-0.2-0.1-0.4-0.2-0.6-0.3c-0.2-0.1-0.4-0.1-0.6-0.1
	s-0.4,0.1-0.6,0.2S141.1,23.3,141,23.4z M141.6,27.4c0.2,0.1,0.4,0.1,0.5,0.2c0.2,0.1,0.3,0.2,0.5,0.3c0.2,0.1,0.3,0.3,0.4,0.4
	s0.2,0.3,0.2,0.5c0.1-0.2,0.3-0.3,0.5-0.5c0.2-0.1,0.4-0.2,0.6-0.3c0.2-0.1,0.4-0.1,0.6-0.1s0.4,0,0.6,0.1c0.4,0.1,0.7,0.2,0.9,0.4
	c0.3,0.2,0.5,0.4,0.6,0.6s0.3,0.5,0.3,0.7s0.1,0.5,0,0.8c-0.1,0.3-0.2,0.5-0.3,0.7s-0.4,0.4-0.6,0.5c-0.3,0.1-0.5,0.2-0.8,0.3
	s-0.7,0-1-0.1c-0.2-0.1-0.4-0.1-0.6-0.2c-0.2-0.1-0.4-0.2-0.5-0.4c-0.2-0.2-0.3-0.3-0.4-0.5c-0.1-0.2-0.2-0.4-0.2-0.6
	c-0.1,0.2-0.3,0.3-0.4,0.4s-0.3,0.2-0.5,0.2c-0.2,0.1-0.4,0.1-0.5,0.1c-0.2,0-0.4,0-0.6-0.1c-0.3-0.1-0.6-0.2-0.8-0.3
	c-0.2-0.2-0.4-0.3-0.6-0.5c-0.2-0.2-0.3-0.4-0.3-0.6c-0.1-0.2-0.1-0.5,0-0.7c0.1-0.3,0.2-0.5,0.3-0.6s0.3-0.3,0.6-0.5
	c0.2-0.1,0.5-0.2,0.7-0.2C141,27.3,141.3,27.3,141.6,27.4z M143.3,30.2c0.1,0.2,0.2,0.4,0.3,0.6c0.1,0.2,0.3,0.3,0.5,0.4
	c0.2,0.1,0.5,0.2,0.7,0.3c0.3,0.1,0.5,0.1,0.8,0.1c0.3-0.1,0.5-0.1,0.6-0.2c0.2-0.1,0.4-0.2,0.5-0.4c0.1-0.2,0.2-0.4,0.3-0.6
	s0.1-0.4,0-0.6c-0.1-0.2-0.2-0.4-0.3-0.6c-0.2-0.2-0.3-0.3-0.5-0.4c-0.2-0.1-0.5-0.2-0.7-0.3c-0.3-0.1-0.5-0.1-0.7-0.1
	s-0.5,0.1-0.6,0.2c-0.2,0.1-0.4,0.2-0.5,0.4c-0.2,0.2-0.3,0.4-0.3,0.6C143.2,29.8,143.2,30,143.3,30.2z M139.9,28.3
	c-0.1,0.2-0.2,0.3-0.2,0.5c-0.1,0.2-0.1,0.4,0,0.5s0.2,0.3,0.3,0.5s0.3,0.3,0.4,0.4c0.2,0.1,0.4,0.2,0.6,0.2
	c0.2,0.1,0.4,0.1,0.6,0.1s0.4-0.1,0.6-0.2c0.2-0.1,0.3-0.2,0.4-0.3c0.1-0.1,0.2-0.3,0.2-0.5c0.1-0.2,0.1-0.4,0-0.5s-0.1-0.3-0.3-0.5
	c-0.1-0.2-0.3-0.3-0.4-0.4s-0.4-0.2-0.6-0.3c-0.2-0.1-0.4-0.1-0.6-0.1s-0.4,0.1-0.6,0.2C140.1,28,140,28.1,139.9,28.3z M142.6,32.4
	c1.4,0.3,2.4,0.7,3,1.2c0.6,0.5,0.9,1.1,0.7,1.7c-0.2,0.6-0.6,1-1.3,1.2s-1.8,0.2-3-0.2c-1.4-0.3-2.5-0.7-3.1-1.3s-0.9-1.1-0.7-1.8
	C138.4,32.1,139.9,31.8,142.6,32.4z M138.5,33.5c-0.1,0.5,0.1,0.9,0.7,1.4c0.6,0.4,1.5,0.8,2.7,1c1.2,0.3,2,0.3,2.7,0.2
	c0.7-0.2,1-0.5,1.2-0.9s-0.1-0.9-0.7-1.4c-0.6-0.4-1.4-0.7-2.6-1C140.1,32.3,138.8,32.5,138.5,33.5z M139.4,37.1
	c0.2,0.1,0.4,0.1,0.5,0.2c0.2,0.1,0.3,0.2,0.5,0.3c0.2,0.1,0.3,0.3,0.4,0.4s0.2,0.3,0.2,0.5c0.1-0.2,0.3-0.3,0.5-0.5
	c0.2-0.1,0.4-0.2,0.6-0.3c0.2-0.1,0.4-0.1,0.6-0.1s0.4,0,0.6,0.1c0.4,0.1,0.7,0.2,0.9,0.4c0.3,0.2,0.5,0.4,0.6,0.6s0.3,0.5,0.3,0.7
	s0.1,0.5,0,0.8c-0.1,0.3-0.2,0.5-0.3,0.7s-0.4,0.4-0.6,0.5c-0.3,0.1-0.5,0.2-0.8,0.3s-0.7,0-1-0.1c-0.2-0.1-0.4-0.1-0.6-0.2
	c-0.2-0.1-0.4-0.2-0.5-0.4c-0.2-0.2-0.3-0.3-0.4-0.5c-0.1-0.2-0.2-0.4-0.2-0.6c-0.1,0.2-0.3,0.3-0.4,0.4s-0.3,0.2-0.5,0.2
	c-0.2,0.1-0.4,0.1-0.5,0.1c-0.2,0-0.4,0-0.6-0.1c-0.3-0.1-0.6-0.2-0.8-0.3c-0.2-0.2-0.4-0.3-0.6-0.5s-0.3-0.4-0.3-0.6
	c-0.1-0.2-0.1-0.5,0-0.7c0.1-0.3,0.2-0.5,0.3-0.6c0.2-0.2,0.3-0.3,0.6-0.5c0.2-0.1,0.5-0.2,0.7-0.2C138.8,37,139.1,37,139.4,37.1z
	 M141.1,39.8c0.1,0.2,0.2,0.4,0.3,0.6c0.2,0.2,0.3,0.3,0.5,0.4c0.2,0.1,0.5,0.2,0.7,0.3s0.5,0.1,0.8,0.1s0.5-0.1,0.6-0.2
	c0.2-0.1,0.4-0.2,0.5-0.4c0.1-0.2,0.2-0.4,0.3-0.6c0.1-0.2,0.1-0.4,0-0.6c-0.1-0.2-0.2-0.4-0.3-0.6c-0.1-0.2-0.3-0.3-0.5-0.4
	c-0.2-0.1-0.5-0.2-0.7-0.3s-0.5-0.1-0.7-0.1s-0.5,0.1-0.6,0.2c-0.2,0.1-0.4,0.2-0.5,0.4c-0.2,0.2-0.3,0.4-0.3,0.6
	C141,39.4,141,39.6,141.1,39.8z M137.7,38c-0.1,0.2-0.2,0.3-0.2,0.5c-0.1,0.2-0.1,0.4,0,0.5s0.2,0.3,0.3,0.5s0.3,0.3,0.4,0.4
	s0.4,0.2,0.6,0.2c0.2,0.1,0.4,0.1,0.6,0.1s0.4-0.1,0.6-0.2c0.2-0.1,0.3-0.2,0.4-0.3c0.1-0.2,0.2-0.3,0.2-0.5c0.1-0.2,0.1-0.4,0-0.5
	s-0.1-0.3-0.3-0.5c-0.1-0.2-0.3-0.3-0.4-0.4s-0.4-0.2-0.6-0.3c-0.2-0.1-0.4-0.1-0.6-0.1s-0.4,0.1-0.6,0.2
	C137.9,37.7,137.8,37.8,137.7,38z M138.3,41.9c0.2,0.1,0.4,0.1,0.5,0.2c0.2,0.1,0.3,0.2,0.5,0.3c0.2,0.1,0.3,0.3,0.4,0.4
	s0.2,0.3,0.2,0.5c0.1-0.2,0.3-0.3,0.5-0.5c0.2-0.1,0.4-0.2,0.6-0.3c0.2-0.1,0.4-0.1,0.6-0.1s0.4,0,0.6,0.1c0.4,0.1,0.7,0.2,0.9,0.4
	c0.3,0.2,0.5,0.4,0.6,0.6s0.3,0.5,0.3,0.7s0.1,0.5,0,0.8c-0.1,0.3-0.2,0.5-0.3,0.7s-0.4,0.4-0.6,0.5c-0.3,0.1-0.5,0.2-0.8,0.3
	s-0.7,0-1-0.1c-0.2-0.1-0.4-0.1-0.6-0.2c-0.2-0.1-0.4-0.2-0.5-0.4c-0.2-0.2-0.3-0.3-0.4-0.5c-0.1-0.2-0.2-0.4-0.2-0.6
	c-0.1,0.2-0.3,0.3-0.4,0.4s-0.3,0.2-0.5,0.2c-0.2,0.1-0.4,0.1-0.5,0.1c-0.2,0-0.4,0-0.6-0.1c-0.3-0.1-0.6-0.2-0.8-0.3
	c-0.2-0.2-0.4-0.3-0.6-0.5c-0.2-0.2-0.3-0.4-0.3-0.6s-0.1-0.5,0-0.7c0.1-0.3,0.2-0.5,0.3-0.7c0.2-0.2,0.3-0.3,0.6-0.5
	c0.2-0.1,0.5-0.2,0.7-0.2C137.8,41.8,138,41.8,138.3,41.9z M140,44.7c0.1,0.2,0.2,0.4,0.3,0.6c0.1,0.2,0.3,0.3,0.5,0.4
	c0.2,0.1,0.5,0.2,0.7,0.3c0.3,0.1,0.5,0.1,0.8,0.1c0.3,0,0.5-0.1,0.6-0.2c0.2-0.1,0.4-0.2,0.5-0.4c0.1-0.2,0.2-0.4,0.3-0.6
	s0.1-0.4,0-0.6c-0.1-0.2-0.2-0.4-0.3-0.6c-0.1-0.2-0.3-0.3-0.5-0.4c-0.2-0.1-0.5-0.2-0.7-0.3s-0.5-0.1-0.7-0.1s-0.5,0.1-0.6,0.2
	c-0.2,0.1-0.4,0.2-0.5,0.4c-0.2,0.2-0.3,0.4-0.3,0.6C140,44.3,140,44.5,140,44.7z M136.6,42.8c-0.1,0.2-0.2,0.3-0.2,0.5
	c-0.1,0.2-0.1,0.4,0,0.5s0.2,0.3,0.3,0.5s0.3,0.3,0.4,0.4s0.4,0.2,0.6,0.2c0.2,0.1,0.4,0.1,0.6,0.1s0.4-0.1,0.6-0.2
	c0.2-0.1,0.3-0.2,0.4-0.3c0.1-0.2,0.2-0.3,0.2-0.5c0.1-0.2,0.1-0.4,0-0.5s-0.1-0.3-0.3-0.5c-0.1-0.2-0.3-0.3-0.4-0.4
	s-0.4-0.2-0.6-0.3c-0.2-0.1-0.4-0.1-0.6-0.1s-0.4,0.1-0.6,0.2C136.9,42.5,136.7,42.6,136.6,42.8z M137.2,46.7c0.5,0,1,0.1,1.6,0.2
	c0.7,0.2,1.4,0.4,1.9,0.6c0.5,0.3,1,0.5,1.4,0.8c0.4,0.3,0.6,0.6,0.7,1c0.2,0.4,0.2,0.8,0.1,1.2c-0.1,0.3-0.2,0.6-0.4,0.9l-0.6-0.1
	c0.3-0.3,0.5-0.6,0.5-0.9c0.2-0.7-0.1-1.3-0.6-1.8c-0.6-0.5-1.5-0.9-2.8-1.2l0,0c0.8,0.5,1.1,1.2,0.9,1.9c-0.1,0.3-0.2,0.5-0.4,0.7
	c-0.2,0.2-0.4,0.4-0.6,0.5c-0.3,0.1-0.5,0.2-0.8,0.2c-0.3,0-0.6,0-1-0.1s-0.7-0.2-1-0.4c-0.3-0.2-0.5-0.4-0.7-0.6s-0.3-0.5-0.4-0.7
	c-0.1-0.3-0.1-0.5,0-0.8c0.1-0.3,0.2-0.5,0.4-0.7c0.2-0.2,0.5-0.4,0.8-0.5C136.4,46.7,136.8,46.7,137.2,46.7z M135.3,48.1
	c-0.1,0.2-0.1,0.4,0,0.6s0.2,0.4,0.3,0.6c0.2,0.2,0.4,0.3,0.6,0.5c0.2,0.1,0.5,0.2,0.8,0.3c0.3,0.1,0.6,0.1,0.9,0.1s0.5-0.1,0.7-0.2
	c0.2-0.1,0.4-0.2,0.5-0.4c0.2-0.2,0.2-0.4,0.3-0.6s0.1-0.4,0-0.6c-0.1-0.2-0.2-0.4-0.3-0.6c-0.2-0.2-0.3-0.3-0.5-0.4
	c-0.2-0.1-0.4-0.2-0.7-0.3c-0.3-0.1-0.7-0.1-0.9-0.1c-0.3,0-0.6,0.1-0.8,0.2s-0.4,0.2-0.6,0.4C135.4,47.7,135.3,47.9,135.3,48.1z
	 M138.2,51.7c1.4,0.3,2.4,0.7,3,1.2c0.6,0.5,0.9,1.1,0.7,1.7c-0.2,0.6-0.6,1-1.3,1.2s-1.8,0.2-3-0.2c-1.4-0.3-2.5-0.7-3.1-1.3
	s-0.9-1.1-0.7-1.8C134,51.5,135.5,51.2,138.2,51.7z M134.2,52.9c-0.1,0.5,0.1,0.9,0.7,1.4c0.6,0.4,1.5,0.8,2.7,1
	c1.2,0.3,2,0.3,2.7,0.2c0.7-0.2,1-0.4,1.2-0.9c0.1-0.5-0.1-0.9-0.7-1.4c-0.6-0.4-1.4-0.7-2.6-1C135.8,51.7,134.4,51.9,134.2,52.9z
	 M135.1,56.3c0.5,0,1,0.1,1.6,0.2c0.7,0.2,1.4,0.4,1.9,0.6c0.5,0.3,1,0.5,1.4,0.8c0.4,0.3,0.6,0.6,0.7,1c0.2,0.4,0.2,0.8,0.1,1.2
	c-0.1,0.3-0.2,0.6-0.4,0.9l-0.6-0.1c0.3-0.3,0.5-0.6,0.5-0.9c0.2-0.7-0.1-1.3-0.6-1.8c-0.6-0.5-1.5-0.9-2.8-1.2l0,0
	c0.8,0.5,1.1,1.2,0.9,1.9c-0.1,0.3-0.2,0.5-0.4,0.7c-0.2,0.2-0.4,0.4-0.6,0.5s-0.5,0.2-0.8,0.2c-0.3,0-0.6,0-1-0.1s-0.7-0.2-1-0.4
	s-0.5-0.4-0.7-0.6c-0.2-0.2-0.3-0.5-0.4-0.7c-0.1-0.3-0.1-0.5,0-0.8c0.1-0.3,0.2-0.5,0.4-0.7c0.2-0.2,0.5-0.4,0.8-0.5
	C134.2,56.3,134.6,56.3,135.1,56.3z M133.1,57.8c-0.1,0.2-0.1,0.4,0,0.6c0.1,0.2,0.2,0.4,0.3,0.6s0.4,0.3,0.6,0.5
	c0.2,0.1,0.5,0.2,0.8,0.3c0.3,0.1,0.6,0.1,0.9,0.1s0.5-0.1,0.7-0.2s0.4-0.2,0.5-0.4s0.2-0.4,0.3-0.6c0.1-0.2,0.1-0.4,0-0.6
	c-0.1-0.2-0.2-0.4-0.3-0.6c-0.2-0.2-0.3-0.3-0.5-0.5c-0.2-0.1-0.4-0.2-0.7-0.3c-0.3-0.1-0.7-0.1-0.9-0.1s-0.6,0.1-0.8,0.2
	c-0.2,0.1-0.4,0.2-0.6,0.4C133.3,57.4,133.2,57.6,133.1,57.8z M134,61.2c0.5,0,1,0.1,1.6,0.2c0.7,0.2,1.4,0.4,1.9,0.6
	c0.5,0.3,1,0.5,1.4,0.8c0.4,0.3,0.6,0.6,0.7,1c0.2,0.4,0.2,0.8,0.1,1.2c-0.1,0.3-0.2,0.6-0.4,0.9l-0.6-0.1c0.3-0.3,0.5-0.6,0.5-0.9
	c0.2-0.7-0.1-1.3-0.6-1.8c-0.6-0.5-1.5-0.9-2.8-1.2l0,0c0.8,0.5,1.1,1.2,0.9,1.9c-0.1,0.3-0.2,0.5-0.4,0.7c-0.2,0.2-0.4,0.4-0.6,0.5
	s-0.5,0.2-0.8,0.2c-0.3,0-0.6,0-1-0.1s-0.7-0.2-1-0.4s-0.5-0.4-0.7-0.6c-0.2-0.2-0.3-0.5-0.4-0.7c-0.1-0.3-0.1-0.5,0-0.8
	c0.1-0.3,0.2-0.5,0.4-0.7c0.2-0.2,0.5-0.4,0.8-0.5C133.1,61.2,133.5,61.2,134,61.2z M132,62.6c-0.1,0.2-0.1,0.4,0,0.6
	s0.2,0.4,0.3,0.6c0.2,0.2,0.4,0.3,0.6,0.5c0.2,0.1,0.5,0.2,0.8,0.3c0.3,0.1,0.6,0.1,0.9,0.1s0.5-0.1,0.7-0.2s0.4-0.2,0.5-0.4
	s0.2-0.4,0.3-0.6c0.1-0.2,0.1-0.4,0-0.6s-0.2-0.4-0.3-0.6c-0.2-0.2-0.3-0.3-0.5-0.5c-0.2-0.1-0.4-0.2-0.7-0.3
	c-0.3-0.1-0.7-0.1-0.9-0.1c-0.3,0-0.6,0.1-0.8,0.2s-0.4,0.2-0.6,0.4C132.2,62.2,132.1,62.4,132,62.6z M135,66.2
	c1.4,0.3,2.4,0.7,3,1.2c0.6,0.5,0.9,1.1,0.7,1.7s-0.6,1-1.3,1.2c-0.7,0.2-1.8,0.2-3-0.2c-1.4-0.3-2.5-0.7-3.1-1.3s-0.9-1.1-0.7-1.8
	C130.8,66,132.3,65.7,135,66.2z M131,67.4c-0.1,0.5,0.1,0.9,0.7,1.4c0.6,0.4,1.5,0.8,2.7,1c1.2,0.3,2,0.3,2.7,0.2
	c0.7-0.2,1-0.5,1.2-0.9c0.1-0.5-0.1-0.9-0.7-1.4s-1.4-0.7-2.6-1C132.5,66.2,131.2,66.4,131,67.4z M133.9,71.1c1.4,0.3,2.4,0.7,3,1.2
	c0.6,0.5,0.9,1.1,0.7,1.7s-0.6,1-1.3,1.2c-0.7,0.2-1.8,0.2-3-0.2c-1.4-0.3-2.5-0.7-3.1-1.3s-0.9-1.1-0.7-1.8
	C129.7,70.8,131.2,70.5,133.9,71.1z M129.8,72.2c-0.1,0.5,0.1,0.9,0.7,1.4c0.6,0.4,1.5,0.8,2.7,1c1.2,0.3,2,0.3,2.7,0.2
	c0.7-0.2,1-0.5,1.2-0.9c0.1-0.5-0.1-0.9-0.7-1.4s-1.4-0.7-2.6-1C131.4,71,130.1,71.2,129.8,72.2z M136.6,77.8l-7.3-1.6
	c0.2,0.3,0.4,0.6,0.5,0.9c0.1,0.3,0.2,0.6,0.3,1l-0.5-0.1c-0.1-0.2-0.1-0.4-0.2-0.6c-0.1-0.2-0.2-0.4-0.2-0.5
	c-0.1-0.2-0.2-0.4-0.3-0.5c-0.1-0.2-0.2-0.4-0.4-0.5l0.1-0.2l8.1,1.8L136.6,77.8z M132.1,79.3c1.4,0.3,2.4,0.7,3,1.2
	c0.6,0.5,0.9,1.1,0.7,1.7s-0.6,1-1.3,1.2c-0.7,0.2-1.8,0.2-3-0.2c-1.4-0.3-2.5-0.7-3.1-1.3s-0.9-1.1-0.7-1.8
	C127.9,79,129.4,78.7,132.1,79.3z M128,80.4c-0.1,0.5,0.1,0.9,0.7,1.4c0.6,0.4,1.5,0.8,2.7,1c1.2,0.3,2,0.3,2.7,0.2
	c0.7-0.2,1-0.5,1.2-0.9c0.1-0.5-0.1-0.9-0.7-1.4c-0.6-0.4-1.4-0.7-2.6-1C129.6,79.2,128.3,79.4,128,80.4z M131,84.1
	c1.4,0.3,2.4,0.7,3,1.2c0.6,0.5,0.9,1.1,0.7,1.7s-0.6,1-1.3,1.2c-0.7,0.2-1.8,0.2-3-0.2c-1.4-0.3-2.5-0.7-3.1-1.3s-0.9-1.1-0.7-1.8
	C126.8,83.9,128.3,83.5,131,84.1z M127,85.3c-0.1,0.5,0.1,0.9,0.7,1.4c0.6,0.4,1.5,0.8,2.7,1c1.2,0.3,2,0.3,2.7,0.2
	c0.7-0.2,1-0.5,1.2-0.9c0.1-0.5-0.1-0.9-0.7-1.4c-0.6-0.4-1.4-0.7-2.6-1C128.5,84.1,127.2,84.3,127,85.3z"/>
<path fill="#FFFFFF" d="M157,51c-0.1,0.2-0.2,0.4-0.3,0.5s-0.3,0.3-0.5,0.4c-0.2,0.1-0.4,0.1-0.6,0.1c-0.3,0-0.5-0.1-0.8-0.1
	c-0.2-0.1-0.3-0.1-0.5-0.2c-0.2-0.1-0.3-0.2-0.4-0.3s-0.2-0.3-0.3-0.4s-0.1-0.3-0.2-0.5c-0.1,0.1-0.2,0.2-0.3,0.3
	c-0.1,0.1-0.3,0.1-0.4,0.2c-0.2,0.1-0.3,0.1-0.4,0.1s-0.3-0.1-0.4-0.1c-0.2-0.1-0.4-0.2-0.6-0.3c-0.2-0.1-0.3-0.3-0.4-0.4
	s-0.2-0.3-0.2-0.5s0-0.4,0.1-0.5c0.1-0.2,0.2-0.4,0.3-0.5c0.1-0.2,0.3-0.2,0.5-0.3c0.2-0.1,0.4-0.1,0.6-0.1c0.2,0,0.4,0.1,0.6,0.1
	c0.2,0.1,0.3,0.1,0.4,0.2c0.1,0.1,0.2,0.2,0.3,0.3c0.1,0.1,0.2,0.2,0.3,0.3c0.1,0.1,0.1,0.3,0.2,0.4c0.1-0.1,0.3-0.2,0.4-0.3
	c0.2-0.1,0.3-0.2,0.5-0.2c0.2-0.1,0.3-0.1,0.5-0.1c0.2,0,0.3,0.1,0.5,0.1c0.3,0.1,0.5,0.2,0.7,0.3c0.2,0.2,0.4,0.3,0.5,0.5
	s0.2,0.4,0.2,0.6C157.1,50.6,157,50.8,157,51z M153.6,49.5c0-0.2-0.1-0.3-0.2-0.4c-0.1-0.1-0.2-0.2-0.3-0.3
	c-0.1-0.1-0.3-0.2-0.4-0.2s-0.3-0.1-0.5-0.1c-0.2,0-0.3,0.1-0.4,0.1c-0.2,0.1-0.3,0.1-0.4,0.2c-0.1,0.1-0.2,0.2-0.2,0.4
	c-0.1,0.2-0.1,0.3-0.1,0.4c0.1,0.2,0.1,0.3,0.2,0.4c0.1,0.1,0.2,0.2,0.3,0.3c0.1,0.1,0.3,0.2,0.4,0.2s0.3,0.1,0.5,0.1
	c0.2,0,0.3-0.1,0.4-0.1c0.2-0.1,0.3-0.1,0.4-0.2c0.1-0.1,0.2-0.2,0.2-0.3C153.6,49.8,153.6,49.6,153.6,49.5z M156.7,50.4
	c0-0.2-0.1-0.3-0.2-0.4c-0.1-0.2-0.2-0.3-0.4-0.4s-0.3-0.2-0.5-0.3s-0.4-0.1-0.6-0.1c-0.2,0-0.4,0.1-0.5,0.1s-0.3,0.2-0.4,0.3
	s-0.2,0.3-0.3,0.4s-0.1,0.3-0.1,0.5s0.1,0.3,0.2,0.4c0.1,0.2,0.2,0.3,0.4,0.4s0.3,0.2,0.5,0.3s0.4,0.1,0.6,0.1
	c0.2,0,0.4-0.1,0.5-0.1s0.3-0.2,0.4-0.3s0.2-0.3,0.3-0.4C156.7,50.7,156.7,50.6,156.7,50.4z M153,53.3c0.4,0.3,0.8,0.6,1.3,0.9
	c0.4,0.3,0.9,0.5,1.4,0.7l-0.1,0.4c-0.5-0.2-0.9-0.5-1.4-0.7c-0.4-0.3-0.8-0.6-1.3-0.8c-0.4-0.3-0.8-0.6-1.2-0.9
	c-0.4-0.3-0.8-0.7-1.2-1l-0.8,2.6l-0.4-0.1l0.9-3l0.2,0.1c0.4,0.4,0.9,0.8,1.3,1.1C152.1,52.6,152.5,53,153,53.3z M149.1,55.8
	c-0.1,0.3-0.1,0.5,0,0.7c0.1,0.3,0.2,0.5,0.5,0.7c0.2,0.2,0.5,0.4,0.8,0.6c0.3,0.2,0.7,0.4,1.2,0.5l0,0c-0.6-0.5-0.8-0.9-0.6-1.5
	c0.1-0.2,0.2-0.4,0.3-0.5s0.3-0.2,0.5-0.3c0.2-0.1,0.4-0.1,0.7-0.1s0.5,0.1,0.7,0.1c0.3,0.1,0.5,0.2,0.8,0.4
	c0.2,0.2,0.4,0.3,0.5,0.5c0.2,0.2,0.2,0.4,0.3,0.6c0.1,0.2,0.1,0.4-0.1,0.6c-0.1,0.2-0.2,0.4-0.4,0.5c-0.2,0.2-0.4,0.3-0.7,0.3
	s-0.6,0.1-0.9,0s-0.7-0.2-1.2-0.3c-0.5-0.2-1-0.4-1.4-0.6c-0.4-0.2-0.7-0.5-0.9-0.7c-0.3-0.3-0.4-0.5-0.5-0.8s-0.1-0.6,0-0.9
	c0.1-0.3,0.2-0.5,0.4-0.7l0.4,0.1C149.3,55.3,149.2,55.5,149.1,55.8z M151.9,58.2c0.2,0.1,0.3,0.2,0.5,0.3c0.2,0.1,0.5,0.1,0.7,0.1
	c0.2,0,0.4,0,0.6-0.1s0.4-0.1,0.5-0.2c0.2-0.1,0.2-0.3,0.3-0.4s0.1-0.3,0-0.5c-0.1-0.2-0.1-0.3-0.2-0.5c-0.1-0.2-0.3-0.3-0.4-0.4
	s-0.4-0.2-0.6-0.3c-0.2-0.1-0.5-0.1-0.7-0.1c-0.2,0-0.4,0-0.6,0.1s-0.3,0.1-0.4,0.3c-0.1,0.1-0.2,0.3-0.3,0.4
	c-0.1,0.2-0.1,0.3,0,0.5s0.1,0.3,0.2,0.5C151.6,58,151.8,58.1,151.9,58.2z M150.7,60.4c0.4,0.3,0.8,0.6,1.3,0.9
	c0.4,0.3,0.9,0.5,1.4,0.7l-0.1,0.4c-0.5-0.2-0.9-0.5-1.4-0.7c-0.4-0.3-0.8-0.6-1.3-0.8c-0.4-0.3-0.8-0.6-1.2-0.9
	c-0.4-0.3-0.8-0.7-1.2-1l-0.8,2.6l-0.4-0.1l0.9-3l0.2,0.1c0.4,0.4,0.8,0.8,1.3,1.1C149.9,59.8,150.3,60.1,150.7,60.4z M148.3,62.5
	c0.2,0.1,0.3,0.1,0.4,0.2c0.1,0.1,0.2,0.2,0.3,0.3c0.1,0.1,0.2,0.2,0.3,0.3c0.1,0.1,0.1,0.3,0.2,0.4c0.1-0.1,0.3-0.2,0.4-0.3
	c0.2-0.1,0.3-0.2,0.5-0.2c0.2-0.1,0.3-0.1,0.5-0.1c0.2,0,0.3,0.1,0.5,0.1c0.3,0.1,0.5,0.2,0.7,0.3c0.2,0.2,0.4,0.3,0.5,0.5
	c0.1,0.2,0.2,0.4,0.2,0.6c0,0.2,0,0.4-0.1,0.6s-0.2,0.4-0.3,0.5s-0.3,0.3-0.5,0.4c-0.2,0.1-0.4,0.1-0.6,0.1c-0.3,0-0.5-0.1-0.8-0.1
	c-0.2-0.1-0.3-0.1-0.5-0.2c-0.2-0.1-0.3-0.2-0.4-0.3c-0.1-0.1-0.2-0.3-0.3-0.4s-0.1-0.3-0.2-0.5c-0.1,0.1-0.2,0.2-0.3,0.3
	c-0.1,0.1-0.3,0.1-0.4,0.2c-0.2,0.1-0.3,0.1-0.4,0.1c-0.2,0-0.3-0.1-0.4-0.1c-0.2-0.1-0.4-0.2-0.6-0.3c-0.2-0.1-0.3-0.3-0.4-0.4
	s-0.2-0.3-0.2-0.5s0-0.4,0.1-0.5c0.1-0.2,0.2-0.4,0.3-0.5c0.1-0.2,0.3-0.3,0.5-0.3c0.2-0.1,0.4-0.1,0.6-0.1
	C147.9,62.4,148.1,62.4,148.3,62.5z M149.4,64.7c0,0.2,0.1,0.3,0.2,0.4c0.1,0.2,0.2,0.3,0.4,0.4s0.3,0.2,0.5,0.3s0.4,0.1,0.6,0.1
	c0.2,0,0.4-0.1,0.5-0.1c0.2-0.1,0.3-0.2,0.4-0.3s0.2-0.3,0.3-0.4s0.1-0.3,0.1-0.5c0-0.2-0.1-0.3-0.2-0.4c-0.1-0.2-0.2-0.3-0.4-0.4
	s-0.3-0.2-0.5-0.3s-0.4-0.1-0.6-0.1c-0.2,0-0.4,0.1-0.5,0.1c-0.2,0.1-0.3,0.2-0.4,0.3s-0.2,0.3-0.3,0.4
	C149.4,64.4,149.3,64.6,149.4,64.7z M146.9,63.1c-0.1,0.1-0.2,0.2-0.2,0.4c-0.1,0.2-0.1,0.3-0.1,0.4s0.1,0.3,0.2,0.4
	c0.1,0.1,0.2,0.2,0.3,0.3c0.1,0.1,0.3,0.2,0.4,0.2c0.2,0.1,0.3,0.1,0.5,0.1c0.2,0,0.3-0.1,0.4-0.1c0.2-0.1,0.3-0.1,0.4-0.2
	s0.2-0.2,0.2-0.3c0.1-0.1,0.1-0.3,0-0.4c0-0.2-0.1-0.3-0.2-0.4s-0.2-0.2-0.3-0.3c-0.1-0.1-0.3-0.2-0.4-0.2c-0.2-0.1-0.3-0.1-0.5-0.1
	c-0.2,0-0.3,0.1-0.4,0.1C147.1,62.9,147,62.9,146.9,63.1z M147.1,66.1c0.2,0.1,0.3,0.1,0.4,0.2c0.1,0.1,0.2,0.2,0.3,0.3
	c0.1,0.1,0.2,0.2,0.3,0.3c0.1,0.1,0.1,0.3,0.2,0.4c0.1-0.1,0.3-0.2,0.4-0.3c0.2-0.1,0.3-0.2,0.5-0.2c0.2-0.1,0.3-0.1,0.5-0.1
	s0.3,0.1,0.5,0.1c0.3,0.1,0.5,0.2,0.7,0.3c0.2,0.2,0.4,0.3,0.5,0.5c0.1,0.2,0.2,0.4,0.2,0.6c0,0.2,0,0.4-0.1,0.6s-0.2,0.4-0.3,0.5
	s-0.3,0.3-0.5,0.4c-0.2,0.1-0.4,0.1-0.6,0.1c-0.3,0-0.5-0.1-0.8-0.1c-0.2-0.1-0.3-0.1-0.5-0.2c-0.2-0.1-0.3-0.2-0.4-0.3
	c-0.1-0.1-0.2-0.3-0.3-0.4s-0.1-0.3-0.2-0.5c-0.1,0.1-0.2,0.2-0.3,0.3c-0.1,0.1-0.3,0.1-0.4,0.2c-0.2,0.1-0.3,0.1-0.4,0.1
	s-0.3-0.1-0.4-0.1c-0.2-0.1-0.4-0.2-0.6-0.3c-0.2-0.1-0.3-0.3-0.4-0.4s-0.2-0.3-0.2-0.5s0-0.4,0.1-0.5c0.1-0.2,0.2-0.4,0.3-0.5
	c0.1-0.2,0.3-0.2,0.5-0.3c0.2-0.1,0.4-0.1,0.6-0.1C146.7,66,146.9,66,147.1,66.1z M148.2,68.3c0,0.2,0.1,0.3,0.2,0.4
	c0.1,0.2,0.2,0.3,0.4,0.4s0.3,0.2,0.5,0.3s0.4,0.1,0.6,0.1c0.2,0,0.4-0.1,0.5-0.1c0.2-0.1,0.3-0.2,0.4-0.3s0.2-0.3,0.3-0.4
	s0.1-0.3,0.1-0.5c0-0.2-0.1-0.3-0.2-0.4c-0.1-0.2-0.2-0.3-0.4-0.4s-0.3-0.2-0.5-0.3s-0.4-0.1-0.6-0.1c-0.2,0-0.4,0.1-0.5,0.1
	c-0.2,0.1-0.3,0.2-0.4,0.3s-0.2,0.3-0.3,0.4C148.2,68,148.2,68.2,148.2,68.3z M145.8,66.7c-0.1,0.1-0.2,0.2-0.2,0.4
	c-0.1,0.2-0.1,0.3-0.1,0.4s0.1,0.3,0.2,0.4c0.1,0.1,0.2,0.2,0.3,0.3c0.1,0.1,0.3,0.2,0.4,0.2c0.2,0.1,0.3,0.1,0.5,0.1
	c0.2,0,0.3-0.1,0.4-0.1c0.2-0.1,0.3-0.1,0.4-0.2s0.2-0.2,0.2-0.3c0.1-0.2,0.1-0.3,0-0.4c0-0.2-0.1-0.3-0.2-0.4s-0.2-0.2-0.3-0.3
	c-0.1-0.1-0.3-0.2-0.4-0.2c-0.2-0.1-0.3-0.1-0.5-0.1c-0.2,0-0.3,0.1-0.4,0.1C146,66.5,145.9,66.6,145.8,66.7z M146,69.7
	c0.2,0.1,0.3,0.1,0.4,0.2c0.1,0.1,0.2,0.2,0.3,0.3c0.1,0.1,0.2,0.2,0.3,0.3c0.1,0.1,0.1,0.3,0.2,0.4c0.1-0.1,0.3-0.2,0.4-0.3
	c0.2-0.1,0.3-0.2,0.5-0.2s0.3-0.1,0.5-0.1c0.2,0,0.3,0.1,0.5,0.1c0.3,0.1,0.5,0.2,0.7,0.3c0.2,0.2,0.4,0.3,0.5,0.5
	c0.1,0.2,0.2,0.4,0.2,0.6c0,0.2,0,0.4-0.1,0.6s-0.2,0.4-0.3,0.5s-0.3,0.3-0.5,0.4c-0.2,0.1-0.4,0.1-0.6,0.1c-0.3,0-0.5-0.1-0.8-0.1
	c-0.2-0.1-0.3-0.1-0.5-0.2c-0.2-0.1-0.3-0.2-0.4-0.3c-0.1-0.1-0.2-0.3-0.3-0.4s-0.1-0.3-0.2-0.5c-0.1,0.1-0.2,0.2-0.4,0.3
	c-0.1,0.1-0.3,0.1-0.4,0.2c-0.2,0.1-0.3,0.1-0.4,0.1s-0.3-0.1-0.4-0.1c-0.2-0.1-0.4-0.2-0.6-0.3c-0.2-0.1-0.3-0.3-0.4-0.4
	s-0.2-0.3-0.2-0.5c-0.1-0.2,0-0.4,0.1-0.5c0.1-0.2,0.2-0.4,0.3-0.5c0.1-0.2,0.3-0.2,0.5-0.3c0.2-0.1,0.4-0.1,0.6-0.1
	C145.6,69.6,145.8,69.7,146,69.7z M147.1,72c0,0.2,0.1,0.3,0.2,0.4c0.1,0.2,0.2,0.3,0.4,0.4s0.3,0.2,0.5,0.3s0.4,0.1,0.6,0.1
	c0.2,0,0.4-0.1,0.5-0.1c0.2-0.1,0.3-0.2,0.4-0.3s0.2-0.3,0.3-0.4s0.1-0.3,0.1-0.5c0-0.2-0.1-0.3-0.2-0.4c-0.1-0.2-0.2-0.3-0.4-0.4
	s-0.3-0.2-0.5-0.3s-0.4-0.1-0.6-0.1c-0.2,0-0.4,0.1-0.5,0.1c-0.2,0.1-0.3,0.2-0.4,0.3s-0.2,0.3-0.3,0.4
	C147.1,71.6,147.1,71.8,147.1,72z M144.6,70.3c-0.1,0.1-0.2,0.2-0.2,0.4c-0.1,0.2-0.1,0.3-0.1,0.4s0.1,0.3,0.2,0.4
	c0.1,0.1,0.2,0.2,0.3,0.3c0.1,0.1,0.3,0.2,0.4,0.2c0.2,0.1,0.3,0.1,0.5,0.1c0.2,0,0.3-0.1,0.4-0.1c0.2-0.1,0.3-0.1,0.4-0.2
	s0.2-0.2,0.2-0.3c0.1-0.2,0.1-0.3,0-0.4c0-0.2-0.1-0.3-0.2-0.4s-0.2-0.2-0.3-0.3c-0.1-0.1-0.3-0.2-0.4-0.2c-0.2-0.1-0.3-0.1-0.5-0.1
	c-0.2,0-0.3,0.1-0.4,0.1C144.8,70.1,144.7,70.2,144.6,70.3z M146.5,73.6c1,0.3,1.7,0.7,2.2,1.2c0.4,0.4,0.6,0.9,0.4,1.4
	c-0.2,0.5-0.5,0.7-1.1,0.8c-0.6,0.1-1.4,0-2.3-0.3c-1-0.3-1.8-0.7-2.3-1.2c-0.5-0.4-0.6-0.9-0.4-1.4C143.3,73.1,144.4,73,146.5,73.6
	z M143.3,74.2c-0.1,0.4,0,0.7,0.4,1.1c0.4,0.4,1,0.7,2,1c0.8,0.3,1.5,0.4,2,0.3c0.5-0.1,0.8-0.3,0.9-0.6s-0.1-0.7-0.4-1
	c-0.4-0.4-1-0.7-1.9-0.9C144.6,73.4,143.5,73.5,143.3,74.2z M143.7,76.9c0.2,0.1,0.3,0.1,0.4,0.2c0.1,0.1,0.2,0.2,0.3,0.3
	c0.1,0.1,0.2,0.2,0.3,0.3c0.1,0.1,0.1,0.3,0.2,0.4c0.1-0.1,0.3-0.2,0.4-0.3c0.2-0.1,0.3-0.2,0.5-0.2c0.2-0.1,0.3-0.1,0.5-0.1
	c0.2,0,0.3,0.1,0.5,0.1c0.3,0.1,0.5,0.2,0.7,0.3c0.2,0.2,0.4,0.3,0.5,0.5c0.1,0.2,0.2,0.4,0.2,0.6c0,0.2,0,0.4-0.1,0.6
	c-0.1,0.2-0.2,0.4-0.3,0.5s-0.3,0.3-0.5,0.4c-0.2,0.1-0.4,0.1-0.6,0.1c-0.3,0-0.5-0.1-0.8-0.1c-0.2-0.1-0.3-0.1-0.5-0.2
	c-0.2-0.1-0.3-0.2-0.4-0.3c-0.1-0.1-0.2-0.3-0.3-0.4s-0.1-0.3-0.2-0.5c-0.1,0.1-0.2,0.2-0.4,0.3c-0.1,0.1-0.3,0.1-0.4,0.2
	c-0.2,0.1-0.3,0.1-0.4,0.1s-0.3-0.1-0.4-0.1c-0.2-0.1-0.4-0.2-0.6-0.3c-0.2-0.1-0.3-0.3-0.4-0.4s-0.2-0.3-0.2-0.5
	c-0.1-0.2,0-0.4,0.1-0.5c0.1-0.2,0.2-0.4,0.3-0.5s0.3-0.2,0.5-0.3c0.2-0.1,0.4-0.1,0.6-0.1C143.3,76.8,143.5,76.9,143.7,76.9z
	 M144.8,79.2c0,0.2,0.1,0.3,0.2,0.4c0.1,0.2,0.2,0.3,0.4,0.4s0.3,0.2,0.5,0.3s0.4,0.1,0.6,0.1c0.2,0,0.4-0.1,0.5-0.1
	c0.2-0.1,0.3-0.2,0.4-0.3s0.2-0.3,0.3-0.4s0.1-0.3,0.1-0.5c0-0.2-0.1-0.3-0.2-0.4c-0.1-0.2-0.2-0.3-0.4-0.4s-0.3-0.2-0.5-0.3
	c-0.2-0.1-0.4-0.1-0.6-0.1s-0.4,0.1-0.5,0.1c-0.2,0.1-0.3,0.2-0.4,0.3s-0.2,0.3-0.3,0.4C144.8,78.9,144.8,79,144.8,79.2z
	 M142.4,77.5c-0.1,0.1-0.2,0.2-0.2,0.4c-0.1,0.2-0.1,0.3-0.1,0.4c0.1,0.2,0.1,0.3,0.2,0.4c0.1,0.1,0.2,0.2,0.3,0.3
	c0.1,0.1,0.3,0.2,0.4,0.2c0.2,0.1,0.3,0.1,0.5,0.1c0.2,0,0.3-0.1,0.4-0.1c0.2-0.1,0.3-0.1,0.4-0.2c0.1-0.1,0.2-0.2,0.2-0.3
	c0.1-0.2,0.1-0.3,0-0.4c-0.1-0.2-0.1-0.3-0.2-0.4s-0.2-0.2-0.3-0.3c-0.1-0.1-0.3-0.2-0.4-0.2c-0.2-0.1-0.3-0.1-0.5-0.1
	c-0.2,0-0.3,0.1-0.4,0.1C142.6,77.4,142.5,77.4,142.4,77.5z M142.6,80.6c0.2,0.1,0.3,0.1,0.4,0.2c0.1,0.1,0.2,0.2,0.3,0.3
	c0.1,0.1,0.2,0.2,0.3,0.3c0.1,0.1,0.1,0.3,0.2,0.4c0.1-0.1,0.3-0.2,0.4-0.3s0.3-0.2,0.5-0.2c0.2-0.1,0.3-0.1,0.5-0.1
	c0.2,0,0.3,0.1,0.5,0.1c0.3,0.1,0.5,0.2,0.7,0.3c0.2,0.2,0.4,0.3,0.5,0.5c0.1,0.2,0.2,0.4,0.2,0.6c0,0.2,0,0.4-0.1,0.6
	s-0.2,0.4-0.3,0.5c-0.2,0.2-0.3,0.3-0.5,0.4c-0.2,0.1-0.4,0.1-0.6,0.1c-0.3,0-0.5-0.1-0.8-0.1c-0.2-0.1-0.3-0.1-0.5-0.2
	c-0.2-0.1-0.3-0.2-0.4-0.3c-0.1-0.1-0.2-0.3-0.3-0.4s-0.1-0.3-0.2-0.5c-0.1,0.1-0.2,0.2-0.3,0.3c-0.1,0.1-0.3,0.1-0.4,0.2
	c-0.2,0.1-0.3,0.1-0.4,0.1s-0.3-0.1-0.4-0.1c-0.2-0.1-0.4-0.2-0.6-0.3c-0.2-0.1-0.3-0.3-0.4-0.4s-0.2-0.3-0.2-0.5
	c-0.1-0.2,0-0.4,0.1-0.5c0.1-0.2,0.2-0.4,0.3-0.5c0.1-0.2,0.3-0.3,0.5-0.3c0.2-0.1,0.4-0.1,0.6-0.1
	C142.2,80.4,142.4,80.5,142.6,80.6z M143.7,82.8c0,0.2,0.1,0.3,0.2,0.4c0.1,0.2,0.2,0.3,0.4,0.4s0.3,0.2,0.5,0.3
	c0.2,0.1,0.4,0.1,0.6,0.1c0.2,0,0.4-0.1,0.5-0.1c0.2-0.1,0.3-0.2,0.4-0.3s0.2-0.3,0.3-0.4s0.1-0.3,0.1-0.5c0-0.2-0.1-0.3-0.2-0.4
	c-0.1-0.2-0.2-0.3-0.4-0.4s-0.3-0.2-0.5-0.3s-0.4-0.1-0.6-0.1c-0.2,0-0.4,0.1-0.5,0.1c-0.2,0.1-0.3,0.2-0.4,0.3s-0.2,0.3-0.3,0.4
	C143.7,82.5,143.7,82.6,143.7,82.8z M141.2,81.1c-0.1,0.1-0.2,0.2-0.2,0.4c-0.1,0.2-0.1,0.3-0.1,0.4c0.1,0.2,0.1,0.3,0.2,0.4
	c0.1,0.1,0.2,0.2,0.3,0.3c0.1,0.1,0.3,0.2,0.4,0.2c0.2,0.1,0.3,0.1,0.5,0.1c0.2,0,0.3-0.1,0.4-0.1c0.2-0.1,0.3-0.1,0.4-0.2
	s0.2-0.2,0.2-0.3c0.1-0.1,0.1-0.3,0-0.4s-0.1-0.3-0.2-0.4s-0.2-0.2-0.3-0.3c-0.1-0.1-0.3-0.2-0.4-0.2c-0.2-0.1-0.3-0.1-0.5-0.1
	c-0.2,0-0.3,0.1-0.4,0.1C141.4,81,141.3,81,141.2,81.1z M141.5,84.1c0.4,0.1,0.7,0.1,1.2,0.3c0.6,0.2,1,0.4,1.4,0.6
	c0.4,0.2,0.7,0.5,0.9,0.7c0.3,0.3,0.4,0.5,0.5,0.8c0.1,0.3,0.1,0.6-0.1,0.9c-0.1,0.3-0.2,0.5-0.4,0.7l-0.4-0.2
	c0.2-0.2,0.4-0.4,0.5-0.6c0.2-0.5,0.1-1-0.4-1.4s-1.1-0.8-2.1-1.1l0,0c0.6,0.4,0.7,0.9,0.6,1.5c-0.1,0.2-0.2,0.4-0.3,0.5
	s-0.3,0.3-0.5,0.3s-0.4,0.1-0.7,0.1s-0.5-0.1-0.8-0.2c-0.3-0.1-0.5-0.2-0.8-0.4c-0.2-0.2-0.4-0.3-0.5-0.5c-0.1-0.2-0.2-0.4-0.3-0.6
	c-0.1-0.2,0-0.4,0.1-0.6s0.2-0.4,0.4-0.5c0.2-0.2,0.4-0.3,0.6-0.3S141.1,84.1,141.5,84.1z M140.1,84.7c-0.1,0.1-0.2,0.3-0.3,0.4
	s-0.1,0.3,0,0.5c0.1,0.2,0.1,0.3,0.2,0.5c0.1,0.2,0.3,0.3,0.4,0.4s0.4,0.2,0.6,0.3c0.3,0.1,0.5,0.1,0.7,0.1c0.2,0,0.4,0,0.6-0.1
	s0.3-0.2,0.4-0.3s0.2-0.3,0.3-0.4s0.1-0.3,0-0.5c-0.1-0.2-0.1-0.3-0.2-0.4c-0.1-0.2-0.2-0.3-0.4-0.4s-0.3-0.2-0.5-0.3
	c-0.3-0.1-0.5-0.1-0.7-0.2c-0.2,0-0.4,0-0.6,0.1C140.4,84.5,140.3,84.6,140.1,84.7z M141.9,88.1c1,0.3,1.7,0.7,2.2,1.2
	c0.4,0.4,0.6,0.9,0.4,1.4c-0.2,0.5-0.5,0.7-1.1,0.8c-0.6,0.1-1.4,0-2.3-0.3c-1-0.3-1.8-0.7-2.3-1.2c-0.5-0.4-0.6-0.9-0.4-1.4
	C138.7,87.6,139.9,87.5,141.9,88.1z M138.8,88.7c-0.1,0.4,0,0.7,0.4,1.1c0.4,0.4,1,0.7,2,1c0.8,0.3,1.5,0.4,2,0.3
	c0.5-0.1,0.8-0.3,0.9-0.6c0.1-0.4-0.1-0.7-0.4-1s-1-0.7-1.9-0.9C140,87.9,139,87.9,138.8,88.7z M139.2,91.3c0.4,0.1,0.7,0.1,1.2,0.3
	c0.6,0.2,1,0.4,1.4,0.6c0.4,0.2,0.7,0.5,1,0.7s0.4,0.5,0.5,0.8c0.1,0.3,0.1,0.6-0.1,0.9c-0.1,0.3-0.2,0.5-0.4,0.7l-0.4-0.2
	c0.2-0.2,0.4-0.4,0.5-0.6c0.2-0.5,0.1-1-0.4-1.4s-1.1-0.8-2.1-1.1l0,0c0.6,0.4,0.7,0.9,0.6,1.5c-0.1,0.2-0.2,0.4-0.3,0.5
	s-0.3,0.3-0.5,0.3s-0.4,0.1-0.7,0.1s-0.5-0.1-0.8-0.2c-0.3-0.1-0.5-0.2-0.8-0.4c-0.2-0.2-0.4-0.3-0.5-0.5c-0.1-0.2-0.2-0.4-0.3-0.6
	c-0.1-0.2,0-0.4,0.1-0.6s0.2-0.4,0.4-0.5c0.2-0.2,0.4-0.3,0.6-0.3C138.5,91.3,138.9,91.3,139.2,91.3z M137.9,92
	c-0.1,0.1-0.2,0.3-0.3,0.4s-0.1,0.3,0,0.5c0.1,0.2,0.1,0.3,0.2,0.5c0.1,0.2,0.3,0.3,0.4,0.4s0.4,0.2,0.6,0.3
	c0.3,0.1,0.5,0.1,0.7,0.1c0.2,0,0.4,0,0.6-0.1s0.3-0.2,0.4-0.3s0.2-0.3,0.3-0.4s0.1-0.3,0-0.5c-0.1-0.2-0.1-0.3-0.2-0.4
	c-0.1-0.2-0.2-0.3-0.4-0.4s-0.3-0.2-0.5-0.3c-0.3-0.1-0.5-0.1-0.7-0.2c-0.2,0-0.4,0-0.6,0.1C138.1,91.8,138,91.9,137.9,92z
	 M138.1,95c0.4,0.1,0.7,0.1,1.2,0.3c0.6,0.2,1,0.4,1.4,0.6c0.4,0.2,0.7,0.5,0.9,0.7c0.3,0.3,0.4,0.5,0.5,0.8
	c0.1,0.3,0.1,0.6-0.1,0.9c-0.1,0.3-0.2,0.5-0.4,0.7l-0.4-0.2c0.2-0.2,0.4-0.4,0.5-0.6c0.2-0.5,0.1-1-0.4-1.4
	c-0.4-0.4-1.1-0.8-2.1-1.1l0,0c0.6,0.4,0.7,0.9,0.6,1.5c-0.1,0.2-0.2,0.4-0.3,0.5s-0.3,0.3-0.5,0.3s-0.4,0.1-0.7,0.1
	s-0.5-0.1-0.8-0.2c-0.3-0.1-0.5-0.2-0.8-0.4c-0.2-0.2-0.4-0.3-0.5-0.5s-0.2-0.4-0.3-0.6c-0.1-0.2,0-0.4,0.1-0.6s0.2-0.4,0.4-0.5
	c0.2-0.2,0.4-0.3,0.6-0.3C137.4,95,137.7,95,138.1,95z M136.7,95.6c-0.1,0.1-0.2,0.3-0.3,0.4s-0.1,0.3,0,0.5
	c0.1,0.2,0.1,0.3,0.2,0.5c0.1,0.2,0.3,0.3,0.4,0.4s0.4,0.2,0.6,0.3c0.3,0.1,0.5,0.1,0.7,0.1c0.2,0,0.4,0,0.6-0.1s0.3-0.2,0.4-0.3
	s0.2-0.3,0.3-0.4s0.1-0.3,0-0.5c-0.1-0.2-0.1-0.3-0.2-0.4c-0.1-0.2-0.2-0.3-0.4-0.4s-0.3-0.2-0.5-0.3c-0.3-0.1-0.5-0.1-0.7-0.2
	c-0.2,0-0.4,0-0.6,0.1C137,95.4,136.9,95.5,136.7,95.6z M138.5,98.9c1,0.3,1.7,0.7,2.2,1.2c0.4,0.4,0.6,0.9,0.4,1.4
	c-0.2,0.5-0.5,0.7-1.1,0.8c-0.6,0.1-1.4,0-2.3-0.3c-1-0.3-1.8-0.7-2.3-1.2c-0.5-0.4-0.6-0.9-0.4-1.4
	C135.3,98.5,136.5,98.3,138.5,98.9z M135.4,99.5c-0.1,0.4,0,0.7,0.4,1.1c0.4,0.4,1,0.7,2,1c0.8,0.3,1.5,0.4,2,0.3
	c0.5-0.1,0.8-0.3,0.9-0.6s-0.1-0.7-0.4-1c-0.4-0.4-1-0.7-1.9-0.9C136.6,98.7,135.6,98.8,135.4,99.5z M137.3,102.6
	c1,0.3,1.7,0.7,2.2,1.2c0.4,0.4,0.6,0.9,0.4,1.4c-0.2,0.5-0.5,0.7-1.1,0.8c-0.6,0.1-1.4,0-2.3-0.3c-1-0.3-1.8-0.7-2.3-1.2
	c-0.5-0.4-0.6-0.9-0.4-1.4C134.1,102.1,135.3,101.9,137.3,102.6z M134.2,103.1c-0.1,0.4,0,0.7,0.4,1.1c0.4,0.4,1,0.7,2,1
	c0.8,0.3,1.5,0.4,2,0.3c0.5-0.1,0.8-0.3,0.9-0.6s-0.1-0.7-0.4-1c-0.4-0.4-1-0.7-1.9-0.9C135.5,102.3,134.4,102.4,134.2,103.1z
	 M139,107.8l-5.5-1.7c0.2,0.2,0.3,0.5,0.3,0.7c0.1,0.3,0.1,0.5,0.2,0.8l-0.4-0.1c0-0.2-0.1-0.3-0.1-0.5c-0.1-0.2-0.1-0.3-0.2-0.4
	c-0.1-0.2-0.1-0.3-0.2-0.4c-0.1-0.2-0.2-0.3-0.3-0.4l0.1-0.1l6.1,1.9L139,107.8z M135.4,108.7c1,0.3,1.7,0.7,2.2,1.2
	c0.4,0.4,0.6,0.9,0.4,1.4c-0.2,0.5-0.5,0.7-1.1,0.8c-0.6,0.1-1.4,0-2.3-0.3c-1-0.3-1.8-0.7-2.3-1.2c-0.5-0.4-0.6-0.9-0.4-1.4
	C132.2,108.2,133.4,108.1,135.4,108.7z M132.3,109.3c-0.1,0.4,0,0.7,0.4,1.1c0.4,0.4,1,0.7,2,1c0.8,0.3,1.5,0.4,2,0.3
	c0.5-0.1,0.8-0.3,0.9-0.6s-0.1-0.7-0.4-1s-1-0.7-1.9-0.9C133.5,108.5,132.5,108.5,132.3,109.3z M134.3,112.3c1,0.3,1.7,0.7,2.2,1.2
	c0.4,0.4,0.6,0.9,0.4,1.4s-0.5,0.7-1.1,0.8c-0.6,0.1-1.4,0-2.3-0.3c-1-0.3-1.8-0.7-2.3-1.2c-0.5-0.4-0.6-0.9-0.4-1.4
	C131.1,111.8,132.3,111.7,134.3,112.3z M131.1,112.9c-0.1,0.4,0,0.7,0.4,1.1c0.4,0.4,1,0.7,2,1c0.8,0.3,1.5,0.4,2,0.3
	c0.5-0.1,0.8-0.3,0.9-0.6c0.1-0.4-0.1-0.7-0.4-1s-1-0.7-1.9-0.9C132.4,112.1,131.4,112.1,131.1,112.9z"/>
<path fill="#FFFFFF" d="M172.7,67c-0.1,0.2-0.2,0.4-0.4,0.5s-0.3,0.3-0.5,0.3s-0.4,0.1-0.6,0.1c-0.3,0-0.5-0.1-0.8-0.2
	c-0.2-0.1-0.3-0.2-0.4-0.3s-0.3-0.2-0.4-0.3c-0.1-0.1-0.2-0.3-0.3-0.4c-0.1-0.2-0.1-0.3-0.1-0.5c-0.1,0.1-0.2,0.2-0.4,0.2
	c-0.1,0.1-0.3,0.1-0.4,0.1s-0.3,0-0.4,0s-0.3-0.1-0.4-0.1c-0.2-0.1-0.4-0.2-0.6-0.3c-0.2-0.2-0.3-0.3-0.4-0.5
	c-0.1-0.2-0.2-0.3-0.2-0.5s0-0.4,0.1-0.5c0.1-0.2,0.2-0.3,0.3-0.5c0.2-0.1,0.3-0.2,0.5-0.3c0.2-0.1,0.4-0.1,0.6-0.1
	c0.2,0,0.4,0.1,0.6,0.2c0.2,0.1,0.3,0.1,0.4,0.2s0.2,0.2,0.3,0.3c0.1,0.1,0.2,0.2,0.2,0.4c0.1,0.1,0.1,0.3,0.1,0.4
	c0.1-0.1,0.3-0.2,0.4-0.3s0.3-0.1,0.5-0.1c0.2,0,0.3,0,0.5,0c0.2,0,0.3,0.1,0.5,0.1c0.3,0.1,0.5,0.3,0.7,0.4
	c0.2,0.2,0.3,0.3,0.4,0.5c0.1,0.2,0.2,0.4,0.2,0.6C172.8,66.6,172.8,66.8,172.7,67z M169.3,64.8c-0.1-0.1-0.2-0.3-0.3-0.4
	s-0.3-0.2-0.4-0.3s-0.3-0.1-0.5-0.1c-0.2,0-0.3,0-0.4,0.1c-0.2,0.1-0.3,0.1-0.4,0.2s-0.2,0.2-0.2,0.3c-0.1,0.2-0.1,0.3-0.1,0.4
	s0.1,0.3,0.1,0.4c0.1,0.1,0.2,0.2,0.3,0.3c0.1,0.1,0.3,0.2,0.4,0.3s0.3,0.1,0.5,0.1c0.2,0,0.3,0,0.4-0.1c0.2-0.1,0.3-0.1,0.4-0.2
	s0.2-0.2,0.2-0.3c0.1-0.1,0.1-0.3,0.1-0.4C169.4,65.1,169.3,65,169.3,64.8z M172.3,65.9c-0.1-0.2-0.2-0.3-0.3-0.4
	c-0.2-0.1-0.3-0.2-0.5-0.3c-0.2-0.1-0.4-0.1-0.5-0.1s-0.4,0-0.5,0.1c-0.2,0.1-0.3,0.1-0.4,0.2s-0.2,0.3-0.3,0.4
	c-0.1,0.2-0.1,0.3-0.1,0.5c0,0.2,0.1,0.3,0.2,0.5c0.1,0.2,0.2,0.3,0.3,0.4c0.2,0.1,0.3,0.2,0.5,0.3c0.2,0.1,0.4,0.1,0.6,0.2
	c0.2,0,0.4,0,0.5-0.1s0.3-0.1,0.4-0.2s0.2-0.3,0.3-0.4s0.1-0.3,0.1-0.5C172.4,66.2,172.3,66.1,172.3,65.9z M168.5,69
	c0.4,0.4,0.8,0.7,1.2,1c0.4,0.3,0.9,0.6,1.4,0.9l-0.2,0.4c-0.5-0.3-0.9-0.6-1.3-0.8c-0.4-0.3-0.8-0.6-1.2-0.9s-0.7-0.7-1.1-1
	c-0.4-0.4-0.7-0.7-1.1-1.1l-1,2.5l-0.3-0.2l1.2-2.9l0.2,0.1c0.4,0.4,0.8,0.8,1.2,1.2C167.7,68.2,168.1,68.6,168.5,69z M164.4,71.1
	c-0.1,0.3-0.1,0.5-0.1,0.7c0.1,0.3,0.2,0.5,0.4,0.7c0.2,0.3,0.5,0.5,0.8,0.7c0.3,0.2,0.7,0.4,1.1,0.6l0,0c-0.6-0.5-0.7-1-0.5-1.6
	c0.1-0.2,0.2-0.4,0.4-0.5s0.3-0.2,0.5-0.3s0.4-0.1,0.7-0.1s0.5,0.1,0.7,0.2c0.3,0.1,0.5,0.3,0.7,0.4s0.4,0.4,0.5,0.5
	c0.1,0.2,0.2,0.4,0.2,0.6s0,0.4-0.1,0.6s-0.2,0.4-0.4,0.5c-0.2,0.1-0.4,0.2-0.7,0.3s-0.6,0-0.9-0.1s-0.7-0.2-1.2-0.4
	c-0.5-0.2-0.9-0.4-1.3-0.7s-0.7-0.5-0.9-0.8s-0.4-0.6-0.4-0.8c-0.1-0.3-0.1-0.6,0.1-0.9c0.1-0.3,0.3-0.5,0.4-0.6l0.4,0.2
	C164.7,70.7,164.5,70.9,164.4,71.1z M167.5,74.1c0.2,0.1,0.4,0.2,0.7,0.2s0.4,0.1,0.6,0s0.4-0.1,0.5-0.2c0.2-0.1,0.3-0.2,0.3-0.4
	c0.1-0.2,0.1-0.3,0.1-0.5c0-0.2-0.1-0.3-0.2-0.5c-0.1-0.2-0.2-0.3-0.4-0.4c-0.2-0.1-0.4-0.3-0.6-0.3c-0.2-0.1-0.4-0.2-0.6-0.2
	c-0.2-0.1-0.4,0-0.6,0c-0.2,0.1-0.3,0.1-0.4,0.2c-0.1,0.1-0.2,0.2-0.3,0.4c-0.1,0.2-0.1,0.3-0.1,0.5c0,0.2,0.1,0.3,0.2,0.5
	c0.1,0.2,0.2,0.3,0.4,0.4C167.2,73.9,167.3,74.1,167.5,74.1z M165.7,75.9c0.4,0.4,0.8,0.7,1.2,1c0.4,0.3,0.9,0.6,1.4,0.9l-0.2,0.4
	c-0.5-0.3-0.9-0.6-1.3-0.8c-0.4-0.3-0.8-0.6-1.2-0.9s-0.7-0.7-1.1-1c-0.4-0.4-0.7-0.7-1.1-1.1l-1,2.5l-0.3-0.2l1.2-2.9l0.2,0.1
	c0.4,0.4,0.8,0.8,1.2,1.2C164.9,75.2,165.3,75.5,165.7,75.9z M163.1,77.8c0.2,0.1,0.3,0.1,0.4,0.2c0.1,0.1,0.2,0.2,0.3,0.3
	c0.1,0.1,0.2,0.2,0.2,0.4s0.1,0.3,0.1,0.4c0.1-0.1,0.3-0.2,0.4-0.3s0.3-0.1,0.5-0.1c0.2,0,0.3,0,0.5,0c0.2,0,0.3,0.1,0.5,0.1
	c0.3,0.1,0.5,0.3,0.7,0.4c0.2,0.2,0.3,0.3,0.4,0.5c0.1,0.2,0.2,0.4,0.2,0.6c0,0.2-0.1,0.4-0.1,0.6c-0.1,0.2-0.2,0.4-0.4,0.5
	s-0.3,0.3-0.5,0.3s-0.4,0.1-0.6,0.1c-0.3,0-0.5-0.1-0.8-0.2c-0.2-0.1-0.3-0.2-0.4-0.3c-0.2-0.1-0.3-0.2-0.4-0.3
	c-0.1-0.1-0.2-0.3-0.3-0.4c-0.1-0.2-0.1-0.3-0.1-0.5c-0.1,0.1-0.2,0.2-0.4,0.2c-0.1,0.1-0.3,0.1-0.4,0.1s-0.3,0-0.4,0
	s-0.3-0.1-0.4-0.1c-0.2-0.1-0.4-0.2-0.6-0.3c-0.2-0.2-0.3-0.3-0.4-0.5c-0.1-0.2-0.2-0.3-0.2-0.5c0-0.2,0-0.4,0.1-0.5
	c0.1-0.2,0.2-0.3,0.3-0.5c0.2-0.1,0.3-0.2,0.5-0.3c0.2-0.1,0.4-0.1,0.6-0.1C162.6,77.6,162.9,77.7,163.1,77.8z M164.1,80.6
	c0.1,0.2,0.2,0.3,0.3,0.4c0.2,0.1,0.3,0.2,0.5,0.3c0.2,0.1,0.4,0.1,0.6,0.2c0.2,0,0.4,0,0.5-0.1s0.3-0.1,0.4-0.2s0.2-0.3,0.3-0.4
	s0.1-0.3,0.1-0.5c0-0.2-0.1-0.3-0.1-0.5c-0.1-0.2-0.2-0.3-0.3-0.4c-0.2-0.1-0.3-0.2-0.5-0.3c-0.2-0.1-0.4-0.1-0.5-0.1
	s-0.4,0-0.5,0.1s-0.3,0.1-0.4,0.2s-0.2,0.3-0.3,0.4c-0.1,0.2-0.1,0.3-0.1,0.5C164,80.2,164.1,80.4,164.1,80.6z M161.7,78.2
	c-0.1,0.1-0.2,0.2-0.3,0.3c-0.1,0.2-0.1,0.3-0.1,0.4s0.1,0.3,0.1,0.4c0.1,0.1,0.2,0.2,0.3,0.3c0.1,0.1,0.3,0.2,0.4,0.3
	c0.2,0.1,0.3,0.1,0.5,0.1c0.2,0,0.3,0,0.4-0.1c0.2-0.1,0.3-0.1,0.4-0.2s0.2-0.2,0.2-0.3c0.1-0.1,0.1-0.3,0.1-0.4s-0.1-0.3-0.1-0.4
	c-0.1-0.1-0.2-0.3-0.3-0.4s-0.3-0.2-0.4-0.3c-0.2-0.1-0.3-0.1-0.5-0.1s-0.3,0-0.4,0.1C161.9,78.1,161.8,78.1,161.7,78.2z
	 M161.7,81.3c0.2,0.1,0.3,0.1,0.4,0.2s0.2,0.2,0.3,0.3c0.1,0.1,0.2,0.2,0.2,0.4c0.1,0.1,0.1,0.3,0.1,0.4c0.1-0.1,0.3-0.2,0.4-0.3
	s0.3-0.1,0.5-0.1c0.2,0,0.3,0,0.5,0c0.2,0,0.3,0.1,0.5,0.1c0.3,0.1,0.5,0.3,0.7,0.4c0.2,0.2,0.3,0.3,0.4,0.5
	c0.1,0.2,0.2,0.4,0.2,0.6c0,0.2-0.1,0.4-0.1,0.6c-0.1,0.2-0.2,0.4-0.4,0.5s-0.3,0.3-0.5,0.3s-0.4,0.1-0.6,0.1
	c-0.3,0-0.5-0.1-0.8-0.2c-0.2-0.1-0.3-0.2-0.4-0.3c-0.2-0.1-0.3-0.2-0.4-0.3c-0.1-0.1-0.2-0.3-0.3-0.4c-0.1-0.2-0.1-0.3-0.1-0.5
	c-0.1,0.1-0.2,0.2-0.4,0.2c-0.1,0.1-0.3,0.1-0.4,0.1s-0.3,0-0.4,0s-0.3-0.1-0.4-0.1c-0.2-0.1-0.4-0.2-0.6-0.3
	c-0.2-0.2-0.3-0.3-0.4-0.5c-0.1-0.2-0.2-0.3-0.2-0.5s0-0.4,0.1-0.5c0.1-0.2,0.2-0.3,0.3-0.5c0.2-0.1,0.3-0.2,0.5-0.3
	c0.2-0.1,0.4-0.1,0.6-0.1C161.2,81.2,161.4,81.2,161.7,81.3z M162.7,84.1c0.1,0.2,0.2,0.3,0.3,0.4c0.2,0.1,0.3,0.2,0.5,0.3
	c0.2,0.1,0.4,0.1,0.6,0.2c0.2,0,0.4,0,0.5-0.1s0.3-0.1,0.4-0.2s0.2-0.3,0.3-0.4c0.1-0.2,0.1-0.3,0.1-0.5c0-0.2-0.1-0.3-0.1-0.5
	c-0.1-0.2-0.2-0.3-0.3-0.4c-0.2-0.1-0.3-0.2-0.5-0.3c-0.2-0.1-0.4-0.1-0.5-0.1s-0.4,0-0.5,0.1s-0.3,0.1-0.4,0.2s-0.2,0.3-0.3,0.4
	c-0.1,0.2-0.1,0.3-0.1,0.5C162.6,83.8,162.6,84,162.7,84.1z M160.2,81.8c-0.1,0.1-0.2,0.2-0.2,0.3c-0.1,0.2-0.1,0.3-0.1,0.4
	s0.1,0.3,0.1,0.4c0.1,0.1,0.2,0.2,0.3,0.3c0.1,0.1,0.3,0.2,0.4,0.3c0.2,0.1,0.3,0.1,0.5,0.1c0.2,0,0.3,0,0.4-0.1
	c0.2-0.1,0.3-0.1,0.4-0.2s0.2-0.2,0.2-0.3c0.1-0.1,0.1-0.3,0.1-0.4s-0.1-0.3-0.1-0.4c-0.1-0.1-0.2-0.3-0.3-0.4s-0.3-0.2-0.4-0.3
	s-0.3-0.1-0.5-0.1c-0.2,0-0.3,0-0.4,0.1C160.5,81.6,160.3,81.7,160.2,81.8z M160.2,84.8c0.2,0.1,0.3,0.1,0.4,0.2s0.2,0.2,0.3,0.3
	c0.1,0.1,0.2,0.2,0.2,0.4c0.1,0.1,0.1,0.3,0.1,0.4c0.1-0.1,0.3-0.2,0.4-0.3s0.3-0.1,0.5-0.1c0.2,0,0.3,0,0.5,0
	c0.2,0,0.3,0.1,0.5,0.1c0.3,0.1,0.5,0.3,0.7,0.4c0.2,0.2,0.3,0.3,0.4,0.5c0.1,0.2,0.2,0.4,0.2,0.6c0,0.2-0.1,0.4-0.1,0.6
	c-0.1,0.2-0.2,0.4-0.4,0.5s-0.3,0.3-0.5,0.3s-0.4,0.1-0.6,0.1c-0.3,0-0.5-0.1-0.8-0.2c-0.2-0.1-0.3-0.2-0.4-0.3
	c-0.2-0.1-0.3-0.2-0.4-0.3c-0.1-0.1-0.2-0.3-0.3-0.4c-0.1-0.2-0.1-0.3-0.1-0.5c-0.1,0.1-0.2,0.2-0.4,0.2c-0.1,0.1-0.3,0.1-0.4,0.1
	s-0.3,0-0.4,0s-0.3-0.1-0.4-0.1c-0.2-0.1-0.4-0.2-0.6-0.3c-0.2-0.2-0.3-0.3-0.4-0.5c-0.1-0.2-0.2-0.3-0.2-0.5s0-0.4,0.1-0.5
	c0.1-0.2,0.2-0.3,0.3-0.5c0.2-0.1,0.3-0.2,0.5-0.3c0.2-0.1,0.4-0.1,0.6-0.1C159.8,84.7,160,84.7,160.2,84.8z M161.3,87.6
	c0.1,0.2,0.2,0.3,0.3,0.4c0.2,0.1,0.3,0.2,0.5,0.3c0.2,0.1,0.4,0.1,0.6,0.2c0.2,0,0.4,0,0.5-0.1s0.3-0.1,0.4-0.2s0.2-0.3,0.3-0.4
	s0.1-0.3,0.1-0.5c0-0.2-0.1-0.3-0.1-0.5c-0.1-0.2-0.2-0.3-0.3-0.4c-0.2-0.1-0.3-0.2-0.5-0.3c-0.2-0.1-0.4-0.1-0.5-0.1
	s-0.4,0-0.5,0.1s-0.3,0.1-0.4,0.2s-0.2,0.3-0.3,0.4c-0.1,0.2-0.1,0.3-0.1,0.5C161.2,87.3,161.2,87.5,161.3,87.6z M158.8,85.3
	c-0.1,0.1-0.2,0.2-0.2,0.3c-0.1,0.2-0.1,0.3-0.1,0.4s0.1,0.3,0.1,0.4c0.1,0.1,0.2,0.2,0.3,0.3c0.1,0.1,0.3,0.2,0.4,0.3
	s0.3,0.1,0.5,0.1c0.2,0,0.3,0,0.4-0.1c0.2-0.1,0.3-0.1,0.4-0.2s0.2-0.2,0.2-0.3c0.1-0.1,0.1-0.3,0.1-0.4s-0.1-0.3-0.1-0.4
	c-0.1-0.1-0.2-0.3-0.3-0.4s-0.3-0.2-0.4-0.3s-0.3-0.1-0.5-0.1c-0.2,0-0.3,0-0.4,0.1C159.1,85.1,158.9,85.2,158.8,85.3z M162.5,90
	c0.4,0.5,0.5,0.9,0.3,1.4c-0.2,0.4-0.6,0.7-1.2,0.7c-0.6,0.1-1.4-0.1-2.3-0.5c-1-0.4-1.8-0.8-2.1-1.3c-0.4-0.5-0.5-0.9-0.3-1.4
	c0.4-0.9,1.6-1,3.5-0.2C161.4,89.1,162.1,89.6,162.5,90z M157.2,89.1c-0.2,0.4-0.1,0.7,0.3,1.2c0.4,0.4,1,0.8,1.9,1.2
	c0.8,0.3,1.5,0.5,2,0.5s0.8-0.2,1-0.6c0.2-0.4,0.1-0.7-0.4-1.1c-0.4-0.4-1-0.7-1.8-1.1C158.5,88.4,157.5,88.4,157.2,89.1z
	 M157.4,91.8c0.2,0.1,0.3,0.1,0.4,0.2s0.2,0.2,0.3,0.3c0.1,0.1,0.2,0.2,0.2,0.4c0.1,0.1,0.1,0.3,0.1,0.4c0.1-0.1,0.3-0.2,0.4-0.3
	s0.3-0.1,0.5-0.1c0.2,0,0.3,0,0.5,0c0.2,0,0.3,0.1,0.5,0.1c0.3,0.1,0.5,0.3,0.7,0.4c0.2,0.2,0.3,0.3,0.4,0.5
	c0.1,0.2,0.2,0.4,0.2,0.6c0,0.2-0.1,0.4-0.1,0.6c-0.1,0.2-0.2,0.4-0.4,0.5s-0.3,0.3-0.5,0.3s-0.4,0.1-0.6,0.1
	c-0.3,0-0.5-0.1-0.8-0.2c-0.2-0.1-0.3-0.2-0.4-0.3c-0.2-0.1-0.3-0.2-0.4-0.3c-0.1-0.1-0.2-0.3-0.3-0.4c-0.1-0.2-0.1-0.3-0.1-0.5
	c-0.1,0.1-0.2,0.2-0.4,0.2c-0.1,0.1-0.3,0.1-0.4,0.1c-0.2,0-0.3,0-0.4,0s-0.3-0.1-0.4-0.1c-0.2-0.1-0.4-0.2-0.6-0.3
	c-0.2-0.2-0.3-0.3-0.4-0.5c-0.1-0.2-0.2-0.3-0.2-0.5s0-0.4,0.1-0.5c0.1-0.2,0.2-0.3,0.3-0.5c0.2-0.1,0.3-0.2,0.5-0.3
	c0.2-0.1,0.4-0.1,0.6-0.1C157,91.7,157.2,91.8,157.4,91.8z M158.5,94.6c0.1,0.2,0.2,0.3,0.3,0.4c0.2,0.1,0.3,0.2,0.5,0.3
	c0.2,0.1,0.4,0.1,0.6,0.2c0.2,0,0.4,0,0.5-0.1s0.3-0.1,0.4-0.2s0.2-0.3,0.3-0.4s0.1-0.3,0.1-0.5c0-0.2-0.1-0.3-0.1-0.5
	c-0.1-0.2-0.2-0.3-0.3-0.4c-0.2-0.1-0.3-0.2-0.5-0.3c-0.2-0.1-0.4-0.1-0.5-0.1s-0.4,0-0.5,0.1s-0.3,0.1-0.4,0.2s-0.2,0.3-0.3,0.4
	c-0.1,0.2-0.1,0.3-0.1,0.5C158.4,94.3,158.4,94.5,158.5,94.6z M156,92.3c-0.1,0.1-0.2,0.2-0.2,0.3c-0.1,0.2-0.1,0.3-0.1,0.4
	s0.1,0.3,0.1,0.4c0.1,0.1,0.2,0.2,0.3,0.3c0.1,0.1,0.3,0.2,0.4,0.3c0.2,0.1,0.3,0.1,0.5,0.1c0.2,0,0.3,0,0.4-0.1
	c0.2-0.1,0.3-0.1,0.4-0.2s0.2-0.2,0.2-0.3c0.1-0.1,0.1-0.3,0.1-0.4s-0.1-0.3-0.1-0.4c-0.1-0.1-0.2-0.3-0.3-0.4s-0.3-0.2-0.4-0.3
	c-0.2-0.1-0.3-0.1-0.5-0.1c-0.2,0-0.3,0-0.4,0.1C156.2,92.1,156.1,92.2,156,92.3z M156,95.4c0.2,0.1,0.3,0.1,0.4,0.2
	s0.2,0.2,0.3,0.3c0.1,0.1,0.2,0.2,0.2,0.4c0.1,0.1,0.1,0.3,0.1,0.4c0.1-0.1,0.3-0.2,0.4-0.3c0.2-0.1,0.3-0.1,0.5-0.1
	c0.2,0,0.3,0,0.5,0c0.2,0,0.3,0.1,0.5,0.1c0.3,0.1,0.5,0.3,0.7,0.4c0.2,0.2,0.3,0.3,0.4,0.5c0.1,0.2,0.2,0.4,0.2,0.6
	c0,0.2-0.1,0.4-0.1,0.6c-0.1,0.2-0.2,0.4-0.4,0.5s-0.3,0.3-0.5,0.3s-0.4,0.1-0.6,0.1c-0.3,0-0.5-0.1-0.8-0.2
	c-0.2-0.1-0.3-0.2-0.4-0.3c-0.2-0.1-0.3-0.2-0.4-0.3c-0.1-0.1-0.2-0.3-0.3-0.4c-0.1-0.2-0.1-0.3-0.1-0.5c-0.1,0.1-0.2,0.2-0.4,0.2
	c-0.1,0.1-0.3,0.1-0.4,0.1s-0.3,0-0.4,0s-0.3-0.1-0.4-0.1c-0.2-0.1-0.4-0.2-0.6-0.3c-0.2-0.2-0.3-0.3-0.4-0.5
	c-0.1-0.2-0.2-0.3-0.2-0.5c0-0.2,0-0.4,0.1-0.5c0.1-0.2,0.2-0.3,0.3-0.5s0.3-0.2,0.5-0.3c0.2-0.1,0.4-0.1,0.6-0.1
	C155.6,95.2,155.8,95.3,156,95.4z M157,98.2c0.1,0.2,0.2,0.3,0.3,0.4c0.2,0.1,0.3,0.2,0.5,0.3c0.2,0.1,0.4,0.1,0.6,0.2
	s0.4,0,0.5-0.1s0.3-0.1,0.4-0.2s0.2-0.3,0.3-0.4s0.1-0.3,0.1-0.5c0-0.2-0.1-0.3-0.1-0.5c-0.1-0.2-0.2-0.3-0.3-0.4
	c-0.2-0.1-0.3-0.2-0.5-0.3c-0.2-0.1-0.4-0.1-0.5-0.1s-0.4,0-0.5,0.1c-0.2,0.1-0.3,0.1-0.4,0.2s-0.2,0.3-0.3,0.4
	c-0.1,0.2-0.1,0.3-0.1,0.5C156.9,97.8,157,98,157,98.2z M154.6,95.8c-0.1,0.1-0.2,0.2-0.3,0.3c-0.1,0.2-0.1,0.3-0.1,0.4
	s0.1,0.3,0.1,0.4c0.1,0.1,0.2,0.2,0.3,0.3c0.1,0.1,0.3,0.2,0.4,0.3c0.2,0.1,0.3,0.1,0.5,0.1c0.2,0,0.3,0,0.4-0.1
	c0.2-0.1,0.3-0.1,0.4-0.2s0.2-0.2,0.2-0.3c0.1-0.1,0.1-0.3,0.1-0.4s-0.1-0.3-0.1-0.4c-0.1-0.2-0.2-0.3-0.3-0.4s-0.3-0.2-0.4-0.3
	s-0.3-0.1-0.5-0.1c-0.2,0-0.3,0-0.4,0.1C154.8,95.6,154.7,95.7,154.6,95.8z M154.6,98.8c0.4,0.1,0.7,0.2,1.2,0.4
	c0.5,0.2,1,0.5,1.4,0.7c0.4,0.3,0.7,0.5,0.9,0.8s0.4,0.6,0.4,0.8c0.1,0.3,0,0.6-0.1,0.9c-0.1,0.3-0.3,0.5-0.4,0.6l-0.4-0.2
	c0.3-0.2,0.4-0.4,0.5-0.6c0.2-0.5,0.1-1-0.3-1.5c-0.4-0.5-1-0.9-2-1.3l0,0c0.5,0.5,0.7,1,0.5,1.6c-0.1,0.2-0.2,0.4-0.4,0.5
	s-0.3,0.2-0.5,0.3s-0.4,0.1-0.7,0.1s-0.5-0.1-0.7-0.2s-0.5-0.3-0.7-0.4s-0.4-0.4-0.5-0.5c-0.1-0.2-0.2-0.4-0.2-0.6s0-0.4,0.1-0.6
	s0.2-0.4,0.4-0.5c0.2-0.1,0.4-0.2,0.7-0.3C154,98.7,154.3,98.7,154.6,98.8z M153.7,99.1c-0.2,0.1-0.4,0.1-0.5,0.2
	c-0.2,0.1-0.3,0.2-0.3,0.4s-0.1,0.3-0.1,0.5c0,0.2,0.1,0.3,0.2,0.5c0.1,0.2,0.2,0.3,0.4,0.4c0.2,0.1,0.4,0.2,0.6,0.3
	c0.2,0.1,0.5,0.2,0.7,0.2c0.2,0,0.4,0,0.6,0c0.2-0.1,0.3-0.1,0.4-0.2s0.2-0.2,0.3-0.4c0.1-0.2,0.1-0.3,0.1-0.5
	c0-0.2-0.1-0.3-0.2-0.5c-0.1-0.2-0.2-0.3-0.3-0.4c-0.2-0.1-0.3-0.2-0.5-0.3c-0.3-0.1-0.5-0.2-0.7-0.2S153.9,99.1,153.7,99.1z
	 M156.8,104.1c0.4,0.5,0.5,0.9,0.3,1.4c-0.2,0.4-0.6,0.7-1.2,0.7c-0.6,0.1-1.4-0.1-2.3-0.5c-1-0.4-1.7-0.8-2.1-1.3s-0.5-0.9-0.3-1.4
	c0.4-0.9,1.5-1,3.5-0.2C155.7,103.2,156.4,103.6,156.8,104.1z M151.5,103.1c-0.2,0.4-0.1,0.7,0.3,1.2c0.4,0.4,1,0.8,1.9,1.2
	c0.8,0.3,1.5,0.5,2,0.5s0.8-0.2,1-0.6c0.2-0.4,0.1-0.7-0.4-1.1s-1-0.7-1.8-1.1C152.9,102.4,151.8,102.4,151.5,103.1z M151.8,105.9
	c0.4,0.1,0.7,0.2,1.2,0.4c0.5,0.2,1,0.5,1.4,0.7c0.4,0.3,0.7,0.5,0.9,0.8s0.4,0.6,0.4,0.8c0.1,0.3,0,0.6-0.1,0.9
	c-0.1,0.3-0.3,0.5-0.4,0.6l-0.4-0.2c0.3-0.2,0.4-0.4,0.5-0.6c0.2-0.5,0.1-1-0.3-1.5c-0.4-0.5-1-0.9-2-1.3l0,0c0.5,0.5,0.7,1,0.5,1.6
	c-0.1,0.2-0.2,0.4-0.4,0.5s-0.3,0.2-0.5,0.3s-0.4,0.1-0.7,0.1s-0.5-0.1-0.7-0.2c-0.3-0.1-0.5-0.3-0.7-0.4s-0.4-0.4-0.5-0.5
	c-0.1-0.2-0.2-0.4-0.2-0.6c0-0.2,0-0.4,0.1-0.6s0.2-0.4,0.4-0.5c0.2-0.1,0.4-0.2,0.7-0.3C151.1,105.8,151.4,105.8,151.8,105.9z
	 M150.9,106.1c-0.2,0.1-0.4,0.1-0.5,0.2c-0.2,0.1-0.3,0.2-0.3,0.4s-0.1,0.3-0.1,0.5c0,0.2,0.1,0.3,0.2,0.5c0.1,0.2,0.2,0.3,0.4,0.4
	c0.2,0.1,0.4,0.2,0.6,0.3c0.2,0.1,0.5,0.2,0.7,0.2c0.2,0,0.4,0,0.6,0c0.2-0.1,0.3-0.1,0.4-0.2c0.1-0.1,0.2-0.2,0.3-0.4
	c0.1-0.2,0.1-0.3,0.1-0.5c0-0.2-0.1-0.3-0.2-0.5c-0.1-0.2-0.2-0.3-0.3-0.4c-0.2-0.1-0.3-0.2-0.5-0.3c-0.3-0.1-0.5-0.2-0.7-0.2
	C151.3,106.1,151.1,106.1,150.9,106.1z M150.3,109.4c0.4,0.1,0.7,0.2,1.2,0.4c0.5,0.2,1,0.5,1.4,0.7c0.4,0.3,0.7,0.5,0.9,0.8
	s0.4,0.6,0.4,0.8c0.1,0.3,0,0.6-0.1,0.9c-0.1,0.3-0.3,0.5-0.4,0.6l-0.4-0.2c0.3-0.2,0.4-0.4,0.5-0.6c0.2-0.5,0.1-1-0.3-1.5
	c-0.4-0.5-1-0.9-2-1.3l0,0c0.5,0.5,0.7,1,0.5,1.6c-0.1,0.2-0.2,0.4-0.4,0.5s-0.3,0.2-0.5,0.3s-0.4,0.1-0.7,0.1s-0.5-0.1-0.7-0.2
	s-0.5-0.3-0.7-0.4s-0.4-0.4-0.5-0.5c-0.1-0.2-0.2-0.4-0.2-0.6c0-0.2,0-0.4,0.1-0.6s0.2-0.4,0.4-0.5c0.2-0.1,0.4-0.2,0.7-0.3
	C149.7,109.3,150,109.3,150.3,109.4z M149.4,109.7c-0.2,0.1-0.4,0.1-0.5,0.2c-0.2,0.1-0.3,0.2-0.3,0.4s-0.1,0.3-0.1,0.5
	c0,0.2,0.1,0.3,0.2,0.5c0.1,0.2,0.2,0.3,0.4,0.4s0.4,0.2,0.6,0.3c0.2,0.1,0.5,0.2,0.7,0.2c0.2,0,0.4,0,0.6,0
	c0.2-0.1,0.3-0.1,0.4-0.2s0.2-0.2,0.3-0.4c0.1-0.2,0.1-0.3,0.1-0.5c0-0.2-0.1-0.3-0.2-0.5c-0.1-0.2-0.2-0.3-0.3-0.4
	c-0.2-0.1-0.3-0.2-0.5-0.3c-0.3-0.1-0.5-0.2-0.7-0.2C149.9,109.6,149.7,109.6,149.4,109.7z M152.5,114.7c0.4,0.5,0.5,0.9,0.3,1.4
	c-0.2,0.4-0.6,0.7-1.2,0.7c-0.6,0.1-1.4-0.1-2.3-0.5c-1-0.4-1.7-0.8-2.1-1.3c-0.4-0.5-0.5-0.9-0.3-1.4c0.4-0.9,1.5-1,3.5-0.2
	C151.4,113.8,152.2,114.2,152.5,114.7z M147.3,113.7c-0.2,0.4-0.1,0.7,0.3,1.2c0.4,0.4,1,0.8,1.9,1.2c0.8,0.3,1.5,0.5,2,0.5
	s0.8-0.2,1-0.6c0.2-0.4,0.1-0.7-0.4-1.1c-0.4-0.4-1-0.7-1.8-1.1C148.6,113,147.6,113,147.3,113.7z M151.1,118.2
	c0.4,0.5,0.5,0.9,0.3,1.4c-0.2,0.4-0.6,0.7-1.2,0.7c-0.6,0.1-1.4-0.1-2.3-0.5c-1-0.4-1.7-0.8-2.1-1.3s-0.5-0.9-0.3-1.4
	c0.4-0.9,1.6-1,3.5-0.2C150,117.3,150.7,117.7,151.1,118.2z M145.8,117.2c-0.2,0.4-0.1,0.7,0.3,1.2c0.4,0.4,1,0.8,1.9,1.2
	c0.8,0.3,1.5,0.5,2,0.5s0.8-0.2,1-0.6c0.2-0.4,0.1-0.7-0.4-1.1c-0.4-0.4-1-0.7-1.8-1.1C147.2,116.5,146.1,116.5,145.8,117.2z
	 M150.3,122.3l-5.3-2.1c0.1,0.2,0.2,0.5,0.3,0.7c0.1,0.3,0.1,0.5,0.1,0.8l-0.3-0.2c0-0.2,0-0.3-0.1-0.5c0-0.2-0.1-0.3-0.1-0.4
	c-0.1-0.2-0.1-0.3-0.2-0.4c-0.1-0.2-0.1-0.3-0.2-0.5l0.1-0.1l5.9,2.4L150.3,122.3z M148.7,124.1c0.4,0.5,0.5,0.9,0.3,1.4
	c-0.2,0.4-0.6,0.7-1.2,0.7c-0.6,0.1-1.4-0.1-2.3-0.5c-1-0.4-1.7-0.8-2.1-1.3s-0.5-0.9-0.3-1.4c0.4-0.9,1.5-1,3.5-0.2
	C147.6,123.2,148.3,123.7,148.7,124.1z M143.5,123.1c-0.2,0.4-0.1,0.7,0.3,1.2c0.4,0.4,1,0.8,1.9,1.2c0.8,0.3,1.5,0.5,2,0.5
	s0.8-0.2,1-0.6c0.2-0.4,0.1-0.7-0.4-1.1s-1-0.7-1.8-1.1C144.8,122.5,143.7,122.5,143.5,123.1z M147.3,127.7c0.4,0.5,0.5,0.9,0.3,1.4
	c-0.2,0.4-0.6,0.7-1.2,0.7c-0.6,0.1-1.4-0.1-2.3-0.5c-1-0.4-1.8-0.8-2.1-1.3c-0.4-0.5-0.5-0.9-0.3-1.4c0.4-0.9,1.5-1,3.5-0.2
	C146.2,126.7,146.9,127.2,147.3,127.7z M142.1,126.7c-0.2,0.4-0.1,0.7,0.3,1.2c0.4,0.4,1,0.8,1.9,1.2c0.8,0.3,1.5,0.5,2,0.5
	s0.8-0.2,1-0.6c0.2-0.4,0.1-0.7-0.4-1.1c-0.4-0.4-1-0.7-1.8-1.1C143.4,126,142.3,126,142.1,126.7z"/>
<path fill="#FFFFFF" d="M228.9,131.1c-0.1,0.2-0.3,0.3-0.4,0.5c-0.2,0.1-0.4,0.2-0.6,0.3c-0.2,0.1-0.4,0.1-0.6,0
	c-0.2-0.1-0.4-0.2-0.6-0.3c-0.2-0.2-0.4-0.3-0.5-0.6c-0.1-0.2-0.2-0.3-0.2-0.4c-0.1-0.2-0.1-0.3-0.1-0.5s0-0.3,0.1-0.5
	s0.1-0.3,0.2-0.5c-0.2,0-0.3,0-0.4,0s-0.3-0.1-0.4-0.1c-0.1-0.1-0.3-0.2-0.4-0.2c-0.1-0.1-0.2-0.2-0.3-0.3c-0.2-0.2-0.2-0.4-0.3-0.6
	s-0.1-0.4-0.1-0.6s0.1-0.4,0.2-0.5c0.1-0.2,0.2-0.3,0.4-0.4c0.2-0.1,0.3-0.2,0.5-0.2c0.2-0.1,0.4,0,0.5,0.1s0.4,0.2,0.5,0.3
	s0.3,0.3,0.4,0.5c0.1,0.1,0.2,0.3,0.2,0.4c0.1,0.2,0.1,0.3,0.1,0.4s0,0.3,0,0.4s-0.1,0.3-0.1,0.4c0.2-0.1,0.3-0.1,0.5,0
	c0.2,0.1,0.3,0.1,0.5,0.2c0.2,0.1,0.3,0.2,0.4,0.3c0.1,0.1,0.2,0.2,0.3,0.4c0.2,0.3,0.3,0.5,0.4,0.7c0.1,0.2,0.1,0.5,0.1,0.6
	C229,130.7,229,131,228.9,131.1z M226.7,127.4c-0.1-0.2-0.1-0.3-0.2-0.4c-0.1-0.2-0.2-0.3-0.4-0.4s-0.3-0.2-0.4-0.2
	s-0.3-0.1-0.4-0.1s-0.3,0.1-0.4,0.2c-0.1,0.1-0.2,0.2-0.3,0.3c-0.1,0.1-0.1,0.3-0.1,0.4s0,0.3,0.1,0.4s0.1,0.3,0.2,0.4
	c0.1,0.2,0.2,0.3,0.4,0.4c0.1,0.1,0.3,0.2,0.4,0.2s0.3,0.1,0.4,0.1s0.3-0.1,0.4-0.2c0.1-0.1,0.2-0.2,0.3-0.3
	c0.1-0.1,0.1-0.3,0.1-0.4C226.8,127.8,226.7,127.6,226.7,127.4z M228.6,130c-0.1-0.2-0.2-0.4-0.3-0.5s-0.3-0.3-0.4-0.4
	c-0.2-0.1-0.3-0.2-0.5-0.3c-0.2-0.1-0.3-0.1-0.5-0.1c-0.2,0-0.3,0.1-0.5,0.2c-0.2,0.1-0.3,0.2-0.3,0.4c-0.1,0.2-0.1,0.3-0.2,0.5
	c0,0.2,0,0.3,0.1,0.5c0.1,0.2,0.2,0.4,0.3,0.5s0.3,0.3,0.4,0.4c0.2,0.1,0.3,0.2,0.5,0.3c0.2,0.1,0.3,0.1,0.5,0.1
	c0.2,0,0.3-0.1,0.5-0.2c0.2-0.1,0.3-0.2,0.3-0.4c0.1-0.2,0.1-0.3,0.2-0.5C228.7,130.3,228.7,130.1,228.6,130z M225,133.8l-0.3,0.2
	c-0.3-0.5-0.5-0.9-0.6-1.5c-0.2-0.5-0.3-0.9-0.5-1.5s-0.3-1-0.4-1.5c-0.1-0.5-0.2-1-0.3-1.5l-2.3,1.6l-0.2-0.3l2.6-1.8l0.1,0.1
	c0.1,0.6,0.2,1.2,0.3,1.7c0.1,0.5,0.2,1,0.4,1.5c0.2,0.5,0.3,1,0.5,1.5C224.5,132.9,224.7,133.4,225,133.8z M220.2,132.4
	c0.2-0.1,0.4-0.2,0.6-0.2c0.2,0,0.4,0,0.6,0.1c0.2,0.1,0.4,0.2,0.6,0.3c0.2,0.2,0.4,0.4,0.5,0.6c0.2,0.3,0.3,0.5,0.4,0.7
	s0.1,0.5,0.1,0.7c0,0.2-0.1,0.4-0.2,0.6c-0.1,0.2-0.3,0.4-0.4,0.5c-0.2,0.2-0.4,0.2-0.6,0.2s-0.5-0.1-0.7-0.2
	c-0.3-0.1-0.5-0.3-0.7-0.6s-0.5-0.6-0.8-0.9c-0.3-0.5-0.6-0.9-0.7-1.3c-0.2-0.4-0.3-0.8-0.3-1.2c-0.1-0.4,0-0.7,0.1-0.9
	s0.3-0.5,0.5-0.7s0.5-0.3,0.7-0.3l0.3,0.4c-0.3,0-0.5,0.1-0.7,0.3s-0.4,0.3-0.4,0.6c-0.1,0.3-0.1,0.5-0.1,0.8c0.1,0.3,0.2,0.6,0.3,1
	c0.2,0.4,0.4,0.7,0.6,1.1l0,0C219.5,133.3,219.7,132.8,220.2,132.4z M220,134.2c0.1,0.2,0.2,0.4,0.3,0.5c0.2,0.2,0.3,0.4,0.5,0.5
	c0.2,0.2,0.4,0.3,0.5,0.3s0.4,0.1,0.5,0.1s0.3-0.1,0.5-0.2c0.2-0.1,0.3-0.2,0.3-0.4c0.1-0.2,0.1-0.3,0.1-0.5s-0.1-0.4-0.1-0.6
	c-0.1-0.2-0.2-0.4-0.3-0.6c-0.2-0.2-0.3-0.4-0.5-0.5c-0.2-0.2-0.3-0.2-0.5-0.3c-0.2-0.1-0.3-0.1-0.5-0.1c-0.2,0-0.3,0.1-0.5,0.2
	c-0.2,0.1-0.3,0.2-0.3,0.4c-0.1,0.2-0.1,0.3-0.1,0.5C219.9,133.8,219.9,134,220,134.2z M218.6,138.3c-0.3-0.5-0.5-0.9-0.6-1.5
	c-0.2-0.5-0.3-0.9-0.5-1.5c-0.2-0.5-0.3-1-0.4-1.5c-0.1-0.5-0.2-1-0.3-1.5l-2.3,1.6l-0.2-0.3l2.6-1.8l0.1,0.1
	c0.1,0.6,0.2,1.2,0.3,1.7c0.1,0.5,0.2,1,0.4,1.5c0.2,0.5,0.3,1,0.5,1.5c0.2,0.5,0.4,1,0.6,1.5L218.6,138.3z M214.7,135.7
	c0.1,0.2,0.1,0.3,0.1,0.4s0,0.3,0,0.4s-0.1,0.3-0.1,0.4c0.2-0.1,0.3-0.1,0.5,0c0.2,0,0.3,0.1,0.5,0.2c0.2,0.1,0.3,0.2,0.4,0.3
	c0.1,0.1,0.2,0.2,0.3,0.4c0.2,0.3,0.3,0.5,0.4,0.7c0.1,0.2,0.1,0.5,0.1,0.6c0,0.2-0.1,0.4-0.2,0.6c-0.1,0.2-0.3,0.3-0.4,0.5
	c-0.2,0.1-0.4,0.2-0.6,0.3c-0.2,0.1-0.4,0.1-0.6,0c-0.2-0.1-0.4-0.2-0.6-0.3c-0.2-0.2-0.4-0.3-0.5-0.6c-0.1-0.2-0.2-0.3-0.2-0.4
	c-0.1-0.2-0.1-0.3-0.1-0.5s0-0.3,0.1-0.5s0.1-0.3,0.2-0.5c-0.2,0-0.3,0-0.4,0s-0.3-0.1-0.4-0.1c-0.1-0.1-0.3-0.2-0.4-0.2
	c-0.1-0.1-0.2-0.2-0.3-0.3c-0.2-0.2-0.2-0.4-0.3-0.6s-0.1-0.4-0.1-0.6s0.1-0.4,0.2-0.5c0.1-0.2,0.2-0.3,0.4-0.4
	c0.2-0.1,0.3-0.2,0.5-0.2c0.2-0.1,0.4,0,0.5,0.1s0.4,0.2,0.5,0.3s0.3,0.3,0.4,0.5C214.6,135.5,214.7,135.6,214.7,135.7z
	 M213.9,138.8c0.1,0.2,0.2,0.4,0.3,0.5s0.3,0.3,0.4,0.4c0.2,0.1,0.3,0.2,0.5,0.3c0.2,0.1,0.3,0.1,0.5,0.1c0.2-0.1,0.3-0.1,0.5-0.2
	c0.2-0.1,0.3-0.2,0.3-0.4c0.1-0.2,0.1-0.3,0.2-0.5c0-0.2,0-0.3-0.1-0.5c-0.1-0.2-0.2-0.4-0.3-0.5s-0.3-0.3-0.4-0.4s-0.3-0.2-0.5-0.3
	c-0.2-0.1-0.3-0.1-0.5-0.1c-0.2,0-0.3,0.1-0.5,0.2c-0.2,0.1-0.3,0.2-0.3,0.4c-0.1,0.2-0.1,0.3-0.2,0.5
	C213.8,138.4,213.9,138.6,213.9,138.8z M214.5,136c-0.1-0.2-0.1-0.3-0.2-0.4c-0.1-0.2-0.2-0.3-0.4-0.4c-0.1-0.1-0.3-0.2-0.4-0.2
	s-0.3-0.1-0.4-0.1s-0.3,0.1-0.4,0.2c-0.1,0.1-0.2,0.2-0.3,0.3s-0.1,0.3-0.1,0.4c0,0.2,0,0.3,0.1,0.4s0.1,0.3,0.2,0.4
	c0.1,0.2,0.2,0.3,0.4,0.4c0.1,0.1,0.3,0.2,0.4,0.2s0.3,0.1,0.4,0.1s0.3-0.1,0.4-0.2c0.1-0.1,0.2-0.2,0.3-0.3
	c0.1-0.1,0.1-0.3,0.1-0.4C214.5,136.3,214.5,136.1,214.5,136z M212.1,139.1c0.2,0.1,0.3,0.1,0.5,0.2c0.2,0.1,0.3,0.2,0.4,0.3
	s0.2,0.2,0.3,0.4c0.2,0.3,0.3,0.5,0.4,0.7c0.1,0.2,0.1,0.5,0.1,0.6c0,0.2-0.1,0.4-0.2,0.6c-0.1,0.2-0.3,0.3-0.4,0.5
	c-0.2,0.1-0.4,0.2-0.6,0.3c-0.2,0.1-0.4,0.1-0.6,0c-0.2-0.1-0.4-0.2-0.6-0.3c-0.2-0.2-0.4-0.3-0.5-0.6c-0.1-0.2-0.2-0.3-0.2-0.4
	c-0.1-0.2-0.1-0.3-0.1-0.5s0-0.3,0.1-0.5s0.1-0.3,0.2-0.5c-0.2,0-0.3,0-0.4,0s-0.3-0.1-0.4-0.1c-0.1-0.1-0.3-0.2-0.4-0.2
	c-0.1-0.1-0.2-0.2-0.3-0.3c-0.2-0.2-0.2-0.4-0.3-0.6s-0.1-0.4-0.1-0.6s0.1-0.4,0.2-0.5s0.2-0.3,0.4-0.4c0.2-0.1,0.3-0.2,0.5-0.2
	s0.4,0,0.5,0.1s0.4,0.2,0.5,0.3s0.3,0.3,0.4,0.5c0.1,0.1,0.2,0.3,0.2,0.4c0.1,0.2,0.1,0.3,0.1,0.4s0,0.3,0,0.4s-0.1,0.3-0.1,0.4
	C211.7,139.1,211.9,139.1,212.1,139.1z M211.3,138.1c-0.1-0.2-0.1-0.3-0.2-0.4c-0.1-0.2-0.2-0.3-0.4-0.4c-0.1-0.1-0.3-0.2-0.4-0.2
	s-0.3-0.1-0.4-0.1s-0.3,0.1-0.4,0.2c-0.1,0.1-0.2,0.2-0.3,0.3s-0.1,0.3-0.1,0.4s0,0.3,0.1,0.4s0.1,0.3,0.2,0.4
	c0.1,0.2,0.2,0.3,0.4,0.4c0.1,0.1,0.3,0.2,0.4,0.2s0.3,0.1,0.4,0.1s0.3-0.1,0.4-0.2c0.1-0.1,0.2-0.2,0.3-0.3
	c0.1-0.1,0.1-0.3,0.1-0.4C211.4,138.4,211.4,138.3,211.3,138.1z M211.2,139.6c-0.2,0.1-0.3,0.2-0.3,0.4c-0.1,0.2-0.1,0.3-0.2,0.5
	c0,0.2,0,0.3,0.1,0.5c0.1,0.2,0.2,0.4,0.3,0.5s0.3,0.3,0.4,0.4c0.2,0.1,0.3,0.2,0.5,0.3c0.2,0.1,0.3,0.1,0.5,0.1
	c0.2,0,0.3-0.1,0.4-0.2c0.2-0.1,0.3-0.2,0.3-0.4c0.1-0.2,0.1-0.3,0.2-0.5c0-0.2,0-0.3-0.1-0.5c-0.1-0.2-0.2-0.4-0.3-0.5
	s-0.3-0.3-0.4-0.4c-0.2-0.1-0.3-0.2-0.5-0.3c-0.2-0.1-0.3-0.1-0.5-0.1C211.5,139.4,211.4,139.5,211.2,139.6z M209,141.3
	c0.2,0.1,0.3,0.1,0.5,0.2c0.2,0.1,0.3,0.2,0.4,0.3c0.1,0.1,0.2,0.2,0.3,0.4c0.2,0.3,0.3,0.5,0.4,0.7c0.1,0.2,0.1,0.5,0.1,0.6
	c0,0.2-0.1,0.4-0.2,0.6c-0.1,0.2-0.3,0.3-0.4,0.5c-0.2,0.1-0.4,0.2-0.6,0.3c-0.2,0.1-0.4,0.1-0.6,0c-0.2-0.1-0.4-0.2-0.6-0.3
	c-0.2-0.2-0.4-0.3-0.5-0.6c-0.1-0.2-0.2-0.3-0.2-0.4c-0.1-0.2-0.1-0.3-0.1-0.5s0-0.3,0.1-0.5s0.1-0.3,0.2-0.5c-0.2,0-0.3,0-0.4,0
	s-0.3-0.1-0.4-0.1c-0.1-0.1-0.3-0.2-0.4-0.2s-0.2-0.2-0.3-0.3c-0.2-0.2-0.2-0.4-0.3-0.6s-0.1-0.4-0.1-0.6s0.1-0.4,0.2-0.5
	s0.2-0.3,0.4-0.4c0.2-0.1,0.3-0.2,0.5-0.2c0.2-0.1,0.4,0,0.5,0.1c0.2,0.1,0.4,0.2,0.5,0.3c0.2,0.1,0.3,0.3,0.4,0.5
	c0.1,0.1,0.2,0.3,0.2,0.4c0.1,0.2,0.1,0.3,0.1,0.4s0,0.3,0,0.4s-0.1,0.3-0.1,0.4C208.7,141.2,208.8,141.2,209,141.3z M208.2,140.3
	c-0.1-0.2-0.1-0.3-0.2-0.4c-0.1-0.2-0.2-0.3-0.4-0.4c-0.1-0.1-0.3-0.2-0.4-0.2s-0.3-0.1-0.4-0.1s-0.3,0.1-0.4,0.2
	c-0.1,0.1-0.2,0.2-0.3,0.3s-0.1,0.3-0.1,0.4s0,0.3,0.1,0.4s0.1,0.3,0.2,0.4c0.1,0.2,0.2,0.3,0.4,0.4c0.1,0.1,0.3,0.2,0.4,0.2
	s0.3,0.1,0.4,0.1s0.3-0.1,0.4-0.2c0.1-0.1,0.2-0.2,0.3-0.3c0.1-0.1,0.1-0.3,0.1-0.4C208.3,140.6,208.3,140.5,208.2,140.3z
	 M208.1,141.8c-0.2,0.1-0.3,0.2-0.3,0.4c-0.1,0.2-0.1,0.3-0.2,0.5c0,0.2,0,0.3,0.1,0.5c0.1,0.2,0.2,0.4,0.3,0.5s0.3,0.3,0.4,0.4
	s0.3,0.2,0.5,0.3c0.2,0.1,0.3,0.1,0.5,0.1c0.2,0,0.3-0.1,0.5-0.2c0.2-0.1,0.3-0.2,0.3-0.4c0.1-0.2,0.1-0.3,0.2-0.5
	c0-0.2,0-0.3-0.1-0.5c-0.1-0.2-0.2-0.4-0.3-0.5s-0.3-0.3-0.4-0.4s-0.3-0.2-0.5-0.3c-0.2-0.1-0.3-0.1-0.5-0.1
	C208.4,141.6,208.2,141.7,208.1,141.8z M207.3,145.3c0.1,0.6-0.1,1-0.5,1.4c-0.4,0.3-0.8,0.3-1.4,0s-1-0.8-1.6-1.7
	c-0.6-0.9-1-1.7-1.1-2.3c-0.1-0.6,0.1-1.1,0.5-1.4c0.8-0.6,1.8,0,3,1.8C206.9,143.9,207.2,144.6,207.3,145.3z M203.4,141.6
	c-0.3,0.2-0.4,0.6-0.3,1.2s0.4,1.2,1,2c0.5,0.7,1,1.3,1.4,1.5s0.8,0.3,1.2,0.1c0.3-0.2,0.4-0.6,0.3-1.1s-0.4-1.2-0.9-1.9
	C204.9,141.7,204,141.1,203.4,141.6z M202.7,145.6c0.2,0.1,0.3,0.1,0.5,0.2c0.2,0.1,0.3,0.2,0.4,0.3c0.1,0.1,0.2,0.2,0.3,0.4
	c0.2,0.3,0.3,0.5,0.4,0.7c0.1,0.2,0.1,0.5,0.1,0.6c0,0.2-0.1,0.4-0.2,0.6c-0.1,0.2-0.3,0.3-0.4,0.5c-0.2,0.1-0.4,0.2-0.6,0.3
	c-0.2,0.1-0.4,0.1-0.6,0c-0.2-0.1-0.4-0.2-0.6-0.3c-0.2-0.2-0.4-0.3-0.5-0.6c-0.1-0.2-0.2-0.3-0.2-0.4c-0.1-0.2-0.1-0.3-0.1-0.5
	s0-0.3,0.1-0.5s0.1-0.3,0.2-0.5c-0.2,0-0.3,0-0.4,0s-0.3-0.1-0.4-0.1c-0.1-0.1-0.3-0.2-0.4-0.2c-0.1-0.1-0.2-0.2-0.3-0.3
	c-0.2-0.2-0.2-0.4-0.3-0.6s-0.1-0.4-0.1-0.6s0.1-0.4,0.2-0.5s0.2-0.3,0.4-0.4c0.2-0.1,0.3-0.2,0.5-0.2c0.2-0.1,0.4,0,0.5,0.1
	s0.4,0.2,0.5,0.3s0.3,0.3,0.4,0.5c0.1,0.1,0.2,0.3,0.2,0.4c0.1,0.2,0.1,0.3,0.1,0.4s0,0.3,0,0.4s-0.1,0.3-0.1,0.4
	C202.4,145.6,202.6,145.6,202.7,145.6z M202,144.7c-0.1-0.2-0.1-0.3-0.2-0.4c-0.1-0.2-0.2-0.3-0.4-0.4c-0.1-0.1-0.3-0.2-0.4-0.2
	s-0.3-0.1-0.4-0.1s-0.3,0.1-0.4,0.2c-0.1,0.1-0.2,0.2-0.3,0.3s-0.1,0.3-0.1,0.4s0,0.3,0.1,0.4s0.1,0.3,0.2,0.4
	c0.1,0.2,0.2,0.3,0.4,0.4c0.1,0.1,0.3,0.2,0.4,0.2s0.3,0.1,0.4,0.1s0.3-0.1,0.4-0.2c0.1-0.1,0.2-0.2,0.3-0.3
	c0.1-0.1,0.1-0.3,0.1-0.4S202.1,144.8,202,144.7z M201.9,146.1c-0.2,0.1-0.3,0.2-0.3,0.4c-0.1,0.2-0.1,0.3-0.2,0.5
	c0,0.2,0,0.3,0.1,0.5c0.1,0.2,0.2,0.4,0.3,0.5s0.3,0.3,0.4,0.4c0.2,0.1,0.3,0.2,0.5,0.3c0.2,0.1,0.3,0.1,0.5,0.1
	c0.2-0.1,0.3-0.1,0.5-0.2c0.2-0.1,0.3-0.2,0.3-0.4c0.1-0.2,0.1-0.3,0.2-0.5c0-0.2,0-0.3-0.1-0.5c-0.1-0.2-0.2-0.4-0.3-0.5
	s-0.3-0.3-0.4-0.4c-0.2-0.1-0.3-0.2-0.5-0.3c-0.2-0.1-0.3-0.1-0.5-0.1C202.2,145.9,202,146,201.9,146.1z M199.6,147.8
	c0.2,0.1,0.3,0.1,0.5,0.2c0.2,0.1,0.3,0.2,0.4,0.3c0.1,0.1,0.2,0.2,0.3,0.4c0.2,0.3,0.3,0.5,0.4,0.7c0.1,0.2,0.1,0.5,0.1,0.6
	c0,0.2-0.1,0.4-0.2,0.6c-0.1,0.2-0.3,0.3-0.4,0.5c-0.2,0.1-0.4,0.2-0.6,0.3c-0.2,0.1-0.4,0.1-0.6,0c-0.2-0.1-0.4-0.2-0.6-0.3
	c-0.2-0.2-0.4-0.3-0.5-0.6c-0.1-0.2-0.2-0.3-0.2-0.4c-0.1-0.2-0.1-0.3-0.1-0.5s0-0.3,0.1-0.5s0.1-0.3,0.2-0.5c-0.2,0-0.3,0-0.4,0
	s-0.3-0.1-0.4-0.1c-0.1-0.1-0.3-0.2-0.4-0.2c-0.1-0.1-0.2-0.2-0.3-0.3c-0.2-0.2-0.2-0.4-0.3-0.6s-0.1-0.4-0.1-0.6s0.1-0.4,0.2-0.5
	s0.2-0.3,0.4-0.4c0.2-0.1,0.3-0.2,0.5-0.2c0.2-0.1,0.4,0,0.5,0.1s0.4,0.2,0.5,0.3s0.3,0.3,0.4,0.5c0.1,0.1,0.2,0.3,0.2,0.4
	c0.1,0.2,0.1,0.3,0.1,0.4s0,0.3,0,0.4s-0.1,0.3-0.1,0.4C199.3,147.7,199.5,147.7,199.6,147.8z M198.9,146.8
	c-0.1-0.2-0.1-0.3-0.2-0.4c-0.1-0.2-0.2-0.3-0.4-0.4c-0.1-0.1-0.3-0.2-0.4-0.2s-0.3-0.1-0.4-0.1s-0.3,0.1-0.4,0.2
	c-0.1,0.1-0.2,0.2-0.3,0.3s-0.1,0.3-0.1,0.4s0,0.3,0.1,0.4s0.1,0.3,0.2,0.4c0.1,0.2,0.2,0.3,0.4,0.4s0.3,0.2,0.4,0.2
	s0.3,0.1,0.4,0.1s0.3-0.1,0.4-0.2c0.1-0.1,0.2-0.2,0.3-0.3c0.1-0.1,0.1-0.3,0.1-0.4C199,147.1,198.9,147,198.9,146.8z M198.8,148.3
	c-0.2,0.1-0.3,0.2-0.3,0.4c-0.1,0.2-0.1,0.3-0.2,0.5c0,0.2,0,0.3,0.1,0.5c0.1,0.2,0.2,0.4,0.3,0.5s0.3,0.3,0.4,0.4s0.3,0.2,0.5,0.3
	c0.2,0.1,0.3,0.1,0.5,0.1c0.2,0,0.3-0.1,0.4-0.2c0.2-0.1,0.3-0.2,0.3-0.4c0.1-0.2,0.1-0.3,0.2-0.5c0-0.2,0-0.3-0.1-0.5
	c-0.1-0.2-0.2-0.4-0.3-0.5s-0.3-0.3-0.4-0.4c-0.2-0.1-0.3-0.2-0.5-0.3c-0.2-0.1-0.3-0.1-0.5-0.1
	C199.1,148.1,198.9,148.2,198.8,148.3z M197.4,150.6c0.2,0.4,0.3,0.8,0.3,1.2c0.1,0.4,0,0.7-0.1,0.9s-0.3,0.5-0.6,0.7
	c-0.2,0.2-0.5,0.3-0.7,0.3l-0.3-0.4c0.3-0.1,0.6-0.1,0.7-0.3c0.5-0.3,0.6-0.8,0.6-1.4c-0.1-0.6-0.4-1.3-1-2.1l0,0
	c0.2,0.7,0.1,1.2-0.5,1.6c-0.2,0.1-0.4,0.2-0.6,0.2c-0.2,0-0.4,0-0.6-0.1c-0.2-0.1-0.4-0.2-0.6-0.3c-0.2-0.2-0.4-0.4-0.5-0.6
	c-0.2-0.3-0.3-0.5-0.4-0.7c-0.1-0.3-0.1-0.5-0.1-0.7c0-0.2,0.1-0.4,0.2-0.6c0.1-0.2,0.3-0.4,0.4-0.5c0.2-0.1,0.4-0.2,0.6-0.2
	c0.2,0,0.5,0.1,0.7,0.2c0.3,0.1,0.5,0.3,0.7,0.6s0.5,0.6,0.8,0.9C197,149.7,197.3,150.2,197.4,150.6z M196.2,149.5
	c-0.1-0.2-0.1-0.4-0.2-0.5c-0.2-0.2-0.3-0.4-0.5-0.6c-0.2-0.2-0.4-0.3-0.5-0.3c-0.2-0.1-0.4-0.1-0.5-0.1s-0.3,0.1-0.5,0.2
	c-0.2,0.1-0.3,0.2-0.3,0.4c-0.1,0.2-0.1,0.3-0.1,0.5s0.1,0.4,0.1,0.6c0.1,0.2,0.2,0.4,0.3,0.6s0.3,0.4,0.5,0.5
	c0.2,0.2,0.3,0.2,0.5,0.3c0.2,0.1,0.3,0.1,0.5,0.1c0.2,0,0.3-0.1,0.5-0.2c0.1-0.1,0.2-0.2,0.3-0.4c0.1-0.2,0.1-0.3,0.1-0.5
	C196.3,149.8,196.3,149.6,196.2,149.5z M194.9,154c0.1,0.6-0.1,1-0.5,1.4c-0.4,0.3-0.8,0.3-1.4,0s-1-0.8-1.6-1.7
	c-0.6-0.9-1-1.7-1.1-2.3c-0.1-0.6,0.1-1.1,0.5-1.4c0.8-0.6,1.8,0,3,1.8C194.4,152.6,194.8,153.3,194.9,154z M190.9,150.2
	c-0.3,0.2-0.4,0.6-0.3,1.2s0.4,1.2,1,2c0.5,0.7,1,1.3,1.4,1.5c0.5,0.3,0.8,0.3,1.2,0.1c0.3-0.2,0.4-0.6,0.3-1.1s-0.4-1.2-0.9-1.9
	C192.5,150.4,191.6,149.8,190.9,150.2z M191.3,155c0.2,0.4,0.3,0.8,0.3,1.2c0.1,0.4,0,0.7-0.1,0.9s-0.3,0.5-0.6,0.7
	c-0.2,0.2-0.5,0.3-0.7,0.3l-0.3-0.4c0.3-0.1,0.6-0.1,0.7-0.3c0.5-0.3,0.6-0.8,0.6-1.4c-0.1-0.6-0.4-1.3-1-2.1l0,0
	c0.2,0.7,0.1,1.2-0.5,1.6c-0.2,0.1-0.4,0.2-0.6,0.2c-0.2,0-0.4,0-0.6-0.1c-0.2-0.1-0.4-0.2-0.6-0.3c-0.2-0.2-0.4-0.4-0.5-0.6
	c-0.2-0.3-0.3-0.5-0.4-0.7c-0.1-0.3-0.1-0.5-0.1-0.7c0-0.2,0.1-0.4,0.2-0.6c0.1-0.2,0.3-0.4,0.4-0.5c0.2-0.1,0.4-0.2,0.6-0.2
	c0.2,0,0.5,0.1,0.7,0.2c0.3,0.1,0.5,0.3,0.7,0.6s0.5,0.6,0.8,0.9C190.8,154.1,191,154.5,191.3,155z M190,153.8
	c-0.1-0.2-0.1-0.4-0.2-0.5c-0.2-0.2-0.3-0.4-0.5-0.6c-0.2-0.2-0.4-0.3-0.5-0.3s-0.4-0.1-0.5-0.1s-0.3,0.1-0.5,0.2
	c-0.2,0.1-0.3,0.2-0.3,0.4c-0.1,0.2-0.1,0.3-0.1,0.5s0.1,0.4,0.1,0.6s0.2,0.4,0.3,0.6s0.3,0.4,0.5,0.5c0.2,0.2,0.3,0.2,0.5,0.3
	c0.2,0.1,0.3,0.1,0.5,0.1c0.2,0,0.3-0.1,0.5-0.2c0.1-0.1,0.2-0.2,0.3-0.4c0.1-0.2,0.1-0.3,0.1-0.5C190.1,154.1,190.1,154,190,153.8z
	 M188.1,157.1c0.2,0.4,0.3,0.8,0.3,1.2c0.1,0.4,0,0.7-0.1,0.9s-0.3,0.5-0.6,0.7c-0.2,0.2-0.5,0.3-0.7,0.3l-0.3-0.4
	c0.3-0.1,0.6-0.1,0.7-0.3c0.5-0.3,0.6-0.8,0.6-1.4c-0.1-0.6-0.4-1.3-1-2.1l0,0c0.2,0.7,0.1,1.2-0.5,1.6c-0.2,0.1-0.4,0.2-0.6,0.2
	c-0.2,0-0.4,0-0.6-0.1s-0.4-0.2-0.6-0.3c-0.2-0.2-0.4-0.4-0.5-0.6c-0.2-0.3-0.3-0.5-0.4-0.7c-0.1-0.3-0.1-0.5-0.1-0.7
	c0-0.2,0.1-0.4,0.2-0.6c0.1-0.2,0.3-0.4,0.4-0.5c0.2-0.1,0.4-0.2,0.6-0.2c0.2,0,0.5,0.1,0.7,0.2c0.3,0.1,0.5,0.3,0.7,0.6
	s0.5,0.6,0.8,0.9C187.7,156.2,188,156.7,188.1,157.1z M186.9,155.9c-0.1-0.2-0.1-0.4-0.2-0.5c-0.2-0.2-0.3-0.4-0.5-0.6
	c-0.2-0.2-0.4-0.3-0.5-0.3s-0.4-0.1-0.5-0.1s-0.3,0.1-0.5,0.2c-0.2,0.1-0.3,0.2-0.3,0.4c-0.1,0.2-0.1,0.3-0.1,0.5s0.1,0.4,0.1,0.6
	c0.1,0.2,0.2,0.4,0.3,0.6s0.3,0.4,0.5,0.5c0.2,0.2,0.3,0.2,0.5,0.3c0.2,0.1,0.3,0.1,0.5,0.1c0.2,0,0.3-0.1,0.5-0.2
	c0.1-0.1,0.2-0.2,0.3-0.4s0.1-0.3,0.1-0.5C187,156.3,187,156.1,186.9,155.9z M185.5,160.5c0.1,0.6-0.1,1-0.5,1.4
	c-0.4,0.3-0.8,0.3-1.4,0s-1-0.8-1.6-1.7c-0.6-0.9-1-1.7-1.1-2.3c-0.1-0.6,0.1-1.1,0.5-1.4c0.8-0.6,1.8,0,3,1.8
	C185.1,159.1,185.4,159.8,185.5,160.5z M181.6,156.7c-0.3,0.2-0.4,0.6-0.3,1.2s0.4,1.2,1,2c0.5,0.7,1,1.3,1.4,1.5
	c0.5,0.3,0.8,0.3,1.2,0.1c0.3-0.2,0.4-0.6,0.3-1.1c-0.1-0.5-0.4-1.2-0.9-1.9C183.1,156.9,182.2,156.3,181.6,156.7z M182.4,162.6
	c0.1,0.6-0.1,1-0.5,1.4c-0.4,0.3-0.8,0.3-1.4,0s-1-0.8-1.6-1.7c-0.6-0.9-1-1.7-1.1-2.3c-0.1-0.6,0.1-1.1,0.5-1.4
	c0.8-0.6,1.8,0,3,1.8C182,161.2,182.3,162,182.4,162.6z M178.5,158.9c-0.3,0.2-0.4,0.6-0.3,1.2s0.4,1.2,1,2c0.5,0.7,1,1.3,1.4,1.5
	s0.8,0.3,1.2,0.1c0.3-0.2,0.4-0.6,0.3-1.1s-0.4-1.2-0.9-1.9C180,159,179.2,158.5,178.5,158.9z M179.5,165.5l-3.3-4.7
	c-0.1,0.3-0.1,0.5-0.2,0.7c-0.1,0.2-0.2,0.5-0.4,0.7l-0.2-0.3c0.1-0.2,0.2-0.3,0.2-0.4c0.1-0.2,0.1-0.3,0.2-0.4s0.1-0.3,0.1-0.5
	c0.1-0.2,0.1-0.3,0.1-0.5l0.1-0.1l3.7,5.2L179.5,165.5z M177.2,166.3c0.1,0.6-0.1,1-0.5,1.4c-0.4,0.3-0.8,0.3-1.4,0s-1-0.8-1.6-1.7
	c-0.6-0.9-1-1.7-1.1-2.3c-0.1-0.6,0.1-1.1,0.5-1.4c0.8-0.6,1.8,0,3,1.8C176.7,164.9,177.1,165.6,177.2,166.3z M173.2,162.6
	c-0.3,0.2-0.4,0.6-0.3,1.2c0.1,0.5,0.4,1.2,1,2c0.5,0.7,1,1.3,1.4,1.5s0.8,0.3,1.2,0.1c0.3-0.2,0.4-0.6,0.3-1.1s-0.4-1.2-0.9-1.9
	C174.8,162.7,173.9,162.1,173.2,162.6z M174,168.4c0.1,0.6-0.1,1-0.5,1.4c-0.4,0.3-0.8,0.3-1.4,0s-1-0.8-1.6-1.7
	c-0.6-0.9-1-1.7-1.1-2.3c-0.1-0.6,0.1-1.1,0.5-1.4c0.8-0.6,1.8,0,3,1.8C173.6,167.1,174,167.8,174,168.4z M170.1,164.8
	c-0.3,0.2-0.4,0.6-0.3,1.2s0.4,1.2,1,2c0.5,0.7,1,1.3,1.4,1.5c0.5,0.3,0.8,0.3,1.2,0.1c0.3-0.2,0.4-0.6,0.3-1.1s-0.4-1.2-0.9-1.9
	C171.7,164.9,170.8,164.3,170.1,164.8z"/>
<path fill="#00BDDA" d="M252.1,49.7l0.3,0.3L168,146.8l-0.3-0.3L252.1,49.7z"/>
</svg>
