<?xml version="1.0" encoding="UTF-8" standalone="no"?>
<svg width="1803px" height="906px" viewBox="0 0 1803 906" version="1.1" xmlns="http://www.w3.org/2000/svg" xmlns:xlink="http://www.w3.org/1999/xlink" xmlns:sketch="http://www.bohemiancoding.com/sketch/ns">
    <!-- Generator: Sketch 3.4.2 (15855) - http://www.bohemiancoding.com/sketch -->
    <title>未标题-1 (all selected layers)</title>
    <desc>Created with Sketch.</desc>
    <defs></defs>
    <g id="Page-1" stroke="none" stroke-width="1" fill="none" fill-rule="evenodd" sketch:type="MSPage">
        <g id="未标题-1-(all-selected-layers)" sketch:type="MSLayerGroup" transform="translate(2.000000, 2.000000)">
            <path d="M50,65 L672,65 C699.6,65 722,87.4 722,115 L722,789 C722,816.6 699.6,839 672,839 L50,839 C22.4,839 0,816.6 0,789 L0,115 C0,87.4 22.4,65 50,65 L50,65 Z" id="Shape" stroke="#7C8996" stroke-width="4" sketch:type="MSShapeGroup"></path>
            <path d="M330,837 L330,851.5 C330,879.4 352.4,902 380,902 L1449,902 C1476.6,902 1499,879.4 1499,851.5 L1499,837" id="Shape" stroke="#7C8996" stroke-width="4" sketch:type="MSShapeGroup"></path>
            <path d="M1127,65 L1749,65 C1776.6,65 1799,87.4 1799,115 L1799,789 C1799,816.6 1776.6,839 1749,839 L1127,839 C1099.4,839 1077,816.6 1077,789 L1077,115 C1077,87.4 1099.4,65 1127,65 L1127,65 Z" id="Shape" stroke="#7C8996" stroke-width="4" sketch:type="MSShapeGroup"></path>
            <path d="M1239,309 L1243,309 L1243,605 L1239,605 L1239,309 L1239,309 Z" id="Shape" fill="#7C8996" sketch:type="MSShapeGroup"></path>
            <path d="M1241,306 C1246,306 1250,310 1250,315 C1250,320 1246,324 1241,324 C1236,324 1232,320 1232,315 C1232,310 1236,306 1241,306 L1241,306 Z" id="Shape" fill="#7C8996" sketch:type="MSShapeGroup"></path>
            <path d="M1241,382 C1246,382 1250,386 1250,391 C1250,396 1246,400 1241,400 C1236,400 1232,396 1232,391 C1232,386 1236,382 1241,382 L1241,382 Z" id="Shape" fill="#7C8996" sketch:type="MSShapeGroup"></path>
            <path d="M1241,452 C1246,452 1250,456 1250,461 C1250,466 1246,470 1241,470 C1236,470 1232,466 1232,461 C1232,456 1236,452 1241,452 L1241,452 Z" id="Shape" fill="#7C8996" sketch:type="MSShapeGroup"></path>
            <path d="M1241,527 C1246,527 1250,531 1250,536 C1250,541 1246,545 1241,545 C1236,545 1232,541 1232,536 C1232,531 1236,527 1241,527 L1241,527 Z" id="Shape" fill="#7C8996" sketch:type="MSShapeGroup"></path>
            <path d="M1241,596 C1246,596 1250,600 1250,605 C1250,610 1246,614 1241,614 C1236,614 1232,610 1232,605 C1232,600 1236,596 1241,596 L1241,596 Z" id="Shape" fill="#7C8996" sketch:type="MSShapeGroup"></path>
            <path d="M382.7,443.1 L382.7,443.1 L382.1,442.3 C380.5,440.1 378.6,439.5 376.8,439.9 C376.1,440.1 375.3,440.5 374.6,441 C373.8,441.5 373.3,442.1 372.7,442.7 C371.7,444.1 371.6,446.1 373,448.1 L373.1,448.2 L373.2,448.3 L383.8,463.7 C385.8,466.5 385,470.5 382.3,472.3 C379.5,474.2 375.6,473.5 373.7,470.7 C362.3,454.2 350.9,437.8 339.4,421.2 C338,419.1 336.1,418.4 334.2,418.7 C333.4,419 332.7,419.3 331.9,419.9 C331.3,420.4 330.6,421 330.1,421.6 C329.2,423.2 329.1,425.4 330.5,427.4 C349.4,454.7 368.3,482 387.2,509.3 C389.1,512.1 388.5,515.9 385.7,517.8 C382.8,519.8 379,519.1 377.1,516.3 L361.8,494 L361.7,493.9 L361.6,493.8 C360.2,491.8 358.3,491.3 356.5,491.5 C355.8,491.8 355,492.2 354.3,492.7 C353.6,493.2 353,493.8 352.6,494.3 C351.6,496 351.5,498.1 353,500.2 L370.7,525.7 C377.7,535.8 378.3,536 388.2,539.3 L390.9,540 L412,546.9 C415.3,548 417.1,551.4 416,554.8 C415,558 411.4,559.8 408.2,558.7 L387.2,551.8 L384.4,551 C370.9,546.7 369.9,546.3 360.6,532.8 L342.9,507.3 C338,500.2 338.8,493.1 342.2,487.7 C343.6,485.6 345.3,483.9 347.2,482.6 C348.6,481.6 350.2,480.8 352.1,480.2 L320.5,434.6 C315.6,427.6 316.4,420.4 319.9,415 C321.2,412.9 323,411.3 324.9,409.9 C326.9,408.5 329.1,407.5 331.4,407 C337.8,405.5 344.7,407.4 349.6,414.4 L363.5,434.5 C364.7,433.1 366.1,431.8 367.5,430.8 C369.4,429.5 371.6,428.4 374,427.9 C376.4,427.4 378.9,427.4 381.3,427.9 C381.7,426.8 382.2,425.8 382.9,424.8 C384.1,422.8 385.9,421 387.8,419.7 C389.7,418.4 392,417.3 394.3,416.9 C398.6,415.9 403.2,416.6 407.2,419.1 C408.5,417.2 410.1,415.5 412,414.3 C414,412.9 416.2,412.1 418.5,411.5 C424.8,410.1 431.8,412 436.6,418.9 L473,471.6 L472.9,471.6 C473.2,472 473.4,472.4 473.5,472.8 L485,502.7 C486.3,505.9 484.7,509.5 481.6,510.7 C478.5,511.8 474.9,510.2 473.5,507 L462.4,477.9 L426.4,425.9 C424.9,423.8 423,423.1 421.3,423.5 C420.5,423.7 419.7,424 419,424.6 C418.3,425.1 417.7,425.7 417.3,426.3 C416.4,427.8 416.1,429.8 417.5,431.8 L417.5,431.9 L417.6,432 L421.5,437.7 C423.5,440.5 422.9,444.4 420,446.4 C417.3,448.3 413.3,447.6 411.4,444.8 C408.3,440.4 405.2,435.9 402.1,431.4 C400.6,429.3 398.6,428.7 396.9,429 C396.2,429.1 395.3,429.5 394.7,430 C393.9,430.5 393.4,431.1 392.9,431.8 C392,433.3 391.8,435.3 393.2,437.3 L393.4,437.5 L402.7,450.9 C404.7,453.7 403.9,457.7 401.2,459.6 C398.3,461.6 394.5,460.8 392.6,458 L383.3,444.6 L383,444.2 L382.7,443.1 L382.7,443.1 L382.7,443.1 Z M302.3,439.5 L302.3,439.5 C305.1,437.6 308.9,438.2 310.9,441.1 C312.9,443.9 312.2,447.9 309.4,449.8 L291.3,462.3 C288.6,464.2 284.7,463.4 282.8,460.5 C280.8,457.7 281.5,453.9 284.2,452 L302.3,439.5 L302.3,439.5 L302.3,439.5 Z M368,409.2 L368,409.2 C365.1,411.2 361.3,410.4 359.3,407.5 C357.3,404.7 358,400.9 360.8,398.9 L378.8,386.4 C381.7,384.4 385.4,385.1 387.4,388 C389.4,390.8 388.8,394.7 385.9,396.7 L368,409.2 L368,409.2 L368,409.2 Z M319.5,391.2 L319.5,391.2 C321.4,394 320.8,397.8 317.9,399.7 C315.2,401.6 311.4,400.9 309.5,398.1 L296.7,379.6 C294.8,376.8 295.5,373 298.2,371.2 C301.1,369.2 304.8,369.9 306.7,372.7 L319.5,391.2 L319.5,391.2 L319.5,391.2 Z M347.3,390.2 L347.3,390.2 C346.7,393.6 343.5,395.8 340.1,395.2 C336.7,394.5 334.5,391.3 335.1,387.9 L338.9,366.1 C339.5,362.7 342.7,360.5 346,361.2 C349.4,361.9 351.6,365.1 351,368.5 L347.3,390.2 L347.3,390.2 L347.3,390.2 Z M301,411.5 L301,411.5 C304.3,412.2 306.5,415.4 306,418.8 C305.3,422.2 302.1,424.4 298.8,423.8 L277,419.6 C273.5,419.1 271.3,415.8 272,412.3 C272.5,409 275.7,406.8 279.2,407.3 L301,411.5 L301,411.5 L301,411.5 Z" id="Shape" fill="#6BC042" sketch:type="MSShapeGroup"></path>
            <path d="M1725.1,190.9 L1725.1,194.1 L1714.8,194.1 L1714.8,206.8 L1711.2,206.8 L1711.2,194.1 L1701.2,194.1 L1701.2,190.9 L1711.2,190.9 L1711.2,182.7 L1702.5,182.7 L1702.5,179.5 L1711.2,179.5 L1711.2,172.2 L1702.3,172.2 L1702.3,169 L1724.4,169 L1724.4,172.2 L1714.8,172.2 L1714.8,179.5 L1723.8,179.5 L1723.8,182.7 L1714.8,182.7 L1714.8,190.9 L1725.1,190.9 L1725.1,190.9 Z M1714.4,167.2 C1716.2,165.1 1717.9,162.8 1719.4,160.5 L1722.4,162.3 C1720.6,164.8 1718.8,167 1717,169 L1714.4,167.2 L1714.4,167.2 Z M1703.7,162.3 L1706.2,160.4 C1708.1,162.4 1709.8,164.5 1711.4,166.6 L1708.5,168.7 C1707.2,166.6 1705.6,164.4 1703.7,162.3 L1703.7,162.3 Z M1699.1,185.4 L1695.8,185.4 L1695.8,183.6 L1687.1,183.6 C1686.7,185.4 1686.2,187.1 1685.6,188.9 L1699.7,188.9 L1699.7,205.8 L1696.4,205.8 L1696.4,203.2 L1687.1,203.2 L1687.1,206.2 L1683.8,206.2 L1683.8,193.4 C1682.7,195.7 1681.5,198 1680,200.2 C1679.4,199 1678.7,197.6 1677.9,196.2 C1680.6,192.5 1682.5,188.3 1683.6,183.6 L1679.5,183.6 L1679.5,180.6 L1684.2,180.6 C1684.4,178.9 1684.6,177.1 1684.8,175.1 L1678.4,175.1 L1678.4,172.1 L1685,172.1 C1685.1,170.4 1685.1,168.6 1685.1,166.8 L1679.6,166.8 L1679.6,163.8 L1699.1,163.8 L1699.1,172.1 L1701.7,172.1 L1701.7,175.1 L1699.1,175.1 L1699.1,185.4 L1699.1,185.4 Z M1687.2,200.2 L1696.5,200.2 L1696.5,191.9 L1687.2,191.9 L1687.2,200.2 L1687.2,200.2 Z M1695.9,166.7 L1688.6,166.7 C1688.6,168.6 1688.5,170.4 1688.5,172 L1695.9,172 L1695.9,166.7 L1695.9,166.7 Z M1695.9,175.1 L1688.3,175.1 C1688.2,177.1 1688,178.9 1687.7,180.6 L1695.9,180.6 L1695.9,175.1 L1695.9,175.1 Z M1675.1,206.4 C1667.5,204.2 1660.9,200.7 1655.4,195.9 L1655.4,206.9 L1652.1,206.9 L1652.1,195.9 C1646.4,200.7 1639.9,204.2 1632.4,206.5 C1631.7,205.5 1631,204.5 1630.2,203.5 C1636.9,201.9 1643,199 1648.3,195.1 L1631.9,195.1 L1631.9,192.1 L1652.1,192.1 L1652.1,188.9 L1655.4,188.9 L1655.4,192.1 L1675.6,192.1 L1675.6,195.1 L1659.1,195.1 C1664.6,199 1670.6,201.6 1677.3,202.9 C1676.5,204.2 1675.7,205.4 1675.1,206.4 L1675.1,206.4 Z M1640.8,189.7 L1637.5,189.7 L1637.5,173 C1635.9,174.9 1634.3,176.6 1632.6,178.1 C1632.1,177.2 1631.4,176.2 1630.4,175 C1634.9,171.2 1638.8,166.6 1641.9,161 L1645.1,162.5 C1644.2,163.9 1643.3,165.3 1642.4,166.6 L1655.7,166.6 C1654.9,165.2 1653.9,163.7 1652.7,162.1 L1655.5,160.4 C1657,162 1658.2,163.6 1659.1,165.2 L1656.9,166.6 L1674.9,166.6 L1674.9,169.5 L1657.1,169.5 L1657.1,172.8 L1672.8,172.8 L1672.8,175.5 L1657.1,175.5 L1657.1,178.8 L1672.8,178.8 L1672.8,181.5 L1657.1,181.5 L1657.1,184.9 L1675,184.9 L1675,187.8 L1640.8,187.8 L1640.8,189.7 L1640.8,189.7 Z M1653.8,169.5 L1640.8,169.5 L1640.8,172.8 L1653.8,172.8 L1653.8,169.5 L1653.8,169.5 Z M1653.8,175.5 L1640.8,175.5 L1640.8,178.8 L1653.8,178.8 L1653.8,175.5 L1653.8,175.5 Z M1653.8,185 L1653.8,181.6 L1640.8,181.6 L1640.8,185 L1653.8,185 L1653.8,185 Z M1621.6,185.7 C1621.6,180.5 1619.7,177.9 1615.8,177.9 C1613.8,177.9 1612.2,178.7 1610.9,180.2 C1609.6,181.7 1608.9,183.6 1608.9,186 L1608.9,200.7 L1604.3,200.7 L1604.3,162.3 L1608.9,162.3 L1608.9,179 L1609,179 C1611,175.8 1613.8,174.1 1617.5,174.1 C1623.3,174.1 1626.2,177.6 1626.2,184.7 L1626.2,200.7 L1621.6,200.7 L1621.6,185.7 L1621.6,185.7 Z M1592.1,177.9 C1589.5,177.9 1587.3,178.8 1585.7,180.6 C1584.1,182.4 1583.2,184.8 1583.2,187.9 C1583.2,190.9 1584,193.2 1585.5,194.9 C1587.1,196.6 1589.2,197.4 1591.8,197.4 C1594,197.4 1596.1,196.7 1598.1,195.2 L1598.1,199.4 C1596.1,200.6 1593.7,201.2 1590.9,201.2 C1587.1,201.2 1584.1,200 1581.9,197.6 C1579.6,195.2 1578.5,192.1 1578.5,188.2 C1578.5,184 1579.7,180.5 1582.2,177.9 C1584.7,175.3 1588,174 1592.1,174 C1594.5,174 1596.5,174.4 1598.2,175.3 L1598.2,179.8 C1596.4,178.5 1594.3,177.9 1592.1,177.9 L1592.1,177.9 Z M1572.7,178.4 C1570.9,178.4 1569.5,179.2 1568.3,180.9 C1567.1,182.6 1566.6,184.8 1566.6,187.5 L1566.6,200.6 L1562,200.6 L1562,174.7 L1566.6,174.7 L1566.6,180 L1566.7,180 C1568,176.2 1570.3,174.3 1573.5,174.3 C1574.5,174.3 1575.4,174.4 1575.9,174.7 L1575.9,179.3 C1575.1,178.7 1574,178.4 1572.7,178.4 L1572.7,178.4 Z M1549.8,196.6 L1549.7,196.6 C1547.9,199.7 1545.3,201.2 1541.8,201.2 C1539.3,201.2 1537.3,200.5 1535.8,199.2 C1534.3,197.8 1533.6,196 1533.6,193.7 C1533.6,188.9 1536.5,186 1542.2,185.2 L1549.9,184.1 C1549.9,179.9 1548.1,177.7 1544.7,177.7 C1541.6,177.7 1538.8,178.7 1536.2,180.8 L1536.2,176.4 C1538.8,174.8 1541.8,174 1545.1,174 C1551.3,174 1554.5,177.3 1554.5,183.8 L1554.5,200.5 L1550,200.5 L1550,196.6 L1549.8,196.6 Z M1549.8,187.6 L1543.7,188.4 C1541.6,188.7 1540.1,189.2 1539.3,190 C1538.5,190.8 1538.1,191.9 1538.1,193.3 C1538.1,194.5 1538.5,195.5 1539.4,196.3 C1540.3,197.1 1541.4,197.5 1542.9,197.5 C1544.9,197.5 1546.5,196.8 1547.8,195.4 C1549.1,194 1549.7,192.2 1549.7,190.1 L1549.7,187.6 L1549.8,187.6 Z M1513.4,195.2 C1514.8,196.7 1516.8,197.5 1519.4,197.5 C1522.3,197.5 1525,196.6 1527.4,194.7 L1527.4,198.8 C1525.1,200.4 1522.1,201.2 1518.3,201.2 C1514.5,201.2 1511.6,200 1509.5,197.6 C1507.4,195.2 1506.3,191.9 1506.3,187.7 C1506.3,183.7 1507.5,180.5 1509.8,177.9 C1512.1,175.3 1515,174 1518.4,174 C1521.8,174 1524.4,175.1 1526.3,177.3 C1528.2,179.5 1529.2,182.5 1529.2,186.5 L1529.2,188.8 L1511.1,188.8 C1511.2,191.6 1512,193.7 1513.4,195.2 L1513.4,195.2 Z M1524.7,185.1 C1524.7,182.8 1524.1,180.9 1523,179.7 C1521.9,178.4 1520.4,177.8 1518.4,177.8 C1516.6,177.8 1515,178.5 1513.7,179.8 C1512.4,181.2 1511.5,182.9 1511.2,185.1 L1524.7,185.1 L1524.7,185.1 Z M1492.1,180.5 C1495.7,182.2 1498.2,183.9 1499.6,185.6 C1501,187.3 1501.7,189.2 1501.7,191.3 C1501.7,194.5 1500.5,196.9 1498.2,198.6 C1495.9,200.3 1492.7,201.2 1488.6,201.2 C1487.2,201.2 1485.5,201 1483.6,200.6 C1481.7,200.2 1480.3,199.7 1479.4,199.1 L1479.4,193.8 C1480.5,194.8 1482,195.6 1483.9,196.2 C1485.8,196.8 1487.5,197.1 1489.2,197.1 C1494.3,197.1 1496.8,195.3 1496.8,191.7 C1496.8,190.7 1496.5,189.8 1496,189 C1495.5,188.2 1494.7,187.5 1493.8,186.8 C1492.9,186.1 1491.1,185.2 1488.4,183.9 C1484.8,182.1 1482.4,180.4 1481.2,178.8 C1480,177.2 1479.5,175.5 1479.5,173.5 C1479.5,170.5 1480.7,168.1 1483.1,166.3 C1485.5,164.5 1488.6,163.7 1492.3,163.7 C1495.9,163.7 1498.6,164.1 1500.2,165 L1500.2,170.1 C1498,168.6 1495.2,167.8 1491.9,167.8 C1489.7,167.8 1487.9,168.3 1486.5,169.2 C1485.1,170.1 1484.4,171.4 1484.4,173.1 C1484.4,174.6 1484.9,175.8 1485.9,176.7 C1486.7,177.6 1488.8,178.9 1492.1,180.5 L1492.1,180.5 Z M1468.2,177.9 C1465.6,177.9 1463.4,178.8 1461.8,180.6 C1460.2,182.4 1459.3,184.8 1459.3,187.9 C1459.3,190.9 1460.1,193.2 1461.6,194.9 C1463.2,196.6 1465.3,197.4 1467.9,197.4 C1470.1,197.4 1472.2,196.7 1474.2,195.2 L1474.2,199.4 C1472.2,200.6 1469.8,201.2 1467,201.2 C1463.2,201.2 1460.2,200 1458,197.6 C1455.7,195.2 1454.6,192.1 1454.6,188.2 C1454.6,184 1455.8,180.5 1458.3,177.9 C1460.8,175.3 1464.1,174 1468.2,174 C1470.6,174 1472.6,174.4 1474.3,175.3 L1474.3,179.8 C1472.5,178.5 1470.5,177.9 1468.2,177.9 L1468.2,177.9 Z M1445.9,168.4 C1445.1,168.4 1444.4,168.1 1443.8,167.6 C1443.3,167.1 1443,166.4 1443,165.6 C1443,164.8 1443.3,164.1 1443.8,163.5 C1444.4,162.9 1445,162.7 1445.9,162.7 C1446.7,162.7 1447.4,163 1448,163.5 C1448.6,164 1448.9,164.7 1448.9,165.6 C1448.9,166.4 1448.6,167.1 1448,167.6 C1447.5,168.1 1446.8,168.4 1445.9,168.4 L1445.9,168.4 Z M1434.1,201.2 C1429.5,201.2 1427.1,198.6 1427.1,193.5 L1427.1,178.5 L1422.6,178.5 L1422.6,174.7 L1427.1,174.7 L1427.1,168.5 L1431.7,167 L1431.7,174.7 L1438.1,174.7 L1438.1,178.5 L1431.7,178.5 L1431.7,192.7 C1431.7,194.4 1432,195.6 1432.6,196.4 C1433.2,197.1 1434.1,197.5 1435.5,197.5 C1436.5,197.5 1437.4,197.2 1438.2,196.6 L1438.2,200.4 C1437.2,200.9 1435.8,201.2 1434.1,201.2 L1434.1,201.2 Z M1412.2,185.9 C1415.1,187 1417,188.1 1418.1,189.3 C1419.1,190.5 1419.6,191.9 1419.6,193.6 C1419.6,196 1418.6,197.8 1416.7,199.2 C1414.8,200.6 1412.2,201.3 1409.1,201.3 C1406.4,201.3 1404.1,200.8 1402.1,199.8 L1402.1,195 C1404.4,196.7 1406.9,197.5 1409.6,197.5 C1413.2,197.5 1415,196.3 1415,194 C1415,193 1414.6,192.2 1413.8,191.5 C1413,190.9 1411.4,190.1 1409,189.2 C1406.1,188 1404.3,186.9 1403.4,185.8 C1402.5,184.7 1402.1,183.3 1402.1,181.7 C1402.1,179.4 1403.1,177.6 1405,176.2 C1406.9,174.8 1409.3,174.1 1412.2,174.1 C1414.4,174.1 1416.4,174.5 1418.3,175.2 L1418.3,179.6 C1416.4,178.4 1414.2,177.7 1411.7,177.7 C1410.2,177.7 1409,178 1408.1,178.7 C1407.2,179.3 1406.7,180.2 1406.7,181.2 C1406.7,182.2 1407,183 1407.7,183.6 C1408.4,184.3 1409.9,185 1412.2,185.9 L1412.2,185.9 Z M1391.3,196.6 L1391.2,196.6 C1389.4,199.7 1386.8,201.2 1383.3,201.2 C1380.8,201.2 1378.8,200.5 1377.3,199.2 C1375.8,197.8 1375.1,196 1375.1,193.7 C1375.1,188.9 1378,186 1383.7,185.2 L1391.4,184.1 C1391.4,179.9 1389.6,177.7 1386.2,177.7 C1383.1,177.7 1380.3,178.7 1377.7,180.8 L1377.7,176.4 C1380.3,174.8 1383.3,174 1386.6,174 C1392.8,174 1396,177.3 1396,183.8 L1396,200.5 L1391.5,200.5 L1391.5,196.6 L1391.3,196.6 Z M1391.3,187.6 L1385.2,188.4 C1383.1,188.7 1381.6,189.2 1380.8,190 C1380,190.8 1379.6,191.9 1379.6,193.3 C1379.6,194.5 1380,195.5 1380.9,196.3 C1381.8,197.1 1382.9,197.5 1384.4,197.5 C1386.4,197.5 1388,196.8 1389.3,195.4 C1390.6,194 1391.2,192.2 1391.2,190.1 L1391.2,187.6 L1391.3,187.6 Z M1364.2,162.2 L1368.8,162.2 L1368.8,200.6 L1364.2,200.6 L1364.2,162.2 L1364.2,162.2 Z M1338.4,164.3 L1357.1,164.3 L1357.1,168.5 L1343.1,168.5 L1343.1,180.1 L1356.1,180.1 L1356.1,184.2 L1343.1,184.2 L1343.1,196.4 L1357.9,196.4 L1357.9,200.5 L1338.4,200.5 L1338.4,164.3 L1338.4,164.3 Z M1310.8,205.1 C1303.8,205.1 1298.5,203.5 1294.8,200.2 C1293,202.8 1290.9,205 1288.4,206.9 C1287.9,206 1287.3,205 1286.5,203.9 C1288.8,202.1 1290.8,200 1292.4,197.7 C1290.3,195 1288.6,191.2 1287.2,186.3 L1290.3,185.1 C1291.2,188.9 1292.5,192 1294.2,194.5 C1295.9,191.1 1296.9,187.1 1297.3,182.6 L1287.9,182.6 L1287.9,179.2 L1296.5,168.6 L1286.9,168.6 L1286.9,165.4 L1300.8,165.4 L1300.8,168.6 L1292,179.5 L1300.8,179.5 L1300.8,182.3 C1300.2,188.1 1298.8,193.1 1296.6,197.4 C1300,200.4 1305.3,201.8 1312.5,201.9 C1318.4,202 1325.3,201.9 1333.2,201.7 C1332.7,203 1332.2,204.2 1331.7,205.4 C1324.4,205.2 1317.5,205.2 1310.8,205.1 L1310.8,205.1 Z M1327.6,183.3 L1324.2,183.3 L1324.2,182 L1316.7,182 L1316.7,186.1 L1328.5,186.1 L1328.5,188.9 L1316.7,188.9 L1316.7,193 L1330.7,193 L1330.7,195.8 L1316.7,195.8 L1316.7,200.6 L1313.2,200.6 L1313.2,195.8 L1301.2,195.8 L1301.2,193 L1313.2,193 L1313.2,189 L1302.8,189 L1302.8,186.2 L1313.2,186.2 L1313.2,182.1 L1303.4,182.1 L1303.4,179.3 L1313.2,179.3 L1313.2,175.2 L1301,175.2 L1301,172.3 L1313.2,172.3 L1313.2,168.2 L1303.4,168.2 L1303.4,165.4 L1313.2,165.4 L1313.2,160.8 L1316.7,160.8 L1316.7,165.4 L1327.6,165.4 L1327.6,172.3 L1332.5,172.3 L1332.5,175.2 L1327.6,175.2 L1327.6,183.3 L1327.6,183.3 Z M1324.2,168.2 L1316.7,168.2 L1316.7,172.3 L1324.2,172.3 L1324.2,168.2 L1324.2,168.2 Z M1324.2,175.2 L1316.7,175.2 L1316.7,179.3 L1324.2,179.3 L1324.2,175.2 L1324.2,175.2 Z M1276.3,184.1 L1276.3,186.6 L1259.3,186.6 L1259.3,184.5 C1257.4,186 1255.4,187.5 1253.3,188.9 C1252.8,188.2 1252,187.2 1250.9,186 C1257.7,181.9 1262.9,177.4 1266.6,172.4 L1271.1,172.4 L1270.4,173.2 C1273.8,178.2 1278.7,182.1 1285.1,184.9 C1284.1,186.2 1283.3,187.3 1282.7,188.3 C1280.3,186.9 1278.2,185.6 1276.3,184.1 L1276.3,184.1 Z M1268.3,175.8 C1266.1,178.4 1263.6,181 1260.6,183.5 L1275.5,183.5 C1272.5,181.1 1270.1,178.5 1268.3,175.8 L1268.3,175.8 Z M1276.6,174.2 L1273.1,174.2 L1273.1,169.5 L1263.3,169.5 L1263.3,174.2 L1259.8,174.2 L1259.8,169.5 L1253.5,169.5 L1253.5,166.2 L1259.8,166.2 L1259.8,161.1 L1263.3,161.1 L1263.3,166.2 L1273.1,166.2 L1273.1,161.1 L1276.6,161.1 L1276.6,166.2 L1284.1,166.2 L1284.1,169.5 L1276.6,169.5 L1276.6,174.2 L1276.6,174.2 Z M1252.9,178.2 C1253,179.8 1253.1,181 1253.3,182 C1252.2,182.5 1250.4,183.5 1247.8,184.8 L1247.8,201.5 C1247.8,204.7 1246.5,206.4 1243.8,206.6 C1242.5,206.7 1241.1,206.7 1239.5,206.7 C1239.4,205.5 1239.2,204.2 1238.9,202.8 C1240.4,202.9 1241.6,203 1242.5,203 C1243.7,203 1244.3,202.4 1244.3,201 L1244.3,186.6 C1242.7,187.4 1241,188.3 1239.1,189.3 L1238.6,185.2 C1240.5,184.4 1242.4,183.5 1244.3,182.7 L1244.3,173.4 L1238.7,173.4 L1238.7,170 L1244.3,170 L1244.3,160.9 L1247.7,160.9 L1247.7,170 L1253,170 L1253,173.3 L1247.7,173.3 L1247.7,180.9 C1249.4,180.1 1251.2,179.2 1252.9,178.2 L1252.9,178.2 Z M1228,205.1 L1203.4,205.1 C1198.4,205.1 1195.9,202.5 1195.9,197.3 L1195.9,179.3 L1228,179.3 L1228,167.2 L1195,167.2 L1195,163.7 L1231.8,163.7 L1231.8,185.3 L1228,185.3 L1228,182.7 L1199.8,182.7 L1199.8,197 C1199.8,199.9 1201.2,201.3 1204,201.3 L1227,201.3 C1229.8,201.3 1231.4,200.4 1231.9,198.7 C1232.4,197.3 1232.8,194.7 1233.1,191.1 C1234.4,191.6 1235.7,192.1 1237.2,192.5 C1236.7,196 1236.3,198.5 1235.8,200 C1234.9,203.4 1232.3,205.1 1228,205.1 L1228,205.1 Z M1180.1,204 L1151.2,204 L1151.2,206.8 L1147.4,206.8 L1147.4,167.1 L1159.5,167.1 C1160.2,165.3 1160.9,163.1 1161.7,160.6 L1165.7,161.8 C1164.9,163.7 1164.1,165.5 1163.4,167 L1183.8,167 L1183.8,206.7 L1180,206.7 L1180,204 L1180.1,204 Z M1180.1,170.5 L1151.2,170.5 L1151.2,178.3 L1180.1,178.3 L1180.1,170.5 L1180.1,170.5 Z M1180.1,181.6 L1151.2,181.6 L1151.2,189.4 L1180.1,189.4 L1180.1,181.6 L1180.1,181.6 Z M1180.1,192.7 L1151.2,192.7 L1151.2,200.6 L1180.1,200.6 L1180.1,192.7 L1180.1,192.7 Z M1280.2,207.2 L1276.6,207.2 L1276.6,204.7 L1259.6,204.7 L1259.6,207.2 L1256,207.2 L1256,190.6 L1280.2,190.6 L1280.2,207.2 L1280.2,207.2 Z M1276.6,193.8 L1259.6,193.8 L1259.6,201.5 L1276.6,201.5 L1276.6,193.8 L1276.6,193.8 Z M1448.2,200.6 L1443.6,200.6 L1443.6,174.7 L1448.2,174.7 L1448.2,200.6 L1448.2,200.6 Z" id="Shape" fill="#7C8996" sketch:type="MSShapeGroup"></path>
            <path d="M607.2,200.2 L607.2,185.3 C607.2,180.1 605.3,177.5 601.4,177.5 C599.4,177.5 597.8,178.3 596.5,179.8 C595.2,181.3 594.5,183.2 594.5,185.6 L594.5,200.3 L589.9,200.3 L589.9,161.9 L594.5,161.9 L594.5,178.6 L594.6,178.6 C596.6,175.4 599.4,173.7 603.1,173.7 C608.9,173.7 611.8,177.2 611.8,184.3 L611.8,200.3 L607.2,200.3 L607.2,200.2 Z M577.7,177.5 C575.1,177.5 572.9,178.4 571.3,180.2 C569.7,182 568.8,184.4 568.8,187.5 C568.8,190.5 569.6,192.8 571.1,194.5 C572.7,196.2 574.8,197 577.4,197 C579.6,197 581.7,196.3 583.7,194.8 L583.7,199 C581.7,200.2 579.3,200.8 576.5,200.8 C572.7,200.8 569.7,199.6 567.5,197.2 C565.2,194.8 564.1,191.7 564.1,187.8 C564.1,183.6 565.3,180.1 567.8,177.5 C570.3,174.9 573.6,173.6 577.7,173.6 C580.1,173.6 582.1,174 583.8,174.9 L583.8,179.4 C581.9,178.2 579.9,177.5 577.7,177.5 L577.7,177.5 Z M558.2,178.1 C556.4,178.1 555,178.9 553.8,180.6 C552.6,182.3 552.1,184.5 552.1,187.2 L552.1,200.3 L547.5,200.3 L547.5,174.4 L552.1,174.4 L552.1,179.7 L552.2,179.7 C553.5,175.9 555.8,174 559,174 C560,174 560.9,174.1 561.4,174.4 L561.4,179 C560.6,178.3 559.6,178.1 558.2,178.1 L558.2,178.1 Z M535.3,196.2 L535.2,196.2 C533.4,199.3 530.8,200.8 527.3,200.8 C524.8,200.8 522.8,200.1 521.3,198.8 C519.8,197.4 519.1,195.6 519.1,193.3 C519.1,188.5 522,185.6 527.7,184.8 L535.4,183.7 C535.4,179.5 533.6,177.3 530.2,177.3 C527.1,177.3 524.3,178.3 521.7,180.4 L521.7,176 C524.3,174.4 527.3,173.6 530.6,173.6 C536.8,173.6 540,176.9 540,183.4 L540,200.1 L535.5,200.1 L535.5,196.2 L535.3,196.2 Z M535.3,187.2 L529.2,188 C527.1,188.3 525.6,188.8 524.8,189.6 C524,190.4 523.6,191.5 523.6,192.9 C523.6,194.1 524,195.1 524.9,195.9 C525.8,196.7 526.9,197.1 528.4,197.1 C530.4,197.1 532,196.4 533.3,195 C534.6,193.6 535.2,191.8 535.2,189.7 L535.2,187.2 L535.3,187.2 Z M499,194.9 C500.4,196.4 502.4,197.2 505,197.2 C507.9,197.2 510.6,196.3 513,194.4 L513,198.5 C510.7,200.1 507.7,200.9 503.9,200.9 C500.1,200.9 497.2,199.7 495.1,197.3 C493,194.9 491.9,191.6 491.9,187.4 C491.9,183.4 493.1,180.2 495.4,177.6 C497.7,175 500.6,173.7 504,173.7 C507.4,173.7 510,174.8 511.9,177 C513.8,179.2 514.8,182.2 514.8,186.2 L514.8,188.5 L496.7,188.5 C496.8,191.2 497.6,193.4 499,194.9 L499,194.9 Z M510.3,184.8 C510.3,182.5 509.7,180.6 508.6,179.4 C507.5,178.1 506,177.5 504,177.5 C502.2,177.5 500.6,178.2 499.3,179.5 C498,180.9 497.1,182.6 496.8,184.8 L510.3,184.8 L510.3,184.8 Z M477.6,180.1 C481.2,181.8 483.7,183.5 485.1,185.2 C486.5,186.9 487.2,188.8 487.2,190.9 C487.2,194.1 486,196.5 483.7,198.2 C481.4,199.9 478.2,200.8 474.1,200.8 C472.7,200.8 471,200.6 469.1,200.2 C467.2,199.8 465.8,199.3 464.9,198.7 L464.9,193.4 C466,194.4 467.5,195.2 469.4,195.8 C471.3,196.4 473,196.7 474.7,196.7 C479.8,196.7 482.3,194.9 482.3,191.3 C482.3,190.3 482,189.4 481.5,188.6 C481,187.8 480.2,187.1 479.3,186.4 C478.3,185.8 476.6,184.8 473.9,183.5 C470.3,181.7 467.9,180 466.7,178.5 C465.5,176.9 465,175.2 465,173.2 C465,170.2 466.2,167.8 468.6,166 C471,164.2 474.1,163.4 477.8,163.4 C481.4,163.4 484.1,163.8 485.7,164.7 L485.7,169.8 C483.5,168.3 480.7,167.5 477.4,167.5 C475.2,167.5 473.4,168 472,168.9 C470.6,169.8 469.9,171.1 469.9,172.8 C469.9,174.3 470.4,175.5 471.4,176.4 C472.3,177.3 474.4,178.5 477.6,180.1 L477.6,180.1 Z M453.8,177.5 C451.2,177.5 449,178.4 447.4,180.2 C445.8,182 444.9,184.4 444.9,187.5 C444.9,190.5 445.7,192.8 447.2,194.5 C448.8,196.2 450.9,197 453.5,197 C455.7,197 457.8,196.3 459.8,194.8 L459.8,199 C457.8,200.2 455.4,200.8 452.6,200.8 C448.8,200.8 445.8,199.6 443.6,197.2 C441.3,194.8 440.2,191.7 440.2,187.8 C440.2,183.6 441.4,180.1 443.9,177.5 C446.4,174.9 449.7,173.6 453.8,173.6 C456.2,173.6 458.2,174 459.9,174.9 L459.9,179.4 C458.1,178.2 456,177.5 453.8,177.5 L453.8,177.5 Z M431.5,168 C430.7,168 430,167.7 429.4,167.2 C428.8,166.7 428.6,166 428.6,165.2 C428.6,164.4 428.9,163.7 429.4,163.1 C430,162.5 430.6,162.3 431.5,162.3 C432.3,162.3 433,162.6 433.6,163.1 C434.2,163.6 434.5,164.3 434.5,165.2 C434.5,166 434.2,166.7 433.6,167.2 C433,167.7 432.3,168 431.5,168 L431.5,168 Z M419.7,200.8 C415.1,200.8 412.7,198.2 412.7,193.1 L412.7,178.1 L408.2,178.1 L408.2,174.3 L412.7,174.3 L412.7,168.1 L417.3,166.6 L417.3,174.3 L423.7,174.3 L423.7,178.1 L417.3,178.1 L417.3,192.3 C417.3,194 417.6,195.2 418.2,196 C418.8,196.7 419.7,197.1 421.1,197.1 C422.1,197.1 423,196.8 423.8,196.2 L423.8,200 C422.8,200.5 421.4,200.8 419.7,200.8 L419.7,200.8 Z M397.8,185.6 C400.7,186.7 402.6,187.8 403.7,189 C404.7,190.2 405.2,191.6 405.2,193.3 C405.2,195.7 404.2,197.5 402.3,198.9 C400.4,200.3 397.8,201 394.7,201 C392,201 389.7,200.5 387.7,199.5 L387.7,194.8 C390,196.5 392.5,197.3 395.2,197.3 C398.8,197.3 400.6,196.1 400.6,193.8 C400.6,192.8 400.2,192 399.4,191.3 C398.6,190.7 397,189.9 394.6,189 C391.7,187.8 389.9,186.7 389,185.6 C388.1,184.5 387.7,183.1 387.7,181.5 C387.7,179.2 388.7,177.4 390.6,176 C392.5,174.6 394.9,173.9 397.8,173.9 C400,173.9 402,174.3 403.9,175 L403.9,179.4 C402,178.2 399.8,177.5 397.3,177.5 C395.8,177.5 394.6,177.8 393.7,178.5 C392.8,179.1 392.3,180 392.3,181 C392.3,182 392.6,182.8 393.3,183.4 C394,183.9 395.5,184.6 397.8,185.6 L397.8,185.6 Z M376.9,196.2 L376.8,196.2 C375,199.3 372.4,200.8 368.9,200.8 C366.4,200.8 364.4,200.1 362.9,198.8 C361.4,197.4 360.7,195.6 360.7,193.3 C360.7,188.5 363.6,185.6 369.3,184.8 L377,183.7 C377,179.5 375.2,177.3 371.8,177.3 C368.7,177.3 365.9,178.3 363.3,180.4 L363.3,176 C365.9,174.4 368.9,173.6 372.2,173.6 C378.4,173.6 381.6,176.9 381.6,183.4 L381.6,200.1 L377.1,200.1 L377.1,196.2 L376.9,196.2 Z M376.9,187.2 L370.8,188 C368.7,188.3 367.2,188.8 366.4,189.6 C365.6,190.4 365.2,191.5 365.2,192.9 C365.2,194.1 365.6,195.1 366.5,195.9 C367.4,196.7 368.5,197.1 370,197.1 C372,197.1 373.6,196.4 374.9,195 C376.2,193.6 376.8,191.8 376.8,189.7 L376.8,187.2 L376.9,187.2 Z M349.8,161.9 L354.4,161.9 L354.4,200.3 L349.8,200.3 L349.8,161.9 L349.8,161.9 Z M324,163.9 L342.7,163.9 L342.7,168.1 L328.7,168.1 L328.7,179.7 L341.7,179.7 L341.7,183.8 L328.7,183.8 L328.7,196 L343.5,196 L343.5,200.1 L324,200.1 L324,163.9 L324,163.9 Z M291.3,188.9 L311.5,188.9 L311.5,206.6 L308.2,206.6 L308.2,204.4 L284.4,204.4 L284.4,206.6 L281.1,206.6 L281.1,193 C278.6,194 276,194.9 273.5,195.7 C273.1,194.9 272.5,193.9 271.6,192.7 C278.6,190.7 285.5,188.1 292.3,185.1 L272.4,185.1 L272.4,182.4 L290,182.4 L290,178.8 L276.9,178.8 L276.9,176.2 L290,176.2 L290,173.4 L293.3,173.4 L293.3,176.2 L304.4,176.2 L304.4,178.8 L293.3,178.8 L293.3,182.4 L298.1,182.4 C302.9,180.1 307.5,177.5 312.2,174.7 L314.3,177.1 C311,179 307.8,180.7 304.5,182.4 L318.1,182.4 L318.1,185.1 L299.1,185.1 C296.6,186.5 293.9,187.7 291.3,188.9 L291.3,188.9 Z M284.5,201.7 L308.3,201.7 L308.3,198 L284.5,198 L284.5,201.7 L284.5,201.7 Z M284.5,191.7 L284.5,195.3 L308.3,195.3 L308.3,191.5 L284.9,191.5 L284.5,191.7 L284.5,191.7 Z M311.4,172.7 L278.9,172.7 L278.9,174.2 L275.7,174.2 L275.7,162.1 L314.6,162.1 L314.6,173.6 L311.4,173.6 L311.4,172.7 L311.4,172.7 Z M287.7,164.9 L278.9,164.9 L278.9,169.9 L287.7,169.9 L287.7,164.9 L287.7,164.9 Z M299.6,164.9 L290.8,164.9 L290.8,169.9 L299.6,169.9 L299.6,164.9 L299.6,164.9 Z M311.4,164.9 L302.6,164.9 L302.6,169.9 L311.4,169.9 L311.4,164.9 L311.4,164.9 Z M264.1,199.6 C262.5,199.8 260.4,199.7 257.7,199.4 C257.5,198.3 257.3,196.9 257.1,195.3 C259.4,195.7 261.3,195.9 263,195.9 C265.8,195.9 267,194 266.8,190.2 C266.7,186.9 264.3,183.4 259.6,179.9 C261.6,175.9 263.7,171.4 265.8,166.4 L256.2,166.4 L256.2,206.4 L252.6,206.4 L252.6,163 L269.5,163 L269.5,166.8 C268.3,170 266.4,174 263.8,179.1 C268.2,182.5 270.4,186.5 270.4,190.9 C270.5,196.3 268.3,199.2 264.1,199.6 L264.1,199.6 Z M224.2,179.1 L239.2,179.1 C241.1,175.9 242.6,172.9 243.7,170.3 L247.2,172.1 C245.8,174.5 244.4,176.8 242.9,179.1 L251.1,179.1 L251.1,182.2 L224.2,182.2 L224.2,179.1 L224.2,179.1 Z M232.3,179 C231.3,177 230,174.8 228.4,172.2 L231.3,170.5 C232.9,172.7 234.3,174.9 235.6,177.2 L232.3,179 L232.3,179 Z M225.3,166.7 L237,166.7 C236.4,165.3 235.5,163.6 234.2,161.5 L237.4,160 C238.8,162.3 239.8,164.2 240.4,165.6 L238.1,166.7 L250.2,166.7 L250.2,169.8 L225.2,169.8 L225.2,166.7 L225.3,166.7 Z M207.5,204.7 C202.5,204.6 198.4,202.8 195.1,199.1 C193.6,201.9 191.8,204.4 189.5,206.6 C189.1,205.9 188.3,205 187.2,203.8 C189.6,201.7 191.5,199.2 192.9,196.3 C191.4,194 190.1,191.2 189.1,187.9 L191.8,186.7 C192.6,189 193.4,191 194.4,192.7 C195.4,189.6 195.9,186.1 196,182.2 L190.1,182.2 L190.1,179 L195.9,167.9 L190.5,167.9 L190.5,165 L199.4,165 L199.4,168 L193.5,179.3 L199.1,179.3 L199.1,182 C199,187.2 198.1,191.8 196.5,195.9 C199.3,199.4 202.9,201.3 207.1,201.5 C210.9,201.8 216.1,201.7 222.7,201.4 C222.3,202.4 221.8,203.5 221.3,204.8 C215.9,205 211.3,205 207.5,204.7 L207.5,204.7 Z M219,182.1 L215.9,182.1 L215.9,181 L210.8,181 L210.8,185.2 L219.1,185.2 L219.1,187.9 L210.8,187.9 L210.8,192.2 L219.6,192.2 L219.6,194.9 L210.8,194.9 L210.8,200.2 L207.6,200.2 L207.6,194.9 L199.4,194.9 L199.4,192.2 L207.6,192.2 L207.6,187.9 L200.4,187.9 L200.4,185.2 L207.6,185.2 L207.6,181 L201.2,181 L201.2,178.3 L207.6,178.3 L207.6,174.3 L199,174.3 L199,171.6 L207.7,171.6 L207.7,167.7 L201.2,167.7 L201.2,165 L207.7,165 L207.7,160.4 L210.9,160.4 L210.9,165 L219.1,165 L219.1,171.7 L222.2,171.7 L222.2,174.4 L219,174.4 L219,182.1 L219,182.1 Z M215.9,167.6 L210.8,167.6 L210.8,171.5 L215.9,171.5 L215.9,167.6 L215.9,167.6 Z M215.9,174.3 L210.8,174.3 L210.8,178.3 L215.9,178.3 L215.9,174.3 L215.9,174.3 Z M179.2,175.5 L188.7,175.5 L188.7,178.6 L184.4,178.6 L184.4,183.8 L190.1,183.8 L190.1,186.9 L184.4,186.9 L184.4,197.2 C185.6,196.3 187,195.1 188.6,193.5 C188.8,194.7 189,195.9 189.4,197.2 C187.9,198.4 186.2,199.7 184.5,201.1 C183.6,201.8 182.8,202.6 181.9,203.5 L179.6,200.5 C180.7,199.5 181.2,198.1 181.2,196.5 L181.2,186.9 L176.2,186.9 L176.2,183.8 L181.2,183.8 L181.2,178.6 L178.8,178.6 L178.8,176.3 C178.5,176.9 178.1,177.5 177.8,178.1 C177,177 176.3,176.1 175.6,175.3 C178.3,170.8 180.2,165.8 181.5,160.3 L184.8,161.1 C184.2,163.3 183.6,165.4 182.9,167.4 L189.6,167.4 L189.6,170.5 L181.7,170.5 C180.9,172.2 180.1,173.9 179.2,175.5 L179.2,175.5 Z M128.1,180 L174.7,180 L174.7,184.1 L128.1,184.1 L128.1,180 L128.1,180 Z M247.9,206.2 L244.4,206.2 L244.4,202.7 L231.1,202.7 L231.1,206.2 L227.6,206.2 L227.6,187.1 L247.8,187.1 L247.8,206.2 L247.9,206.2 Z M244.4,190.2 L231.1,190.2 L231.1,199.4 L244.4,199.4 L244.4,190.2 L244.4,190.2 Z M433.8,200.2 L429.2,200.2 L429.2,174.3 L433.8,174.3 L433.8,200.2 L433.8,200.2 Z" id="Shape" fill="#7C8996" sketch:type="MSShapeGroup"></path>
            <path d="M1654,602.1 C1655.1,602.8 1656.5,603.3 1658.1,603.6 C1657.8,604.1 1657.5,604.6 1657.3,605.1 C1655.5,604.6 1654,604 1652.8,603.1 C1651.7,603.8 1650.1,604.6 1648.1,605.3 C1647.9,604.8 1647.6,604.4 1647.3,603.9 C1649.2,603.3 1650.7,602.8 1651.7,602.2 C1650.9,601.4 1650.3,600.3 1649.8,599.1 C1649.4,599.7 1648.9,600.3 1648.5,600.9 C1648.1,600.5 1647.8,600.1 1647.4,599.8 C1648.9,598.1 1649.9,596 1650.6,593.6 L1652.1,594.1 C1651.9,594.8 1651.6,595.5 1651.3,596.1 L1658,596.1 L1658,597.5 L1656.1,597.5 C1655.7,599.5 1655,601 1654,602.1 L1654,602.1 Z M1650.6,597.4 C1650.6,597.5 1650.5,597.5 1650.5,597.6 C1651.1,599.2 1651.8,600.4 1652.7,601.3 C1653.7,600.4 1654.2,599.1 1654.4,597.4 L1650.6,597.4 L1650.6,597.4 Z M1645,597.8 L1643.6,597.8 L1643.6,596.5 L1640.9,596.5 L1640.9,597.8 L1639.5,597.8 L1639.5,596.5 L1635.9,596.5 L1635.9,595.2 L1639.5,595.2 L1639.5,593.6 L1640.9,593.6 L1640.9,595.2 L1643.6,595.2 L1643.6,593.6 L1645,593.6 L1645,595.2 L1648.5,595.2 L1648.5,596.5 L1645,596.5 L1645,597.8 L1645,597.8 Z M1638.8,597.3 C1638.7,597.7 1638.5,598.1 1638.3,598.4 L1646.9,598.4 C1646.8,600.5 1646.8,602.1 1646.7,603.2 C1646.6,604.6 1646,605.3 1644.8,605.3 L1643.4,605.3 C1643.3,604.9 1643.2,604.5 1643.1,603.9 C1643.5,603.9 1643.9,604 1644.5,604 C1645,604 1645.2,603.7 1645.3,603.1 C1645.4,602.1 1645.4,600.9 1645.5,599.7 L1637.6,599.7 C1637.1,600.4 1636.6,601 1636,601.6 C1635.6,601.2 1635.3,600.8 1634.9,600.6 C1636,599.6 1636.8,598.6 1637.3,597.4 L1638.8,597.4 L1638.8,597.3 Z M1630.1,593.4 L1632.1,593.4 L1632.1,616.3 L1630.1,616.3 L1630.1,593.4 L1630.1,593.4 Z M1623.8,612.3 C1623.6,614.7 1622.3,615.9 1619.8,615.9 C1618.4,615.9 1616.7,615.9 1614.9,615.8 C1614.8,615.1 1614.6,614.4 1614.4,613.6 C1616.1,613.8 1617.8,613.9 1619.4,613.9 C1620.9,613.9 1621.8,613.1 1621.9,611.6 C1622,610.6 1622.2,609.2 1622.3,607.2 L1612.4,607.2 L1613.8,600 L1622.2,600 L1622.2,596.1 L1612.4,596.1 L1612.4,594.4 L1624.1,594.4 L1624.1,602.7 L1622.2,602.7 L1622.2,601.8 L1615.4,601.8 L1614.7,605.5 L1624.4,605.5 C1624.2,608.5 1624,610.8 1623.8,612.3 L1623.8,612.3 Z M1602.1,612 L1603.1,610.7 C1605.8,611.9 1608.2,613.1 1610.4,614.2 C1609.9,614.8 1609.6,615.3 1609.3,615.8 C1607.2,614.6 1604.8,613.3 1602.1,612 L1602.1,612 Z M1607.7,600.9 L1598.8,600.9 C1597.2,602.2 1595.6,603.3 1594.2,604.2 C1596,604.1 1597.9,604.1 1599.7,604 C1600.8,603.3 1601.8,602.7 1602.7,602 L1604.1,603.1 C1600.6,605.2 1597.3,607.1 1594.1,608.6 C1597.4,608.5 1600.9,608.3 1604.4,608.1 C1603.6,607.4 1602.8,606.8 1602,606.1 L1603.2,605 C1605.3,606.6 1607.2,608.1 1608.9,609.6 L1607.5,610.9 L1606,609.4 C1603.9,609.5 1601.8,609.6 1599.8,609.7 L1599.8,613.2 C1599.8,615.1 1598.8,616.1 1596.7,616.1 L1593.7,616.1 C1593.6,615.5 1593.5,614.9 1593.4,614.2 C1594.5,614.3 1595.5,614.4 1596.3,614.4 C1597.4,614.4 1597.9,613.9 1597.9,612.9 L1597.9,609.9 C1596.3,610 1594.8,610.1 1593.3,610.2 C1592.4,610.3 1591.5,610.4 1590.6,610.5 L1589.9,608.6 C1591,608.4 1592,608 1593.1,607.5 C1594.6,606.8 1596,606 1597.4,605.3 C1596.1,605.4 1594.9,605.5 1593.8,605.6 C1593.1,605.7 1592.4,605.8 1591.9,605.9 L1591.3,604.3 C1592,604.1 1592.6,603.7 1593.3,603.3 C1594.3,602.6 1595.4,601.9 1596.5,601 L1589.7,601 L1589.7,603.7 L1587.9,603.7 L1587.9,599.4 L1597.7,599.4 L1597.7,597.2 L1588.5,597.2 L1588.5,595.6 L1597.7,595.6 L1597.7,593.3 L1599.6,593.3 L1599.6,595.6 L1608.9,595.6 L1608.9,597.2 L1599.6,597.2 L1599.6,599.4 L1609.4,599.4 L1609.4,603.7 L1607.6,603.7 L1607.6,600.9 L1607.7,600.9 Z M1594.7,611.8 C1592.6,613.3 1590.4,614.6 1588.2,615.8 C1587.9,615.3 1587.5,614.8 1587.1,614.3 C1589.5,613.3 1591.6,612 1593.7,610.5 L1594.7,611.8 L1594.7,611.8 Z M1585.4,616.2 C1582.5,615.8 1580.1,615.1 1578.1,614 C1575.9,615.2 1573.2,616 1570.2,616.5 C1570,616 1569.6,615.4 1569.2,614.8 C1572,614.4 1574.4,613.8 1576.4,612.9 C1574.9,611.8 1573.7,610.4 1572.8,608.7 L1571.1,608.7 L1571.1,607.2 L1577.3,607.2 L1577.3,604.9 L1573,604.9 L1573,605.5 L1571.3,605.5 L1571.3,595.5 C1572.8,595.3 1574.3,594.8 1575.7,594.2 L1576.7,595.8 C1575.4,596.2 1574.1,596.5 1573,596.7 L1573,599.2 L1576.4,599.2 L1576.4,600.7 L1573,600.7 L1573,603.4 L1577.3,603.4 L1577.3,593.2 L1579,593.2 L1579,603.4 L1583.3,603.4 L1583.3,600.7 L1580.1,600.7 L1580.1,599.2 L1583.3,599.2 L1583.3,596.6 L1579.7,596.6 L1579.7,595 L1584.9,595 L1584.9,605.5 L1583.2,605.5 L1583.2,604.9 L1578.9,604.9 L1578.9,607.2 L1584,607.2 L1584,608.7 C1582.9,610.4 1581.5,611.8 1579.8,613 C1581.6,613.8 1583.8,614.3 1586.4,614.5 C1586,615 1585.7,615.6 1585.4,616.2 L1585.4,616.2 Z M1581.8,608.7 L1574.6,608.7 C1575.5,610 1576.6,611.1 1578.1,612 C1579.6,611.1 1580.9,610 1581.8,608.7 L1581.8,608.7 Z M1570.2,603 C1570.2,603.8 1570.3,604.4 1570.4,604.9 C1569.6,605.2 1568.7,605.6 1567.8,606 L1567.8,613.6 C1567.8,615.1 1567.2,616 1566.1,616.1 C1565.5,616.2 1564.6,616.2 1563.6,616.2 C1563.5,615.6 1563.4,614.9 1563.3,614.3 C1564.1,614.4 1564.7,614.4 1565.1,614.4 C1565.7,614.4 1566,614.1 1566,613.4 L1566,606.8 C1565.1,607.2 1564.1,607.6 1563.2,608 L1563,605.9 C1564.1,605.5 1565.1,605.1 1566.1,604.8 L1566.1,599.3 L1563.2,599.3 L1563.2,597.7 L1566.1,597.7 L1566.1,593.4 L1567.8,593.4 L1567.8,597.7 L1570.4,597.7 L1570.4,599.3 L1567.8,599.3 L1567.8,604.1 C1568.7,603.7 1569.5,603.3 1570.2,603 L1570.2,603 Z M1560.5,615.9 C1556.1,614.4 1552.8,612.8 1550.7,611.1 C1548.6,612.7 1545.2,614.4 1540.6,616.1 C1540.2,615.6 1539.7,614.9 1539.2,614.3 C1543.7,613 1547,611.5 1549.3,609.8 C1546.4,606.8 1544.6,603.2 1543.9,599.1 L1539.5,599.1 L1539.5,597.4 L1550.7,597.4 C1549.9,595.9 1549.3,594.8 1548.8,594.1 L1550.6,593.3 C1551,594 1551.7,595.1 1552.6,596.6 L1550.9,597.4 L1561.9,597.4 L1561.9,599.1 L1557.6,599.1 C1556.8,603.6 1555,607.1 1552.2,609.9 C1554.3,611.4 1557.6,612.8 1562.1,614 C1561.4,614.7 1560.9,615.4 1560.5,615.9 L1560.5,615.9 Z M1555.6,599 L1545.7,599 C1546.4,602.8 1548.1,606 1550.7,608.5 C1553.3,606.2 1554.9,603 1555.6,599 L1555.6,599 Z M1526.8,595.6 C1524.4,598.7 1520.9,601.5 1516.2,604.1 C1515.9,603.6 1515.5,603 1515,602.3 C1519.8,599.9 1523.5,597 1525.9,593.5 L1528.4,593.5 L1527.9,594.1 C1530.5,597.5 1534,600.1 1538.4,601.9 C1537.9,602.6 1537.5,603.2 1537.2,603.8 C1533.1,601.8 1529.6,599 1526.8,595.6 L1526.8,595.6 Z M1503.4,315.4 C1502.8,316.2 1502.5,317.3 1502.5,318.7 L1502.5,325.3 L1500.2,325.3 L1500.2,312.3 L1502.5,312.3 L1502.5,314.9 L1502.5,314.9 C1503.2,313 1504.3,312 1505.9,312 C1506.4,312 1506.8,312.1 1507.1,312.2 L1507.1,314.5 C1506.7,314.2 1506.2,314.1 1505.5,314.1 C1504.8,314.1 1504,314.5 1503.4,315.4 L1503.4,315.4 Z M1505.8,605.2 L1505.8,613.2 L1503.5,613.2 L1503.5,605.7 C1503.5,603.1 1502.5,601.8 1500.6,601.8 C1499.6,601.8 1498.8,602.2 1498.1,602.9 C1497.4,603.7 1497.1,604.6 1497.1,605.8 L1497.1,613.1 L1494.8,613.1 L1494.8,594 L1497.1,594 L1497.1,602.4 L1497.1,602.4 C1498.1,600.8 1499.5,600 1501.3,600 C1504.4,599.9 1505.8,601.7 1505.8,605.2 L1505.8,605.2 Z M1489.3,322.5 C1490,323.3 1491,323.6 1492.3,323.6 C1493.8,323.6 1495.1,323.1 1496.3,322.2 L1496.3,324.3 C1495.2,325.1 1493.6,325.5 1491.8,325.5 C1489.9,325.5 1488.5,324.9 1487.4,323.7 C1486.3,322.5 1485.8,320.9 1485.8,318.8 C1485.8,316.8 1486.4,315.2 1487.5,313.9 C1488.7,312.6 1490.1,312 1491.8,312 C1493.5,312 1494.8,312.5 1495.8,313.6 C1496.8,314.7 1497.2,316.2 1497.2,318.2 L1497.2,319.4 L1488.1,319.4 C1488.2,320.7 1488.6,321.8 1489.3,322.5 L1489.3,322.5 Z M1494.9,317.5 C1494.9,316.3 1494.6,315.4 1494.1,314.8 C1493.6,314.2 1492.8,313.8 1491.8,313.8 C1490.9,313.8 1490.1,314.1 1489.4,314.8 C1488.7,315.5 1488.3,316.4 1488.1,317.5 L1494.9,317.5 L1494.9,317.5 Z M1491.8,600.6 L1491.8,602.9 C1490.9,602.2 1489.9,601.9 1488.8,601.9 C1487.5,601.9 1486.4,602.4 1485.6,603.3 C1484.8,604.2 1484.4,605.4 1484.4,606.9 C1484.4,608.4 1484.8,609.6 1485.6,610.4 C1486.4,611.2 1487.4,611.7 1488.7,611.7 C1489.8,611.7 1490.9,611.3 1491.9,610.6 L1491.9,612.7 C1490.9,613.3 1489.7,613.6 1488.3,613.6 C1486.4,613.6 1484.9,613 1483.8,611.8 C1482.7,610.6 1482.1,609 1482.1,607.1 C1482.1,605 1482.7,603.3 1483.9,602 C1485.1,600.7 1486.8,600 1488.8,600 C1490,599.9 1491,600.2 1491.8,600.6 L1491.8,600.6 Z M1477.5,325.5 C1475.8,325.5 1474.6,324.8 1473.6,323.4 L1473.6,323.4 L1473.6,331.2 L1471.3,331.2 L1471.3,312.3 L1473.6,312.3 L1473.6,314.5 L1473.6,314.5 C1474.6,312.8 1476.1,312 1478.1,312 C1479.8,312 1481.1,312.6 1482,313.7 C1482.9,314.9 1483.4,316.4 1483.4,318.4 C1483.4,320.6 1482.9,322.3 1481.8,323.6 C1480.8,324.9 1479.3,325.5 1477.5,325.5 L1477.5,325.5 Z M1480.1,315 C1479.5,314.2 1478.6,313.8 1477.5,313.8 C1476.4,313.8 1475.4,314.2 1474.7,315 C1474,315.8 1473.6,316.8 1473.6,318.1 L1473.6,319.8 C1473.6,320.9 1473.9,321.7 1474.6,322.5 C1475.3,323.2 1476.1,323.6 1477.2,323.6 C1478.4,323.6 1479.4,323.1 1480.1,322.2 C1480.8,321.3 1481.1,320 1481.1,318.3 C1481.1,316.9 1480.8,315.8 1480.1,315 L1480.1,315 Z M1467.6,611.2 L1467.6,611.2 C1466.6,612.7 1465.3,613.5 1463.6,613.5 C1462.3,613.5 1461.3,613.2 1460.6,612.5 C1459.9,611.8 1459.5,610.9 1459.5,609.7 C1459.5,607.3 1460.9,605.9 1463.8,605.5 L1467.6,605 C1467.6,602.9 1466.7,601.8 1465,601.8 C1463.4,601.8 1462,602.3 1460.7,603.4 L1460.7,601.2 C1462,600.4 1463.5,600 1465.2,600 C1468.3,600 1469.9,601.6 1469.9,604.9 L1469.9,613.2 L1467.6,613.2 L1467.6,611.2 L1467.6,611.2 Z M1467.6,606.7 L1464.6,607.1 C1463.5,607.2 1462.8,607.5 1462.4,607.9 C1462,608.3 1461.8,608.8 1461.8,609.5 C1461.8,610.1 1462,610.6 1462.5,611 C1462.9,611.4 1463.5,611.6 1464.2,611.6 C1465.2,611.6 1466,611.2 1466.7,610.5 C1467.3,609.8 1467.7,608.9 1467.7,607.9 L1467.7,606.7 L1467.6,606.7 Z M1460.3,322.5 C1461,323.3 1462,323.6 1463.3,323.6 C1464.8,323.6 1466.1,323.1 1467.3,322.2 L1467.3,324.3 C1466.2,325.1 1464.6,325.5 1462.8,325.5 C1460.9,325.5 1459.5,324.9 1458.4,323.7 C1457.3,322.5 1456.8,320.9 1456.8,318.8 C1456.8,316.8 1457.4,315.2 1458.5,313.9 C1459.7,312.6 1461.1,312 1462.8,312 C1464.5,312 1465.8,312.5 1466.8,313.6 C1467.8,314.7 1468.2,316.2 1468.2,318.2 L1468.2,319.4 L1459.1,319.4 C1459.2,320.7 1459.6,321.8 1460.3,322.5 L1460.3,322.5 Z M1466,317.5 C1466,316.3 1465.7,315.4 1465.2,314.8 C1464.7,314.2 1463.9,313.8 1462.9,313.8 C1462,313.8 1461.2,314.1 1460.5,314.8 C1459.8,315.5 1459.4,316.4 1459.2,317.5 L1466,317.5 L1466,317.5 Z M1457.8,397.2 L1455.5,397.2 L1455.5,389.7 C1455.5,387.1 1454.5,385.8 1452.6,385.8 C1451.6,385.8 1450.8,386.2 1450.1,386.9 C1449.4,387.7 1449.1,388.6 1449.1,389.8 L1449.1,397.1 L1446.8,397.1 L1446.8,378 L1449.1,378 L1449.1,386.4 L1449.1,386.4 C1450.1,384.8 1451.5,384 1453.3,384 C1456.2,384 1457.7,385.8 1457.7,389.3 L1457.7,397.2 L1457.8,397.2 Z M1446.7,322.5 C1447.4,323.3 1448.4,323.6 1449.7,323.6 C1451.2,323.6 1452.5,323.1 1453.7,322.2 L1453.7,324.3 C1452.6,325.1 1451,325.5 1449.2,325.5 C1447.3,325.5 1445.9,324.9 1444.8,323.7 C1443.7,322.5 1443.2,320.9 1443.2,318.8 C1443.2,316.8 1443.8,315.2 1444.9,313.9 C1446.1,312.6 1447.5,312 1449.2,312 C1450.9,312 1452.2,312.5 1453.2,313.6 C1454.2,314.7 1454.6,316.2 1454.6,318.2 L1454.6,319.4 L1445.5,319.4 C1445.6,320.7 1446,321.8 1446.7,322.5 L1446.7,322.5 Z M1452.4,317.5 C1452.4,316.3 1452.1,315.4 1451.6,314.8 C1451.1,314.2 1450.3,313.8 1449.3,313.8 C1448.4,313.8 1447.6,314.1 1446.9,314.8 C1446.2,315.5 1445.8,316.4 1445.6,317.5 L1452.4,317.5 L1452.4,317.5 Z M1438.9,325.2 L1433.4,319 L1433.4,319 L1433.4,325.2 L1431.1,325.2 L1431.1,306 L1433.4,306 L1433.4,318.2 L1433.4,318.2 L1438.7,312.3 L1441.7,312.3 L1435.8,318.5 L1442.1,325.2 L1438.9,325.2 L1438.9,325.2 Z M1432.6,384.2 L1432.6,386.5 C1432.2,386.2 1431.7,386.1 1431,386.1 C1430.1,386.1 1429.4,386.5 1428.8,387.3 C1428.2,388.1 1427.9,389.2 1427.9,390.6 L1427.9,397.2 L1425.6,397.2 L1425.6,384.2 L1427.9,384.2 L1427.9,386.8 L1427.9,386.8 C1428.6,384.9 1429.7,383.9 1431.3,383.9 C1432,384 1432.4,384.1 1432.6,384.2 L1432.6,384.2 Z M1421.3,325.5 C1419.4,325.5 1417.8,324.9 1416.7,323.7 C1415.5,322.5 1415,320.9 1415,318.9 C1415,316.8 1415.6,315.1 1416.8,313.8 C1418,312.6 1419.6,311.9 1421.7,311.9 C1423.6,311.9 1425.2,312.5 1426.3,313.7 C1427.4,314.9 1428,316.5 1428,318.6 C1428,320.6 1427.4,322.3 1426.2,323.6 C1424.9,324.9 1423.3,325.5 1421.3,325.5 L1421.3,325.5 Z M1424.4,315.1 C1423.7,314.3 1422.7,313.8 1421.4,313.8 C1420.1,313.8 1419.1,314.2 1418.3,315.1 C1417.6,316 1417.2,317.2 1417.2,318.7 C1417.2,320.2 1417.6,321.4 1418.3,322.2 C1419.1,323.1 1420.1,323.5 1421.3,323.5 C1422.6,323.5 1423.6,323.1 1424.3,322.2 C1425,321.4 1425.3,320.2 1425.3,318.6 C1425.5,317.2 1425.1,316 1424.4,315.1 L1424.4,315.1 Z M1417,385.8 C1415.4,385.8 1414,386.3 1412.7,387.4 L1412.7,385.2 C1414,384.4 1415.5,384 1417.2,384 C1420.3,384 1421.9,385.6 1421.9,388.9 L1421.9,397.2 L1419.6,397.2 L1419.6,395.2 L1419.5,395.2 C1418.6,396.7 1417.3,397.5 1415.5,397.5 C1414.2,397.5 1413.2,397.2 1412.5,396.5 C1411.8,395.8 1411.4,394.9 1411.4,393.7 C1411.4,391.3 1412.8,389.9 1415.7,389.5 L1419.5,389 C1419.6,386.9 1418.7,385.8 1417,385.8 L1417,385.8 Z M1416.6,391.1 C1415.5,391.2 1414.8,391.5 1414.4,391.9 C1414,392.3 1413.8,392.8 1413.8,393.5 C1413.8,394.1 1414,394.6 1414.5,395 C1414.9,395.4 1415.5,395.6 1416.2,395.6 C1417.2,395.6 1418,395.2 1418.7,394.5 C1419.3,393.8 1419.7,392.9 1419.7,391.9 L1419.7,390.7 L1416.6,391.1 L1416.6,391.1 Z M1406,325.5 C1404.1,325.5 1402.5,324.9 1401.4,323.7 C1400.2,322.5 1399.7,320.9 1399.7,318.9 C1399.7,316.8 1400.3,315.1 1401.5,313.8 C1402.7,312.6 1404.3,311.9 1406.4,311.9 C1408.3,311.9 1409.9,312.5 1411,313.7 C1412.1,314.9 1412.7,316.5 1412.7,318.6 C1412.7,320.6 1412.1,322.3 1410.9,323.6 C1409.6,324.9 1408,325.5 1406,325.5 L1406,325.5 Z M1409.2,315.1 C1408.5,314.3 1407.5,313.8 1406.2,313.8 C1404.9,313.8 1403.9,314.2 1403.1,315.1 C1402.4,316 1402,317.2 1402,318.7 C1402,320.2 1402.4,321.4 1403.1,322.2 C1403.9,323.1 1404.9,323.5 1406.1,323.5 C1407.4,323.5 1408.4,323.1 1409.1,322.2 C1409.8,321.4 1410.1,320.2 1410.1,318.6 C1410.2,317.2 1409.9,316 1409.2,315.1 L1409.2,315.1 Z M1404,383.9 C1405.7,383.9 1407,384.4 1408,385.5 C1409,386.6 1409.4,388.1 1409.4,390.1 L1409.4,391.3 L1400.3,391.3 C1400.3,392.7 1400.7,393.8 1401.4,394.5 C1402.1,395.3 1403.1,395.6 1404.4,395.6 C1405.9,395.6 1407.2,395.1 1408.4,394.2 L1408.4,396.3 C1407.3,397.1 1405.7,397.5 1403.9,397.5 C1402,397.5 1400.6,396.9 1399.5,395.7 C1398.4,394.5 1397.9,392.9 1397.9,390.8 C1397.9,388.8 1398.5,387.2 1399.6,385.9 C1400.8,384.6 1402.3,383.9 1404,383.9 L1404,383.9 Z M1407.1,389.5 C1407.1,388.3 1406.8,387.4 1406.3,386.8 C1405.8,386.2 1405,385.8 1404,385.8 C1403.1,385.8 1402.3,386.1 1401.6,386.8 C1400.9,387.5 1400.5,388.4 1400.3,389.5 L1407.1,389.5 L1407.1,389.5 Z M1397.7,323.1 L1397.7,325.2 L1384,325.2 L1384,324.4 L1394.4,309.1 L1384.8,309.1 L1384.8,307 L1397.9,307 L1397.9,307.7 L1387.4,323.1 L1397.7,323.1 L1397.7,323.1 Z M1384.2,535.8 L1384,533.8 C1385.2,533.5 1386.3,533.2 1387.3,533 L1387.3,527.6 L1384.1,527.6 L1384.1,525.9 L1387.3,525.9 L1387.3,521.4 L1389.1,521.4 L1389.1,525.9 L1391.5,525.9 L1391.5,527.6 L1389.1,527.6 L1389.1,532.5 C1389.9,532.3 1390.7,532.1 1391.4,531.8 C1391.4,532.5 1391.5,533.1 1391.6,533.6 C1390.7,533.8 1389.9,534.1 1389.1,534.3 L1389.1,541.5 C1389.1,543.2 1388.4,544 1386.9,544 L1384.5,544 C1384.4,543.4 1384.3,542.7 1384.2,542.1 C1385.1,542.2 1385.8,542.3 1386.3,542.3 C1387,542.3 1387.4,541.9 1387.4,541.2 L1387.4,534.9 C1386.1,535.2 1385.1,535.5 1384.2,535.8 L1384.2,535.8 Z M1359.9,326.3 L1363.4,326.3 L1363.4,315.4 L1370.6,315.4 L1370.6,313.9 L1360.5,313.9 L1360.5,312.6 L1370.6,312.6 L1370.6,311.4 L1372.3,311.4 L1372.3,312.6 L1382.7,312.6 L1382.7,313.9 L1372.3,313.9 L1372.3,315.4 L1380,315.4 L1380,326.3 L1383.2,326.3 L1383.2,327.7 L1360,327.7 L1360,326.3 L1359.9,326.3 Z M1365.1,326.3 L1378.3,326.3 L1378.3,324.8 L1365.1,324.8 L1365.1,326.3 L1365.1,326.3 Z M1365.1,323.6 L1378.3,323.6 L1378.3,322.1 L1365.1,322.1 L1365.1,323.6 L1365.1,323.6 Z M1365.1,320.9 L1378.3,320.9 L1378.3,319.4 L1365.1,319.4 L1365.1,320.9 L1365.1,320.9 Z M1365.1,318.2 L1378.3,318.2 L1378.3,316.7 L1365.1,316.7 L1365.1,318.2 L1365.1,318.2 Z M1379.6,311 L1363.6,311 L1363.6,311.5 L1362,311.5 L1362,306.3 L1381.2,306.3 L1381.2,311.5 L1379.6,311.5 L1379.6,311 L1379.6,311 Z M1367.9,307.6 L1363.6,307.6 L1363.6,309.8 L1367.9,309.8 L1367.9,307.6 L1367.9,307.6 Z M1373.7,307.6 L1369.4,307.6 L1369.4,309.8 L1373.7,309.8 L1373.7,307.6 L1373.7,307.6 Z M1379.6,307.6 L1375.3,307.6 L1375.3,309.8 L1379.6,309.8 L1379.6,307.6 L1379.6,307.6 Z M1353.2,325.9 L1355.4,325.9 C1356.3,325.9 1356.8,325.4 1357,324.5 C1357.2,323.5 1357.3,322.2 1357.4,320.7 C1357.8,320.9 1358.4,321.2 1359.2,321.5 C1359.1,322.8 1358.9,324 1358.7,325.1 C1358.4,326.8 1357.5,327.6 1355.7,327.6 L1352.7,327.6 C1350.8,327.6 1349.9,326.5 1349.9,324.3 L1349.9,314.3 L1356.1,314.3 L1356.1,308.2 L1349.5,308.2 L1349.5,306.6 L1357.8,306.6 L1357.8,316.9 L1356.1,316.9 L1356.1,316 L1351.6,316 L1351.6,324.1 C1351.6,325.3 1352.2,325.9 1353.2,325.9 L1353.2,325.9 Z M1344.8,311.4 L1348.2,311.4 L1348.2,328.1 L1346.6,328.1 L1346.6,326.6 L1338.5,326.6 L1338.5,328.1 L1336.9,328.1 L1336.9,311.3 L1340.1,311.3 L1340.1,308.2 L1336.2,308.2 L1336.2,306.7 L1348.6,306.7 L1348.6,308.2 L1344.7,308.2 L1344.7,311.4 L1344.8,311.4 Z M1346.7,312.9 L1344.9,312.9 L1344.9,316.2 C1344.9,316.9 1345.2,317.2 1345.8,317.2 L1346.8,317.2 L1346.8,312.9 L1346.7,312.9 Z M1338.6,325.1 L1346.7,325.1 L1346.7,322.3 L1338.6,322.3 L1338.6,325.1 L1338.6,325.1 Z M1340.3,312.9 L1338.7,312.9 L1338.7,318.7 C1339.8,317.5 1340.3,315.8 1340.3,313.7 L1340.3,312.9 L1340.3,312.9 Z M1343.3,308.3 L1341.7,308.3 L1341.7,311.4 L1343.3,311.4 L1343.3,308.3 L1343.3,308.3 Z M1343.3,316.6 L1343.3,312.8 L1341.7,312.8 L1341.7,313.7 C1341.7,316.2 1341.1,318.3 1339.8,319.9 C1339.4,319.5 1339,319.1 1338.6,318.8 L1338.6,320.7 L1346.7,320.7 L1346.7,318.5 L1345,318.5 C1343.9,318.5 1343.3,317.9 1343.3,316.6 L1343.3,316.6 Z M1332.3,325.4 L1325.7,325.4 L1325.7,327.7 L1323.8,327.7 L1323.8,308.1 L1334.2,308.1 L1334.2,327.7 L1332.3,327.7 L1332.3,325.4 L1332.3,325.4 Z M1332.3,309.9 L1325.7,309.9 L1325.7,323.8 L1332.3,323.8 L1332.3,309.9 L1332.3,309.9 Z M1313.9,451.1 L1323.3,451.1 L1323.3,453.2 L1316.3,453.2 L1316.3,459 L1322.8,459 L1322.8,461.1 L1316.3,461.1 L1316.3,467.2 L1323.7,467.2 L1323.7,469.3 L1313.9,469.3 L1313.9,451.1 L1313.9,451.1 Z M1313.9,379.1 L1323.3,379.1 L1323.3,381.2 L1316.3,381.2 L1316.3,387 L1322.8,387 L1322.8,389.1 L1316.3,389.1 L1316.3,395.2 L1323.7,395.2 L1323.7,397.3 L1313.9,397.3 L1313.9,379.1 L1313.9,379.1 Z M1319.1,316.2 C1320.3,317.3 1321.5,318.4 1322.7,319.6 L1321.4,321 C1320.5,319.9 1319.4,318.8 1318.3,317.7 L1318.3,328.6 L1316.5,328.6 L1316.5,317.4 C1315.6,319.7 1314.3,321.9 1312.8,324 C1312.6,323.4 1312.3,322.7 1311.9,322 C1313.7,319.6 1315.1,317 1316.1,314.1 L1312,314.1 L1312,312.5 L1316.5,312.5 L1316.5,308.8 C1315.3,309 1314,309.2 1312.8,309.3 C1312.7,308.8 1312.5,308.2 1312.3,307.7 C1315.5,307.3 1318.7,306.8 1321.7,306.1 L1322.2,307.7 C1320.9,308 1319.6,308.2 1318.2,308.5 L1318.2,312.5 L1322.6,312.5 L1322.6,314.1 L1318.2,314.1 L1318.2,317.1 L1319.1,316.2 L1319.1,316.2 Z M1306.7,613 C1306.7,614.9 1305.7,615.9 1303.8,615.9 L1299.8,615.9 C1299.7,615.3 1299.6,614.6 1299.4,613.8 C1300.6,613.9 1301.8,614 1303.1,614 C1304.2,614 1304.7,613.5 1304.7,612.4 L1304.7,603.9 L1296.4,603.9 L1296.4,602 L1311.2,602 L1311.2,603.8 L1306.7,603.8 L1306.7,613 L1306.7,613 Z M1310,596.7 L1297.8,596.7 L1297.8,595 L1310,595 L1310,596.7 L1310,596.7 Z M1299.1,536 C1298.2,536.9 1297.2,537.7 1296.1,538.5 L1296.1,541.9 C1298,541.4 1299.8,540.8 1301.5,540.3 L1301.5,542.2 C1299.4,542.8 1297.8,543.3 1296.5,543.7 C1296,543.9 1295.5,544.1 1294.8,544.5 L1293.8,543.1 C1294.2,542.8 1294.4,542.2 1294.4,541.5 L1294.4,539.7 C1292.8,540.6 1291,541.5 1289,542.2 C1288.7,541.6 1288.4,541.1 1287.9,540.5 C1292.1,539.2 1295.4,537.4 1297.8,535.1 L1288.2,535.1 L1288.2,533.5 L1299.2,533.5 C1298.8,532.9 1298.5,532.3 1298.1,531.8 L1299.6,530.9 C1300.1,531.7 1300.6,532.4 1301.1,533.1 L1300.3,533.5 L1311.1,533.5 L1311.1,535.1 L1300.4,535.1 C1301,536.4 1301.9,537.5 1303,538.4 C1304.7,537.6 1306.5,536.7 1308.2,535.7 L1309.2,537.4 C1307.6,538 1306.1,538.7 1304.5,539.4 C1306.3,540.6 1308.6,541.3 1311.3,541.7 C1310.8,542.3 1310.4,542.9 1310,543.5 C1304.9,542.5 1301.3,540 1299.1,536 L1299.1,536 Z M1290,455.6 L1290,450.4 L1309.2,450.4 L1309.2,455.6 L1307.6,455.6 L1307.6,455 L1291.6,455 L1291.6,455.5 L1290,455.5 L1290,455.6 Z M1303.3,453.8 L1307.6,453.8 L1307.6,451.6 L1303.3,451.6 L1303.3,453.8 L1303.3,453.8 Z M1297.4,453.8 L1301.7,453.8 L1301.7,451.6 L1297.4,451.6 L1297.4,453.8 L1297.4,453.8 Z M1295.9,453.8 L1295.9,451.6 L1291.6,451.6 L1291.6,453.8 L1295.9,453.8 L1295.9,453.8 Z M1297.4,526 L1297.4,524.4 L1303.3,524.4 L1303.3,521.2 L1305.1,521.2 L1305.1,524.4 L1311.1,524.4 L1311.1,526 L1305.1,526 L1305.1,529.1 L1310.3,529.1 L1310.3,530.7 L1298.2,530.7 L1298.2,529.1 L1303.3,529.1 L1303.3,526 L1297.4,526 L1297.4,526 Z M1287.9,470.3 L1291.4,470.3 L1291.4,459.4 L1298.6,459.4 L1298.6,457.9 L1288.5,457.9 L1288.5,456.6 L1298.6,456.6 L1298.6,455.4 L1300.3,455.4 L1300.3,456.6 L1310.7,456.6 L1310.7,457.9 L1300.3,457.9 L1300.3,459.4 L1308,459.4 L1308,470.3 L1311.2,470.3 L1311.2,471.7 L1288,471.7 L1288,470.3 L1287.9,470.3 Z M1293.1,470.3 L1306.3,470.3 L1306.3,468.8 L1293.1,468.8 L1293.1,470.3 L1293.1,470.3 Z M1293.1,467.6 L1306.3,467.6 L1306.3,466.1 L1293.1,466.1 L1293.1,467.6 L1293.1,467.6 Z M1293.1,464.9 L1306.3,464.9 L1306.3,463.4 L1293.1,463.4 L1293.1,464.9 L1293.1,464.9 Z M1293.1,462.2 L1306.3,462.2 L1306.3,460.7 L1293.1,460.7 L1293.1,462.2 L1293.1,462.2 Z M1290.2,522.3 C1291.6,523.5 1292.7,524.4 1293.4,525.1 L1292,526.5 C1290.9,525.3 1289.9,524.3 1289,523.5 L1290.2,522.3 L1290.2,522.3 Z M1296.3,521.2 L1296.3,532 L1294.6,532 L1294.6,528.4 C1292.9,529.4 1291.1,530.4 1289.3,531.5 C1289.1,531.1 1288.8,530.6 1288.3,529.8 C1290.5,528.7 1292.6,527.5 1294.6,526.4 L1294.6,521.2 L1296.3,521.2 L1296.3,521.2 Z M1309.9,399.5 C1304.8,398.5 1301.2,396 1299,392 C1298.1,392.9 1297.1,393.7 1296,394.5 L1296,397.9 C1297.9,397.4 1299.7,396.8 1301.4,396.3 L1301.4,398.2 C1299.3,398.8 1297.7,399.3 1296.4,399.7 C1295.9,399.9 1295.4,400.1 1294.7,400.5 L1293.7,399.1 C1294.1,398.8 1294.3,398.2 1294.3,397.5 L1294.3,395.7 C1292.7,396.6 1290.9,397.5 1288.9,398.2 C1288.6,397.6 1288.3,397.1 1287.8,396.5 C1292,395.2 1295.3,393.4 1297.7,391.1 L1288.1,391.1 L1288.1,389.5 L1299.1,389.5 C1298.7,388.9 1298.4,388.3 1298,387.8 L1299.5,386.9 C1300,387.7 1300.5,388.4 1301,389.1 L1300.2,389.5 L1311,389.5 L1311,391.1 L1300.3,391.1 C1300.9,392.4 1301.8,393.5 1302.9,394.4 C1304.6,393.6 1306.4,392.7 1308.1,391.7 L1309.1,393.4 C1307.5,394 1306,394.7 1304.4,395.4 C1306.2,396.6 1308.5,397.3 1311.2,397.7 C1310.8,398.4 1310.3,399 1309.9,399.5 L1309.9,399.5 Z M1305,385.1 L1310.2,385.1 L1310.2,386.7 L1298.1,386.7 L1298.1,385.1 L1303.2,385.1 L1303.2,382 L1297.3,382 L1297.3,380.4 L1303.2,380.4 L1303.2,377.2 L1305,377.2 L1305,380.4 L1311,380.4 L1311,382 L1305,382 L1305,385.1 L1305,385.1 Z M1290.2,378.3 C1291.6,379.5 1292.7,380.4 1293.4,381.1 L1292,382.5 C1290.9,381.3 1289.9,380.3 1289,379.5 L1290.2,378.3 L1290.2,378.3 Z M1296.3,377.2 L1296.3,388 L1294.6,388 L1294.6,384.4 C1292.9,385.4 1291.1,386.4 1289.3,387.5 C1289.1,387.1 1288.8,386.6 1288.3,385.8 C1290.5,384.7 1292.6,383.5 1294.6,382.4 L1294.6,377.2 L1296.3,377.2 L1296.3,377.2 Z M1297.6,319.5 L1307.7,319.5 L1307.7,328.4 L1306.1,328.4 L1306.1,327.3 L1294.2,327.3 L1294.2,328.4 L1292.6,328.4 L1292.6,321.6 C1291.3,322.1 1290.1,322.5 1288.8,322.9 C1288.6,322.5 1288.3,322 1287.9,321.4 C1291.4,320.4 1294.9,319.1 1298.2,317.6 L1288.3,317.6 L1288.3,316.2 L1297.1,316.2 L1297.1,314.4 L1290.6,314.4 L1290.6,313.1 L1297.1,313.1 L1297.1,311.7 L1298.7,311.7 L1298.7,313.1 L1304.2,313.1 L1304.2,314.4 L1298.7,314.4 L1298.7,316.2 L1301.1,316.2 C1303.5,315 1305.8,313.7 1308.1,312.3 L1309.2,313.5 C1307.6,314.4 1305.9,315.3 1304.3,316.1 L1311.1,316.1 L1311.1,317.5 L1301.6,317.5 C1300.2,318.3 1298.9,319 1297.6,319.5 L1297.6,319.5 Z M1294.2,326 L1306.1,326 L1306.1,324.1 L1294.2,324.1 L1294.2,326 L1294.2,326 Z M1294.2,321 L1294.2,322.8 L1306.1,322.8 L1306.1,320.9 L1294.4,320.9 L1294.2,321 L1294.2,321 Z M1307.7,311.4 L1291.5,311.4 L1291.5,312.2 L1289.9,312.2 L1289.9,306.2 L1309.3,306.2 L1309.3,312 L1307.7,312 L1307.7,311.4 L1307.7,311.4 Z M1295.8,307.5 L1291.4,307.5 L1291.4,310 L1295.8,310 L1295.8,307.5 L1295.8,307.5 Z M1301.7,307.5 L1297.3,307.5 L1297.3,310 L1301.7,310 L1301.7,307.5 L1301.7,307.5 Z M1307.7,307.5 L1303.3,307.5 L1303.3,310 L1307.7,310 L1307.7,307.5 L1307.7,307.5 Z M1279.5,615.5 L1273.5,615.4 C1271,615.3 1269.1,614.4 1267.9,612.7 C1266.9,613.5 1265.9,614.6 1264.9,615.8 L1263.9,613.8 C1263.9,613.8 1265,612.9 1267,611.1 L1267,603.1 L1264,603.1 L1264,601.4 L1268.9,601.4 L1268.9,611.5 C1270.1,613 1271.7,613.7 1273.9,613.7 L1280.8,613.8 L1287.3,613.5 C1287,614.1 1286.8,614.8 1286.5,615.4 L1279.5,615.5 L1279.5,615.5 Z M1285.5,594.7 L1285.5,596.5 L1272.4,596.5 L1272.4,594.7 L1285.5,594.7 L1285.5,594.7 Z M1270.8,600.7 L1286.9,600.7 L1286.9,602.5 L1278.1,602.5 C1276.7,605 1275.4,607.2 1274.2,609 C1276.6,608.9 1279.3,608.7 1282.3,608.5 C1281.5,607.3 1280.7,606.1 1279.9,605 L1281.4,604.1 C1283.2,606.4 1284.7,608.6 1286.1,610.8 L1284.4,611.9 C1284,611.3 1283.7,610.7 1283.3,610.1 C1278.9,610.4 1275.7,610.6 1273.8,610.9 C1273.3,611 1272.7,611.1 1272.1,611.3 L1271.2,609.6 C1271.8,609.2 1272.3,608.7 1272.7,608.1 C1273.8,606.5 1274.8,604.6 1275.8,602.5 L1270.8,602.5 L1270.8,600.7 L1270.8,600.7 Z M1270.1,597.9 L1268.4,599 C1267.4,597.4 1266.2,595.9 1265.1,594.4 L1266.5,593.4 C1267.8,594.9 1269,596.4 1270.1,597.9 L1270.1,597.9 Z M1278.2,539.1 C1280.7,540.2 1283.1,541.3 1285.6,542.5 L1284.5,544.4 C1282.1,543.2 1279.5,541.8 1276.6,540.5 C1273.9,542.3 1270.3,543.6 1265.9,544.4 C1265.6,543.8 1265.3,543.2 1264.9,542.5 C1268.8,541.9 1272,540.9 1274.5,539.5 C1272.5,538.5 1270.3,537.6 1268,536.5 C1268.7,535.4 1269.5,534.2 1270.2,533 L1264,533 L1264,531.3 L1271.2,531.3 C1272,529.9 1272.8,528.5 1273.5,527 L1275.4,527.8 C1274.7,529 1274,530.2 1273.4,531.3 L1287.3,531.3 L1287.3,533 L1282.3,533 C1281.4,535.4 1280.1,537.4 1278.2,539.1 L1278.2,539.1 Z M1272.3,533 C1271.7,533.9 1271.2,534.9 1270.6,535.8 C1272.5,536.6 1274.3,537.4 1276.2,538.2 C1278.1,536.8 1279.4,535 1280.1,533 L1272.3,533 L1272.3,533 Z M1281.2,469.9 L1283.4,469.9 C1284.3,469.9 1284.8,469.4 1285,468.5 C1285.2,467.5 1285.3,466.2 1285.4,464.7 C1285.8,464.9 1286.4,465.2 1287.2,465.5 C1287.1,466.8 1286.9,468 1286.7,469.1 C1286.4,470.8 1285.5,471.6 1283.7,471.6 L1280.7,471.6 C1278.8,471.6 1277.9,470.5 1277.9,468.3 L1277.9,458.3 L1284.1,458.3 L1284.1,452.2 L1277.5,452.2 L1277.5,450.6 L1285.8,450.6 L1285.8,460.9 L1284.1,460.9 L1284.1,460 L1279.6,460 L1279.6,468.1 C1279.6,469.3 1280.2,469.9 1281.2,469.9 L1281.2,469.9 Z M1265.1,529.2 L1265.1,524.7 L1275.7,524.7 C1275.1,523.8 1274.4,523 1273.7,522.1 L1275.3,521 C1276.3,522 1277.1,523 1277.7,524 L1276.6,524.7 L1286.2,524.7 L1286.2,529.2 L1284.3,529.2 L1284.3,526.5 L1267,526.5 L1267,529.2 L1265.1,529.2 L1265.1,529.2 Z M1264.3,452.3 L1264.3,450.8 L1276.7,450.8 L1276.7,452.3 L1272.8,452.3 L1272.8,455.4 L1276.2,455.4 L1276.2,472.1 L1274.6,472.1 L1274.6,470.6 L1266.5,470.6 L1266.5,472.1 L1264.9,472.1 L1264.9,455.3 L1268.1,455.3 L1268.1,452.2 L1264.3,452.2 L1264.3,452.3 Z M1271.3,452.3 L1269.7,452.3 L1269.7,455.4 L1271.3,455.4 L1271.3,452.3 L1271.3,452.3 Z M1274.7,456.9 L1272.9,456.9 L1272.9,460.2 C1272.9,460.9 1273.2,461.2 1273.8,461.2 L1274.8,461.2 L1274.8,456.9 L1274.7,456.9 Z M1266.6,469.1 L1274.7,469.1 L1274.7,466.3 L1266.6,466.3 L1266.6,469.1 L1266.6,469.1 Z M1266.6,464.8 L1274.7,464.8 L1274.7,462.6 L1273,462.6 C1271.9,462.6 1271.3,462 1271.3,460.7 L1271.3,456.9 L1269.7,456.9 L1269.7,457.8 C1269.7,460.3 1269.1,462.4 1267.8,464 C1267.4,463.6 1267,463.2 1266.6,462.9 L1266.6,464.8 L1266.6,464.8 Z M1266.6,456.9 L1266.6,462.7 C1267.7,461.5 1268.2,459.8 1268.2,457.7 L1268.2,456.9 L1266.6,456.9 L1266.6,456.9 Z M1278.2,395.1 C1280.7,396.2 1283.1,397.3 1285.6,398.5 L1284.5,400.4 C1282.1,399.2 1279.5,397.8 1276.6,396.5 C1273.9,398.3 1270.3,399.6 1265.9,400.4 C1265.6,399.8 1265.3,399.2 1264.9,398.5 C1268.8,397.9 1272,396.9 1274.5,395.5 C1272.5,394.5 1270.3,393.6 1268,392.5 C1268.7,391.4 1269.5,390.2 1270.2,389 L1264,389 L1264,387.3 L1271.2,387.3 C1272,385.9 1272.8,384.5 1273.5,383 L1275.4,383.8 C1274.7,385 1274,386.2 1273.4,387.3 L1287.3,387.3 L1287.3,389 L1282.3,389 C1281.4,391.4 1280.1,393.4 1278.2,395.1 L1278.2,395.1 Z M1272.3,389 C1271.7,389.9 1271.2,390.9 1270.6,391.8 C1272.5,392.6 1274.3,393.4 1276.2,394.2 C1278.1,392.8 1279.4,391 1280.1,389 L1272.3,389 L1272.3,389 Z M1284,324.9 C1283.2,325 1282.1,325 1280.8,324.8 C1280.7,324.2 1280.6,323.6 1280.5,322.7 C1281.6,322.9 1282.6,323 1283.4,323 C1284.8,323 1285.4,322.1 1285.3,320.2 C1285.2,318.5 1284,316.8 1281.7,315.1 C1282.7,313.1 1283.7,310.8 1284.8,308.4 L1280,308.4 L1280,328.4 L1278.2,328.4 L1278.2,306.7 L1286.6,306.7 L1286.6,308.6 C1286,310.2 1285,312.2 1283.8,314.7 C1286,316.4 1287.1,318.4 1287.1,320.6 C1287.2,323.2 1286.1,324.7 1284,324.9 L1284,324.9 Z M1286.1,380.7 L1286.1,385.2 L1284.2,385.2 L1284.2,382.5 L1267,382.5 L1267,385.2 L1265.1,385.2 L1265.1,380.7 L1275.7,380.7 C1275.1,379.8 1274.4,379 1273.7,378.1 L1275.3,377 C1276.3,378 1277.1,379 1277.7,380 L1276.6,380.7 L1286.1,380.7 L1286.1,380.7 Z M1265.7,328.2 L1265.7,318.6 L1275.8,318.6 L1275.8,328.1 L1274.1,328.1 L1274.1,326.4 L1267.4,326.4 L1267.4,328.2 L1265.7,328.2 L1265.7,328.2 Z M1274.1,324.8 L1274.1,320.2 L1267.4,320.2 L1267.4,324.8 L1274.1,324.8 L1274.1,324.8 Z M1264.1,314.6 L1271.6,314.6 C1272.5,313 1273.3,311.5 1273.9,310.2 L1275.6,311.1 C1274.9,312.3 1274.2,313.5 1273.4,314.6 L1277.5,314.6 L1277.5,316.2 L1264.1,316.2 L1264.1,314.6 L1264.1,314.6 Z M1268.1,314.6 C1267.6,313.6 1267,312.5 1266.1,311.2 L1267.5,310.3 C1268.3,311.4 1269,312.5 1269.6,313.6 L1268.1,314.6 L1268.1,314.6 Z M1264.6,308.4 L1270.5,308.4 C1270.2,307.7 1269.7,306.8 1269.1,305.8 L1270.7,305 C1271.4,306.2 1271.9,307.1 1272.2,307.8 L1271.1,308.3 L1277.1,308.3 L1277.1,309.9 L1264.6,309.9 L1264.6,308.4 L1264.6,308.4 Z M1288.1,599.9 C1290.6,598 1292.6,595.7 1294.1,593.2 L1295.8,594.2 C1294,597 1291.7,599.5 1289,601.7 C1288.7,601.1 1288.4,600.5 1288.1,599.9 L1288.1,599.9 Z M1296.2,599.9 C1295.4,601.3 1294.5,602.6 1293.6,603.8 L1293.6,616.2 L1291.7,616.2 L1291.7,606.2 C1290.8,607.3 1289.8,608.2 1288.8,609.1 C1288.6,608.4 1288.3,607.8 1288,607.2 C1290.4,605.2 1292.6,602.4 1294.6,598.8 L1296.2,599.9 L1296.2,599.9 Z M1318.6,593.8 C1318,595.9 1317.3,597.8 1316.5,599.6 L1316.5,616.3 L1314.8,616.3 L1314.8,603 C1314.1,604.2 1313.4,605.4 1312.7,606.4 C1312.5,605.7 1312.2,605.1 1312,604.5 C1314.1,601.3 1315.7,597.5 1316.9,593.1 L1318.6,593.8 L1318.6,593.8 Z M1320.1,608.5 L1321.7,607.6 C1322.4,608.8 1323.3,609.8 1324.4,610.7 C1325,609.9 1325.3,608.6 1325.6,606.8 L1319.5,606.8 L1319.5,600.4 L1325.8,600.4 L1325.8,598.1 L1318.3,598.1 L1318.3,596.5 L1325.8,596.5 L1325.8,593.3 L1327.6,593.3 L1327.6,596.5 L1335.2,596.5 L1335.2,598.1 L1327.6,598.1 L1327.6,600.4 L1333.9,600.4 L1333.9,607.9 L1332.1,607.9 L1332.1,606.9 L1327.4,606.9 C1327.2,609.1 1326.7,610.7 1326,611.8 L1326,611.8 C1328.4,613.2 1331.6,614 1335.4,614.3 C1334.9,615 1334.5,615.6 1334.1,616.2 C1330.3,615.7 1327.2,614.7 1324.7,613.2 C1323.3,614.4 1321.3,615.5 1318.7,616.4 C1318.3,615.9 1317.9,615.4 1317.5,614.8 C1320,614 1321.9,613.1 1323.2,612 C1321.9,611.1 1320.9,609.9 1320.1,608.5 L1320.1,608.5 Z M1332.1,605.3 L1332.1,602 L1327.6,602 C1327.6,602.6 1327.6,603.7 1327.5,605.3 L1332.1,605.3 L1332.1,605.3 Z M1325.7,602 L1321.2,602 L1321.2,605.3 L1325.7,605.3 L1325.7,602 L1325.7,602 Z M1342.7,469.2 L1340.4,469.2 L1340.4,467.2 L1340.3,467.2 C1339.4,468.7 1338.1,469.5 1336.3,469.5 C1335,469.5 1334,469.2 1333.3,468.5 C1332.6,467.8 1332.2,466.9 1332.2,465.7 C1332.2,463.3 1333.6,461.9 1336.5,461.5 L1340.3,461 C1340.3,458.9 1339.4,457.8 1337.7,457.8 C1336.1,457.8 1334.7,458.3 1333.4,459.4 L1333.4,457.2 C1334.7,456.4 1336.2,456 1337.9,456 C1341,456 1342.6,457.6 1342.6,460.9 L1342.6,469.2 L1342.7,469.2 Z M1340.4,462.7 L1337.4,463.1 C1336.3,463.2 1335.6,463.5 1335.2,463.9 C1334.8,464.3 1334.6,464.8 1334.6,465.5 C1334.6,466.1 1334.8,466.6 1335.3,467 C1335.7,467.4 1336.3,467.6 1337,467.6 C1338,467.6 1338.8,467.2 1339.5,466.5 C1340.1,465.8 1340.5,464.9 1340.5,463.9 L1340.5,462.7 L1340.4,462.7 Z M1333.9,544.2 L1332.1,544.2 L1332.1,543.1 L1315,543.1 L1315,544.2 L1313.2,544.2 L1313.2,522.1 L1333.9,522.1 L1333.9,544.2 L1333.9,544.2 Z M1332.1,523.9 L1315,523.9 L1315,541.5 L1332.2,541.5 L1332.2,523.9 L1332.1,523.9 Z M1319.3,528.7 C1318.6,529.4 1317.7,530.1 1316.9,530.8 C1316.6,530.5 1316.2,530.1 1315.8,529.7 C1317.9,528.2 1319.7,526.3 1321.1,524.2 L1322.6,524.9 C1322.3,525.3 1322,525.8 1321.7,526.2 L1330,526.2 L1330,527.6 C1328.9,529 1327.4,530.2 1325.6,531.4 C1327.2,532 1329.3,532.4 1331.7,532.7 C1331.3,533.4 1331.1,534 1330.9,534.5 C1328.1,533.9 1325.8,533.2 1323.9,532.4 C1322,533.3 1319.4,534.1 1316.3,534.9 C1316.1,534.4 1315.8,533.9 1315.5,533.4 C1318.2,532.8 1320.5,532.2 1322.3,531.5 C1321.1,530.5 1320.1,529.7 1319.3,528.7 L1319.3,528.7 Z M1327.6,527.6 L1320.4,527.6 C1320.4,527.6 1320.4,527.7 1320.3,527.7 C1321.2,528.9 1322.4,529.8 1323.7,530.6 C1325.4,529.7 1326.7,528.7 1327.6,527.6 L1327.6,527.6 Z M1320.4,534 C1322.7,534.3 1325.1,534.7 1327.6,535.2 L1327.1,536.8 C1324.5,536.3 1322.1,535.9 1319.9,535.6 L1320.4,534 L1320.4,534 Z M1329.2,538.9 L1328.6,540.7 C1325.1,539.9 1321.4,539.3 1317.5,538.7 L1318,537.1 C1321.8,537.6 1325.6,538.2 1329.2,538.9 L1329.2,538.9 Z M1326.8,378 L1329.1,378 L1329.1,397.2 L1326.8,397.2 L1326.8,378 L1326.8,378 Z M1329.1,469.2 L1326.8,469.2 L1326.8,450 L1329.1,450 L1329.1,469.2 L1329.1,469.2 Z M1337.8,385.8 C1336.2,385.8 1334.8,386.3 1333.5,387.4 L1333.5,385.2 C1334.8,384.4 1336.3,384 1338,384 C1341.1,384 1342.7,385.6 1342.7,388.9 L1342.7,397.2 L1340.4,397.2 L1340.4,395.2 L1340.3,395.2 C1339.4,396.7 1338.1,397.5 1336.3,397.5 C1335,397.5 1334,397.2 1333.3,396.5 C1332.6,395.8 1332.2,394.9 1332.2,393.7 C1332.2,391.3 1333.6,389.9 1336.5,389.5 L1340.3,389 C1340.4,386.9 1339.5,385.8 1337.8,385.8 L1337.8,385.8 Z M1337.4,391.1 C1336.3,391.2 1335.6,391.5 1335.2,391.9 C1334.8,392.3 1334.6,392.8 1334.6,393.5 C1334.6,394.1 1334.8,394.6 1335.3,395 C1335.7,395.4 1336.3,395.6 1337,395.6 C1338,395.6 1338.8,395.2 1339.5,394.5 C1340.1,393.8 1340.5,392.9 1340.5,391.9 L1340.5,390.7 L1337.4,391.1 L1337.4,391.1 Z M1336.2,533 L1336.2,531.3 L1339.4,531.3 L1339.4,524.6 L1336.9,524.6 L1336.9,522.9 L1349.7,522.9 L1349.7,524.6 L1346.8,524.6 L1346.8,531.3 L1350.4,531.3 L1350.4,533 L1346.8,533 L1346.8,544.2 L1345,544.2 L1345,533 L1341.1,533 C1341.1,538.2 1339.7,542 1337,544.4 C1336.6,543.9 1336.2,543.3 1335.8,542.9 C1338.2,540.9 1339.4,537.6 1339.3,533.1 L1336.2,533.1 L1336.2,533 Z M1341.2,531.3 L1345,531.3 L1345,524.6 L1341.2,524.6 L1341.2,531.3 L1341.2,531.3 Z M1338.7,603 L1338.7,594.6 L1357.8,594.6 L1357.8,613.2 C1357.8,615.1 1356.9,616 1355.2,616 C1354.1,616 1352.9,616 1351.6,615.9 C1351.5,615.4 1351.4,614.7 1351.2,614 C1352.6,614.1 1353.7,614.1 1354.5,614.1 C1355.5,614.1 1356,613.6 1356,612.7 L1356,608.4 L1349.1,608.4 L1349.1,615.9 L1347.2,615.9 L1347.2,608.4 L1340.4,608.4 C1340.1,611.6 1339.2,614.3 1337.6,616.5 C1337.2,616 1336.7,615.4 1336.2,614.9 C1337.2,613.5 1337.9,611.9 1338.3,610.1 C1338.5,608.5 1338.7,606.1 1338.7,603 L1338.7,603 Z M1349,606.8 L1355.9,606.8 L1355.9,602.4 L1349,602.4 L1349,606.8 L1349,606.8 Z M1349,600.8 L1355.9,600.8 L1355.9,596.4 L1349,596.4 L1349,600.8 L1349,600.8 Z M1347.2,596.4 L1340.6,596.4 L1340.6,600.8 L1347.2,600.8 L1347.2,596.4 L1347.2,596.4 Z M1347.2,606.8 L1347.2,602.4 L1340.6,602.4 C1340.6,603.9 1340.6,605.4 1340.5,606.8 L1347.2,606.8 L1347.2,606.8 Z M1349.6,544.3 C1349.3,543.9 1348.9,543.4 1348.3,542.8 C1352.1,540.8 1355.4,538.1 1357.9,534.9 L1359.3,536.1 C1356.8,539.1 1353.6,541.8 1349.6,544.3 L1349.6,544.3 Z M1358.6,529.3 C1356.4,531.8 1353.7,534.1 1350.7,536.1 C1350.4,535.6 1350,535.2 1349.5,534.7 C1352.4,532.9 1355,530.7 1357.3,528.1 L1358.6,529.3 L1358.6,529.3 Z M1358.2,522.7 C1356.1,525 1353.5,527.1 1350.5,529 C1350.2,528.6 1349.8,528.1 1349.3,527.5 C1352.2,525.9 1354.7,523.9 1356.8,521.5 L1358.2,522.7 L1358.2,522.7 Z M1350.8,461.9 C1352.2,462.4 1353.2,463 1353.7,463.6 C1354.2,464.2 1354.5,464.9 1354.5,465.7 C1354.5,466.9 1354,467.8 1353,468.5 C1352,469.2 1350.8,469.5 1349.2,469.5 C1347.9,469.5 1346.7,469.2 1345.7,468.7 L1345.7,466.4 C1346.9,467.2 1348.1,467.7 1349.4,467.7 C1351.2,467.7 1352.1,467.1 1352.1,465.9 C1352.1,465.4 1351.9,465 1351.5,464.7 C1351.1,464.4 1350.3,464 1349.1,463.5 C1347.7,462.9 1346.7,462.3 1346.3,461.8 C1345.9,461.2 1345.7,460.5 1345.7,459.7 C1345.7,458.6 1346.2,457.6 1347.2,456.9 C1348.2,456.2 1349.4,455.9 1350.8,455.9 C1351.9,455.9 1352.9,456.1 1353.9,456.5 L1353.9,458.7 C1352.9,458.1 1351.8,457.8 1350.6,457.8 C1349.9,457.8 1349.3,458 1348.8,458.3 C1348.3,458.6 1348.1,459 1348.1,459.6 C1348.1,460.1 1348.3,460.5 1348.6,460.8 C1348.9,461.1 1349.7,461.4 1350.8,461.9 L1350.8,461.9 Z M1350.8,389.9 C1352.2,390.4 1353.2,391 1353.7,391.6 C1354.2,392.2 1354.5,392.9 1354.5,393.7 C1354.5,394.9 1354,395.8 1353,396.5 C1352,397.2 1350.8,397.5 1349.2,397.5 C1347.9,397.5 1346.7,397.2 1345.7,396.7 L1345.7,394.4 C1346.9,395.2 1348.1,395.7 1349.4,395.7 C1351.2,395.7 1352.1,395.1 1352.1,393.9 C1352.1,393.4 1351.9,393 1351.5,392.7 C1351.1,392.4 1350.3,392 1349.1,391.5 C1347.7,390.9 1346.7,390.3 1346.3,389.8 C1345.9,389.2 1345.7,388.5 1345.7,387.7 C1345.7,386.6 1346.2,385.6 1347.2,384.9 C1348.2,384.2 1349.4,383.9 1350.8,383.9 C1351.9,383.9 1352.9,384.1 1353.9,384.5 L1353.9,386.7 C1352.9,386.1 1351.8,385.8 1350.6,385.8 C1349.9,385.8 1349.3,386 1348.8,386.3 C1348.3,386.6 1348.1,387 1348.1,387.6 C1348.1,388.1 1348.3,388.5 1348.6,388.8 C1348.9,389.1 1349.7,389.4 1350.8,389.9 L1350.8,389.9 Z M1361,395.1 C1361.3,395.5 1361.8,395.7 1362.4,395.7 C1362.9,395.7 1363.4,395.6 1363.7,395.3 L1363.7,397.2 C1363.2,397.5 1362.5,397.6 1361.7,397.6 C1359.4,397.6 1358.2,396.3 1358.2,393.7 L1358.2,386.2 L1356,386.2 L1356,384.3 L1358.2,384.3 L1358.2,381.2 L1360.5,380.5 L1360.5,384.3 L1363.7,384.3 L1363.7,386.2 L1360.5,386.2 L1360.5,393.3 C1360.6,394.1 1360.7,394.7 1361,395.1 L1361,395.1 Z M1358.3,458.2 L1356.1,458.2 L1356.1,456.3 L1358.3,456.3 L1358.3,453.2 L1360.6,452.5 L1360.6,456.3 L1363.8,456.3 L1363.8,458.2 L1360.6,458.2 L1360.6,465.3 C1360.6,466.2 1360.7,466.8 1361,467.1 C1361.3,467.5 1361.8,467.7 1362.4,467.7 C1362.9,467.7 1363.4,467.6 1363.7,467.3 L1363.7,469.2 C1363.2,469.5 1362.5,469.6 1361.7,469.6 C1359.4,469.6 1358.2,468.3 1358.2,465.7 L1358.2,458.2 L1358.3,458.2 Z M1361.9,522.7 L1363.7,522.7 L1363.7,532.4 L1361.9,532.4 L1361.9,522.7 L1361.9,522.7 Z M1367,533.5 L1367,521.4 L1368.8,521.4 L1368.8,533.5 L1367,533.5 L1367,533.5 Z M1366.5,456.3 L1368.8,456.3 L1368.8,469.3 L1366.5,469.3 L1366.5,456.3 L1366.5,456.3 Z M1368.7,452.7 C1368.4,453 1368.1,453.1 1367.7,453.1 C1367.3,453.1 1366.9,453 1366.7,452.7 C1366.4,452.4 1366.3,452.1 1366.3,451.7 C1366.3,451.3 1366.4,451 1366.7,450.7 C1367,450.4 1367.3,450.3 1367.7,450.3 C1368.1,450.3 1368.5,450.4 1368.7,450.7 C1369,451 1369.1,451.3 1369.1,451.7 C1369.2,452.1 1369,452.4 1368.7,452.7 L1368.7,452.7 Z M1368.8,397.2 L1366.5,397.2 L1366.5,384.2 L1368.8,384.2 L1368.8,397.2 L1368.8,397.2 Z M1366.7,378.7 C1367,378.4 1367.3,378.3 1367.7,378.3 C1368.1,378.3 1368.5,378.4 1368.7,378.7 C1369,379 1369.1,379.3 1369.1,379.7 C1369.1,380.1 1369,380.4 1368.7,380.7 C1368.4,381 1368.1,381.1 1367.7,381.1 C1367.3,381.1 1366.9,381 1366.7,380.7 C1366.4,380.4 1366.3,380.1 1366.3,379.7 C1366.3,379.3 1366.4,378.9 1366.7,378.7 L1366.7,378.7 Z M1380.6,531.6 L1379.3,533 C1377.6,531.4 1376,530 1374.4,528.8 L1375.6,527.6 C1377.3,528.8 1379,530.2 1380.6,531.6 L1380.6,531.6 Z M1382.9,526.3 L1373.6,526.3 C1372.7,528.1 1371.7,529.6 1370.6,530.9 C1370.1,530.5 1369.6,530.2 1369.1,529.8 C1371.1,527.3 1372.7,524.4 1373.8,521.1 L1375.6,521.6 C1375.2,522.6 1374.8,523.6 1374.3,524.6 L1382.8,524.6 L1382.8,526.3 L1382.9,526.3 Z M1381.9,458.9 C1381,458.2 1380,457.9 1378.9,457.9 C1377.6,457.9 1376.5,458.4 1375.7,459.3 C1374.9,460.2 1374.5,461.4 1374.5,462.9 C1374.5,464.4 1374.9,465.6 1375.7,466.4 C1376.5,467.2 1377.5,467.7 1378.8,467.7 C1379.9,467.7 1381,467.3 1382,466.6 L1382,468.7 C1381,469.3 1379.8,469.6 1378.4,469.6 C1376.5,469.6 1375,469 1373.9,467.8 C1372.8,466.6 1372.2,465 1372.2,463.1 C1372.2,461 1372.8,459.3 1374,458 C1375.2,456.7 1376.9,456 1378.9,456 C1380.1,456 1381.1,456.2 1381.9,456.6 L1381.9,458.9 L1381.9,458.9 Z M1378.7,395.6 C1379.8,395.6 1380.9,395.2 1381.9,394.5 L1381.9,396.6 C1380.9,397.2 1379.7,397.5 1378.3,397.5 C1376.4,397.5 1374.9,396.9 1373.8,395.7 C1372.7,394.5 1372.1,392.9 1372.1,391 C1372.1,388.9 1372.7,387.2 1373.9,385.9 C1375.1,384.6 1376.8,383.9 1378.8,383.9 C1380,383.9 1381,384.1 1381.8,384.5 L1381.8,386.8 C1380.9,386.1 1379.9,385.8 1378.8,385.8 C1377.5,385.8 1376.4,386.3 1375.6,387.2 C1374.8,388.1 1374.4,389.3 1374.4,390.8 C1374.4,392.3 1374.8,393.5 1375.6,394.3 C1376.3,395.2 1377.4,395.6 1378.7,395.6 L1378.7,395.6 Z M1362.8,534.2 L1380.3,534.2 L1380.3,541.7 L1383.1,541.7 L1383.1,543.4 L1360,543.4 L1360,541.7 L1362.7,541.7 L1362.7,534.2 L1362.8,534.2 Z M1375.1,541.8 L1378.6,541.8 L1378.6,535.9 L1375.1,535.9 L1375.1,541.8 L1375.1,541.8 Z M1369.8,541.8 L1373.3,541.8 L1373.3,535.9 L1369.8,535.9 L1369.8,541.8 L1369.8,541.8 Z M1364.6,541.8 L1368.1,541.8 L1368.1,535.9 L1364.6,535.9 L1364.6,541.8 L1364.6,541.8 Z M1371.3,597.1 L1364.3,597.1 L1364.3,602.9 L1370.8,602.9 L1370.8,605 L1364.3,605 L1364.3,611.1 L1371.7,611.1 L1371.7,613.2 L1361.9,613.2 L1361.9,595 L1371.3,595 L1371.3,597.1 L1371.3,597.1 Z M1377.1,613.2 L1374.8,613.2 L1374.8,594 L1377.1,594 L1377.1,613.2 L1377.1,613.2 Z M1384.6,605.5 L1388.4,605 C1388.4,602.9 1387.5,601.8 1385.8,601.8 C1384.2,601.8 1382.8,602.3 1381.5,603.4 L1381.5,601.2 C1382.8,600.4 1384.3,600 1386,600 C1389.1,600 1390.7,601.6 1390.7,604.9 L1390.7,613.2 L1388.4,613.2 L1388.4,611.2 L1388.3,611.2 C1387.4,612.7 1386.1,613.5 1384.3,613.5 C1383,613.5 1382,613.2 1381.3,612.5 C1380.6,611.8 1380.2,610.9 1380.2,609.7 C1380.3,607.3 1381.7,605.9 1384.6,605.5 L1384.6,605.5 Z M1383.2,611.1 C1383.6,611.5 1384.2,611.7 1384.9,611.7 C1385.9,611.7 1386.7,611.3 1387.4,610.6 C1388,609.9 1388.4,609 1388.4,608 L1388.4,606.8 L1385.4,607.2 C1384.3,607.3 1383.6,607.6 1383.2,608 C1382.8,608.4 1382.6,608.9 1382.6,609.6 C1382.6,610.2 1382.8,610.7 1383.2,611.1 L1383.2,611.1 Z M1398.4,535.8 L1392.7,535.8 L1392.7,534.2 L1406,534.2 L1406,535.8 L1400.2,535.8 L1400.2,541.6 L1407.1,541.6 L1407.1,543.3 L1391.1,543.3 L1391.1,541.6 L1398.4,541.6 L1398.4,535.8 L1398.4,535.8 Z M1400.2,609.9 C1400.2,609.4 1400,609 1399.6,608.7 C1399.2,608.4 1398.4,608 1397.2,607.5 C1395.8,606.9 1394.8,606.4 1394.4,605.8 C1394,605.2 1393.8,604.5 1393.8,603.7 C1393.8,602.6 1394.3,601.6 1395.3,600.9 C1396.3,600.2 1397.5,599.9 1398.9,599.9 C1400,599.9 1401,600.1 1402,600.5 L1402,602.7 C1401,602.1 1399.9,601.8 1398.7,601.8 C1398,601.8 1397.4,602 1396.9,602.3 C1396.4,602.6 1396.2,603 1396.2,603.6 C1396.2,604.1 1396.4,604.5 1396.7,604.8 C1397,605.1 1397.8,605.5 1398.9,605.9 C1400.3,606.4 1401.3,607 1401.8,607.6 C1402.3,608.2 1402.6,608.9 1402.6,609.7 C1402.6,610.9 1402.1,611.8 1401.1,612.5 C1400.1,613.2 1398.9,613.5 1397.3,613.5 C1396,613.5 1394.8,613.2 1393.8,612.7 L1393.8,610.4 C1395,611.2 1396.2,611.7 1397.5,611.7 C1399.3,611.7 1400.2,611.1 1400.2,609.9 L1400.2,609.9 Z M1406.3,597.1 L1408.6,596.4 L1408.6,600.2 L1411.8,600.2 L1411.8,602.1 L1408.6,602.1 L1408.6,609.2 C1408.6,610.1 1408.7,610.7 1409,611 C1409.3,611.4 1409.8,611.6 1410.4,611.6 C1410.9,611.6 1411.4,611.5 1411.7,611.2 L1411.7,613.1 C1411.2,613.4 1410.5,613.5 1409.7,613.5 C1407.4,613.5 1406.2,612.2 1406.2,609.6 L1406.2,602.1 L1404,602.1 L1404,600.2 L1406.2,600.2 L1406.2,597.1 L1406.3,597.1 Z M1404,455.9 C1405.7,455.9 1407,456.4 1408,457.5 C1409,458.6 1409.4,460.1 1409.4,462.1 L1409.4,463.3 L1400.3,463.3 C1400.3,464.7 1400.7,465.8 1401.4,466.5 C1402.1,467.3 1403.1,467.6 1404.4,467.6 C1405.9,467.6 1407.2,467.1 1408.4,466.2 L1408.4,468.3 C1407.3,469.1 1405.7,469.5 1403.9,469.5 C1402,469.5 1400.6,468.9 1399.5,467.7 C1398.4,466.5 1397.9,464.9 1397.9,462.8 C1397.9,460.8 1398.5,459.2 1399.6,457.9 C1400.8,456.6 1402.3,455.9 1404,455.9 L1404,455.9 Z M1407.1,461.5 C1407.1,460.3 1406.8,459.4 1406.3,458.8 C1405.8,458.2 1405,457.8 1404,457.8 C1403.1,457.8 1402.3,458.1 1401.6,458.8 C1400.9,459.5 1400.5,460.4 1400.3,461.5 L1407.1,461.5 L1407.1,461.5 Z M1407,532.3 L1405.7,533.8 C1404.3,532.4 1402.5,530.9 1400.5,529.3 L1401.7,528.1 C1403.8,529.6 1405.6,531 1407,532.3 L1407,532.3 Z M1396.9,528.1 L1398.2,529.4 C1396.4,531 1394.6,532.5 1393,533.8 L1391.7,532.4 C1393.7,531 1395.4,529.6 1396.9,528.1 L1396.9,528.1 Z M1390.8,459.1 C1392.6,460 1393.8,460.8 1394.5,461.7 C1395.2,462.6 1395.6,463.5 1395.6,464.6 C1395.6,466.2 1395,467.4 1393.9,468.3 C1392.7,469.2 1391.1,469.6 1389.1,469.6 C1388.4,469.6 1387.5,469.5 1386.6,469.3 C1385.6,469.1 1384.9,468.9 1384.5,468.6 L1384.5,465.9 C1385.1,466.4 1385.8,466.8 1386.7,467.1 C1387.6,467.4 1388.5,467.6 1389.3,467.6 C1391.8,467.6 1393.1,466.7 1393.1,464.9 C1393.1,464.4 1393,463.9 1392.7,463.5 C1392.4,463.1 1392.1,462.7 1391.6,462.4 C1391.1,462.1 1390.2,461.6 1388.9,461 C1387.1,460.1 1385.9,459.3 1385.3,458.5 C1384.7,457.7 1384.4,456.8 1384.4,455.8 C1384.4,454.3 1385,453.1 1386.2,452.2 C1387.4,451.3 1388.9,450.9 1390.8,450.9 C1392.6,450.9 1393.9,451.1 1394.8,451.6 L1394.8,454.2 C1393.7,453.4 1392.3,453.1 1390.7,453.1 C1389.6,453.1 1388.7,453.3 1388,453.8 C1387.3,454.3 1387,454.9 1387,455.7 C1387,456.4 1387.2,457 1387.7,457.5 C1388.1,457.7 1389.1,458.4 1390.8,459.1 L1390.8,459.1 Z M1390.8,387.1 C1392.6,388 1393.8,388.8 1394.5,389.7 C1395.2,390.6 1395.6,391.5 1395.6,392.6 C1395.6,394.2 1395,395.4 1393.9,396.3 C1392.7,397.2 1391.1,397.6 1389.1,397.6 C1388.4,397.6 1387.5,397.5 1386.6,397.3 C1385.6,397.1 1384.9,396.9 1384.5,396.6 L1384.5,393.9 C1385.1,394.4 1385.8,394.8 1386.7,395.1 C1387.6,395.4 1388.5,395.6 1389.3,395.6 C1391.8,395.6 1393.1,394.7 1393.1,392.9 C1393.1,392.4 1393,391.9 1392.7,391.5 C1392.4,391.1 1392.1,390.7 1391.6,390.4 C1391.1,390.1 1390.2,389.6 1388.9,389 C1387.1,388.1 1385.9,387.3 1385.3,386.5 C1384.7,385.7 1384.4,384.8 1384.4,383.8 C1384.4,382.3 1385,381.1 1386.2,380.2 C1387.4,379.3 1388.9,378.9 1390.8,378.9 C1392.6,378.9 1393.9,379.1 1394.8,379.6 L1394.8,382.2 C1393.7,381.4 1392.3,381.1 1390.7,381.1 C1389.6,381.1 1388.7,381.3 1388,381.8 C1387.3,382.3 1387,382.9 1387,383.7 C1387,384.4 1387.2,385 1387.7,385.5 C1388.1,385.7 1389.1,386.4 1390.8,387.1 L1390.8,387.1 Z M1398.6,521.1 C1399.5,522.2 1400.2,523.2 1400.8,524 L1399.6,524.8 L1406.4,524.8 L1406.4,529 L1404.6,529 L1404.6,526.5 L1394.1,526.5 L1394.1,529 L1392.3,529 L1392.3,524.8 L1399,524.8 C1398.4,523.9 1397.8,523 1397.1,522.1 L1398.6,521.1 L1398.6,521.1 Z M1410.5,544.1 L1408.4,544.1 C1408.3,543.5 1408.2,542.8 1408.1,542.2 C1408.9,542.3 1409.5,542.3 1410,542.3 C1410.6,542.3 1410.8,542 1410.8,541.4 L1410.8,534.5 C1409.9,535 1409,535.4 1408.1,535.9 L1407.9,533.8 C1408.9,533.4 1409.9,532.9 1410.9,532.5 L1410.9,527.2 L1408.1,527.2 L1408.1,525.6 L1410.9,525.6 L1410.9,521.3 L1412.6,521.3 L1412.6,525.6 L1415.3,525.6 L1415.3,527.2 L1412.6,527.2 L1412.6,531.7 C1413.4,531.3 1414.3,530.8 1415.1,530.4 C1415.1,531.2 1415.2,531.8 1415.3,532.3 C1414.4,532.8 1413.5,533.2 1412.6,533.7 L1412.6,541.7 C1412.6,543.2 1411.9,544 1410.5,544.1 L1410.5,544.1 Z M1415.7,594.2 C1416.1,594.2 1416.5,594.3 1416.7,594.6 C1417,594.9 1417.1,595.2 1417.1,595.6 C1417.1,596 1417,596.3 1416.7,596.6 C1416.4,596.9 1416.1,597 1415.7,597 C1415.3,597 1414.9,596.9 1414.7,596.6 C1414.4,596.3 1414.3,596 1414.3,595.6 C1414.3,595.2 1414.4,594.9 1414.7,594.6 C1414.9,594.4 1415.3,594.2 1415.7,594.2 L1415.7,594.2 Z M1416.8,613.2 L1414.5,613.2 L1414.5,600.2 L1416.8,600.2 L1416.8,613.2 L1416.8,613.2 Z M1417,457.8 C1415.4,457.8 1414,458.3 1412.7,459.4 L1412.7,457.2 C1414,456.4 1415.5,456 1417.2,456 C1420.3,456 1421.9,457.6 1421.9,460.9 L1421.9,469.2 L1419.6,469.2 L1419.6,467.2 L1419.5,467.2 C1418.6,468.7 1417.3,469.5 1415.5,469.5 C1414.2,469.5 1413.2,469.2 1412.5,468.5 C1411.8,467.8 1411.4,466.9 1411.4,465.7 C1411.4,463.3 1412.8,461.9 1415.7,461.5 L1419.5,461 C1419.6,458.9 1418.7,457.8 1417,457.8 L1417,457.8 Z M1416.6,463.1 C1415.5,463.2 1414.8,463.5 1414.4,463.9 C1414,464.3 1413.8,464.8 1413.8,465.5 C1413.8,466.1 1414,466.6 1414.5,467 C1414.9,467.4 1415.5,467.6 1416.2,467.6 C1417.2,467.6 1418,467.2 1418.7,466.5 C1419.3,465.8 1419.7,464.9 1419.7,463.9 L1419.7,462.7 L1416.6,463.1 L1416.6,463.1 Z M1415.9,544.4 L1415.9,532 C1417.6,531.6 1419.2,531.1 1420.6,530.5 L1421.4,532.1 C1420.1,532.5 1418.8,532.9 1417.5,533.2 L1417.5,536.3 L1421.3,536.3 L1421.3,537.9 L1417.5,537.9 L1417.5,541.4 L1422.1,541.4 L1422.1,529 L1415.3,529 L1415.3,527.3 L1422.1,527.3 L1422.1,524.5 C1420.3,524.6 1418.3,524.7 1416.1,524.8 C1416,524.3 1415.9,523.7 1415.8,523.1 C1420.8,523 1425.6,522.7 1430.1,522.2 L1430.4,523.9 C1428.5,524.1 1426.3,524.2 1423.8,524.4 L1423.8,527.3 L1431.2,527.3 L1431.2,529 L1423.8,529 L1423.8,541.5 L1428.4,541.5 L1428.4,538 L1424.7,538 L1424.7,536.4 L1428.4,536.4 L1428.4,533.2 L1424.6,533.2 L1424.6,531.6 L1430.1,531.6 L1430.1,544.4 L1428.4,544.4 L1428.4,543.1 L1417.4,543.1 L1417.4,544.5 L1415.9,544.5 L1415.9,544.4 Z M1426.8,599.9 C1428,599.9 1429,600.1 1429.8,600.5 L1429.8,602.8 C1428.9,602.1 1427.9,601.8 1426.8,601.8 C1425.5,601.8 1424.4,602.3 1423.6,603.2 C1422.8,604.1 1422.4,605.3 1422.4,606.8 C1422.4,608.3 1422.8,609.5 1423.6,610.3 C1424.4,611.1 1425.4,611.6 1426.7,611.6 C1427.8,611.6 1428.9,611.2 1429.9,610.5 L1429.9,612.6 C1428.9,613.2 1427.7,613.5 1426.3,613.5 C1424.4,613.5 1422.9,612.9 1421.8,611.7 C1420.7,610.5 1420.1,608.9 1420.1,607 C1420.1,604.9 1420.7,603.2 1421.9,601.9 C1423.1,600.6 1424.8,599.9 1426.8,599.9 L1426.8,599.9 Z M1425.7,469.2 L1425.7,456.2 L1428,456.2 L1428,458.8 L1428,458.8 C1428.7,456.9 1429.8,455.9 1431.4,455.9 C1431.9,455.9 1432.3,456 1432.6,456.1 L1432.6,458.4 C1432.2,458.1 1431.7,458 1431,458 C1430.1,458 1429.4,458.4 1428.8,459.2 C1428.2,460 1427.9,461.1 1427.9,462.5 L1427.9,469.1 L1425.7,469.1 L1425.7,469.2 Z M1439,522 C1438.4,523.8 1437.8,525.5 1437.1,527.1 L1437.1,544.3 L1435.2,544.3 L1435.2,531 C1434.4,532.5 1433.6,533.8 1432.6,535.1 C1432.4,534.4 1432.1,533.7 1431.8,533.1 C1434,529.9 1435.7,526.1 1437,521.5 L1439,522 L1439,522 Z M1437.3,611.5 C1439.8,611.5 1441.1,610.6 1441.1,608.8 C1441.1,608.3 1441,607.8 1440.7,607.4 C1440.4,607 1440.1,606.6 1439.6,606.3 C1439.1,606 1438.2,605.5 1436.9,604.9 C1435.1,604 1433.9,603.2 1433.3,602.4 C1432.7,601.6 1432.4,600.7 1432.4,599.7 C1432.4,598.2 1433,597 1434.2,596.1 C1435.4,595.2 1436.9,594.8 1438.8,594.8 C1440.6,594.8 1441.9,595 1442.8,595.5 L1442.8,598.1 C1441.7,597.3 1440.3,597 1438.7,597 C1437.6,597 1436.7,597.2 1436,597.7 C1435.3,598.2 1435,598.8 1435,599.6 C1435,600.3 1435.2,600.9 1435.7,601.4 C1436.2,601.9 1437.2,602.5 1438.9,603.3 C1440.7,604.2 1441.9,605 1442.6,605.9 C1443.3,606.8 1443.7,607.7 1443.7,608.8 C1443.7,610.4 1443.1,611.6 1442,612.5 C1440.8,613.4 1439.2,613.8 1437.2,613.8 C1436.5,613.8 1435.6,613.7 1434.7,613.5 C1433.7,613.3 1433,613.1 1432.6,612.8 L1432.6,610.1 C1433.2,610.6 1433.9,611 1434.8,611.3 C1435.6,611.3 1436.4,611.5 1437.3,611.5 L1437.3,611.5 Z M1452,599.9 C1453.7,599.9 1455,600.4 1456,601.5 C1457,602.6 1457.4,604.1 1457.4,606.1 L1457.4,607.3 L1448.3,607.3 C1448.3,608.7 1448.7,609.8 1449.4,610.5 C1450.1,611.3 1451.1,611.6 1452.4,611.6 C1453.9,611.6 1455.2,611.1 1456.4,610.2 L1456.4,612.3 C1455.3,613.1 1453.7,613.5 1451.9,613.5 C1450,613.5 1448.6,612.9 1447.5,611.7 C1446.4,610.5 1445.9,608.9 1445.9,606.8 C1445.9,604.8 1446.5,603.2 1447.6,601.9 C1448.8,600.6 1450.3,599.9 1452,599.9 L1452,599.9 Z M1455.1,605.5 C1455.1,604.3 1454.8,603.4 1454.3,602.8 C1453.8,602.2 1453,601.8 1452,601.8 C1451.1,601.8 1450.3,602.1 1449.6,602.8 C1448.9,603.5 1448.5,604.4 1448.3,605.5 L1455.1,605.5 L1455.1,605.5 Z M1449.2,458.4 L1449.2,458.4 C1450.2,456.8 1451.7,456 1453.5,456 C1456.4,456 1457.9,457.8 1457.9,461.3 L1457.9,469.3 L1455.6,469.3 L1455.6,461.8 C1455.6,459.2 1454.6,457.9 1452.7,457.9 C1451.7,457.9 1450.9,458.3 1450.2,459 C1449.5,459.8 1449.2,460.7 1449.2,461.9 L1449.2,469.2 L1446.9,469.2 L1446.9,450 L1449.2,450 L1449.2,458.4 L1449.2,458.4 Z M1443.8,458.9 C1442.9,458.2 1441.9,457.9 1440.8,457.9 C1439.5,457.9 1438.4,458.4 1437.6,459.3 C1436.8,460.2 1436.4,461.4 1436.4,462.9 C1436.4,464.4 1436.8,465.6 1437.6,466.4 C1438.4,467.2 1439.4,467.7 1440.7,467.7 C1441.8,467.7 1442.9,467.3 1443.9,466.6 L1443.9,468.7 C1442.9,469.3 1441.7,469.6 1440.3,469.6 C1438.4,469.6 1436.9,469 1435.8,467.8 C1434.7,466.6 1434.1,465 1434.1,463.1 C1434.1,461 1434.7,459.3 1435.9,458 C1437.1,456.7 1438.8,456 1440.8,456 C1442,456 1443,456.2 1443.8,456.6 L1443.8,458.9 L1443.8,458.9 Z M1440.6,395.6 C1441.7,395.6 1442.8,395.2 1443.8,394.5 L1443.8,396.6 C1442.8,397.2 1441.6,397.5 1440.2,397.5 C1438.3,397.5 1436.8,396.9 1435.7,395.7 C1434.6,394.5 1434,392.9 1434,391 C1434,388.9 1434.6,387.2 1435.8,385.9 C1437,384.6 1438.7,383.9 1440.7,383.9 C1441.9,383.9 1442.9,384.1 1443.7,384.5 L1443.7,386.8 C1442.8,386.1 1441.8,385.8 1440.7,385.8 C1439.4,385.8 1438.3,386.3 1437.5,387.2 C1436.7,388.1 1436.3,389.3 1436.3,390.8 C1436.3,392.3 1436.7,393.5 1437.5,394.3 C1438.3,395.2 1439.3,395.6 1440.6,395.6 L1440.6,395.6 Z M1447,521.4 L1448.9,521.4 L1448.9,526.8 L1454.5,526.8 L1454.5,528.4 L1448.9,528.4 L1448.9,534.3 L1455.3,534.3 L1455.3,535.9 L1448.9,535.9 L1448.9,544.1 L1447,544.1 L1447,536 L1438.9,536 L1438.9,534.4 L1447,534.4 L1447,528.5 L1442.5,528.5 C1441.9,530.2 1441.2,531.7 1440.4,533 C1439.9,532.6 1439.4,532.1 1438.9,531.8 C1440.4,529.2 1441.5,526.3 1442.2,523.1 L1444.1,523.6 C1443.8,524.8 1443.5,525.9 1443.1,526.9 L1447,526.9 L1447,521.4 L1447,521.4 Z M1476,602.9 L1476,602.9 C1476.7,601 1477.8,600 1479.4,600 C1479.9,600 1480.3,600.1 1480.6,600.2 L1480.6,602.5 C1480.2,602.2 1479.7,602.1 1479,602.1 C1478.1,602.1 1477.4,602.5 1476.8,603.3 C1476.2,604.1 1475.9,605.2 1475.9,606.6 L1475.9,613.2 L1473.6,613.2 L1473.6,600.2 L1475.9,600.2 L1475.9,602.9 L1476,602.9 Z M1525.8,609.5 L1518.2,609.5 L1518.2,607.8 L1525.8,607.8 L1525.8,604.2 L1519.1,604.2 L1519.1,602.5 L1534.5,602.5 L1534.5,604.2 L1527.7,604.2 L1527.7,607.8 L1535.3,607.8 L1535.3,609.5 L1527.7,609.5 L1527.7,613.6 L1537.4,613.6 L1537.4,615.3 L1516.1,615.3 L1516.1,613.6 L1525.8,613.6 L1525.8,609.5 L1525.8,609.5 Z M1637.4,605.1 L1637.4,600.7 L1642.9,600.7 L1642.9,604.5 L1638.6,604.5 L1638.6,605.1 L1637.4,605.1 L1637.4,605.1 Z M1641.7,603.4 L1641.7,601.9 L1638.6,601.9 L1638.6,603.4 L1641.7,603.4 L1641.7,603.4 Z M1646.3,609.9 L1637.7,609.9 L1637.7,608.6 L1646.3,608.6 L1646.3,607.2 C1643,607.3 1639.9,607.3 1637,607.3 C1636.9,606.8 1636.8,606.4 1636.6,606 C1643.8,605.9 1650.2,605.8 1655.8,605.6 L1656.1,606.9 C1653.2,607 1650.5,607.1 1647.9,607.1 L1647.9,608.5 L1656,608.5 L1656,609.8 L1647.9,609.8 L1647.9,611.2 L1657.8,611.2 L1657.8,612.5 L1647.9,612.5 L1647.9,613.4 C1647.9,615.2 1647,616 1645.2,616 L1642,616 C1642,615.5 1641.9,614.9 1641.7,614.3 C1642.9,614.4 1644,614.5 1644.8,614.5 C1645.7,614.5 1646.2,614.1 1646.2,613.3 L1646.2,612.5 L1635.8,612.5 L1635.8,611.2 L1646.2,611.2 L1646.2,609.9 L1646.3,609.9 Z" id="Shape" fill="#7C8996" sketch:type="MSShapeGroup"></path>
            <path d="M378,837 L722,592 L722,703 L518,838 L378,837 L378,837 Z" id="Shape" fill="#6BC042" sketch:type="MSShapeGroup"></path>
            <path d="M988.4,389.2 C978.4,389.2 970.2,391.3 963.9,395.5 C957.6,399.7 954.4,405.5 954.4,413 C954.4,419.6 956.6,425 961,429.2 C965.4,433.4 974.9,439 989.5,446.2 C1005.6,453.9 1016.8,461.6 1023.3,469.3 C1029.7,477 1032.9,485.6 1032.9,495.2 C1032.9,509.6 1027.7,520.6 1017.2,528.3 C1006.8,536 992.3,539.8 973.7,539.8 C967.2,539.8 959.6,538.9 951,537.1 C942.4,535.3 936.1,533.1 932.1,530.4 L932.1,506.3 C937.1,510.7 943.8,514.3 952.2,517.1 C960.6,519.9 968.6,521.3 976.1,521.3 C999.1,521.3 1010.6,513.1 1010.6,496.7 C1010.6,492.1 1009.4,488 1006.9,484.3 C1004.4,480.6 1001,477.4 996.7,474.6 C992.4,471.8 984.3,467.4 972.5,461.6 C956.1,453.4 945.2,445.8 940,438.8 C934.8,431.8 932.2,423.8 932.2,414.7 C932.2,401.1 937.7,390.3 948.6,382.3 C959.5,374.3 973.3,370.3 990,370.3 C1006.3,370.3 1018.3,372.3 1025.9,376.2 L1025.9,399.3 C1016,392.6 1003.5,389.2 988.4,389.2 L988.4,389.2 Z M833,537.2 L773.9,373.2 L797.4,373.2 L841.5,501.4 C843,505.6 844.1,510.5 844.8,516.1 L845.3,516.1 C845.9,511.2 847.1,506.3 849,501.2 L894,373.2 L916.6,373.2 L856.4,537.2 L833,537.2 L833,537.2 Z" id="Shape" fill="#7C8996" sketch:type="MSShapeGroup"></path>
            <path d="M540.3,722 C539.9,722 539.5,722 539,721.8 C538.2,721.6 520.1,717.1 516.5,701.7 C513.1,687.4 523.3,670.6 547.4,650.2 C564,636.2 571.7,625 569.9,617.8 C566.5,604.3 530.3,596.6 492,588.4 C487,587.3 481.8,586.2 476.5,585.1 C455.7,580.6 443.8,572.2 441.3,560.2 C436.1,535.4 474.2,507.1 478.5,504 C480.9,502.3 484.2,502.8 485.9,505.2 C487.6,507.6 487.1,510.9 484.7,512.6 C475.1,519.5 448.5,542.8 451.7,558.1 C453.7,567.5 467.5,572.4 478.8,574.8 C484,575.9 489.2,577 494.2,578.1 C541.2,588.1 575.2,595.3 580.2,615.3 C583.2,627.2 574.9,640.9 554.2,658.4 C534.3,675.2 524.5,689.7 526.7,699.3 C528.8,708.3 541.2,711.5 541.4,711.6 C544.2,712.3 546,715.2 545.3,718 C544.9,720.4 542.7,722 540.3,722 L540.3,722 Z" id="Shape" fill="#6BC042" sketch:type="MSShapeGroup"></path>
            <path d="M676.7,693.5 C676.5,694.5 676,695.4 675.1,696 C674,696.8 672.9,697.1 671.8,697 C670.7,696.9 669.9,696.4 669.3,695.5 C668.7,694.6 668.5,693.6 668.7,692.6 C668.9,691.6 669.5,690.7 670.5,690 C671.5,689.3 672.5,689 673.5,689.2 C674.6,689.3 675.4,689.8 676,690.7 C676.7,691.5 676.9,692.5 676.7,693.5 L676.7,693.5 Z M651.7,670.2 L657.8,665.9 L670.8,685.6 L666.1,688.9 L651.7,670.2 L651.7,670.2 Z M643.5,731.2 L640.2,726.6 C641.3,726.5 642.3,726.1 643.2,725.4 C644.8,724.3 645.3,722.7 644.9,720.7 L644.1,717.3 L622,703.3 L628.4,698.7 L641.1,708.4 C641.9,709 642.6,709.7 643.4,710.6 L643.5,710.5 C643.1,709.8 642.7,708.8 642.3,707.6 L637.4,692.3 L643.1,688.2 L650.3,715.6 C652,722 650.9,726.5 647.1,729.2 C645.8,730.3 644.5,731 643.5,731.2 L643.5,731.2 Z M617.3,712 C616.4,712.7 615.8,713.3 615.4,714.1 C615.1,714.8 615.1,715.5 615.5,716 C616.1,716.9 617.5,717 619.6,716.4 C621.8,715.7 623.6,715.3 624.8,715.1 C626.1,714.9 627.2,715.1 628.2,715.6 C629.2,716.1 630.1,716.8 630.9,717.9 C632.4,719.9 632.7,722.1 631.8,724.4 C631,726.7 629.2,728.8 626.4,730.8 C624.3,732.3 622,733.4 619.7,734 L616.3,729.2 C619.1,729 621.5,728.2 623.4,726.9 C625.8,725.2 626.5,723.7 625.6,722.4 C625,721.5 623.4,721.4 621,722.2 C618,723.2 615.7,723.5 614.1,723.3 C612.5,723 611.1,722.1 610,720.5 C608.6,718.6 608.3,716.5 609.1,714.2 C609.9,712 611.6,709.9 614.1,708.1 C615.9,706.8 617.9,705.8 619.9,705.2 L623.1,709.8 C621.1,709.9 619.1,710.7 617.3,712 L617.3,712 Z M610.2,741.6 L608.1,738.7 L608,738.8 C608.3,742 607.1,744.5 604.5,746.4 C602.6,747.7 600.7,748.3 598.8,748 C596.9,747.7 595.3,746.7 594,744.8 C591.3,741 592,737.2 596.1,733.3 L601,728.7 C599.4,726.4 597.3,726.1 594.9,727.8 C592.5,729.5 590.8,731.8 589.7,734.7 L586.5,730.2 C587,729.1 587.9,727.8 589.2,726.4 C590.5,725 591.6,724 592.7,723.2 C598.2,719.2 603,720 607,725.6 L615.5,737.6 L610.2,741.6 L610.2,741.6 Z M604.5,733.5 L603.5,732.1 L600.1,735.3 C598.2,737.1 597.8,738.8 599,740.4 C599.5,741.1 600.2,741.6 601,741.6 C601.8,741.7 602.7,741.4 603.5,740.8 C604.7,740 605.4,738.8 605.5,737.5 C605.8,736.1 605.4,734.8 604.5,733.5 L604.5,733.5 Z M589.8,743.7 L576.8,753 C579.2,755.9 582.1,756.1 585.6,753.6 C587.8,752 589.3,750.1 590.2,747.9 L593.2,752.1 C592.1,754.4 590.1,756.6 587.2,758.7 C584,760.9 581,761.8 577.9,761.3 C574.9,760.8 572.2,758.9 570,755.7 C567.7,752.5 566.8,749.3 567.3,746 C567.8,742.7 569.4,740 572.2,738 C575,736 577.8,735.3 580.6,735.9 C583.4,736.5 585.9,738.2 588,741.2 L589.8,743.7 L589.8,743.7 Z M575.1,742 C574.1,742.7 573.5,743.7 573.3,745.1 C573.1,746.5 573.4,747.9 574.2,749.3 L581.9,743.8 C579.7,740.9 577.5,740.3 575.1,742 L575.1,742 Z M552.8,783.3 C549.6,785.6 546.4,786.5 543.1,786 C539.9,785.5 537.2,783.7 534.9,780.5 C532.6,777.2 531.7,774 532.3,770.7 C532.9,767.4 534.9,764.6 538.2,762.3 C541.4,760 544.6,759.1 547.8,759.6 C551,760.1 553.7,761.9 555.9,765 C558.2,768.2 559.1,771.5 558.5,774.8 C558,778.2 556.1,781 552.8,783.3 L552.8,783.3 Z M550.1,769.3 C547.3,765.4 544.4,764.6 541.3,766.8 C539.8,767.9 539,769.2 538.9,770.9 C538.8,772.5 539.4,774.3 540.8,776.2 C543.6,780.2 546.6,781 549.9,778.7 C552.9,776.5 553,773.4 550.1,769.3 L550.1,769.3 Z M535.2,786.1 C536.7,788.1 537,790.3 536.1,792.6 C535.3,794.9 533.5,797 530.8,799 C528.6,800.5 526.4,801.6 524.1,802.2 L520.7,797.4 C523.5,797.2 525.9,796.4 527.8,795.1 C530.2,793.4 530.9,791.9 530,790.6 C529.4,789.7 527.8,789.6 525.4,790.4 C522.4,791.4 520.1,791.7 518.5,791.5 C516.9,791.2 515.5,790.3 514.4,788.7 C513,786.8 512.7,784.7 513.5,782.4 C514.3,780.2 516,778.1 518.5,776.3 C520.3,775 522.3,774 524.3,773.4 L527.5,778 C525.3,778.2 523.3,778.9 521.4,780.3 C520.5,781 519.9,781.6 519.5,782.4 C519.2,783.1 519.2,783.8 519.6,784.3 C520.2,785.2 521.6,785.3 523.7,784.7 C525.9,784 527.7,783.6 528.9,783.4 C530.2,783.2 531.3,783.4 532.3,783.9 C533.5,784.3 534.4,785.1 535.2,786.1 L535.2,786.1 Z" id="Shape" fill="#FFFFFF" sketch:type="MSShapeGroup"></path>
            <path d="M1455,838 L1799,593 L1799,704 L1595,839 L1455,838 L1455,838 Z" id="Shape" fill="#F48530" sketch:type="MSShapeGroup"></path>
            <path d="M1740.1,704 C1739.9,705 1739.4,705.9 1738.5,706.5 C1737.4,707.3 1736.3,707.6 1735.2,707.5 C1734.1,707.4 1733.3,706.9 1732.7,706 C1732.1,705.1 1731.9,704.1 1732.1,703.1 C1732.3,702.1 1733,701.2 1733.9,700.5 C1734.9,699.8 1735.9,699.5 1736.9,699.6 C1738,699.7 1738.8,700.2 1739.4,701.1 C1740.1,702 1740.3,703 1740.1,704 L1740.1,704 Z M1715.2,680.7 L1721.3,676.4 L1734.3,696.1 L1729.6,699.4 L1715.2,680.7 L1715.2,680.7 Z M1722.9,700.9 L1724.7,703.4 L1711.7,712.7 C1714.1,715.6 1717,715.8 1720.5,713.3 C1722.7,711.7 1724.2,709.8 1725.1,707.6 L1728.1,711.8 C1727,714.1 1725,716.3 1722.1,718.4 C1718.9,720.6 1715.9,721.5 1712.8,721 C1709.8,720.5 1707.1,718.6 1704.9,715.4 C1702.6,712.2 1701.7,709 1702.2,705.7 C1702.7,702.4 1704.3,699.7 1707.1,697.7 C1709.9,695.7 1712.7,695 1715.5,695.6 C1718.3,696.2 1720.7,697.9 1722.9,700.9 L1722.9,700.9 Z M1709.9,701.7 C1708.9,702.4 1708.3,703.4 1708.1,704.8 C1707.9,706.2 1708.2,707.6 1709,709 L1716.7,703.5 C1714.5,700.6 1712.3,700 1709.9,701.7 L1709.9,701.7 Z M1702,732 L1681.1,702.7 L1686.9,698.6 L1707.8,727.9 L1702,732 L1702,732 Z M1683.2,718.6 C1685.9,719.3 1688.3,721.2 1690.5,724.3 C1692.8,727.6 1693.9,730.8 1693.7,734 C1693.5,737.2 1692.1,739.7 1689.4,741.6 C1686.9,743.4 1684.4,743.7 1681.8,742.7 L1681.7,742.8 L1683.4,745.2 L1677.6,749.3 L1656.7,720 L1662.5,715.9 L1671.4,728.4 L1671.5,728.3 C1671.3,724.9 1672.7,722.2 1675.5,720.2 C1678,718.4 1680.6,717.9 1683.2,718.6 L1683.2,718.6 Z M1676.5,726.2 C1675.2,727.1 1674.5,728.4 1674.3,729.9 C1674.1,731.5 1674.6,733 1675.7,734.5 L1677.2,736.6 C1678.1,737.9 1679.3,738.7 1680.7,739 C1682.1,739.3 1683.4,739.1 1684.6,738.2 C1686,737.2 1686.8,735.8 1686.8,734.1 C1686.8,732.4 1686.1,730.5 1684.6,728.5 C1683.4,726.8 1682.1,725.7 1680.6,725.3 C1679.2,725 1677.8,725.2 1676.5,726.2 L1676.5,726.2 Z M1652.5,737.4 L1658.3,733.3 L1672.4,753.1 L1666.6,757.2 L1664.4,754.2 L1664.3,754.3 C1664.5,757.7 1663.3,760.3 1660.7,762.1 C1656.1,765.4 1651.8,764.3 1647.8,758.7 L1639.3,746.7 L1645.1,742.6 L1653.2,754 C1655.3,757 1657.5,757.6 1659.8,756 C1661,755.2 1661.6,754.1 1661.7,752.8 C1661.8,751.5 1661.4,750.1 1660.4,748.8 L1652.5,737.4 L1652.5,737.4 Z M1642.5,759 C1644.8,762.2 1645.7,765.5 1645.1,768.8 C1644.5,772.1 1642.6,774.9 1639.3,777.3 C1636.1,779.6 1632.9,780.5 1629.6,780 C1626.4,779.5 1623.7,777.7 1621.4,774.5 C1619.1,771.2 1618.2,768 1618.8,764.7 C1619.4,761.4 1621.4,758.6 1624.7,756.3 C1627.9,754 1631.1,753.1 1634.3,753.6 C1637.6,754.2 1640.3,755.9 1642.5,759 L1642.5,759 Z M1636.7,763.3 C1633.9,759.4 1631,758.6 1627.9,760.8 C1626.4,761.9 1625.6,763.2 1625.5,764.9 C1625.4,766.6 1626,768.3 1627.4,770.2 C1630.2,774.2 1633.2,775 1636.5,772.7 C1639.5,770.5 1639.6,767.4 1636.7,763.3 L1636.7,763.3 Z M1611.4,776 C1611.3,777.6 1611.9,779.2 1613.2,781 L1620,790.5 L1614.2,794.6 L1600.1,774.8 L1605.9,770.7 L1608.6,774.4 L1608.7,774.3 C1607.7,770.9 1608.5,768.3 1611,766.5 C1611.7,766 1612.3,765.7 1612.7,765.6 L1616.5,771 C1615.5,771.1 1614.5,771.5 1613.5,772.2 C1612.1,773.2 1611.4,774.4 1611.4,776 L1611.4,776 Z M1601,793.2 C1602.5,795.3 1604.1,795.8 1605.8,794.6 C1606.4,794.1 1607,793.5 1607.4,792.6 L1610.5,796.9 C1610,798 1608.8,799.2 1607.1,800.4 C1602.9,803.4 1599.2,802.7 1596.1,798.3 L1589.4,788.9 L1586.1,791.2 L1583,786.9 L1586.3,784.6 L1583.2,780.2 L1587.8,774.4 L1592.1,780.4 L1596.6,777.2 L1599.7,781.5 L1595.2,784.7 L1601,793.2 L1601,793.2 Z" id="Shape" fill="#FFFFFF" sketch:type="MSShapeGroup"></path>
            <path d="M330,65 L330,50.5 C330,22.6 352.4,0 380,0 L1449,0 C1476.6,0 1499,22.6 1499,50.5 L1499,65" id="Shape" stroke="#7C8996" stroke-width="4" sketch:type="MSShapeGroup"></path>
        </g>
    </g>
</svg>