<svg id="图层_1" data-name="图层 1" xmlns="http://www.w3.org/2000/svg" viewBox="0 0 866.52 259.49"><defs><style>.cls-1{fill:#fff;}</style></defs><title>数人云LOGO2</title><path class="cls-1" d="M120.81,243.5V210.89A93.51,93.51,0,0,1,104.29,74.12,15.6,15.6,0,1,1,128,94.4a62.39,62.39,0,1,0,94.84,0,15.6,15.6,0,1,1,23.7-20.29A93.5,93.5,0,0,1,230,210.89V243.5h42.5a70,70,0,0,0,25.66-134.1c.24-2.8.4-5.63.4-8.49A95.93,95.93,0,0,0,125.92,43.3a54.36,54.36,0,0,0-78.42,65A70,70,0,0,0,73,243.5Zm54.59-67.61a39,39,0,1,1,39-39,39,39,0,0,1-39,39"/><path class="cls-1" d="M385.62,236.22a5.14,5.14,0,0,0,1.8,1.77,8,8,0,0,0,2.51.94,14,14,0,0,0,2.88.29,17.2,17.2,0,0,0,2.4-.17,9.07,9.07,0,0,0,2.31-.63,4.47,4.47,0,0,0,1.74-1.35,3.57,3.57,0,0,0,.68-2.25,3.23,3.23,0,0,0-1.43-2.85,12.35,12.35,0,0,0-3.56-1.57c-1.43-.4-3-.76-4.65-1.08a23.83,23.83,0,0,1-4.66-1.37,9.61,9.61,0,0,1-3.57-2.48,6.47,6.47,0,0,1-1.43-4.46,7.08,7.08,0,0,1,1-3.83,8.1,8.1,0,0,1,2.57-2.59,12,12,0,0,1,3.54-1.49,16.4,16.4,0,0,1,3.91-.48,23.14,23.14,0,0,1,4.62.43,10.69,10.69,0,0,1,3.74,1.49,7.72,7.72,0,0,1,2.6,2.86,10.89,10.89,0,0,1,1.14,4.48h-4.85a4.9,4.9,0,0,0-.74-2.37,4.8,4.8,0,0,0-1.6-1.51,7.23,7.23,0,0,0-2.14-.82,10.63,10.63,0,0,0-2.37-.26,13.92,13.92,0,0,0-2.2.17,7.3,7.3,0,0,0-2,.6,4.1,4.1,0,0,0-1.49,1.15,2.86,2.86,0,0,0-.57,1.85,2.75,2.75,0,0,0,.88,2.09,7,7,0,0,0,2.25,1.37A21,21,0,0,0,392,225l3.42.77c1.22.27,2.41.59,3.57,1a12.17,12.17,0,0,1,3.08,1.51,7.45,7.45,0,0,1,2.16,2.37,6.94,6.94,0,0,1,.83,3.54,8.2,8.2,0,0,1-1.11,4.46,8.7,8.7,0,0,1-2.92,2.85A12,12,0,0,1,397,243a23.74,23.74,0,0,1-4.48.43,20.9,20.9,0,0,1-4.68-.51,11.35,11.35,0,0,1-3.94-1.69,8.56,8.56,0,0,1-2.74-3.08,10.67,10.67,0,0,1-1.14-4.65h4.85a5.51,5.51,0,0,0,.75,2.71"/><path class="cls-1" d="M423.3,202.05v15.58h.12a6.33,6.33,0,0,1,1.6-2.3,8.93,8.93,0,0,1,2.31-1.54,12.39,12.39,0,0,1,2.69-.89,13.57,13.57,0,0,1,2.71-.28,12.85,12.85,0,0,1,4.85.8,8,8,0,0,1,3.14,2.23,8.22,8.22,0,0,1,1.68,3.4,18.42,18.42,0,0,1,.48,4.37v19.41H438v-20a5.86,5.86,0,0,0-1.6-4.34,5.94,5.94,0,0,0-4.4-1.6,9.87,9.87,0,0,0-3.85.69,7.18,7.18,0,0,0-2.72,1.94,8.32,8.32,0,0,0-1.62,2.93,11.73,11.73,0,0,0-.54,3.68v16.68h-4.86V202.05Z"/><path class="cls-1" d="M478.06,242.82v-4.68h-.11a9.89,9.89,0,0,1-3.94,4,11.82,11.82,0,0,1-5.65,1.29,13.18,13.18,0,0,1-4.86-.77,7.75,7.75,0,0,1-3.14-2.2,8.22,8.22,0,0,1-1.68-3.4,18.07,18.07,0,0,1-.49-4.37V213.3h4.86v20a5.88,5.88,0,0,0,1.59,4.33,6,6,0,0,0,4.4,1.6,9.88,9.88,0,0,0,3.85-.69,7.17,7.17,0,0,0,2.72-1.94,8.49,8.49,0,0,0,1.62-2.94,11.89,11.89,0,0,0,.54-3.68V213.3h4.86v29.52Z"/><path class="cls-1" d="M502.32,213.3v6.22h.12a13.17,13.17,0,0,1,4.34-5.3,10.9,10.9,0,0,1,6.51-1.6v5.14a13.56,13.56,0,0,0-5,.8,7.85,7.85,0,0,0-3.31,2.34,9.8,9.8,0,0,0-1.83,3.74,20.23,20.23,0,0,0-.57,5.05v13.13h-4.85V213.3Z"/><path class="cls-1" d="M544.81,240.94a13.44,13.44,0,0,1-8.34,2.51,15.08,15.08,0,0,1-6.14-1.15A11.78,11.78,0,0,1,526,239.1a13.38,13.38,0,0,1-2.65-4.91,23.52,23.52,0,0,1-1-6.22,17.58,17.58,0,0,1,1-6.16,14.69,14.69,0,0,1,2.88-4.86,13.21,13.21,0,0,1,4.4-3.2,13.43,13.43,0,0,1,5.56-1.14,12.11,12.11,0,0,1,6.54,1.63,13.06,13.06,0,0,1,4.17,4.14,16.5,16.5,0,0,1,2.17,5.48,24,24,0,0,1,.49,5.66h-22.1a11.94,11.94,0,0,0,.45,3.68,8.13,8.13,0,0,0,4.58,5.24,10.09,10.09,0,0,0,4.16.79,8.39,8.39,0,0,0,5.06-1.43,6.94,6.94,0,0,0,2.6-4.34h4.79a11.81,11.81,0,0,1-4.28,7.49m-1.17-19a8.41,8.41,0,0,0-1.77-2.66,8.53,8.53,0,0,0-2.62-1.77,9,9,0,0,0-6.74,0,8,8,0,0,0-2.61,1.79,9,9,0,0,0-1.71,2.66,10.19,10.19,0,0,0-.73,3.23h17a10.18,10.18,0,0,0-.77-3.25"/><path class="cls-1" d="M567.13,213.3V218h.11q3-5.36,9.59-5.37a12.75,12.75,0,0,1,4.86.8,8.07,8.07,0,0,1,3.14,2.22,8.33,8.33,0,0,1,1.68,3.4,18.29,18.29,0,0,1,.48,4.36v19.42h-4.86v-20a5.84,5.84,0,0,0-1.6-4.34,5.93,5.93,0,0,0-4.39-1.6,9.86,9.86,0,0,0-3.85.69,7.19,7.19,0,0,0-2.72,1.94,8.42,8.42,0,0,0-1.62,2.94,11.88,11.88,0,0,0-.54,3.69v16.67h-4.86V213.3Z"/><path class="cls-1" d="M613.89,246.76a30.64,30.64,0,0,1-1.68,3.65,10.37,10.37,0,0,1-1.82,2.42,6.26,6.26,0,0,1-2.23,1.37,8.67,8.67,0,0,1-2.82.43,12.51,12.51,0,0,1-1.71-.12,7.57,7.57,0,0,1-1.66-.4v-4.45a8.68,8.68,0,0,0,1.45.49,6.63,6.63,0,0,0,1.4.19,4.19,4.19,0,0,0,2.49-.71,4.34,4.34,0,0,0,1.51-2l2-5-11.7-29.34h5.48l8.63,24.15h.11l8.28-24.15h5.13Z"/><path class="cls-1" d="M658.71,242.82v-4.68h-.11a9.93,9.93,0,0,1-3.94,4,11.84,11.84,0,0,1-5.66,1.29,13.2,13.2,0,0,1-4.85-.77,7.7,7.7,0,0,1-3.14-2.2,8.1,8.1,0,0,1-1.68-3.4,18,18,0,0,1-.49-4.37V213.3h4.85v20a5.86,5.86,0,0,0,1.6,4.33,5.94,5.94,0,0,0,4.4,1.6,9.92,9.92,0,0,0,3.86-.69,7.08,7.08,0,0,0,2.7-1.94,8.33,8.33,0,0,0,1.63-2.94,11.89,11.89,0,0,0,.54-3.68V213.3h4.86v29.52Z"/><path class="cls-1" d="M683.15,213.3V218h.11q3-5.36,9.59-5.37a12.73,12.73,0,0,1,4.86.8,8.05,8.05,0,0,1,3.14,2.22,8.3,8.3,0,0,1,1.68,3.4,18.31,18.31,0,0,1,.48,4.36v19.42h-4.86v-20a5.84,5.84,0,0,0-1.6-4.34,5.92,5.92,0,0,0-4.39-1.6,9.87,9.87,0,0,0-3.86.69,7.19,7.19,0,0,0-2.72,1.94,8.43,8.43,0,0,0-1.62,2.94,11.88,11.88,0,0,0-.54,3.69v16.67h-4.86V213.3Z"/><rect class="cls-1" x="719.4" y="236.47" width="6.34" height="6.34"/><path class="cls-1" d="M759.83,218.44a7.33,7.33,0,0,0-4.91-1.55,9,9,0,0,0-4.39,1,7.79,7.79,0,0,0-2.83,2.57,10.71,10.71,0,0,0-1.52,3.68,20,20,0,0,0-.45,4.31,16.58,16.58,0,0,0,.48,4,10.9,10.9,0,0,0,1.52,3.46,7.7,7.7,0,0,0,2.68,2.43,8.06,8.06,0,0,0,3.95.91,8,8,0,0,0,5.62-1.89,8.52,8.52,0,0,0,2.49-5.32h5a13.63,13.63,0,0,1-4.08,8.46c-2.19,2-5.17,3-8.93,3a15.36,15.36,0,0,1-6-1.09,11.45,11.45,0,0,1-4.33-3.08,13.36,13.36,0,0,1-2.62-4.77,19.72,19.72,0,0,1-.89-6.07,21.47,21.47,0,0,1,.86-6.19,14.37,14.37,0,0,1,2.6-5,12.27,12.27,0,0,1,4.37-3.37,14.32,14.32,0,0,1,6.11-1.22,17.57,17.57,0,0,1,4.71.6,11.3,11.3,0,0,1,3.88,1.86,10,10,0,0,1,2.77,3.16,11.83,11.83,0,0,1,1.37,4.54h-5a7.31,7.31,0,0,0-2.4-4.34"/><path class="cls-1" d="M780.16,222a13.74,13.74,0,0,1,2.74-4.92,12.91,12.91,0,0,1,4.51-3.29,16.54,16.54,0,0,1,12.36,0,13.08,13.08,0,0,1,4.48,3.29A14,14,0,0,1,807,222a20.8,20.8,0,0,1,0,12.13,14,14,0,0,1-2.74,4.88,12.68,12.68,0,0,1-4.48,3.25,16.88,16.88,0,0,1-12.36,0A12.52,12.52,0,0,1,782.9,239a13.78,13.78,0,0,1-2.74-4.88,20.5,20.5,0,0,1,0-12.13m4.94,10.85a9.91,9.91,0,0,0,2,3.48,8.52,8.52,0,0,0,2.94,2.14,9,9,0,0,0,7.14,0,8.53,8.53,0,0,0,2.93-2.14,9.91,9.91,0,0,0,2-3.48,16.16,16.16,0,0,0,0-9.54,10.38,10.38,0,0,0-2-3.51,8.44,8.44,0,0,0-2.93-2.17,9,9,0,0,0-7.14,0,8.44,8.44,0,0,0-2.94,2.17,10.38,10.38,0,0,0-2,3.51,14.77,14.77,0,0,0-.71,4.77,14.58,14.58,0,0,0,.71,4.77"/><path class="cls-1" d="M826.18,213.3v4.34h.12a11.5,11.5,0,0,1,14.51-3.88,6.4,6.4,0,0,1,3.14,3.87,10.23,10.23,0,0,1,3.91-3.7,11,11,0,0,1,5.34-1.32,15.58,15.58,0,0,1,4,.48,8.47,8.47,0,0,1,3.08,1.53,6.8,6.8,0,0,1,2,2.65,9.81,9.81,0,0,1,.71,3.91v21.64h-4.85V223.46a13.29,13.29,0,0,0-.23-2.58,5.44,5.44,0,0,0-.86-2.07,4.33,4.33,0,0,0-1.74-1.4,7,7,0,0,0-2.89-.52,7.68,7.68,0,0,0-5.65,2.06,7.42,7.42,0,0,0-2.05,5.48v18.39h-4.86V223.46a12.59,12.59,0,0,0-.25-2.63,5.52,5.52,0,0,0-.89-2.09,4.12,4.12,0,0,0-1.68-1.37,6.45,6.45,0,0,0-2.71-.48,7.14,7.14,0,0,0-3.63.86,8.06,8.06,0,0,0-2.46,2.05,8.21,8.21,0,0,0-1.37,2.48,7.11,7.11,0,0,0-.43,2.15v18.38h-4.86V213.3Z"/><path class="cls-1" d="M566.9,164.68l39-124.75h29.23L624.72,74.65H648.1l23.39,90c1.34,4.77,4,5.79,9.14,5.79h15.45v19.93H663c-9.63,0-11.21-3.82-13.63-10.93L624.72,88.8h-3.9l-31.17,93.88c-2,5.41-5.09,7.76-11.69,7.72H545.57V169.82h14.85c3,0,4.64-.55,6.49-5.15"/><path class="cls-1" d="M484.47,83.38l11.28,30.2L508.17,74.2h22.15l-24.15,73.23,9.77,24.09c.86,2.17,2.61,3.25,5.21,3.25h9.36v15.62H510.07c-5.25,0-7.2-2.83-9.11-6.51l-4.57-10.41-3.91,10.41c-1.62,4.54-3.73,6.3-9.77,6.51H462.11v-15h9.18c.86,0,3,0,3.61-1.3l9.77-29.29L462.32,83.38Z"/><path class="cls-1" d="M462.12,77.64V58.76h3.26c3.16,0,4.65-1.29,5.2-5.21l1.31-13.67h20.84L492.09,49h38.43V68.53H488.83l-2,3.9c-1.75,3.91-5.84,5.21-12.38,5.21Z"/><polygon class="cls-1" points="427.57 119.2 408.04 119.2 408.04 79.79 380.02 79.79 380.02 60.26 385.24 60.26 384.59 43.63 400.22 43.63 400.87 60.26 408.04 60.26 408.04 40.02 427.57 40.02 427.57 119.2"/><polygon class="cls-1" points="408.68 40.02 428.22 40.02 428.22 60.26 435.39 60.26 436.04 43.63 451.67 43.63 451.02 60.26 456.23 60.26 456.23 79.79 428.22 79.79 428.22 119.19 408.68 119.19 408.68 40.02"/><path class="cls-1" d="M380.67,115.59v-13q5.86.65,6.52-5.86l2-11.08h16.94l-3.91,21.48c-1.58,5.69-3.79,8.47-9.47,8.47Z"/><path class="cls-1" d="M456.23,115.59H445.66c-6.73,0-10.71-2.61-11.57-9.12L429.7,85.82h16.94l2.42,11.54c1,3.87,2.38,4.5,7.17,4.56Z"/><path class="cls-1" d="M450.4,146.13h5.86V127.9H450.4v-6.45H432.16v6.45H401.55v-6.51H383.31v6.51h-3.26v18.23h3.26v14.12l20.84,13.67a21.65,21.65,0,0,1-8.17,2H380.05V190.2h21.49c3.49.2,6.29-.88,9.77-2.61l6.81-5.2,8.82,5.2a15.52,15.52,0,0,0,8.46,2.61h20.84V175.86H444.58c-5.37,0-10.47-3.9-10.47-3.9l16.29-14.32V146.13Zm-17.73,5.66L418.13,162.2,401,151.48v-5.35h31.62Z"/><path class="cls-1" d="M711.12,175.64l22.85-59H711.12V95.14H861.64v21.46H758.16L738,169.6h96.43c2.49,0,3.69-.84,3.69-3.08V142.09h23.52v32.2c0,10.73-5.29,16.1-15.45,16.1H711.12Z"/><rect class="cls-1" x="713.96" y="39.88" width="147.68" height="21.46"/></svg>