<?xml version="1.0" encoding="utf-8"?>
<!-- Generator: Adobe Illustrator 19.0.0, SVG Export Plug-In . SVG Version: 6.00 Build 0)  -->
<svg version="1.1" id="图层_1" xmlns="http://www.w3.org/2000/svg" xmlns:xlink="http://www.w3.org/1999/xlink" x="0px" y="0px"
	 viewBox="0 0 135 135" style="enable-background:new 0 0 135 135;" xml:space="preserve">
<style type="text/css">
	.st0{fill:none;stroke:#313B40;stroke-width:2;stroke-linecap:round;}
	.st1{fill:#00BDDA;stroke:#313B40;stroke-width:2;stroke-linecap:round;}
</style>
<path id="XMLID_60_" class="st0" d="M37.3,38.8c0.3,2.5,23.8,35,39.4,48.4c3.2,2.8,3.1,4.4,3.1,4.4l3.7,2.3
	c-0.4-3.6,12,1.9,17.1,3.2c-1.7-5-8.1-16.9-4.6-16.8l-2.6-3.5c0,0-1.6,0.3-4.7-2.7C74.1,59.8,39.9,38.9,37.3,38.8z"/>
<path id="XMLID_59_" class="st1" d="M72.4,66c2.5,0,4.5,2,4.5,4.5c0,2.5-2,4.5-4.5,4.5s-4.5-2-4.5-4.5C67.9,68,70,66,72.4,66z"/>
<path id="XMLID_58_" class="st0" d="M67.4,1.9c36.2,0,65.5,29.3,65.5,65.5c0,36.2-29.3,65.5-65.5,65.5S1.9,103.7,1.9,67.5
	C1.9,31.3,31.2,1.9,67.4,1.9z"/>
<path id="XMLID_57_" class="st0" d="M33.7,25.1c23.4-18.6,57.5-14.7,76.2,8.7s14.7,57.5-8.7,76.2s-57.5,14.7-76.2-8.7"/>
</svg>
