<?xml version="1.0" encoding="utf-8"?>
<!-- Generator: Adobe Illustrator 19.0.0, SVG Export Plug-In . SVG Version: 6.00 Build 0)  -->
<svg version="1.1" id="图层_1" xmlns="http://www.w3.org/2000/svg" xmlns:xlink="http://www.w3.org/1999/xlink" x="0px" y="0px"
	 viewBox="0 0 134 134" style="enable-background:new 0 0 134 134;" xml:space="preserve">
<style type="text/css">
	.st0{fill:#313B40;}
	.st1{fill:#1CB1CB;}
	.st2{fill:#00BDDA;}
</style>
<g>
	<path id="XMLID_65_" class="st0" d="M67,134c-36.9,0-67-30.1-67-67C0,30.1,30.1,0,67,0s67,30.1,67,67C134,103.9,103.9,134,67,134z
		 M67,3C31.7,3,3,31.7,3,67c0,35.3,28.7,64,64,64s64-28.7,64-64C131,31.7,102.3,3,67,3z"/>
	<path id="XMLID_67_" class="st0" d="M66.9,121.8c-6.8,0-13.7-1.3-20.1-3.9c-8.2-3.3-15.6-8.6-21.2-15.4c-0.5-0.6-0.4-1.6,0.2-2.1
		c0.6-0.5,1.6-0.4,2.1,0.2c5.3,6.4,12.3,11.4,20.1,14.5c13.1,5.3,27.9,4.9,40.6-1.1c11.7-5.5,20.9-15.1,25.7-27.2
		c0.3-0.8,1.2-1.1,2-0.8c0.8,0.3,1.1,1.2,0.8,2c-5.1,12.7-14.8,23-27.2,28.8C82.6,120.1,74.7,121.8,66.9,121.8z M46.2,21.1
		c-0.6,0-1.1-0.3-1.4-0.9c-0.3-0.8,0-1.6,0.8-2c13.3-5.7,28.1-5.9,41.5-0.5c0.8,0.3,1.1,1.2,0.8,2s-1.2,1.1-2,0.8
		c-12.7-5.1-26.6-4.9-39.2,0.5C46.6,21,46.4,21.1,46.2,21.1z"/>
	<g id="XMLID_63_">
		<path id="XMLID_1_" class="st1" d="M10.9,74l41.2-14.2 M11,74.3l-0.2-0.6L52,59.5l0.2,0.6L11,74.3z M11,74.1l-0.1-0.3l41.2-14.2
			l0.1,0.3L11,74.1z M10.8,74.5l-0.3-0.8l41.7-14.4l0.3,0.8L10.8,74.5z M52.1,59.8L57.3,39 M52.4,59.8l-0.6-0.1L57,39l0.6,0.1
			L52.4,59.8z M52.3,59.8L52,59.7L57.1,39l0.3,0.1L52.3,59.8z M52.5,60.2l-0.8-0.2l0.1-0.3l5.2-21l0.8,0.2l-0.1,0.3L52.5,60.2z
			 M57.3,39L11,74 M11.2,74.2l-0.3-0.5l46.3-35l0.3,0.5L11.2,74.2z M11.1,74.1l-0.2-0.2l46.3-35l0.2,0.2L11.1,74.1z M11,74.5
			l-0.5-0.7l46.7-35.3l0.5,0.7L11,74.5z M57.2,39.2L118,78 M117.9,78.2L57.1,39.4l0.3-0.5l60.8,38.8L117.9,78.2z M117.9,78.1
			L57.2,39.3l0.2-0.3l60.8,38.8L117.9,78.1z M118,78.5l-0.2-0.2l-61-38.9l0.5-0.8l0.2,0.2l61,38.9L118,78.5z M10.9,74l53.7,11
			 M64.6,85.3l-53.7-11l0.1-0.6l53.7,11L64.6,85.3z M64.7,85.1l-53.7-11l0.1-0.3l53.7,11L64.7,85.1z M64.9,85.5L10.6,74.4l0.2-0.9
			L65,84.6L64.9,85.5z M52.1,59.8l65.6,18.1 M117.6,78.1L52,60l0.2-0.6l65.6,18.1L117.6,78.1z M117.6,78L52.1,59.9l0.1-0.3
			l65.6,18.1L117.6,78z M117.8,78.4L51.7,60.1l0.2-0.9l66.1,18.2L117.8,78.4z M52.1,59.8L64.7,85 M64.4,85.1L51.9,59.9l0.5-0.3
			l12.6,25.2L64.4,85.1z M64.5,85L52,59.8l0.3-0.1l12.6,25.2L64.5,85z M64.4,85.4L51.6,59.7l0.8-0.4L65.2,85L64.4,85.4z M64.7,85
			l53.4-18.7 M64.8,85.3l-0.2-0.6L118,66l0.2,0.6L64.8,85.3z M64.7,85.1l-0.1-0.3L118,66.1l0.1,0.3L64.7,85.1z M64.5,85.5l-0.3-0.8
			l53.9-18.9l0.3,0.8L64.5,85.5z M10.9,74l107-7.6 M11,74.3l0-0.6l107-7.6l0,0.6L11,74.3z M10.9,74.1l0-0.3l107-7.6l0,0.3L10.9,74.1
			z M10.7,74.5l-0.1-0.9l107.5-7.7l0.1,0.9L10.7,74.5z M118,66.4L64.7,85 M64.8,85.3l-0.2-0.6L118,66.1l0.2,0.6L64.8,85.3z
			 M64.7,85.1l-0.1-0.3L118,66.3l0.1,0.3L64.7,85.1z M64.5,85.5l-0.3-0.8l53.9-18.8l0.3,0.8L64.5,85.5z M118.1,66.2L57.2,39.2
			 M117.9,66.5L57.1,39.4l0.2-0.5L118.2,66L117.9,66.5z M118,66.4L57.2,39.3l0.1-0.3l60.8,27.1L118,66.4z M118.2,66.8l-0.3-0.1
			L56.8,39.5l0.3-0.8l0.3,0.1L118.5,66L118.2,66.8z M64.7,85l53.3-7 M64.7,85.3l-0.1-0.6l53.3-7l0.1,0.6L64.7,85.3z M64.7,85.1
			l0-0.3l53.3-7l0,0.3L64.7,85.1z M64.4,85.5l-0.1-0.9l53.9-7.1l0.1,0.9L64.4,85.5z"/>
		<path id="XMLID_50_" class="st2" d="M64.2,86.1L64.2,86.1L64.2,86.1L64.1,86L64,86l0-0.2L11.2,75l-0.3,0.2L10.8,75l-0.3,0.1
			L10.4,75l-0.2,0l0-0.2l-0.2,0l0.1-0.6l-0.3-0.4l0.2-0.1l-0.1-0.2l0.2-0.1l0-0.2l0.2,0l0-0.2l0.4,0.1l45.7-34.5l0.1-0.5l0.3,0.1
			l0-0.1L57,38l0.1-0.1l0,0l0.2-0.2l0.4,0.5l0.6,0.2l0,0.1l59.8,26.6l0.4-0.1l0.1,0.3l0,0l0,0.1l0.5,0.2l-0.2,0.6l0.2,0.6l-0.1,0
			l0,0.1l-0.3,0.1l0,0.1l-0.3,0l-0.1,0.1l-0.2-0.1l-9.8,3.4l9.8,6.2l0.5-0.1l0.1,0.4l0.4,0.3l-0.3,0.6l0.1,0.7l-0.5,0.1l-0.2,0.3
			l-0.4-0.2l-52.5,6.9l0,0.2L64.7,86L64.2,86.1z M59,71.5l6.1,12.3l31.1-10.9l-11.6-3.2L59,71.5z M17.9,74.4L63,83.7l-6-12
			L17.9,74.4z M99.6,73.8l-25.9,9l39.7-5.2L99.6,73.8z M102.7,72.7l9.4,2.6l-6-3.8L102.7,72.7z M51.6,60.9L18,72.5l38.1-2.7
			L51.6,60.9z M90.2,69.3l9.1,2.5l4.7-1.6l-2.6-1.7L90.2,69.3z M55.7,41.4L16.4,71.1l35-12.1L55.7,41.4z M53.9,61.2l4.2,8.5l21-1.5
			L53.9,61.2z M104.6,68.3l1.7,1.1l4.4-1.5L104.6,68.3z M53.2,59.1l31.5,8.7l14-1L57.8,40.7L53.2,59.1z M68.4,45.2l33.5,21.4
			l12.6-0.9L68.4,45.2z"/>
	</g>
</g>
</svg>
