<?xml version="1.0" encoding="utf-8"?>
<!-- Generator: Adobe Illustrator 19.0.0, SVG Export Plug-In . SVG Version: 6.00 Build 0)  -->
<svg version="1.1" id="图层_1" xmlns="http://www.w3.org/2000/svg" xmlns:xlink="http://www.w3.org/1999/xlink" x="0px" y="0px"
	 viewBox="0 0 135 135" style="enable-background:new 0 0 135 135;" xml:space="preserve">
<style type="text/css">
	.st0{fill:#313B40;}
	.st1{opacity:0.702;fill:#00BDDA;enable-background:new    ;}
</style>
<path id="XMLID_62_" class="st0" d="M67.7,135.2C30.4,135.2,0,104.8,0,67.4C0,30.1,30.4-0.3,67.7-0.3s67.7,30.4,67.7,67.7
	C135.5,104.8,105.1,135.2,67.7,135.2z M67.7,2.7C32.1,2.7,3,31.7,3,67.4c0,35.7,29,64.7,64.7,64.7s64.7-29,64.7-64.7
	C132.5,31.7,103.4,2.7,67.7,2.7z"/>
<path id="XMLID_61_" class="st0" d="M67.8,123.7c-16.6,0-33-7.3-44.1-21.2c-0.5-0.6-0.4-1.6,0.2-2.1c0.6-0.5,1.6-0.4,2.1,0.2
	c18.3,23,51.9,26.8,74.8,8.6c11.1-8.8,18.2-21.5,19.8-35.7c1.6-14.1-2.4-28.1-11.2-39.2c-18.3-23-51.9-26.8-74.8-8.6
	c-0.6,0.5-1.6,0.4-2.1-0.2c-0.5-0.6-0.4-1.6,0.2-2.1c24.3-19.3,59.8-15.2,79.1,9c9.3,11.8,13.6,26.5,11.8,41.4
	c-1.7,14.9-9.1,28.3-20.9,37.7C92.4,119.7,80.1,123.7,67.8,123.7z"/>
<g id="XMLID_57_">
	<path id="XMLID_60_" class="st1" d="M68.5,103.7l-0.8-0.4c-0.6-0.4-1.8-0.8-3.2-1.3c-8.2-2.9-25.2-9-23.5-35.1
		c0.3-4.8-2.4-6-2.4-6.1l-1.3-0.5l3.3-9.2l1.5,0.9c6.5,3.7,18.5,3.5,25.3-2.7l1-0.9l1,0.9c6.8,6.2,18.8,6.5,25.4,2.9l1.5-0.8
		l3.3,9.2l-1.4,0.5c-0.1,0-2.7,1.2-2.4,6c1.7,26-15.3,32.1-23.5,35c-1.4,0.5-2.6,0.9-3.3,1.3L68.5,103.7z M41,58.8
		c1.4,1.1,3.4,3.5,3,8.3c-1.6,23.9,13.4,29.2,21.5,32.1c1.2,0.4,2.2,0.8,3,1.2c0.8-0.4,1.8-0.7,3-1.2c8.1-2.9,23-8.2,21.5-32
		c-0.3-4.8,1.6-7.2,3-8.3l-1.2-3.4c-7.4,3.2-18.8,2.7-26.3-3.2c-7.4,5.8-19,6.3-26.3,3.1L41,58.8z"/>
	<g id="XMLID_58_">
		<path id="XMLID_59_" class="st1" d="M87.5,55.1c-0.1,0-0.2,0-0.3,0c-0.8-0.2-1.3-1-1.1-1.8c0.4-1.7,1.2-2.7,1.9-3.4L87.3,48
			c-5.4,2.1-13.4,1.7-18.8-2.3c-5.4,4.1-13.4,4.5-18.8,2.3l-0.7,1.8c0.7,0.6,1.5,1.6,1.9,3.2c0.2,0.8-0.3,1.6-1.1,1.8
			c-0.8,0.2-1.6-0.3-1.8-1.1c-0.4-1.5-1.4-2-1.4-2l-1.2-0.6l0.4-1.3l2.2-6.1l1.5,0.9c4.6,2.6,13.2,2.3,17.9-1.9l1-0.9l1,0.9
			c4.7,4.2,13.3,4.6,17.9,2l1.5-0.8l2.7,7.5l-1.4,0.5c0,0-1,0.4-1.3,2C88.8,54.6,88.2,55.1,87.5,55.1z"/>
		<path id="XMLID_64_" class="st1" d="M68.5,82.9l-0.8-0.4c-0.4-0.2-1.3-0.6-2.3-0.9c-5.6-2-17.2-6.2-17.4-23c0-0.8,0.7-1.5,1.5-1.5
			c0,0,0,0,0,0c0.8,0,1.5,0.7,1.5,1.5c0.1,14.7,10,18.2,15.4,20.2c0.8,0.3,1.5,0.5,2,0.8c0.6-0.2,1.2-0.5,2-0.8
			c5.3-1.9,15.2-5.4,15.4-20c0-0.8,0.7-1.5,1.5-1.5c0,0,0,0,0,0c0.8,0,1.5,0.7,1.5,1.5c-0.1,16.7-11.8,20.8-17.3,22.8
			c-1,0.4-1.9,0.7-2.3,0.9L68.5,82.9z"/>
	</g>
</g>
</svg>
