<?xml version="1.0" encoding="utf-8"?>
<!-- Generator: Adobe Illustrator 18.0.0, SVG Export Plug-In . SVG Version: 6.00 Build 0)  -->
<!DOCTYPE svg PUBLIC "-//W3C//DTD SVG 1.1//EN" "http://www.w3.org/Graphics/SVG/1.1/DTD/svg11.dtd">
<svg version="1.1" id="图层_1" xmlns="http://www.w3.org/2000/svg" xmlns:xlink="http://www.w3.org/1999/xlink" x="0px" y="0px"
	 viewBox="0 0 512 512" enable-background="new 0 0 512 512" xml:space="preserve">
<g id="XMLID_879_">
	<g id="XMLID_528_">
		<g>
			<g>
				<g>
					<path id="SVGID_1_" fill="#4DA0DA" d="M259.1,316.1c34.2,0,61.9-27.7,61.9-61.9s-27.7-61.9-61.9-61.9s-61.9,27.7-61.9,61.9
						C197.3,288.4,225,316.1,259.1,316.1z M258.5,331.4c43,0,77.9-34.9,77.9-77.9s-34.9-77.9-77.9-77.9s-77.9,34.9-77.9,77.9
						C180.5,296.5,215.4,331.4,258.5,331.4z M255.7,463l-52.2-118.4l-128.6,14l76.4-104.4L74.9,149.7l128.6,14l52.2-118.4
						l52.2,118.4l128.6-14l-76.4,104.4l76.4,104.4l-128.6-14L255.7,463z"/>
				</g>
				<g>
					<g>
						<g>
							<path id="SVGID_2_" fill="#4DA0DA" d="M259.1,316.1c34.2,0,61.9-27.7,61.9-61.9s-27.7-61.9-61.9-61.9s-61.9,27.7-61.9,61.9
								C197.3,288.4,225,316.1,259.1,316.1z M258.5,331.4c43,0,77.9-34.9,77.9-77.9s-34.9-77.9-77.9-77.9s-77.9,34.9-77.9,77.9
								C180.5,296.5,215.4,331.4,258.5,331.4z M255.7,463l-52.2-118.4l-128.6,14l76.4-104.4L74.9,149.7l128.6,14l52.2-118.4
								l52.2,118.4l128.6-14l-76.4,104.4l76.4,104.4l-128.6-14L255.7,463z"/>
						</g>
						<g>
							<defs>
								<path id="SVGID_4_" d="M259.1,316.1c34.2,0,61.9-27.7,61.9-61.9s-27.7-61.9-61.9-61.9s-61.9,27.7-61.9,61.9
									C197.3,288.4,225,316.1,259.1,316.1z M258.5,331.4c43,0,77.9-34.9,77.9-77.9s-34.9-77.9-77.9-77.9s-77.9,34.9-77.9,77.9
									C180.5,296.5,215.4,331.4,258.5,331.4z M255.7,463l-52.2-118.4l-128.6,14l76.4-104.4L74.9,149.7l128.6,14l52.2-118.4
									l52.2,118.4l128.6-14l-76.4,104.4l76.4,104.4l-128.6-14L255.7,463z"/>
							</defs>
							<use xlink:href="#SVGID_4_"  overflow="visible" fill="#4DA0DA"/>
							<clipPath id="SVGID_6_">
								<use xlink:href="#SVGID_4_"  overflow="visible"/>
							</clipPath>
							<g id="XMLID_226_" clip-path="url(#SVGID_6_)">
								<rect id="XMLID_493_" x="56.1" y="26.5" fill="#4DA0DA" width="399.3" height="455.2"/>
							</g>
						</g>
					</g>
				</g>
			</g>
		</g>
	</g>
	<g id="XMLID_519_">
		<g>
			<g>
				<g>
					<path id="SVGID_3_" fill="#4DA0DA" d="M91.6,159.7c4.6-7.9,1.9-18-6-22.5c-7.9-4.6-18-1.9-22.5,6c-4.6,7.9-1.9,18,6,22.5
						C76.9,170.3,87,167.6,91.6,159.7z M91.6,350.7c-4.6-7.9-14.6-10.6-22.5-6c-7.9,4.6-10.6,14.6-6,22.5s14.6,10.6,22.5,6
						C93.4,368.7,96.1,358.6,91.6,350.7z M257,446.2c-9.1,0-16.5,7.4-16.5,16.5s7.4,16.5,16.5,16.5s16.5-7.4,16.5-16.5
						S266.1,446.2,257,446.2z M422.4,350.7c-4.6,7.9-1.9,18,6,22.5c7.9,4.6,18,1.9,22.5-6c4.6-7.9,1.9-18-6-22.5
						C437.1,340.1,427,342.8,422.4,350.7z M422.4,159.7c4.6,7.9,14.6,10.6,22.5,6s10.6-14.6,6-22.5s-14.6-10.6-22.5-6
						C420.6,141.7,417.9,151.8,422.4,159.7z M257,64.2c9.1,0,16.5-7.4,16.5-16.5s-7.4-16.5-16.5-16.5s-16.5,7.4-16.5,16.5
						S247.9,64.2,257,64.2z"/>
				</g>
				<g>
					<g>
						<g>
							<path id="SVGID_5_" fill="#4DA0DA" d="M91.6,159.7c4.6-7.9,1.9-18-6-22.5c-7.9-4.6-18-1.9-22.5,6c-4.6,7.9-1.9,18,6,22.5
								C76.9,170.3,87,167.6,91.6,159.7z M91.6,350.7c-4.6-7.9-14.6-10.6-22.5-6c-7.9,4.6-10.6,14.6-6,22.5s14.6,10.6,22.5,6
								C93.4,368.7,96.1,358.6,91.6,350.7z M257,446.2c-9.1,0-16.5,7.4-16.5,16.5s7.4,16.5,16.5,16.5s16.5-7.4,16.5-16.5
								S266.1,446.2,257,446.2z M422.4,350.7c-4.6,7.9-1.9,18,6,22.5c7.9,4.6,18,1.9,22.5-6c4.6-7.9,1.9-18-6-22.5
								C437.1,340.1,427,342.8,422.4,350.7z M422.4,159.7c4.6,7.9,14.6,10.6,22.5,6s10.6-14.6,6-22.5s-14.6-10.6-22.5-6
								C420.6,141.7,417.9,151.8,422.4,159.7z M257,64.2c9.1,0,16.5-7.4,16.5-16.5s-7.4-16.5-16.5-16.5s-16.5,7.4-16.5,16.5
								S247.9,64.2,257,64.2z"/>
						</g>
						<g>
							<defs>
								<path id="SVGID_7_" d="M91.6,159.7c4.6-7.9,1.9-18-6-22.5c-7.9-4.6-18-1.9-22.5,6c-4.6,7.9-1.9,18,6,22.5
									C76.9,170.3,87,167.6,91.6,159.7z M91.6,350.7c-4.6-7.9-14.6-10.6-22.5-6c-7.9,4.6-10.6,14.6-6,22.5s14.6,10.6,22.5,6
									C93.4,368.7,96.1,358.6,91.6,350.7z M257,446.2c-9.1,0-16.5,7.4-16.5,16.5s7.4,16.5,16.5,16.5s16.5-7.4,16.5-16.5
									S266.1,446.2,257,446.2z M422.4,350.7c-4.6,7.9-1.9,18,6,22.5c7.9,4.6,18,1.9,22.5-6c4.6-7.9,1.9-18-6-22.5
									C437.1,340.1,427,342.8,422.4,350.7z M422.4,159.7c4.6,7.9,14.6,10.6,22.5,6s10.6-14.6,6-22.5s-14.6-10.6-22.5-6
									C420.6,141.7,417.9,151.8,422.4,159.7z M257,64.2c9.1,0,16.5-7.4,16.5-16.5s-7.4-16.5-16.5-16.5s-16.5,7.4-16.5,16.5
									S247.9,64.2,257,64.2z"/>
							</defs>
							<use xlink:href="#SVGID_7_"  overflow="visible" fill="#4DA0DA"/>
							<clipPath id="SVGID_8_">
								<use xlink:href="#SVGID_7_"  overflow="visible"/>
							</clipPath>
							<g id="XMLID_216_" clip-path="url(#SVGID_8_)">
								<rect id="XMLID_484_" x="42" y="12.4" fill="#4DA0DA" width="430" height="485.6"/>
							</g>
						</g>
					</g>
				</g>
			</g>
		</g>
	</g>
</g>
</svg>
