<?xml version="1.0" encoding="utf-8"?>
<!-- Generator: Adobe Illustrator 19.0.0, SVG Export Plug-In . SVG Version: 6.00 Build 0)  -->
<svg version="1.1" id="图层_1" xmlns="http://www.w3.org/2000/svg" xmlns:xlink="http://www.w3.org/1999/xlink" x="0px" y="0px"
	 viewBox="0 0 135 135" style="enable-background:new 0 0 135 135;" xml:space="preserve">
<style type="text/css">
	.st0{fill:#313B40;}
	.st1{fill:#00BDDA;}
</style>
<path id="XMLID_59_" class="st0" d="M67.5,134.1C30.8,134.1,1,104.3,1,67.6C1,30.9,30.8,1.1,67.5,1.1c36.7,0,66.5,29.8,66.5,66.5
	C134,104.3,104.2,134.1,67.5,134.1z M67.5,3.1C31.9,3.1,3,32,3,67.6s28.9,64.5,64.5,64.5S132,103.1,132,67.6S103.1,3.1,67.5,3.1z"/>
<path id="XMLID_58_" class="st0" d="M67.5,122.8c-30.4,0-55.2-24.7-55.2-55.2s24.7-55.2,55.2-55.2c0.6,0,1,0.4,1,1s-0.4,1-1,1
	c-29.3,0-53.2,23.9-53.2,53.2c0,29.3,23.9,53.2,53.2,53.2c29.3,0,53.2-23.9,53.2-53.2c0-0.6,0.4-1,1-1s1,0.4,1,1
	C122.7,98,97.9,122.8,67.5,122.8z"/>
<path id="XMLID_57_" class="st0" d="M56.8,107.9c-0.1,0-0.2,0-0.3,0c-22.2-6.1-35.3-29-29.3-51.2c6.1-22.2,29-35.3,51.2-29.3
	c22.2,6.1,35.3,29,29.3,51.2c-0.1,0.5-0.7,0.8-1.2,0.7c-0.5-0.1-0.8-0.7-0.7-1.2c5.8-21.1-6.7-43-27.9-48.8
	c-21.1-5.8-43,6.7-48.8,27.9c-5.8,21.1,6.7,43,27.9,48.8c0.5,0.1,0.8,0.7,0.7,1.2C57.6,107.6,57.2,107.9,56.8,107.9z"/>
<path id="XMLID_61_" class="st1" d="M78.5,93.9c-0.6,0-1.1-0.3-1.4-0.9c-0.3-0.8,0-1.6,0.8-2c6.4-2.7,11.4-7.8,13.9-14.3
	c2.6-6.5,2.5-13.7-0.3-20.2C85.8,43.2,70.3,36.9,57,42.6c-6.4,2.7-11.4,7.8-13.9,14.3c-2.6,6.5-2.5,13.7,0.3,20.2
	c0.3,0.8,0,1.6-0.8,2c-0.8,0.3-1.6,0-2-0.8C37.5,71,37.4,63,40.3,55.8c2.9-7.2,8.4-12.9,15.6-15.9c14.8-6.3,32,0.6,38.4,15.5
	c3.1,7.2,3.2,15.2,0.3,22.5C91.7,85,86.2,90.7,79,93.7C78.8,93.8,78.6,93.9,78.5,93.9z"/>
</svg>
