<?xml version="1.0" encoding="utf-8"?>
<!-- Generator: Adobe Illustrator 19.0.0, SVG Export Plug-In . SVG Version: 6.00 Build 0)  -->
<svg version="1.1" id="图层_1" xmlns="http://www.w3.org/2000/svg" xmlns:xlink="http://www.w3.org/1999/xlink" x="0px" y="0px"
	 viewBox="0 0 481.9 226.8" style="enable-background:new 0 0 481.9 226.8;" xml:space="preserve">
<style type="text/css">
	.st0{fill:none;stroke:#313B40;stroke-width:3;stroke-linecap:round;}
	.st1{fill:#1CB1CB;stroke:#00BDDA;}
</style>
<g>
	<path class="st0" d="M241.5,49.1c36.2,0,65.5,29.3,65.5,65.5s-29.3,65.5-65.5,65.5S176,150.8,176,114.6S205.4,49.1,241.5,49.1z"/>
	<path class="st0" d="M290.2,135c-5.2,12.8-14.8,22.5-26.5,28c-12.7,5.9-27.8,6.8-41.8,1.1c-8.3-3.3-15.3-8.6-20.6-15 M220.7,67.1
		c12.4-5.3,26.8-5.9,40.4-0.5"/>
	<path class="st1" d="M185.5,121.6l41.2-14.2 M185.6,121.9l-0.2-0.6l41.2-14.2l0.2,0.6L185.6,121.9z M185.5,121.7l-0.1-0.3
		l41.2-14.2l0.1,0.3L185.5,121.7z M185.3,122.1l-0.3-0.8l41.7-14.4l0.3,0.8L185.3,122.1z M226.7,107.3l5.1-20.7 M226.9,107.4
		l-0.6-0.1l5.1-20.7l0.6,0.1L226.9,107.4z M226.8,107.4l-0.3-0.1l5.1-20.7l0.3,0.1L226.8,107.4z M227,107.7l-0.8-0.2l0.1-0.3l5.2-21
		l0.8,0.2l-0.1,0.3L227,107.7z M231.8,86.6l-46.3,35 M185.7,121.8l-0.3-0.5l46.3-35l0.3,0.5L185.7,121.8z M185.6,121.7l-0.2-0.2
		l46.3-35l0.2,0.2L185.6,121.7z M185.6,122.1l-0.5-0.7l46.7-35.3l0.5,0.7L185.6,122.1z M231.8,86.8l60.8,38.8 M292.4,125.8L231.6,87
		l0.3-0.5l60.8,38.8L292.4,125.8z M292.5,125.7l-60.8-38.8l0.2-0.3l60.8,38.8L292.5,125.7z M292.6,126.1l-0.2-0.2l-61-38.9l0.5-0.8
		l0.2,0.2l61,38.9L292.6,126.1z M185.5,121.6l53.7,11 M239.2,132.9l-53.7-11l0.1-0.6l53.7,11L239.2,132.9z M239.2,132.7l-53.7-11
		l0.1-0.3l53.7,11L239.2,132.7z M239.4,133.1L185.1,122l0.2-0.9l54.3,11.1L239.4,133.1z M226.7,107.3l65.6,18.1 M292.2,125.7
		l-65.6-18.1l0.2-0.6l65.6,18.1L292.2,125.7z M292.2,125.6l-65.6-18.1l0.1-0.3l65.6,18.1L292.2,125.6z M292.4,125.9l-66.1-18.2
		l0.2-0.9l66.1,18.2L292.4,125.9z M226.7,107.3l12.6,25.2 M239,132.7l-12.6-25.2l0.5-0.3l12.6,25.2L239,132.7z M239.1,132.6
		l-12.6-25.2l0.3-0.1l12.6,25.2L239.1,132.6z M239,133l-12.8-25.7l0.8-0.4l12.8,25.7L239,133z M239.2,132.6l53.4-18.7 M239.3,132.8
		l-0.2-0.6l53.4-18.7l0.2,0.6L239.3,132.8z M239.3,132.7l-0.1-0.3l53.4-18.7l0.1,0.3L239.3,132.7z M239.1,133.1l-0.3-0.8l53.9-18.9
		l0.3,0.8L239.1,133.1z M185.5,121.6l107-7.6 M185.5,121.9l0-0.6l107-7.6l0,0.6L185.5,121.9z M185.5,121.7l0-0.3l107-7.6l0,0.3
		L185.5,121.7z M185.2,122l-0.1-0.9l107.5-7.7l0.1,0.9L185.2,122z M292.6,114l-53.4,18.6 M239.3,132.8l-0.2-0.6l53.4-18.6l0.2,0.6
		L239.3,132.8z M239.3,132.7l-0.1-0.3l53.4-18.6l0.1,0.3L239.3,132.7z M239.1,133.1l-0.3-0.8l53.9-18.8l0.3,0.8L239.1,133.1z
		 M292.6,113.8l-60.8-27.1 M292.5,114.1L231.7,87l0.2-0.5l60.8,27.1L292.5,114.1z M292.5,114l-60.8-27.1l0.1-0.3l60.8,27.1
		L292.5,114z M292.7,114.4l-0.3-0.1l-61.1-27.2l0.3-0.8l0.3,0.1l61.1,27.2L292.7,114.4z M239.2,132.6l53.3-7 M239.3,132.9l-0.1-0.6
		l53.3-7l0.1,0.6L239.3,132.9z M239.2,132.7l0-0.3l53.3-7l0,0.3L239.2,132.7z M239,133l-0.1-0.9l53.9-7.1l0.1,0.9L239,133z"/>
</g>
</svg>
