<?xml version="1.0" encoding="utf-8"?>
<!-- Generator: Adobe Illustrator 19.0.0, SVG Export Plug-In . SVG Version: 6.00 Build 0)  -->
<svg version="1.1" id="图层_1" xmlns="http://www.w3.org/2000/svg" xmlns:xlink="http://www.w3.org/1999/xlink" x="0px" y="0px"
	 viewBox="0 0 135 135" style="enable-background:new 0 0 135 135;" xml:space="preserve">
<style type="text/css">
	.st0{fill:#333333;}
	.st1{fill:#1CB1CB;}
	.st2{fill:#00BDDA;}
</style>
<g id="XMLID_56_">
	<path id="XMLID_58_" class="st0" d="M67.3,133.6c-36.7,0-66.5-29.8-66.5-66.5c0-36.7,29.8-66.5,66.5-66.5
		c36.7,0,66.5,29.8,66.5,66.5C133.8,103.8,104,133.6,67.3,133.6z M67.3,2.6C31.7,2.6,2.8,31.5,2.8,67.1c0,35.6,28.9,64.5,64.5,64.5
		c35.6,0,64.5-28.9,64.5-64.5C131.8,31.5,102.9,2.6,67.3,2.6z"/>
	<path id="XMLID_60_" class="st0" d="M67.2,121.4c-6.8,0-13.6-1.3-20-3.8c-8.2-3.3-15.4-8.6-21-15.3c-0.4-0.4-0.3-1.1,0.1-1.4
		c0.4-0.4,1.1-0.3,1.4,0.1c5.4,6.4,12.4,11.5,20.3,14.7c13.2,5.3,28.1,4.9,41-1.1c11.9-5.5,21.1-15.3,26-27.4
		c0.2-0.5,0.8-0.8,1.3-0.6c0.5,0.2,0.8,0.8,0.6,1.3c-5.1,12.6-14.7,22.7-27,28.5C82.7,119.7,75,121.4,67.2,121.4z M46.5,20.7
		c-0.4,0-0.8-0.2-0.9-0.6c-0.2-0.5,0-1.1,0.5-1.3c13.2-5.7,27.8-5.9,41.1-0.5c0.5,0.2,0.8,0.8,0.6,1.3c-0.2,0.5-0.8,0.8-1.3,0.6
		c-12.8-5.2-26.9-5-39.6,0.5C46.7,20.6,46.6,20.7,46.5,20.7z"/>
	<g id="XMLID_182_">
		<path id="XMLID_120_" class="st1" d="M11.2,74.1l41.2-14.2 M11.3,74.4l-0.2-0.6l41.2-14.2l0.2,0.6L11.3,74.4z M11.3,74.2L11.2,74
			l41.2-14.2l0.1,0.3L11.3,74.2z M11.1,74.6l-0.3-0.8l41.7-14.4l0.3,0.8L11.1,74.6z M52.4,59.9l5.1-20.7 M52.7,59.9l-0.6-0.1
			l5.1-20.7l0.6,0.1L52.7,59.9z M52.5,59.9l-0.3-0.1l5.1-20.7l0.3,0.1L52.5,59.9z M52.7,60.3l-0.8-0.2l0.1-0.3l5.2-21L58,39L58,39.3
			L52.7,60.3z M57.5,39.1l-46.3,35 M11.5,74.4l-0.3-0.5l46.3-35l0.3,0.5L11.5,74.4z M11.4,74.2L11.2,74l46.3-35l0.2,0.2L11.4,74.2z
			 M11.3,74.7l-0.5-0.7l46.7-35.3l0.5,0.7L11.3,74.7z M57.5,39.3l60.8,38.8 M118.1,78.3L57.4,39.5l0.3-0.5l60.8,38.8L118.1,78.3z
			 M118.2,78.2L57.5,39.4l0.2-0.3L118.4,78L118.2,78.2z M118.3,78.6l-0.2-0.2l-61-39l0.5-0.8l0.2,0.2l61,39L118.3,78.6z M11.2,74.1
			l53.7,11 M64.9,85.4l-53.7-11l0.1-0.6l53.7,11L64.9,85.4z M64.9,85.2l-53.7-11l0.1-0.3l53.7,11L64.9,85.2z M65.2,85.6L10.9,74.5
			l0.2-0.9l54.3,11.1L65.2,85.6z M52.4,59.9L118,78 M117.9,78.2L52.3,60.2l0.2-0.6L118,77.7L117.9,78.2z M117.9,78.1L52.4,60
			l0.1-0.3L118,77.8L117.9,78.1z M118.1,78.5L52,60.2l0.2-0.9l66.1,18.2L118.1,78.5z M52.4,59.9L65,85.1 M64.7,85.2L52.1,60l0.5-0.3
			L65.2,85L64.7,85.2z M64.8,85.2L52.3,59.9l0.3-0.1L65.1,85L64.8,85.2z M64.7,85.6L51.9,59.8l0.8-0.4l12.8,25.7L64.7,85.6z
			 M65,85.1l53.4-18.7 M65.1,85.4l-0.2-0.6l53.4-18.7l0.2,0.6L65.1,85.4z M65,85.2L64.9,85l53.4-18.7l0.1,0.3L65,85.2z M64.8,85.6
			l-0.3-0.8l53.9-18.9l0.3,0.8L64.8,85.6z M11.2,74.1l107-7.6 M11.2,74.4l0-0.6l107-7.6l0,0.6L11.2,74.4z M11.2,74.3l0-0.3l107-7.6
			l0,0.3L11.2,74.3z M11,74.6l-0.1-0.9L118.5,66l0.1,0.9L11,74.6z M118.3,66.5L65,85.1 M65.1,85.4l-0.2-0.6l53.4-18.6l0.2,0.6
			L65.1,85.4z M65,85.2L64.9,85l53.4-18.6l0.1,0.3L65,85.2z M64.8,85.6l-0.3-0.8L118.5,66l0.3,0.8L64.8,85.6z M118.3,66.4L57.5,39.3
			 M118.2,66.6L57.4,39.6l0.2-0.5l60.8,27.1L118.2,66.6z M118.3,66.5L57.5,39.4l0.1-0.3l60.8,27.1L118.3,66.5z M118.4,66.9l-0.3-0.1
			L57.1,39.6l0.3-0.8l0.3,0.1l61.1,27.2L118.4,66.9z M65,85.1l53.3-7 M65,85.4l-0.1-0.6l53.3-7l0.1,0.6L65,85.4z M65,85.2l0-0.3
			l53.3-7l0,0.3L65,85.2z M64.7,85.6l-0.1-0.9l53.9-7.1l0.1,0.9L64.7,85.6z"/>
		<path id="XMLID_169_" class="st2" d="M64.7,85.9L64.7,85.9L64.7,85.9l-0.1-0.1l-0.1,0l0-0.1L11.4,74.9L11.3,75l-0.1-0.1l-0.2,0.1
			l0-0.1l-0.2,0l0-0.1l-0.2,0l0.1-0.5l-0.2-0.3l0.1-0.1l-0.1-0.2l0.1-0.1l0-0.1l0.2,0l0-0.1l0.3,0.1l45.8-34.6l0.1-0.3l0.2,0.1
			l0.1-0.1l0,0l0.2-0.2l0.3,0.4l0.5,0.1l0,0.1l60.1,26.7l0.3-0.1l0.1,0.2l0.4,0.2l-0.2,0.4l0.2,0.5l-0.1,0l0,0.1l-0.3,0.1l0,0
			l-0.2,0l0,0l-0.1,0l-10.4,3.6l10.3,6.6l0.3,0l0,0.2l0.3,0.2l-0.3,0.4l0.1,0.5l-0.4,0.1l-0.1,0.2l-0.3-0.2l-52.8,6.9l0,0.1L65,85.8
			L64.7,85.9z M58.9,71.4l6.4,12.8l32-11.2l-12.4-3.4L58.9,71.4z M16.3,74.4l47.4,9.7l-6.3-12.6L16.3,74.4z M99.9,73.7l-28.3,9.8
			l43.3-5.7L99.9,73.7z M102.2,72.9l11.8,3.3l-7.5-4.8L102.2,72.9z M52.1,60.7L16.4,73l40.3-2.9L52.1,60.7z M89.1,69.3l10.6,2.9
			l5.2-1.8l-3.1-2L89.1,69.3z M56.4,40.9L15.3,72l36.6-12.6L56.4,40.9z M53.7,61l4.5,9.1l22.6-1.6L53.7,61z M104.1,68.2l2.5,1.6
			l6.2-2.2L104.1,68.2z M53.2,59.4L85,68.2l14.8-1.1L57.9,40.4L53.2,59.4z M65.7,43.7l36.4,23.3l13.6-1L65.7,43.7z"/>
	</g>
</g>
</svg>
