<?xml version="1.0" encoding="utf-8"?>
<!-- Generator: Adobe Illustrator 18.0.0, SVG Export Plug-In . SVG Version: 6.00 Build 0)  -->
<!DOCTYPE svg PUBLIC "-//W3C//DTD SVG 1.1//EN" "http://www.w3.org/Graphics/SVG/1.1/DTD/svg11.dtd">
<svg version="1.1" id="Layer_1" xmlns="http://www.w3.org/2000/svg" xmlns:xlink="http://www.w3.org/1999/xlink" x="0px" y="0px"
	 viewBox="0 0 595.3 841.9" enable-background="new 0 0 595.3 841.9" xml:space="preserve">
<g>
	<path fill="#FFFFFF" d="M398.2,338.8c6.5,0,13.1,0.6,19,1.2c-17.3-80.4-103-139.9-201.2-139.9c-110.1,0-199.4,74.4-199.4,169.7
		c0,54.8,30.4,100,80.4,134.5l-20.2,60.1l69.1-35.1c25,4.8,44.6,10.1,70.2,10.1c6,0,12.5-0.6,19-1.2c-4.2-13.1-6-27.4-6-41.7
		C228,409,303.6,338.8,398.2,338.8z M290.5,284c14.9,0,25,9.5,25,25c0,14.9-10.1,25-25,25c-14.9,0-29.8-10.1-29.8-25
		C260.7,294.2,275.6,284,290.5,284z M151.2,334.6c-14.9,0-30.4-10.1-30.4-25c0-14.9,14.9-25,29.8-25c14.9,0,25,9.5,25,25
		C175.6,324.5,166.1,334.6,151.2,334.6z"/>
	<path fill="#FFFFFF" d="M580.4,494.2c0-79.8-79.8-145.2-169.7-145.2c-95.2,0-169.7,65.5-169.7,144.7c0,80.4,74.4,145.2,169.7,145.2
		c19.6,0,39.9-4.8,60.1-10.1l54.8,30.4l-14.9-50C550.6,579.3,580.4,539.4,580.4,494.2z M356,469.2c-10.1,0-19.6-10.1-19.6-19.6
		c0-10.1,10.1-19.6,19.6-19.6c14.9,0,25,10.1,25,19.6C381,459.6,370.9,469.2,356,469.2z M465.5,469.2c-10.1,0-19.6-10.1-19.6-19.6
		c0-10.1,10.1-19.6,19.6-19.6c14.9,0,25,10.1,25,19.6C490.5,459.6,481,469.2,465.5,469.2z"/>
</g>
</svg>
