<?xml version="1.0" encoding="utf-8"?><!DOCTYPE svg PUBLIC "-//W3C//DTD SVG 1.1//EN" "http://www.w3.org/Graphics/SVG/1.1/DTD/svg11.dtd"><svg version="1.1" baseProfile="full" xmlns="http://www.w3.org/2000/svg" xmlns:xlink="http://www.w3.org/1999/xlink" xmlns:ev="http://www.w3.org/2001/xml-events"   height="155px"   width="662px" ><path fill="rgb( 255, 255, 255 )" d="M651.579,107.681 C651.579,107.681 629.111,107.681 629.111,107.681 C629.111,107.681 622.562,7.56999999999999 622.562,7.56999999999999 C622.562,7.56999999999999 661.314,7.56999999999999 661.314,7.56999999999999 C661.314,7.56999999999999 651.579,107.681 651.579,107.681 ZM511.657,139.993 C511.657,139.993 564.514,71.447 564.514,71.447 C564.514,71.447 516.886,71.447 516.886,71.447 C516.886,71.447 516.886,48.94 516.886,48.94 C516.886,48.94 603.177,48.94 603.177,48.94 C603.177,48.94 603.177,63.509 603.177,63.509 C603.177,63.509 552.654,129.721 552.654,129.721 C552.654,129.721 603.457,129.721 603.457,129.721 C603.457,129.721 603.457,152.227 603.457,152.227 C603.457,152.227 511.657,152.227 511.657,152.227 C511.657,152.227 511.657,139.993 511.657,139.993 ZM465.43,136.445 C465.43,136.445 464.963,136.445 464.963,136.445 C457.242,148.648 446.69,154.749 433.305,154.749 C409.272,154.749 397.257,140.243 397.257,111.23 C397.257,111.23 397.257,48.94 397.257,48.94 C397.257,48.94 427.421,48.94 427.421,48.94 C427.421,48.94 427.421,108.428 427.421,108.428 C427.421,123.869 433.459,131.588 445.538,131.588 C451.576,131.588 456.402,129.473 460.013,125.238 C463.623,121.005 465.43,115.278 465.43,108.055 C465.43,108.055 465.43,48.94 465.43,48.94 C465.43,48.94 495.407,48.94 495.407,48.94 C495.407,48.94 495.407,152.227 495.407,152.227 C495.407,152.227 465.43,152.227 465.43,152.227 C465.43,152.227 465.43,136.445 465.43,136.445 ZM354.952,69.579 C345.738,69.579 338.344,72.381 332.773,77.984 C327.2,83.587 324.415,91.277 324.415,101.051 C324.415,110.515 327.06,117.97 332.353,123.417 C337.644,128.866 344.834,131.588 353.925,131.588 C361.956,131.588 369.801,129.036 377.459,123.931 C377.459,123.931 377.459,148.398 377.459,148.398 C370.236,152.631 359.963,154.749 346.641,154.749 C330.889,154.749 318.158,149.955 308.445,140.367 C298.733,130.78 293.877,118.359 293.877,103.105 C293.877,85.548 299.107,71.712 309.566,61.594 C320.025,51.478 333.971,46.419 351.404,46.419 C363.17,46.419 371.886,48.039 377.552,51.275 C377.552,51.275 377.552,77.143 377.552,77.143 C370.642,72.101 363.108,69.579 354.952,69.579 ZM234.016,154.749 C222.809,154.749 212.443,152.974 202.917,149.425 C202.917,149.425 202.917,124.491 202.917,124.491 C213.251,130.78 223.369,133.923 233.268,133.923 C245.72,133.923 251.946,130.593 251.946,123.931 C251.946,119.2 246.81,115.246 236.537,112.07 C223.711,108.087 214.902,103.651 210.108,98.763 C205.313,93.876 202.917,87.261 202.917,78.918 C202.917,68.771 207.027,60.817 215.245,55.057 C223.463,49.299 234.233,46.419 247.557,46.419 C257.019,46.419 266.141,47.82 274.919,50.621 C274.919,50.621 274.919,74.342 274.919,74.342 C266.888,69.611 258.047,67.244 248.397,67.244 C243.602,67.244 239.743,68.101 236.817,69.813 C233.89,71.526 232.428,73.781 232.428,76.583 C232.428,81.315 236.785,85.144 245.502,88.07 C254.841,91.184 261.86,94.016 266.561,96.568 C271.261,99.122 274.84,102.484 277.301,106.654 C279.759,110.826 280.989,115.651 280.989,121.129 C280.989,131.775 276.724,140.04 268.195,145.923 C259.665,151.807 248.272,154.749 234.016,154.749 ZM163.788,31.477 C158.745,31.477 154.573,29.952 151.274,26.901 C147.973,23.851 146.325,20.084 146.325,15.601 C146.325,10.994 147.959,7.24299999999999 151.227,4.34800000000001 C154.496,1.45299999999997 158.682,0.005 163.788,0.005 C169.018,0.005 173.251,1.48500000000001 176.489,4.44099999999997 C179.725,7.399 181.345,11.118 181.345,15.601 C181.345,20.146 179.695,23.929 176.395,26.948 C173.095,29.968 168.892,31.477 163.788,31.477 ZM50.4159999999999,152.227 C50.4159999999999,152.227 0.6400000000001,152.227 0.6400000000001,152.227 C0.6400000000001,152.227 0.6400000000001,7.56999999999999 0.6400000000001,7.56999999999999 C0.6400000000001,7.56999999999999 50.6020000000001,7.56999999999999 50.6020000000001,7.56999999999999 C101.966,7.56999999999999 127.647,31.073 127.647,78.077 C127.647,100.429 120.456,118.374 106.075,131.915 C91.693,145.456 73.1389999999999,152.227 50.4159999999999,152.227 ZM82.1669999999999,44.878 C73.45,36.816 62.1199999999999,32.784 48.174,32.784 C48.174,32.784 31.4580000000001,32.784 31.4580000000001,32.784 C31.4580000000001,32.784 31.4580000000001,127.012 31.4580000000001,127.012 C31.4580000000001,127.012 48.268,127.012 48.268,127.012 C62.8969999999999,127.012 74.384,122.655 82.7280000000001,113.938 C91.0699999999999,105.222 95.242,93.425 95.242,78.544 C95.242,64.163 90.883,52.941 82.1669999999999,44.878 ZM178.637,152.227 C178.637,152.227 148.566,152.227 148.566,152.227 C148.566,152.227 148.566,48.94 148.566,48.94 C148.566,48.94 178.637,48.94 178.637,48.94 C178.637,48.94 178.637,152.227 178.637,152.227 ZM640.625,122.436 C645.668,122.436 649.854,123.947 653.186,126.966 C656.515,129.986 658.182,133.799 658.182,138.406 C658.182,142.888 656.562,146.687 653.326,149.799 C650.088,152.911 646.196,154.468 641.652,154.468 C635.923,154.468 631.363,152.911 627.971,149.799 C624.577,146.687 622.881,142.888 622.881,138.406 C622.881,133.736 624.593,129.907 628.018,126.919 C631.441,123.931 635.643,122.436 640.625,122.436 Z "/></svg>