<?xml version="1.0" encoding="utf-8"?><!DOCTYPE svg PUBLIC "-//W3C//DTD SVG 1.1//EN" "http://www.w3.org/Graphics/SVG/1.1/DTD/svg11.dtd"><svg version="1.1" baseProfile="full" xmlns="http://www.w3.org/2000/svg" xmlns:xlink="http://www.w3.org/1999/xlink" xmlns:ev="http://www.w3.org/2001/xml-events"   height="184px"   width="458px" ><path fill="rgb( 255, 255, 255 )" d="M442.085,177.872 C442.085,177.872 442.085,171.158 442.085,171.158 C438.983,174.187 435.865,176.338 432.731,177.614 C429.595,178.887 426.203,179.524 422.552,179.524 C414.422,179.524 407.341,176.356 401.313,170.021 C395.284,163.687 392.27,155.803 392.27,146.368 C392.27,136.591 395.181,128.587 401.004,122.353 C406.825,116.122 413.835,113.006 422.034,113.006 C425.892,113.006 429.493,113.713 432.835,115.123 C436.176,116.536 439.259,118.687 442.085,121.579 C442.085,121.579 442.085,114.659 442.085,114.659 C442.085,114.659 457.999,114.659 457.999,114.659 C457.999,114.659 457.999,177.872 457.999,177.872 C457.999,177.872 442.085,177.872 442.085,177.872 ZM437.898,132.682 C434.625,129.274 430.44,127.57 425.341,127.57 C420.38,127.57 416.282,129.326 413.044,132.837 C409.804,136.349 408.187,140.791 408.187,146.162 C408.187,151.671 409.857,156.198 413.199,159.744 C416.54,163.292 420.622,165.064 425.445,165.064 C430.473,165.064 434.625,163.308 437.898,159.796 C441.17,156.284 442.808,151.74 442.808,146.162 C442.808,140.584 441.17,136.092 437.898,132.682 ZM363.85,178.078 C363.85,178.078 339.563,149.88 339.563,149.88 C339.563,149.88 339.563,178.078 339.563,178.078 C339.563,178.078 325.196,178.078 325.196,178.078 C325.196,178.078 325.196,93.381 325.196,93.381 C325.196,93.381 339.563,93.381 339.563,93.381 C339.563,93.381 339.563,142.237 339.563,142.237 C339.563,142.237 360.748,117.034 360.748,117.034 C360.748,117.034 378.732,117.034 378.732,117.034 C378.732,117.034 354.031,146.265 354.031,146.265 C354.031,146.265 381.728,178.078 381.728,178.078 C381.728,178.078 363.85,178.078 363.85,178.078 ZM303.08,106.912 C302.598,107.531 302.357,108.703 302.357,110.424 C302.357,110.424 302.253,117.861 302.253,117.861 C302.253,117.861 311.452,117.861 311.452,117.861 C311.452,117.861 311.452,130.772 311.452,130.772 C311.452,130.772 302.253,130.772 302.253,130.772 C302.253,130.772 302.253,180.144 302.253,180.144 C302.253,180.144 287.889,180.144 287.889,180.144 C287.889,180.144 287.889,130.772 287.889,130.772 C287.889,130.772 282.721,130.772 282.721,130.772 C282.721,130.772 282.721,117.861 282.721,117.861 C282.721,117.861 287.889,117.861 287.889,117.861 C287.889,110.011 287.993,105.362 288.198,103.917 C288.611,100.611 289.956,97.996 292.229,96.066 C294.503,94.14 297.706,93.174 301.84,93.174 C304.871,93.174 308.249,93.864 311.969,95.24 C311.969,95.24 311.969,106.809 311.969,106.809 C309.902,106.189 308.178,105.879 306.8,105.879 C305.147,105.879 303.907,106.224 303.08,106.912 ZM255.955,171.158 C252.853,174.187 249.735,176.338 246.601,177.614 C243.465,178.887 240.073,179.524 236.422,179.524 C228.291,179.524 221.211,176.356 215.183,170.021 C209.154,163.687 206.14,155.803 206.14,146.368 C206.14,136.591 209.051,128.587 214.874,122.353 C220.695,116.122 227.705,113.006 235.904,113.006 C239.762,113.006 243.363,113.713 246.705,115.123 C250.046,116.536 253.129,118.687 255.955,121.579 C255.955,121.579 255.955,114.659 255.955,114.659 C255.955,114.659 271.869,114.659 271.869,114.659 C271.869,114.659 271.869,177.872 271.869,177.872 C271.869,177.872 255.955,177.872 255.955,177.872 C255.955,177.872 255.955,171.158 255.955,171.158 ZM251.768,132.682 C248.495,129.274 244.31,127.57 239.211,127.57 C234.25,127.57 230.152,129.326 226.914,132.837 C223.674,136.349 222.057,140.791 222.057,146.162 C222.057,151.671 223.727,156.198 227.069,159.744 C230.41,163.292 234.492,165.064 239.315,165.064 C244.343,165.064 248.495,163.308 251.768,159.796 C255.04,156.284 256.678,151.74 256.678,146.162 C256.678,140.584 255.04,136.092 251.768,132.682 ZM178.96,177.768 C178.96,177.768 153.228,140.791 153.228,140.791 C153.228,140.791 153.228,177.768 153.228,177.768 C153.228,177.768 137.208,177.768 137.208,177.768 C137.208,177.768 137.208,94.414 137.208,94.414 C137.208,94.414 153.228,94.414 153.228,94.414 C153.228,94.414 153.228,123.025 153.228,123.025 C153.228,123.025 175.756,94.414 175.756,94.414 C175.756,94.414 194.98,94.414 194.98,94.414 C194.98,94.414 165.834,131.598 165.834,131.598 C165.834,131.598 197.77,177.768 197.77,177.768 C197.77,177.768 178.96,177.768 178.96,177.768 ZM91.673,83.407 C90.432,83.407 89.1790000000001,83.308 87.9469999999999,83.113 C81.8340000000001,82.146 76.451,78.903 72.7370000000001,73.973 C72.7370000000001,73.973 62.154,81.227 62.154,81.227 C63.2070000000001,83.957 63.904,86.879 64.175,89.945 C64.5999999999999,94.738 63.9110000000001,99.449 62.2670000000001,103.823 C62.2670000000001,103.823 73.3040000000001,111.389 73.3040000000001,111.389 C77.6610000000001,106.055 84.2739999999999,102.739 91.6310000000001,102.739 C92.8699999999999,102.739 94.123,102.837 95.354,103.033 C108.255,105.073 117.089,117.224 115.048,130.117 C113.215,141.692 103.383,150.093 91.671,150.093 C90.432,150.093 89.1790000000001,149.995 87.9480000000001,149.799 C75.046,147.758 66.211,135.608 68.2539999999999,122.714 C68.45,121.478 68.7429999999999,120.28 69.114,119.121 C69.114,119.121 58.0519999999999,111.539 58.0519999999999,111.539 C57.6780000000001,112.042 57.3199999999999,112.555 56.915,113.039 C51.8309999999999,119.106 44.817,122.98 37.028,124.057 C37.028,124.057 37.028,137.046 37.028,137.046 C49.5599999999999,139.396 58.0550000000001,151.338 56.05,164.006 C54.2170000000001,175.581 44.386,183.982 32.675,183.982 C31.434,183.982 30.181,183.884 28.9490000000001,183.689 C16.048,181.648 7.21299999999997,169.497 9.25600000000009,156.604 C10.857,146.498 18.5550000000001,138.813 28.277,137.025 C28.277,137.025 28.277,124.067 28.277,124.067 C13.8019999999999,122.108 2.4559999999999,110.492 1.13000000000011,95.519 C0.38499999999999,87.104 2.96399999999994,78.903 8.39100000000008,72.426 C13.355,66.502 20.162,62.678 27.73,61.497 C27.73,61.497 27.73,47.828 27.73,47.828 C21.989,46.616 16.9670000000001,43.369 13.492,38.589 C9.77199999999993,33.472 8.26800000000003,27.216 9.25800000000004,20.97 C11.0909999999999,9.39499999999998 20.922,0.99400000000003 32.634,0.99400000000003 C33.873,0.99400000000003 35.127,1.09199999999998 36.3579999999999,1.28800000000001 C49.258,3.32900000000001 58.0920000000001,15.48 56.0509999999999,28.372 C54.481,38.288 47.039,45.87 37.575,47.84 C37.575,47.84 37.575,61.479 37.575,61.479 C45.8389999999999,62.743 53.039,67.167 57.8789999999999,73.552 C57.8789999999999,73.552 68.8340000000001,66.043 68.8340000000001,66.043 C67.941,62.823 67.7159999999999,59.428 68.2539999999999,56.029 C70.087,44.454 79.9179999999999,36.053 91.6289999999999,36.053 C92.8689999999999,36.053 94.1220000000001,36.152 95.355,36.347 C108.255,38.388 117.089,50.538 115.048,63.431 C113.215,75.006 103.384,83.407 91.673,83.407 ZM90,136.843 C90.5540000000001,136.93 91.117,136.975 91.671,136.975 C96.8019999999999,136.975 101.279,133.145 102.083,128.066 C102.994,122.317 99.0540000000001,116.9 93.3019999999999,115.989 C92.748,115.902 92.1849999999999,115.857 91.6310000000001,115.857 C86.5,115.857 82.0229999999999,119.687 81.2190000000001,124.766 C80.308,130.515 84.248,135.932 90,136.843 ZM22.22,158.655 C21.3099999999999,164.404 25.25,169.821 31.002,170.732 C31.557,170.819 32.1189999999999,170.864 32.675,170.864 C37.8889999999999,170.864 42.268,167.118 43.085,161.955 C43.9960000000001,156.207 40.056,150.789 34.3050000000001,149.879 C33.749,149.792 33.1869999999999,149.747 32.6310000000001,149.747 C27.4169999999999,149.747 23.038,153.494 22.22,158.655 ZM43.087,26.322 C43.9970000000001,20.573 40.058,15.155 34.306,14.244 C33.75,14.158 33.1880000000001,14.113 32.634,14.113 C27.4179999999999,14.113 23.04,17.859 22.222,23.021 C21.7809999999999,25.806 22.451,28.595 24.1099999999999,30.877 C25.768,33.157 28.2159999999999,34.656 31.002,35.097 C31.559,35.184 32.1210000000001,35.229 32.6759999999999,35.229 C37.8910000000001,35.229 42.269,31.483 43.087,26.322 ZM49.4659999999999,91.246 C48.703,82.619 41.329,75.861 32.681,75.861 C32.1800000000001,75.861 31.674,75.883 31.165,75.928 C26.674,76.325 22.606,78.447 19.712,81.901 C16.817,85.356 15.442,89.731 15.8389999999999,94.219 C16.6469999999999,103.346 24.8440000000001,110.36 34.1400000000001,109.537 C38.6320000000001,109.139 42.6990000000001,107.018 45.5940000000001,103.563 C48.4880000000001,100.109 49.864,95.735 49.4659999999999,91.246 ZM93.3019999999999,49.304 C92.7470000000001,49.217 92.1849999999999,49.171 91.6289999999999,49.171 C86.415,49.171 82.0360000000001,52.918 81.2190000000001,58.08 C80.778,60.865 81.4480000000001,63.655 83.107,65.936 C84.7650000000001,68.216 87.213,69.715 89.999,70.156 C90.5550000000001,70.243 91.117,70.288 91.673,70.288 C96.8869999999999,70.288 101.266,66.542 102.083,61.381 C102.994,55.632 99.0540000000001,50.214 93.3019999999999,49.304 Z "/></svg>