<?xml version="1.0" encoding="utf-8"?>
<!-- Generator: Adobe Illustrator 18.0.0, SVG Export Plug-In . SVG Version: 6.00 Build 0)  -->
<!DOCTYPE svg PUBLIC "-//W3C//DTD SVG 1.1//EN" "http://www.w3.org/Graphics/SVG/1.1/DTD/svg11.dtd">
<svg version="1.1" id="图层_1" xmlns:ev="http://www.w3.org/2001/xml-events"
	 xmlns="http://www.w3.org/2000/svg" xmlns:xlink="http://www.w3.org/1999/xlink" x="0px" y="0px" viewBox="0 0 593 518"
	 enable-background="new 0 0 593 518" xml:space="preserve">
<path fill="#FF7965" d="M198.9,343h31.8c4.4,0,8-3.6,8-8c0-4.4-3.6-8-8-8h-31.8c-4.4,0-8,3.6-8,8C190.9,339.4,194.5,343,198.9,343z
	 M198.9,311.2h79.5c4.4,0,8-3.6,8-8c0-4.4-3.6-8-8-8h-79.5c-4.4,0-8,3.6-8,8C190.9,307.6,194.5,311.2,198.9,311.2z M198.9,279.4
	h47.7c4.4,0,8-3.6,8-8c0-4.4-3.6-8-8-8h-47.7c-4.4,0-8,3.6-8,8C190.9,275.8,194.5,279.4,198.9,279.4z M198.9,374.8h79.5
	c4.4,0,8-3.6,8-8c0-4.4-3.6-8-8-8h-79.5c-4.4,0-8,3.6-8,8C190.9,371.3,194.5,374.8,198.9,374.8z M79.5,374.8h63.6
	c8.8,0,15.9-7.1,15.9-15.9v-79.5c0-8.8-7.1-15.9-15.9-15.9H79.5c-8.8,0-15.9,7.1-15.9,15.9v79.5C63.6,367.7,70.8,374.8,79.5,374.8z
	 M79.5,279.4h63.6v79.5H79.5V279.4z M334.1,183.9H190.9c0-8.8-7.1-15.9-15.9-15.9s-15.9,7.1-15.9,15.9H15.9C7.1,183.9,0,191,0,199.8
	v15.9c0,8.8,7.1,15.9,15.9,15.9v190.9c0,8.8,7.1,15.9,15.9,15.9H167V459l-45.4,45.4c-1.4,1.4-2.3,3.4-2.3,5.6c0,4.4,3.6,8,8,8
	c2.2,0,4.2-0.9,5.6-2.3l42.1-42.1l42.1,42.1c1.4,1.4,3.4,2.3,5.6,2.3c4.4,0,8-3.6,8-8c0-2.2-0.9-4.2-2.3-5.6L183,459v-20.6h135.2
	c8.8,0,15.9-7.1,15.9-15.9V231.6c8.8,0,15.9-7.1,15.9-15.9v-15.9C350,191,342.9,183.9,334.1,183.9z M318.2,422.5H31.8V231.6h286.4
	V422.5z M334.1,215.7h-15.9H31.8H15.9v-15.9h318.2V215.7z"/>
<path fill="#2990D0" d="M580.8,317.6c-0.2,0-0.4,0-0.7-0.1c-1.5-0.4-2.4-1.8-2-3.3c0.7-3.1,1.1-6.6,1.1-10.6c0-3.1-0.2-6.6-0.7-10.2
	c-0.2-1.5,0.9-2.9,2.4-3.1c1.5-0.2,2.9,0.9,3.1,2.4c0.5,3.9,0.8,7.5,0.8,10.9c0,4.4-0.4,8.4-1.3,11.9
	C583.1,316.8,582,317.6,580.8,317.6z M579.3,285c-1.3,0-2.4-0.9-2.7-2.2c-1.4-6.4-3.4-13.4-5.9-20.8c-0.5-1.4,0.3-3,1.7-3.5
	c1.4-0.5,3,0.3,3.5,1.7c2.6,7.6,4.6,14.8,6.1,21.4c0.3,1.5-0.6,2.9-2.1,3.3C579.7,285,579.5,285,579.3,285z M569.6,253.6
	c-1.1,0-2.1-0.7-2.6-1.8c-2.5-6.4-5.3-13.2-8.4-20.1c-0.6-1.4,0-3,1.4-3.6c1.4-0.6,3,0,3.6,1.4c3.2,7,6.1,13.8,8.6,20.4
	c0.5,1.4-0.2,3-1.6,3.5C570.3,253.5,570,253.6,569.6,253.6z M556.5,223.4c-1,0-2-0.6-2.5-1.5c-3.1-6.4-6.5-12.9-10-19.4
	c-0.7-1.3-0.2-3,1.1-3.7c1.3-0.7,3-0.2,3.7,1.1c3.6,6.5,7,13.1,10.1,19.6c0.7,1.4,0.1,3-1.3,3.7
	C557.3,223.3,556.9,223.4,556.5,223.4z M485.4,202.9c-4.3,0-8.5-2.6-12.5-7.8c0,0-0.2-0.3-0.6-0.9c-0.8-1.3-0.4-3,0.9-3.8
	c1.3-0.8,3-0.4,3.8,0.9c0.1,0.2,0.2,0.4,0.3,0.5c2.9,3.7,5.7,5.6,8.1,5.6c1.7,0,3.5-1,5.2-2.9c1-1.1,2.8-1.2,3.9-0.2
	c1.1,1,1.2,2.8,0.1,3.9C491.8,201.4,488.7,202.9,485.4,202.9z M541,194.4c-0.9,0-1.9-0.5-2.4-1.4c-3.7-6.3-7.5-12.6-11.3-18.6
	c-0.8-1.3-0.4-3,0.8-3.8c1.3-0.8,3-0.4,3.8,0.8c3.9,6.1,7.8,12.4,11.5,18.9c0.8,1.3,0.3,3-1,3.7C541.9,194.2,541.5,194.4,541,194.4z
	 M498.3,189.9c-0.4,0-0.7-0.1-1.1-0.2c-1.4-0.6-2-2.2-1.4-3.6c2.3-5.4,4.3-12.5,5.6-20.5c0.3-1.5,1.7-2.5,3.2-2.2
	c1.5,0.3,2.5,1.7,2.2,3.2c-1.5,8.5-3.5,15.9-6,21.7C500.4,189.2,499.4,189.9,498.3,189.9z M469.2,186c-1,0-1.9-0.5-2.4-1.4
	c-3.7-6.5-7.2-13.3-10.3-19.5c-0.7-1.4-0.1-3,1.2-3.7c1.4-0.7,3-0.1,3.7,1.2c3.1,6.2,6.6,12.9,10.2,19.3c0.7,1.3,0.3,3-1,3.7
	C470.1,185.9,469.6,186,469.2,186z M523.6,166.4c-0.9,0-1.7-0.4-2.3-1.2c-4.1-6.1-8.3-11.9-12.4-17.3c-0.2,2.5-0.4,5-0.6,7.5
	c-0.2,1.5-1.5,2.6-3,2.4c-1.5-0.2-2.6-1.5-2.4-3c0.5-4.8,0.8-9.8,0.9-14.9c-0.7,0-1.4-0.4-1.9-1c-5.1-6.2-10.1-11.5-14.7-15.9
	c-1.1-1-1.1-2.8-0.1-3.9c1-1.1,2.8-1.1,3.9-0.1c4.1,3.9,8.4,8.5,12.9,13.7c0.2-1.3,1.3-2.4,2.7-2.4c0,0,0,0,0,0
	c1.5,0,2.7,1.2,2.7,2.7c0,0.7,0,1.4,0,2.1c0,2.8-0.1,5.6-0.2,8.3c1.2-0.9,2.9-0.7,3.8,0.5c4.3,5.6,8.6,11.6,12.9,18
	c0.8,1.3,0.5,3-0.7,3.8C524.6,166.3,524.1,166.4,523.6,166.4z M454.2,156.7c-1,0-2-0.6-2.5-1.6c-3.5-7.7-6.2-14.7-8.1-20.8
	c-0.5-1.4,0.4-3,1.8-3.4c1.4-0.4,3,0.4,3.4,1.8c1.8,5.9,4.5,12.6,7.8,20.1c0.6,1.4,0,3-1.4,3.6C455,156.6,454.6,156.7,454.2,156.7z
	 M443.6,125.6c-1.3,0-2.5-0.9-2.7-2.3c-0.4-2.6-0.7-4.9-0.7-7.1c0-10.1,5-13.6,9.2-14.7c1.5-0.4,3,0.5,3.4,1.9s-0.5,3-1.9,3.4
	c-2.2,0.6-5.2,2.2-5.2,9.4c0,1.8,0.2,3.9,0.6,6.2c0.3,1.5-0.8,2.9-2.2,3.2C443.9,125.6,443.8,125.6,443.6,125.6z M506.1,125
	c-1.4,0-2.6-1.1-2.7-2.6c-0.4-7.3-1.3-14.5-2.5-21.5c-0.3-1.5,0.7-2.9,2.2-3.2c1.5-0.3,2.9,0.7,3.2,2.2c1.2,7.2,2.1,14.6,2.5,22.1
	c0.1,1.5-1.1,2.8-2.6,2.9C506.3,125,506.2,125,506.1,125z M480.7,116.8c-0.6,0-1.1-0.2-1.6-0.5c-2.8-2.1-5.5-3.7-7.8-4.8
	c-4.1-1.9-7.7-3.2-10.9-4c-1.5-0.4-2.3-1.9-2-3.3c0.4-1.5,1.9-2.3,3.3-2c3.5,0.9,7.4,2.4,11.8,4.3c2.7,1.2,5.7,3.1,8.8,5.4
	c1.2,0.9,1.5,2.6,0.6,3.8C482.4,116.4,481.5,116.8,480.7,116.8z M501.5,92.5c-1.2,0-2.4-0.9-2.7-2.1c-1.7-7.3-3.8-14.2-6.3-20.6
	c-0.5-1.4,0.2-3,1.6-3.5c1.4-0.5,3,0.2,3.5,1.6c2.6,6.6,4.7,13.8,6.5,21.3c0.3,1.5-0.6,2.9-2,3.3C501.9,92.5,501.7,92.5,501.5,92.5z
	 M490.7,61.5c-1,0-2-0.6-2.5-1.5c-3.3-6.7-7.1-12.8-11.3-18c-0.9-1.2-0.8-2.9,0.4-3.9c1.2-0.9,2.9-0.8,3.9,0.4
	c4.5,5.5,8.5,11.9,12,19c0.7,1.4,0.1,3-1.3,3.7C491.5,61.4,491.1,61.5,490.7,61.5z M471.7,34.9c-0.7,0-1.3-0.2-1.9-0.7
	c-5.2-4.9-11.1-8.9-17.3-11.7c-1.4-0.6-2-2.3-1.4-3.6c0.6-1.4,2.2-2,3.6-1.4c6.8,3.1,13.1,7.4,18.8,12.7c1.1,1,1.2,2.8,0.1,3.9
	C473.1,34.6,472.4,34.9,471.7,34.9z M344.9,29.2c-1.1,0-2.1-0.6-2.5-1.6c-0.6-1.4,0-3,1.4-3.6c0.9-0.4,1.8-0.8,2.7-1.2
	c1.4-0.6,3,0.1,3.6,1.4c0.6,1.4-0.1,3-1.4,3.6c-0.9,0.4-1.8,0.8-2.7,1.2C345.7,29.1,345.3,29.2,344.9,29.2z M357.8,23.9
	c-1.1,0-2.1-0.7-2.6-1.8c-0.5-1.4,0.2-3,1.6-3.5c7.5-2.9,14.4-5.1,21.2-6.8c1.5-0.4,3,0.5,3.3,2c0.4,1.5-0.5,3-2,3.3
	c-6.5,1.7-13.2,3.8-20.5,6.6C358.5,23.8,358.1,23.9,357.8,23.9z M443.4,18.7c-0.3,0-0.6,0-0.9-0.1c-6.8-2.3-13.8-3.9-20.8-4.8
	c-1.5-0.2-2.6-1.5-2.4-3c0.2-1.5,1.6-2.6,3-2.4c7.4,0.9,14.7,2.6,21.9,5c1.4,0.5,2.2,2,1.7,3.5C445.6,18,444.6,18.7,443.4,18.7z
	 M389.4,14.8c-1.3,0-2.5-0.9-2.7-2.3c-0.3-1.5,0.7-2.9,2.2-3.2c7-1.2,13.9-1.8,20.6-1.8c0.6,0,1.1,0,1.7,0c1.5,0,2.7,1.3,2.7,2.8
	s-1.3,2.7-2.8,2.7c-0.5,0-1.1,0-1.6,0c-6.4,0-13,0.6-19.7,1.8C389.7,14.8,389.5,14.8,389.4,14.8z"/>
<path fill="#E56451" d="M242.7,91.7c9.9,2,17.9,2.6,25.5,1c7.5-1.6,15.4-5.1,23.7-10.7c3.6-2.4,8.3-5.5,12.1-8.9l21.9,3.4
	c1,0.2,1,0.2,2.2-0.6l17.4-20.2l0.2-1c0,0,0.2-1-0.8-1.2l-3.1-4.8c-0.8-1.2-0.8-1.2-2-0.4l-16.8,1.8l-13.4-20.3l8.1-14.9
	c0,0,0,0,0.2-1c0.2-1,0.2-1-0.8-1.2L313.9,8c-0.8-1.2-1.8-1.4-2-0.4l-25.3,8.3c-1-0.2-1.2,0.8-1.4,1.8l-5.4,21.6
	c-4.7,3.2-9.3,5.4-12.8,7.7c-8.3,5.6-14.6,11.5-19,17.9c-4.4,6.3-6.9,14.1-8.9,24c-0.2,1-0.2,1,0.8,1.2
	C241.7,91.5,241.7,91.5,242.7,91.7z"/>
<path fill="#FF7965" d="M316.5,41.3l-7-11.5l8.1-14.9c0,0,0,0,0.2-1c0.2-1,0.2-1-0.8-1.2L313.9,8c-0.8-1.2-1.8-1.4-2-0.4l-25.3,8.3
	c-1-0.2-1.2,0.8-1.4,1.8l-5.4,21.6c-4.7,3.2-9.3,5.4-12.8,7.7c-8.3,5.6-14.6,11.5-19,17.9c-4.4,6.3-6.9,14.1-8.9,24
	c-0.2,1-0.2,1,0.8,1.2"/>
<path fill="#FFFFFF" d="M273.6,64.9c-0.1-0.1-0.2-0.3-0.3-0.4c-1.7-2.7-0.9-6.2,1.9-7.9c1.6-1,3.5-1.2,5.2-0.6
	c0.3-0.5,0.7-0.9,1.2-1.2c1.5-1,3.6-0.5,4.5,1c0.2,0.3,0.3,0.6,0.4,1c1.7-0.3,3.4,0.3,4.4,1.8c1.2,1.9,0.6,4.5-1.4,5.8
	c0,0-0.1,0.1-0.1,0.1l0,0l-2.3,1.5l-1-1.6c0.7-1.6,0.6-3.5-0.4-5.1c-0.7-1.1-1.8-1.9-3.1-2.3c-0.5-0.1-1,0.1-1.2,0.6
	c-0.2,0.5,0.1,1,0.6,1.2c0.9,0.3,1.6,0.8,2.1,1.5c1.1,1.7,0.6,4-1.2,5.1c-1.8,1.1-4.1,0.6-5.2-1.1c-0.5-0.7-0.7-1.6-0.5-2.5
	c0.1-0.5-0.3-1-0.8-1c-0.5-0.1-1,0.3-1.1,0.8c-0.2,1.3,0.1,2.7,0.8,3.8c1,1.6,2.7,2.5,4.4,2.5l1,1.6l-2.2,1.4l0,0
	c-2,1.1-4.5,0.6-5.7-1.3C272.5,68,272.6,66.2,273.6,64.9z M282,64.3c1.1-0.7,1.4-2.1,0.8-3.2c-0.7-1.1-2.1-1.4-3.2-0.7
	c-1.1,0.7-1.4,2.1-0.8,3.2C279.4,64.6,280.9,64.9,282,64.3z"/>
</svg>
