<?xml version="1.0" encoding="utf-8"?>
<!-- Generator: Adobe Illustrator 18.0.0, SVG Export Plug-In . SVG Version: 6.00 Build 0)  -->
<!DOCTYPE svg PUBLIC "-//W3C//DTD SVG 1.1//EN" "http://www.w3.org/Graphics/SVG/1.1/DTD/svg11.dtd">
<svg version="1.1" id="图层_1" xmlns:ev="http://www.w3.org/2001/xml-events"
	 xmlns="http://www.w3.org/2000/svg" xmlns:xlink="http://www.w3.org/1999/xlink" x="0px" y="0px" viewBox="0 0 283.5 170.1"
	 enable-background="new 0 0 283.5 170.1" xml:space="preserve">
<path opacity="7.800000e-02" fill="none" stroke="#000000" stroke-width="2" enable-background="new    " d="M128.7,8.9
	c16.1-1.5,32.9,1.9,47.9,10.8c37.9,22.4,50.4,71.2,28,109.1 M150.3,166.6c-18.2,3.3-37.6,0.3-54.8-9.8
	C66.2,139.4,52,106.2,57.6,74.5c1.6-9.2,4.9-18.3,9.9-26.8c7.1-12,16.9-21.5,28.1-28.1"/>
<path fill="none" stroke="#000000" stroke-width="2" d="M129.8,4c16.1-1.5,32.9,1.9,47.9,10.8c37.9,22.4,50.4,71.2,28,109.1
	 M151.3,161.7c-18.2,3.3-37.6,0.3-54.8-9.8c-29.3-17.3-43.5-50.6-37.9-82.3c1.6-9.2,4.9-18.3,9.9-26.8c7.1-12,16.9-21.5,28.1-28.1"
	/>
<path fill="#00BDDA" d="M122.4,17.6h-4.2V0.3l-6.7,1.9v2.2l4.3-1.2v14.3h-4.2v2h10.8L122.4,17.6L122.4,17.6z"/>
<path fill="#00BDDA" d="M214.4,140.9v3.1h-1.1v-3.1h-3.1v-1.1h3.1v-3.1h1.1v3.1h3.1v1.1H214.4z M201,153.6c-1.9,0-3.4-0.8-4.5-2.4
	c-1-1.6-1.6-3.9-1.6-7c0-3.3,0.6-5.9,1.7-7.6c1.1-1.7,2.7-2.6,4.8-2.6c4,0,6,3.2,6,9.7c0,3.2-0.6,5.6-1.7,7.3
	C204.6,152.7,203,153.6,201,153.6z M201.3,136c-2.6,0-3.9,2.7-3.9,8.1c0,5,1.3,7.5,3.8,7.5c2.5,0,3.7-2.5,3.7-7.6
	C205,138.7,203.7,136,201.3,136z M186.3,153.6c-1.9,0-3.4-0.8-4.5-2.4c-1-1.6-1.6-3.9-1.6-7c0-3.3,0.6-5.9,1.7-7.6
	c1.1-1.7,2.7-2.6,4.8-2.6c4,0,6,3.2,6,9.7c0,3.2-0.6,5.6-1.7,7.3C189.9,152.7,188.4,153.6,186.3,153.6z M186.6,136
	c-2.6,0-3.9,2.7-3.9,8.1c0,5,1.3,7.5,3.8,7.5c2.5,0,3.7-2.5,3.7-7.6C190.3,138.7,189.1,136,186.6,136z M171.7,153.6
	c-1.9,0-3.4-0.8-4.4-2.4c-1-1.6-1.6-3.9-1.6-7c0-3.3,0.6-5.9,1.7-7.6c1.1-1.7,2.7-2.6,4.8-2.6c4,0,6,3.2,6,9.7
	c0,3.2-0.6,5.6-1.7,7.3C175.3,152.7,173.7,153.6,171.7,153.6z M172,136c-2.6,0-3.9,2.7-3.9,8.1c0,5,1.3,7.5,3.8,7.5
	c2.5,0,3.7-2.5,3.7-7.6C175.6,138.7,174.4,136,172,136z M152.2,151.2h4.2v-14.3l-4.3,1.2v-2.2l6.7-1.9v17.3h4.2v2h-10.8L152.2,151.2
	L152.2,151.2z"/>
<path fill="#00BDDA" d="M99.2,93c-0.6,0.6-0.7,1.5-0.1,2.1c0.6,0.6,1.5,0.7,2.1,0.1c0.6-0.6,0.7-1.5,0.1-2.1
	C100.7,92.4,99.8,92.4,99.2,93z M109,130.9c-0.8-0.2-1.6,0.2-1.9,1c-0.2,0.8,0.2,1.6,1,1.9c0.8,0.2,1.6-0.2,1.9-1
	C110.2,132,109.8,131.1,109,130.9z M121.8,90.7c0.8,0.2,1.6-0.2,1.9-1c0.2-0.8-0.2-1.6-1-1.9c-0.8-0.2-1.6,0.2-1.9,1
	C120.6,89.6,121,90.4,121.8,90.7z M94.4,102.5c-0.8-0.2-1.6,0.2-1.9,1c-0.2,0.8,0.2,1.6,1,1.9c0.8,0.2,1.6-0.2,1.9-1
	C95.6,103.6,95.1,102.7,94.4,102.5z M93,114.1c-0.8,0.2-1.3,1-1.1,1.8c0.2,0.8,1,1.3,1.8,1.1c0.8-0.2,1.3-1,1.1-1.8
	C94.6,114.5,93.8,114,93,114.1z M97.7,124.9c-0.6,0.6-0.7,1.5-0.1,2.1c0.6,0.6,1.5,0.7,2.1,0.1c0.6-0.6,0.7-1.5,0.1-2.1
	C99.3,124.4,98.3,124.3,97.7,124.9z M108.3,78.4C90.5,82.3,79.1,100,83,117.9c3.9,17.9,21.6,29.2,39.5,25.3
	c17.9-3.9,29.2-21.6,25.3-39.5C143.9,85.8,126.2,74.5,108.3,78.4z M121.9,140.2c-16.2,3.5-32.3-6.7-35.9-23
	c-3.5-16.2,6.7-32.3,23-35.9c16.2-3.5,32.3,6.7,35.9,23C148.4,120.6,138.1,136.7,121.9,140.2z M137.4,116.2c-0.8-0.2-1.6,0.2-1.9,1
	c-0.2,0.8,0.2,1.6,1,1.9c0.8,0.2,1.6-0.2,1.9-1C138.6,117.3,138.2,116.5,137.4,116.2z M131.1,94.4c-0.6,0.6-0.7,1.5-0.1,2.1
	c0.6,0.6,1.5,0.7,2.1,0.1c0.6-0.6,0.7-1.5,0.1-2.1C132.7,93.9,131.7,93.9,131.1,94.4z M137.2,104.5c-0.8,0.2-1.3,1-1.1,1.8
	c0.2,0.8,1,1.3,1.8,1.1c0.8-0.2,1.3-1,1.1-1.8C138.8,104.8,138,104.3,137.2,104.5z M119.9,131.4c-0.8,0.2-1.3,1-1.1,1.8
	c0.2,0.8,1,1.3,1.8,1.1c0.8-0.2,1.3-1,1.1-1.8C121.6,131.7,120.7,131.2,119.9,131.4z M129.6,126.4c-0.6,0.6-0.7,1.5-0.1,2.1
	c0.6,0.6,1.5,0.7,2.1,0.1c0.6-0.6,0.7-1.5,0.1-2.1C131.2,125.9,130.2,125.8,129.6,126.4z M128.3,106.4l-7.6,1.7
	c-1-1.9-3-3.2-5.1-3.3l-3.6-16.4c-0.2-0.8-1-1.3-1.8-1.1c-0.8,0.2-1.3,1-1.1,1.8l3.6,16.4c-2.4,1.2-3.8,3.9-3.2,6.6
	c0.7,3.3,3.9,5.3,7.2,4.6c2.7-0.6,4.6-3,4.7-5.7l7.6-1.7c0.8-0.2,1.3-1,1.1-1.8C130,106.8,129.2,106.2,128.3,106.4z M116.1,113.7
	c-1.6,0.3-3.2-0.7-3.6-2.3s0.7-3.2,2.3-3.6c1.6-0.3,3.2,0.7,3.6,2.3C118.7,111.8,117.7,113.4,116.1,113.7z"/>
<path fill="#00BDDA" d="M230.4,104.7c-0.3-0.1-0.6-0.1-0.9,0.1L205,123.4l-6.4-15.2c-0.1-0.2-0.4-0.5-0.7-0.5
	c-0.6-0.2-1.3,0.1-1.5,0.7c-0.1,0.3,0,0.6,0.1,0.8l6.9,16.1c0.1,0.2,0.4,0.5,0.7,0.5c0.3,0.1,0.6,0.1,0.9-0.1l25.5-19.1
	c0.3-0.1,0.5-0.3,0.6-0.6C231.4,105.4,231,104.9,230.4,104.7z"/>
<path fill="#00BDDA" d="M66.5,6.4c0.1,0.3,0.3,0.5,0.6,0.7l29.8,8l-8.2,14.3c-0.1,0.3-0.1,0.6,0,0.9c0.2,0.6,0.9,0.9,1.4,0.7
	c0.3-0.1,0.5-0.3,0.6-0.6l8.5-15.4c0.1-0.3,0.1-0.6,0-0.9c-0.1-0.3-0.3-0.5-0.6-0.7L68,5c-0.2-0.1-0.6-0.2-0.8-0.1
	C66.6,5.2,66.3,5.8,66.5,6.4z"/>
</svg>
