<?xml version="1.0" encoding="iso-8859-1"?>
<!-- Generator: Adobe Illustrator 18.0.0, SVG Export Plug-In . SVG Version: 6.00 Build 0)  -->
<!DOCTYPE svg PUBLIC "-//W3C//DTD SVG 1.1//EN" "http://www.w3.org/Graphics/SVG/1.1/DTD/svg11.dtd">
<svg version="1.1" id="&#x56FE;&#x5C42;_1" xmlns="http://www.w3.org/2000/svg" xmlns:xlink="http://www.w3.org/1999/xlink" x="0px"
	 y="0px" viewBox="0 0 226.77 226.77" style="enable-background:new 0 0 226.77 226.77;" xml:space="preserve">
<g id="Mouse">
	<g>
		<path style="fill:#FFFFFF;" d="M87.245,196.406c5.689,0,10.302-4.613,10.302-10.302s-4.613-10.302-10.302-10.302
			c-5.689,0-10.302,4.613-10.302,10.302S81.555,196.406,87.245,196.406z M192.57,1.21c-2.555-1.268-5.352-0.076-6.912,2.304
			c-11.57,17.652-26.953,34.071-54.901,18.305c-15.916-8.979-26.57-6.061-33.935-1.514c-7.566,4.678-12.828,12.908-14.286,21.812
			c-29.085,2.394-51.953,26.716-51.953,56.42v72.115c0,31.294,25.368,56.662,56.661,56.662c31.294,0,56.662-25.368,56.662-56.662
			V98.536c0-29.342-22.305-53.473-50.887-56.365c1.197-4.854,4.17-9.985,9.216-13.104c7.354-4.547,12.249-3.868,23.914,1.962
			c19.578,9.789,32.104,7.264,41.993,3.411c12.103-4.703,20.715-14.296,26.731-26.318C196.141,5.576,195.115,2.482,192.57,1.21z
			 M133.604,170.651c0,25.604-20.755,46.359-46.359,46.359c-25.604,0-46.359-20.755-46.359-46.359v-56.661h92.719V170.651z
			 M133.604,98.536v5.156H40.886v-5.156c0-23.859,18.029-43.492,41.208-46.058v51.209h10.302V52.479
			C115.576,55.044,133.604,74.677,133.604,98.536z"/>
	</g>
</g>
</svg>
