<?xml version="1.0" encoding="utf-8"?><!DOCTYPE svg PUBLIC "-//W3C//DTD SVG 1.1//EN" "http://www.w3.org/Graphics/SVG/1.1/DTD/svg11.dtd"><svg version="1.1" baseProfile="full" xmlns="http://www.w3.org/2000/svg" xmlns:xlink="http://www.w3.org/1999/xlink" xmlns:ev="http://www.w3.org/2001/xml-events"   height="555px"   width="602px" ><path stroke="rgb( 41, 144, 208 )" stroke-width="5.48px" stroke-dasharray="21.92, 10.96" stroke-linecap="round" stroke-linejoin="miter" fill="none" d="M20.194,351.466 C0.84199999999998,304.332 60.5700000000001,155.103 96.342,131.773 C158.14,91.468 106.956,214.519 106.324,215.656 C79.485,263.929 28.966,87.743 101.927,40.842 C138.954,17.042 176.011,22.186 209.78,31.173  "/><path fill="rgb( 229, 100, 81 )" d="M322.614,73.963 C313.18,77.412 305.284,79.221 297.637,78.784 C289.995,78.349 281.66,76.013 272.632,71.773 C268.766,69.958 263.605,67.535 259.39,64.77 C259.39,64.77 238.284,71.408 238.284,71.408 C237.34,71.754 237.34,71.754 236.05,71.148 C236.05,71.148 215.826,53.773 215.826,53.773 C215.826,53.773 215.48,52.823 215.48,52.823 C215.48,52.823 215.134,51.872 216.078,51.526 C216.078,51.526 218.468,46.347 218.468,46.347 C219.066,45.051 219.066,45.051 220.356,45.657 C220.356,45.657 237.184,44.888 237.184,44.888 C237.184,44.888 247.345,22.867 247.345,22.867 C247.345,22.867 237.093,9.38399999999999 237.093,9.38399999999999 C237.093,9.38399999999999 237.093,9.38399999999999 236.747,8.43299999999999 C236.401,7.483 236.401,7.483 237.345,7.13800000000001 C237.345,7.13800000000001 239.734,1.958 239.734,1.958 C240.333,0.66300000000001 241.276,0.31700000000001 241.622,1.268 C241.622,1.268 267.824,5.68799999999999 267.824,5.68799999999999 C268.768,5.34299999999999 269.114,6.29400000000001 269.46,7.244 C269.46,7.244 278.015,27.807 278.015,27.807 C283.172,30.231 287.986,31.7 291.853,33.518 C300.88,37.756 308.022,42.683 313.273,48.301 C318.526,53.918 322.238,61.177 325.698,70.681 C326.044,71.632 326.044,71.632 325.1,71.977 C323.558,73.618 323.558,73.618 322.614,73.963 Z "/><path fill="rgb( 255, 121, 101 )" d="M242.158,35.248 C242.158,35.248 247.345,22.867 247.345,22.867 C247.345,22.867 237.093,9.38399999999999 237.093,9.38399999999999 C237.093,9.38399999999999 237.093,9.38399999999999 236.747,8.43299999999999 C236.401,7.483 236.401,7.483 237.345,7.13800000000001 C237.345,7.13800000000001 239.734,1.958 239.734,1.958 C240.333,0.66300000000001 241.276,0.31700000000001 241.622,1.268 C241.622,1.268 267.824,5.68799999999999 267.824,5.68799999999999 C268.768,5.34299999999999 269.114,6.29400000000001 269.46,7.244 C269.46,7.244 278.015,27.807 278.015,27.807 C283.172,30.231 287.986,31.7 291.853,33.518 C300.88,37.756 308.022,42.683 313.273,48.301 C318.526,53.918 322.238,61.177 325.698,70.681 C326.044,71.632 326.044,71.632 325.1,71.977  "/><path fill="rgb( 255, 255, 255 )" d="M288.088,52.088 C288.169,51.942 288.245,51.792 288.314,51.637 C289.59,48.762 288.238,45.393 285.295,44.11 C283.553,43.351 281.643,43.494 280.11,44.332 C279.778,43.892 279.33,43.526 278.784,43.288 C277.113,42.559 275.172,43.292 274.448,44.923 C274.298,45.261 274.215,45.611 274.188,45.96 C272.496,45.883 270.86,46.81 270.146,48.42 C269.215,50.517 270.201,52.976 272.349,53.911 C272.395,53.932 272.441,53.95 272.488,53.968 C272.488,53.968 272.486,53.972 272.486,53.972 C272.486,53.972 275.006,55.069 275.006,55.069 C275.006,55.069 275.791,53.299 275.791,53.299 C274.89,51.806 274.701,49.931 275.453,48.236 C275.991,47.026 276.954,46.047 278.167,45.48 C278.635,45.26 279.201,45.457 279.43,45.92 C279.658,46.382 279.464,46.935 278.995,47.154 C278.187,47.532 277.545,48.185 277.186,48.991 C276.358,50.857 277.239,53.054 279.15,53.886 C281.061,54.719 283.29,53.878 284.119,52.012 C284.477,51.206 284.528,50.295 284.264,49.45 C284.11,48.96 284.39,48.444 284.888,48.299 C285.387,48.153 285.915,48.433 286.069,48.924 C286.466,50.193 286.389,51.558 285.852,52.767 C285.1,54.462 283.577,55.591 281.857,55.943 C281.857,55.943 281.071,57.712 281.071,57.712 C281.071,57.712 283.433,58.742 283.433,58.742 C283.433,58.742 283.434,58.738 283.434,58.738 C285.55,59.575 287.959,58.631 288.87,56.579 C289.56,55.024 289.196,53.272 288.088,52.088 ZM279.667,52.723 C278.47,52.202 277.921,50.832 278.439,49.663 C278.958,48.495 280.348,47.971 281.545,48.492 C282.741,49.014 283.291,50.383 282.772,51.552 C282.253,52.72 280.863,53.244 279.667,52.723 Z "/><path fill="rgb( 255, 121, 101 )" d="M552.91,466.631 C552.91,466.631 395.813,466.631 395.813,466.631 C395.813,466.631 395.813,535.355 395.813,535.355 C395.813,535.355 513.629,535.355 513.629,535.355 C513.629,535.355 513.629,555 513.629,555 C513.629,555 258.362,555 258.362,555 C258.362,555 258.362,535.345 258.362,535.345 C258.362,535.345 376.177,535.345 376.177,535.345 C376.177,535.345 376.177,466.621 376.177,466.621 C376.177,466.621 219.09,466.621 219.09,466.621 C191.982,466.621 170,444.649 170,417.532 C170,417.532 170,172.089 170,172.089 C170,144.982 191.992,123 219.09,123 C219.09,123 552.91,123 552.91,123 C580.018,123 602,144.992 602,172.089 C602,172.089 602,417.532 602,417.532 C602,444.649 580.008,466.631 552.91,466.631 C552.91,466.631 552.91,466.631 552.91,466.631 ZM582.354,181.906 C582.354,154.8 570.2,142.645 543.092,142.645 C543.092,142.645 228.898,142.645 228.898,142.645 C201.8,142.645 189.636,154.809 189.636,181.906 C189.636,181.906 189.636,407.714 189.636,407.714 C189.636,434.831 201.791,446.995 228.898,446.995 C228.898,446.995 543.082,446.995 543.082,446.995 C570.19,446.995 582.344,434.841 582.344,407.714 C582.344,407.714 582.344,181.906 582.344,181.906 C582.344,181.906 582.354,181.906 582.354,181.906 ZM493.993,289.902 C487.631,289.902 481.602,288.596 476.036,286.397 C476.036,286.397 444.127,331.961 444.127,331.961 C450.656,338.98 454.721,348.297 454.721,358.626 C454.721,380.323 437.147,397.906 415.439,397.906 C393.761,397.906 376.177,380.333 376.177,358.626 C376.177,352.205 377.866,346.226 380.605,340.865 C380.605,340.865 335.148,288.635 335.148,288.635 C332.566,289.391 329.905,289.902 327.087,289.902 C325.016,289.902 322.993,289.686 321.049,289.273 C321.049,289.273 283.064,342.672 283.064,342.672 C286.048,347.276 287.816,352.735 287.816,358.626 C287.816,374.894 274.64,388.089 258.371,388.089 C242.103,388.089 228.898,374.894 228.898,358.626 C228.898,342.358 242.093,329.182 258.362,329.182 C261.562,329.182 264.557,329.811 267.433,330.753 C267.433,330.753 304.32,278.925 304.32,278.925 C300.206,273.859 297.643,267.497 297.643,260.468 C297.643,244.19 310.819,230.995 327.087,230.995 C343.356,230.995 356.551,244.19 356.551,260.458 C356.551,266.712 354.568,272.485 351.259,277.246 C351.259,277.246 393.673,325.972 393.673,325.972 C399.907,321.819 407.398,319.365 415.449,319.365 C419.69,319.365 423.696,320.199 427.515,321.446 C427.515,321.446 459.551,275.735 459.551,275.735 C450.519,266.84 444.903,254.499 444.903,240.813 C444.903,213.706 466.875,191.734 493.993,191.734 C521.1,191.734 543.082,213.706 543.082,240.813 C543.092,267.929 521.1,289.902 493.993,289.902 C493.993,289.902 493.993,289.902 493.993,289.902 ZM258.362,348.808 C252.942,348.808 248.544,353.206 248.544,358.626 C248.544,364.055 252.942,368.453 258.362,368.453 C263.781,368.453 268.18,364.055 268.18,358.626 C268.18,353.206 263.781,348.808 258.362,348.808 C258.362,348.808 258.362,348.808 258.362,348.808 ZM327.087,250.64 C321.668,250.64 317.269,255.019 317.269,260.458 C317.269,265.878 321.668,270.276 327.087,270.276 C332.507,270.276 336.905,265.878 336.905,260.458 C336.905,255.029 332.507,250.64 327.087,250.64 C327.087,250.64 327.087,250.64 327.087,250.64 ZM415.439,339 C404.6,339 395.803,347.797 395.803,358.626 C395.803,369.474 404.6,378.271 415.439,378.271 C426.298,378.271 435.085,369.474 435.085,358.626 C435.085,347.797 426.298,339 415.439,339 C415.439,339 415.439,339 415.439,339 ZM493.993,211.369 C477.734,211.369 464.539,224.564 464.539,240.813 C464.539,257.081 477.734,270.276 494.002,270.276 C510.271,270.276 523.447,257.081 523.447,240.813 C523.447,224.564 510.261,211.369 493.993,211.369 C493.993,211.369 493.993,211.369 493.993,211.369 Z "/></svg>