<?xml version="1.0" encoding="UTF-8" standalone="no"?>
<svg width="593px" height="244px" viewBox="0 0 593 244" version="1.1" xmlns="http://www.w3.org/2000/svg" xmlns:xlink="http://www.w3.org/1999/xlink" xmlns:sketch="http://www.bohemiancoding.com/sketch/ns">
    <!-- Generator: Sketch 3.4.2 (15855) - http://www.bohemiancoding.com/sketch -->
    <title>vmsoft</title>
    <desc>Created with Sketch.</desc>
    <defs></defs>
    <g id="Page-1" stroke="none" stroke-width="1" fill="none" fill-rule="evenodd" sketch:type="MSPage">
        <g id="vmsoft" sketch:type="MSLayerGroup">
            <g id="Group" sketch:type="MSShapeGroup">
                <path d="M14.9,144.9 C14.9,144.9 54,77.5 129.4,101.6 C129.4,101.6 163.4,112.7 179.2,88.8 C179.2,88.8 247.7,-10.2 354.7,62 C354.7,62 372.4,72.7 382,89.3 C382,89.3 395.4,109.4 404.5,110.6 C411.7,111.6 411.1,112.2 432.9,103.7 C432.9,103.7 519.9,72.7 555.2,163.1 L567.8,157.5 L569.9,162.3 L558.9,167.1 L563.2,177 L572.3,172.7 L570.4,168.4 L574.1,166.8 L567.7,153.4 L584.3,145.4 C584.3,145.4 565.7,42.3 441.4,65.1 C441.4,65.1 418.7,75 403.4,58.1 C403.4,58.1 352.6,-22.7 241.8,6.7 C241.8,6.7 197.4,22.8 170.6,63.4 C170.6,63.4 160.7,85.5 135.3,80.5 C135.3,80.7 44.3,50.7 14.9,144.9 L14.9,144.9 Z" id="Shape" fill="#FFFFFF"></path>
                <path d="M37.7,242.7 L0.3,168.3 L20.1,168.3 L46.3,219.7 L73.1,168.3 L91.2,168.8 L54.3,243.2 L37.7,242.7 Z" id="Shape" fill="#E45F14"></path>
                <path d="M95,243.2 L112.1,243.2 L112.7,198.3 L144.2,242.1 L174.7,199.3 L175.3,243.2 L192.4,243.2 L192.4,169.4 L174.2,168.8 L145.8,207.9 L113.7,168.3 L95.5,168.8 L95,243.2 Z" id="Shape" fill="#DB251D"></path>
                <path d="M299.4,168.3 L215.4,168.8 C215.4,168.8 200.4,170.4 196.7,187.5 C196.7,187.5 194,208.4 211.7,213.7 L265.2,214.8 C265.2,214.8 272.2,218.5 265.7,226 L199.9,226 L200.4,243.7 L265.7,243.7 C265.7,243.7 286.6,242.1 285.5,220.2 C284.4,198.3 267.8,197.7 267.8,197.7 L216.4,197.7 C216.4,197.7 212.1,190.2 216.4,186.5 C220.7,182.8 287,185.4 287,185.4 C287,185.4 287.1,175.8 299.4,168.3 L299.4,168.3 Z" id="Shape" fill="#FFFFFF"></path>
                <path d="M388.2,168.3 L388.2,243.2 L404.8,243.2 L404.8,214.3 L463.7,214.3 L463.7,197.2 L405.4,197.2 L405.4,185.4 L467.5,185.4 L467.5,167.7 C467.4,167.8 389.8,168.3 388.2,168.3 L388.2,168.3 Z" id="Shape" fill="#FFFFFF"></path>
                <path d="M471.7,168.3 L471.7,185.4 L504.9,185.4 L504.9,243.2 L506.8,243.2 L506,240 L510,239.2 L510.3,237.3 L516.1,236.2 L517.2,237 L522,236 L522.6,237.3 L523.4,185.9 L556.5,185.7 L556.5,168.8 L471.7,168.3 Z" id="Shape" fill="#FFFFFF"></path>
                <path d="M291.9,188.1 C291.9,188.1 295.1,173.1 311.7,168.8 L361,168.8 C361,168.8 382.9,169.9 383.5,189.7 L383.5,221.8 C383.5,221.8 384,238.9 365.8,243.2 L313.9,243.7 C313.9,243.7 294.1,239.4 292,222.8 L292,188.1 L291.9,188.1 L291.9,188.1 Z M367.6,221.7 L367.6,191.6 C367.6,188.3 364.9,185.6 361.6,185.6 L315.4,185.6 C312.1,185.6 309.4,188.3 309.4,191.6 L309.4,221.7 C309.4,225 312.1,227.7 315.4,227.7 L361.6,227.7 C364.9,227.7 367.6,225 367.6,221.7 L367.6,221.7 Z" id="Shape" fill="#FFFFFF"></path>
                <rect id="Rectangle-path" fill="#FFFFFF" transform="translate(581.930570, 158.845220) rotate(153.019862) translate(-581.930570, -158.845220) " x="575.330302" y="152.244952" width="13.2005354" height="13.2005354"></rect>
                <rect id="Rectangle-path" fill="#FFFFFF" transform="translate(584.395850, 176.046360) rotate(153.019862) translate(-584.395850, -176.046360) " x="578.295603" y="169.946113" width="12.2004949" height="12.2004949"></rect>
                <rect id="Rectangle-path" fill="#FFFFFF" transform="translate(568.582970, 183.242460) rotate(153.019862) translate(-568.582970, -183.242460) " x="563.182751" y="177.842241" width="10.8004381" height="10.8004381"></rect>
                <rect id="Rectangle-path" fill="#FFFFFF" transform="translate(583.277270, 190.074890) rotate(153.019862) translate(-583.277270, -190.074890) " x="578.377071" y="185.174691" width="9.80039753" height="9.80039753"></rect>
                <rect id="Rectangle-path" fill="#FFFFFF" transform="translate(568.244780, 195.617160) rotate(154.677807) translate(-568.244780, -195.617160) " x="563.944861" y="191.317241" width="8.59983875" height="8.59983875"></rect>
                <rect id="Rectangle-path" fill="#FFFFFF" transform="translate(578.671460, 203.224720) rotate(154.677807) translate(-578.671460, -203.224720) " x="574.371541" y="198.924801" width="8.59983875" height="8.59983875"></rect>
                <rect id="Rectangle-path" fill="#FFFFFF" transform="translate(565.352250, 206.524020) rotate(161.440034) translate(-565.352250, -206.524020) " x="561.452213" y="202.623983" width="7.80007367" height="7.80007367"></rect>
                <rect id="Rectangle-path" fill="#FFFFFF" transform="translate(573.040910, 214.345330) rotate(161.440034) translate(-573.040910, -214.345330) " x="569.140873" y="210.445293" width="7.80007367" height="7.80007367"></rect>
                <rect id="Rectangle-path" fill="#FFFFFF" transform="translate(565.806210, 223.315340) rotate(161.440034) translate(-565.806210, -223.315340) " x="562.106175" y="219.615305" width="7.40006989" height="7.40006989"></rect>
                <rect id="Rectangle-path" fill="#FFFFFF" transform="translate(561.115845, 216.433135) rotate(166.690581) translate(-561.115845, -216.433135) " x="557.665991" y="212.983281" width="6.89970899" height="6.89970899"></rect>
                <rect id="Rectangle-path" fill="#FFFFFF" transform="translate(554.620615, 223.192675) rotate(171.083075) translate(-554.620615, -223.192675) " x="551.170664" y="219.742724" width="6.89990136" height="6.89990136"></rect>
                <rect id="Rectangle-path" fill="#FFFFFF" transform="translate(557.668470, 230.150820) rotate(171.083075) translate(-557.668470, -230.150820) " x="554.768511" y="227.250861" width="5.79991709" height="5.79991709"></rect>
                <rect id="Rectangle-path" fill="#FFFFFF" transform="translate(547.652070, 228.529660) rotate(171.083075) translate(-547.652070, -228.529660) " x="545.052107" y="225.929697" width="5.19992567" height="5.19992567"></rect>
                <rect id="Rectangle-path" fill="#FFFFFF" transform="translate(540.482950, 233.048910) rotate(171.083075) translate(-540.482950, -233.048910) " x="537.882987" y="230.448947" width="5.19992567" height="5.19992567"></rect>
                <rect id="Rectangle-path" fill="#FFFFFF" transform="translate(533.633815, 236.097065) rotate(171.083075) translate(-533.633815, -236.097065) " x="531.583844" y="234.047094" width="4.09994139" height="4.09994139"></rect>
                <rect id="Rectangle-path" fill="#FFFFFF" transform="translate(532.747280, 240.941500) rotate(171.083075) translate(-532.747280, -240.941500) " x="531.147303" y="239.341523" width="3.19995426" height="3.19995426"></rect>
                <rect id="Rectangle-path" fill="#FFFFFF" transform="translate(525.978300, 238.144120) rotate(171.083075) translate(-525.978300, -238.144120) " x="524.57832" y="236.74414" width="2.79995997" height="2.79995997"></rect>
                <rect id="Rectangle-path" fill="#FFFFFF" x="523.5" y="240.8" width="2" height="2"></rect>
                <rect id="Rectangle-path" fill="#FFFFFF" transform="translate(540.948160, 238.705830) rotate(173.269410) translate(-540.948160, -238.705830) " x="538.648179" y="236.405849" width="4.59996193" height="4.59996193"></rect>
                <rect id="Rectangle-path" fill="#FFFFFF" transform="translate(549.357340, 234.428250) rotate(171.083075) translate(-549.357340, -234.428250) " x="546.757377" y="231.828287" width="5.19992567" height="5.19992567"></rect>
                <rect id="Rectangle-path" fill="#FFFFFF" x="518.7" y="238.4" width="2" height="2"></rect>
                <rect id="Rectangle-path" fill="#FFFFFF" x="519.6" y="242.4" width="2" height="1.3"></rect>
                <rect id="Rectangle-path" fill="#FFFFFF" x="516.2" y="241.5" width="1.3" height="0.9"></rect>
                <rect id="Rectangle-path" fill="#FFFFFF" transform="translate(513.914805, 243.339385) rotate(170.728899) translate(-513.914805, -243.339385) " x="513.464822" y="243.039396" width="0.899966168" height="0.599977446"></rect>
                <rect id="Rectangle-path" fill="#FFFFFF" x="512.4" y="239.4" width="2" height="2"></rect>
                <rect id="Rectangle-path" fill="#FFFFFF" x="507.5" y="241" width="2.2" height="2.2"></rect>
            </g>
        </g>
    </g>
</svg>