<?xml version="1.0" encoding="utf-8"?>
<!-- Generator: Adobe Illustrator 18.0.0, SVG Export Plug-In . SVG Version: 6.00 Build 0)  -->
<!DOCTYPE svg PUBLIC "-//W3C//DTD SVG 1.1//EN" "http://www.w3.org/Graphics/SVG/1.1/DTD/svg11.dtd">
<svg version="1.1" id="图层_1" xmlns:ev="http://www.w3.org/2001/xml-events"
	 xmlns="http://www.w3.org/2000/svg" xmlns:xlink="http://www.w3.org/1999/xlink" x="0px" y="0px" viewBox="0 0 1799 902"
	 enable-background="new 0 0 1799 902" xml:space="preserve">
<path fill="none" stroke="#7C8996" stroke-width="4" d="M50,65h622c27.6,0,50,22.4,50,50v674c0,27.6-22.4,50-50,50H50
	c-27.6,0-50-22.4-50-50V115C0,87.4,22.4,65,50,65z"/>
<path fill="none" stroke="#7C8996" stroke-width="4" d="M330,837v14.5c0,27.9,22.4,50.5,50,50.5h1069c27.6,0,50-22.6,50-50.5V837"/>
<path fill="none" stroke="#7C8996" stroke-width="4" d="M330,65V50.5C330,22.6,352.4,0,380,0h1069c27.6,0,50,22.6,50,50.5V65"/>
<path fill="none" stroke="#7C8996" stroke-width="4" d="M1127,65h622c27.6,0,50,22.4,50,50v674c0,27.6-22.4,50-50,50h-622
	c-27.6,0-50-22.4-50-50V115C1077,87.4,1099.4,65,1127,65z"/>
<path fill="#7C8996" d="M1247,280h4v445h-4V280z"/>
<path fill="#7C8996" d="M1249,277c5,0,9,4,9,9c0,5-4,9-9,9s-9-4-9-9C1240,281,1244,277,1249,277z"/>
<path fill="#7C8996" d="M1249,357c5,0,9,4,9,9s-4,9-9,9s-9-4-9-9S1244,357,1249,357z"/>
<path fill="#7C8996" d="M1249,427c5,0,9,4,9,9c0,5-4,9-9,9s-9-4-9-9C1240,431,1244,427,1249,427z"/>
<path fill="#7C8996" d="M1249,500c5,0,9,4,9,9c0,5-4,9-9,9s-9-4-9-9C1240,504,1244,500,1249,500z"/>
<path fill="#7C8996" d="M1249,573c5,0,9,4,9,9c0,5-4,9-9,9s-9-4-9-9C1240,577,1244,573,1249,573z"/>
<path fill="#7C8996" d="M1249,645c5,0,9,4,9,9c0,5-4,9-9,9s-9-4-9-9C1240,649,1244,645,1249,645z"/>
<path fill="#7C8996" d="M1249,716c5,0,9,4,9,9c0,5-4,9-9,9s-9-4-9-9C1240,720,1244,716,1249,716z"/>
<path fill="#6BC042" d="M382.7,443.1L382.7,443.1l-0.6-0.8c-1.6-2.2-3.5-2.8-5.3-2.4c-0.7,0.2-1.5,0.6-2.2,1.1
	c-0.8,0.5-1.3,1.1-1.9,1.7c-1,1.4-1.1,3.4,0.3,5.4l0.1,0.1l0.1,0.1l10.6,15.4c2,2.8,1.2,6.8-1.5,8.6c-2.8,1.9-6.7,1.2-8.6-1.6
	c-11.4-16.5-22.8-32.9-34.3-49.5c-1.4-2.1-3.3-2.8-5.2-2.5c-0.8,0.3-1.5,0.6-2.3,1.2c-0.6,0.5-1.3,1.1-1.8,1.7
	c-0.9,1.6-1,3.8,0.4,5.8c18.9,27.3,37.8,54.6,56.7,81.9c1.9,2.8,1.3,6.6-1.5,8.5c-2.9,2-6.7,1.3-8.6-1.5L361.8,494l-0.1-0.1
	l-0.1-0.1c-1.4-2-3.3-2.5-5.1-2.3c-0.7,0.3-1.5,0.7-2.2,1.2c-0.7,0.5-1.3,1.1-1.7,1.6c-1,1.7-1.1,3.8,0.4,5.9l17.7,25.5
	c7,10.1,7.6,10.3,17.5,13.6l2.7,0.7l21.1,6.9c3.3,1.1,5.1,4.5,4,7.9c-1,3.2-4.6,5-7.8,3.9l-21-6.9l-2.8-0.8
	c-13.5-4.3-14.5-4.7-23.8-18.2l-17.7-25.5c-4.9-7.1-4.1-14.2-0.7-19.6c1.4-2.1,3.1-3.8,5-5.1c1.4-1,3-1.8,4.9-2.4l-31.6-45.6
	c-4.9-7-4.1-14.2-0.6-19.6c1.3-2.1,3.1-3.7,5-5.1c2-1.4,4.2-2.4,6.5-2.9c6.4-1.5,13.3,0.4,18.2,7.4l13.9,20.1c1.2-1.4,2.6-2.7,4-3.7
	c1.9-1.3,4.1-2.4,6.5-2.9c2.4-0.5,4.9-0.5,7.3,0c0.4-1.1,0.9-2.1,1.6-3.1c1.2-2,3-3.8,4.9-5.1c1.9-1.3,4.2-2.4,6.5-2.8
	c4.3-1,8.9-0.3,12.9,2.2c1.3-1.9,2.9-3.6,4.8-4.8c2-1.4,4.2-2.2,6.5-2.8c6.3-1.4,13.3,0.5,18.1,7.4l36.4,52.7l-0.1,0
	c0.3,0.4,0.5,0.8,0.6,1.2l11.5,29.9c1.3,3.2-0.3,6.8-3.4,8c-3.1,1.1-6.7-0.5-8.1-3.7l-11.1-29.1l-36-52c-1.5-2.1-3.4-2.8-5.1-2.4
	c-0.8,0.2-1.6,0.5-2.3,1.1c-0.7,0.5-1.3,1.1-1.7,1.7c-0.9,1.5-1.2,3.5,0.2,5.5l0,0.1l0.1,0.1l3.9,5.7c2,2.8,1.4,6.7-1.5,8.7
	c-2.7,1.9-6.7,1.2-8.6-1.6c-3.1-4.4-6.2-8.9-9.3-13.4c-1.5-2.1-3.5-2.7-5.2-2.4c-0.7,0.1-1.6,0.5-2.2,1c-0.8,0.5-1.3,1.1-1.8,1.8
	c-0.9,1.5-1.1,3.5,0.3,5.5l0.2,0.2l9.3,13.4c2,2.8,1.2,6.8-1.5,8.7c-2.9,2-6.7,1.2-8.6-1.6l-9.3-13.4l-0.3-0.4L382.7,443.1
	L382.7,443.1z M302.3,439.5L302.3,439.5c2.8-1.9,6.6-1.3,8.6,1.6c2,2.8,1.3,6.8-1.5,8.7l-18.1,12.5c-2.7,1.9-6.6,1.1-8.5-1.8
	c-2-2.8-1.3-6.6,1.4-8.5L302.3,439.5L302.3,439.5z M368,409.2L368,409.2c-2.9,2-6.7,1.2-8.7-1.7c-2-2.8-1.3-6.6,1.5-8.6l18-12.5
	c2.9-2,6.6-1.3,8.6,1.6c2,2.8,1.4,6.7-1.5,8.7L368,409.2L368,409.2z M319.5,391.2L319.5,391.2c1.9,2.8,1.3,6.6-1.6,8.5
	c-2.7,1.9-6.5,1.2-8.4-1.6l-12.8-18.5c-1.9-2.8-1.2-6.6,1.5-8.4c2.9-2,6.6-1.3,8.5,1.5L319.5,391.2L319.5,391.2z M347.3,390.2
	L347.3,390.2c-0.6,3.4-3.8,5.6-7.2,5c-3.4-0.7-5.6-3.9-5-7.3l3.8-21.8c0.6-3.4,3.8-5.6,7.1-4.9c3.4,0.7,5.6,3.9,5,7.3L347.3,390.2
	L347.3,390.2z M301,411.5L301,411.5c3.3,0.7,5.5,3.9,5,7.3c-0.7,3.4-3.9,5.6-7.2,5l-21.8-4.2c-3.5-0.5-5.7-3.8-5-7.3
	c0.5-3.3,3.7-5.5,7.2-5L301,411.5L301,411.5z"/>
<path fill="#7C8996" d="M1705.4,180.1v2.4h-7.7v9.5h-2.7v-9.5h-7.5v-2.4h7.5v-6.2h-6.5v-2.4h6.5v-5.4h-6.7v-2.4h16.6v2.4h-7.2v5.4
	h6.8v2.4h-6.8v6.2H1705.4z M1697.3,162.3c1.4-1.6,2.6-3.3,3.8-5l2.2,1.4c-1.4,1.9-2.7,3.5-4,5L1697.3,162.3z M1689.3,158.6l1.9-1.4
	c1.4,1.5,2.7,3.1,3.9,4.7l-2.1,1.5C1691.9,161.8,1690.7,160.2,1689.3,158.6z M1685.9,175.9h-2.5v-1.3h-6.5c-0.3,1.3-0.7,2.7-1.1,4
	h10.5v12.7h-2.5v-2h-7v2.2h-2.5v-9.6c-0.8,1.7-1.7,3.4-2.8,5.1c-0.4-0.9-1-1.9-1.6-3c2-2.8,3.5-5.9,4.3-9.4h-3.1v-2.2h3.5
	c0.2-1.3,0.3-2.6,0.4-4.1h-4.8V166h4.9c0-1.3,0.1-2.6,0.1-4h-4.1v-2.2h14.6v6.3h1.9v2.2h-1.9V175.9z M1676.9,187.1h7v-6.2h-7V187.1z
	 M1683.4,162h-5.5c0,1.4,0,2.7-0.1,4h5.6V162z M1683.4,168.2h-5.7c-0.1,1.5-0.2,2.9-0.4,4.1h6.1V168.2z M1667.8,191.7
	c-5.7-1.7-10.6-4.3-14.8-7.9v8.2h-2.5v-8.3c-4.3,3.6-9.2,6.2-14.8,8c-0.5-0.7-1-1.5-1.7-2.2c5-1.2,9.6-3.3,13.6-6.3h-12.3v-2.2h15.2
	v-2.4h2.5v2.4h15.1v2.2h-12.4c4.1,2.9,8.7,4.9,13.7,5.9C1668.9,190,1668.3,190.9,1667.8,191.7z M1642.1,179.1h-2.5v-12.5
	c-1.2,1.4-2.4,2.7-3.7,3.8c-0.4-0.7-0.9-1.5-1.7-2.3c3.4-2.8,6.3-6.3,8.6-10.5l2.4,1.1c-0.7,1.1-1.3,2.1-2,3.1h9.9
	c-0.6-1.1-1.4-2.2-2.2-3.3l2.1-1.3c1.1,1.2,2,2.4,2.7,3.6l-1.6,1h13.5v2.2h-13.3v2.5h11.8v2h-11.8v2.5h11.8v2h-11.8v2.6h13.4v2.2
	h-25.6V179.1z M1651.9,164h-9.7v2.5h9.7V164z M1651.9,168.5h-9.7v2.5h9.7V168.5z M1651.9,175.6v-2.6h-9.7v2.6H1651.9z M1624.8,172.3
	c2.7,1.3,4.5,2.6,5.6,3.8c1.1,1.3,1.6,2.7,1.6,4.3c0,2.4-0.9,4.2-2.6,5.5c-1.7,1.3-4.1,1.9-7.2,1.9c-1.1,0-2.3-0.1-3.8-0.4
	c-1.4-0.3-2.5-0.7-3.1-1.1v-4c0.8,0.7,1.9,1.3,3.3,1.8c1.4,0.5,2.7,0.7,4,0.7c3.8,0,5.7-1.4,5.7-4.1c0-0.8-0.2-1.4-0.6-2.1
	c-0.4-0.6-1-1.1-1.7-1.6c-0.7-0.5-2.1-1.2-4-2.2c-2.7-1.4-4.5-2.6-5.4-3.8c-0.9-1.2-1.3-2.5-1.3-4c0-2.3,0.9-4.1,2.7-5.4
	c1.8-1.3,4.1-2,6.9-2c2.7,0,4.7,0.3,6,1v3.8c-1.6-1.1-3.7-1.7-6.2-1.7c-1.7,0-3,0.3-4.1,1c-1,0.7-1.6,1.7-1.6,2.9
	c0,1.1,0.4,2,1.1,2.7C1620.8,170.1,1622.4,171.1,1624.8,172.3z M1601,172.4h9.7v3.1h-9.7v11.9h-3.5v-27.2h14v3.1H1601V172.4z
	 M1577.5,187.4h-7.5v-27.2h7.8c4.1,0,7.6,1.2,10.3,3.6c2.7,2.4,4.1,5.6,4.1,9.7c0,4.2-1.4,7.6-4.1,10.1
	C1585.4,186.1,1581.8,187.4,1577.5,187.4z M1585.5,165.8c-2-1.7-4.6-2.6-7.9-2.6h-4.1v21h4c3.5,0,6.2-0.9,8.1-2.8
	c1.9-1.9,2.9-4.5,2.9-7.9C1588.5,170.1,1587.5,167.5,1585.5,165.8z M1559.5,175.1h-13.8v12.3h-3.5v-27.2h3.5V172h13.8v-11.8h3.5
	v27.2h-3.5V175.1z M1526.7,185h-2.7v-7.6h-7.6v-2.7h7.6v-7.6h2.7v7.6h7.6v2.7h-7.6V185z M1507.3,187.4l-8.3-9.4h-0.1v9.4h-3.4v-28.8
	h3.4v18.2h0.1l7.9-8.9h4.4l-8.8,9.4l9.5,10.1H1507.3z M1489.8,170.7c-1.3,0-2.4,0.6-3.3,1.9c-0.9,1.2-1.3,2.9-1.3,4.9v9.8h-3.4
	v-19.4h3.4v4h0.1c1-2.9,2.7-4.3,5.1-4.3c0.8,0,1.4,0.1,1.8,0.3v3.5C1491.6,170.9,1490.8,170.7,1489.8,170.7z M1472.6,184.3
	L1472.6,184.3c-1.4,2.3-3.4,3.5-6,3.5c-1.9,0-3.4-0.5-4.5-1.5c-1.1-1-1.7-2.4-1.7-4.1c0-3.6,2.2-5.7,6.5-6.3l5.8-0.8
	c0-3.2-1.3-4.8-3.9-4.8c-2.3,0-4.5,0.8-6.4,2.4v-3.3c1.9-1.2,4.2-1.8,6.7-1.8c4.7,0,7,2.5,7,7.4v12.5h-3.4V184.3z M1472.6,177.6
	l-4.6,0.6c-1.6,0.2-2.7,0.6-3.3,1.2c-0.6,0.6-0.9,1.4-0.9,2.5c0,0.9,0.3,1.7,1,2.3c0.7,0.6,1.5,0.9,2.6,0.9c1.5,0,2.7-0.5,3.7-1.6
	c1-1.1,1.5-2.4,1.5-4V177.6z M1448.1,187.8c-2.5,0-4.4-1.1-5.8-3.2h-0.1v11.7h-3.4v-28.4h3.4v3.4h0.1c1.5-2.5,3.8-3.8,6.7-3.8
	c2.5,0,4.4,0.9,5.8,2.6c1.4,1.7,2.1,4.1,2.1,7c0,3.2-0.8,5.8-2.4,7.8C1453,186.8,1450.8,187.8,1448.1,187.8z M1452,172.1
	c-1-1.2-2.3-1.8-3.9-1.8c-1.7,0-3.1,0.6-4.2,1.8c-1.1,1.2-1.6,2.8-1.6,4.6v2.6c0,1.6,0.5,2.9,1.5,4c1,1.1,2.3,1.6,3.8,1.6
	c1.8,0,3.3-0.7,4.3-2.1c1-1.4,1.5-3.4,1.5-5.8C1453.4,174.9,1453,173.3,1452,172.1z M1426.7,172.3c2.7,1.3,4.5,2.6,5.6,3.8
	c1.1,1.3,1.6,2.7,1.6,4.3c0,2.4-0.9,4.2-2.6,5.5c-1.7,1.3-4.1,1.9-7.2,1.9c-1.1,0-2.3-0.1-3.8-0.4c-1.4-0.3-2.5-0.7-3.1-1.1v-4
	c0.8,0.7,1.9,1.3,3.3,1.8c1.4,0.5,2.7,0.7,4,0.7c3.8,0,5.7-1.4,5.7-4.1c0-0.8-0.2-1.4-0.6-2.1c-0.4-0.6-1-1.1-1.7-1.6
	c-0.7-0.5-2.1-1.2-4-2.2c-2.7-1.4-4.5-2.6-5.4-3.8c-0.9-1.2-1.3-2.5-1.3-4c0-2.3,0.9-4.1,2.7-5.4c1.8-1.3,4.1-2,6.9-2
	c2.7,0,4.7,0.3,6,1v3.8c-1.6-1.1-3.7-1.7-6.2-1.7c-1.7,0-3,0.3-4.1,1c-1,0.7-1.6,1.7-1.6,2.9c0,1.1,0.4,2,1.1,2.7
	C1422.7,170.1,1424.3,171.1,1426.7,172.3z M1379.5,189h5.2v-16.3h10.8v-2.3h-15.2v-2h15.2v-1.9h2.5v1.9h15.5v2H1398v2.3h11.5V189
	h4.9v2h-34.9V189z M1387.2,189h19.9v-2.2h-19.9V189z M1387.2,184.9h19.9v-2.2h-19.9V184.9z M1387.2,180.8h19.9v-2.2h-19.9V180.8z
	 M1387.2,176.8h19.9v-2.2h-19.9V176.8z M1408.9,166.1h-24v0.8h-2.4V159h28.8v7.8h-2.4V166.1z M1391.4,160.9h-6.4v3.2h6.4V160.9z
	 M1400.2,160.9h-6.4v3.2h6.4V160.9z M1408.9,160.9h-6.5v3.2h6.5V160.9z M1369.4,188.4h3.3c1.4,0,2.2-0.7,2.4-2.1
	c0.3-1.6,0.5-3.5,0.6-5.7c0.7,0.3,1.5,0.7,2.6,1.2c-0.2,1.9-0.4,3.7-0.7,5.4c-0.4,2.5-1.9,3.7-4.4,3.7h-4.5c-2.8,0-4.2-1.7-4.2-5
	v-15h9.3v-9.1h-9.9v-2.5h12.4v15.4h-2.5v-1.4h-6.8v12.2C1367,187.4,1367.8,188.4,1369.4,188.4z M1356.8,166.6h5.1v25.1h-2.4v-2.2
	h-12.1v2.3h-2.4v-25.1h4.8V162h-5.9v-2.3h18.6v2.3h-5.8V166.6z M1347.5,187.2h12.1v-4.2h-12.1V187.2z M1350,168.8h-2.5v8.8
	c1.6-1.9,2.5-4.4,2.5-7.5V168.8z M1354.6,162h-2.4v4.6h2.4V162z M1354.6,174.5v-5.7h-2.4v1.4c0,3.8-1,6.9-2.9,9.3
	c-0.6-0.6-1.2-1.1-1.8-1.7v2.9h12.1v-3.4h-2.5C1355.4,177.4,1354.6,176.4,1354.6,174.5z M1358.1,175.2h1.4v-6.4h-2.7v4.9
	C1356.8,174.7,1357.2,175.2,1358.1,175.2z M1338,187.7h-9.9v3.4h-2.8v-29.4h15.5v29.4h-2.8V187.7z M1338,164.3h-9.9v20.8h9.9V164.3z
	 M1318.2,173.8c1.9,1.6,3.7,3.3,5.4,5.1l-2,2c-1.4-1.6-3-3.3-4.7-5v16.3h-2.7v-16.9c-1.4,3.5-3.2,6.8-5.6,9.9
	c-0.4-0.9-0.8-1.9-1.3-3c2.7-3.5,4.8-7.5,6.4-11.8h-6.2v-2.4h6.7v-5.6c-1.8,0.3-3.7,0.5-5.6,0.8c-0.2-0.8-0.5-1.6-0.8-2.4
	c4.9-0.5,9.6-1.3,14.2-2.4l0.8,2.5c-1.9,0.4-3.9,0.8-6,1.1v6h6.6v2.4h-6.6v4.5L1318.2,173.8z M1289.8,190.7c-5.2,0-9.2-1.2-12-3.7
	c-1.3,1.9-2.9,3.6-4.8,5c-0.4-0.7-0.9-1.4-1.4-2.3c1.8-1.3,3.2-2.9,4.4-4.7c-1.6-2-2.9-4.8-3.9-8.5l2.3-0.9c0.7,2.9,1.7,5.2,3,7
	c1.3-2.6,2-5.5,2.4-8.9h-7v-2.6l6.5-8h-7.2v-2.4h10.4v2.4l-6.6,8.2h6.6v2.1c-0.4,4.3-1.5,8.1-3.2,11.3c2.6,2.2,6.5,3.3,11.9,3.4
	c4.5,0.1,9.6,0,15.5-0.2c-0.4,1-0.8,1.9-1.2,2.8C1300,190.8,1294.8,190.8,1289.8,190.7z M1302.4,174.4h-2.5v-0.9h-5.6v3.1h8.9v2.1
	h-8.9v3.1h10.5v2.1h-10.5v3.6h-2.6v-3.6h-9v-2.1h9v-3.1h-7.8v-2.1h7.8v-3.1h-7.3v-2.1h7.3v-3.1h-9.1v-2.2h9.1V163h-7.3v-2.1h7.3
	v-3.4h2.6v3.4h8.2v5.2h3.7v2.2h-3.7V174.4z M1299.9,163h-5.6v3.1h5.6V163z M1299.9,168.3h-5.6v3.1h5.6V168.3z M1263.9,175v1.9h-12.7
	v-1.6c-1.4,1.1-2.9,2.2-4.5,3.3c-0.4-0.5-1-1.3-1.8-2.2c5.1-3.1,9-6.5,11.8-10.2h3.3l-0.5,0.6c2.5,3.7,6.2,6.6,11,8.8
	c-0.8,1-1.4,1.8-1.8,2.6C1266.9,177.1,1265.3,176.1,1263.9,175z M1257.9,168.7c-1.6,2-3.5,3.9-5.8,5.8h11.1
	C1261,172.7,1259.2,170.8,1257.9,168.7z M1264.1,167.5h-2.6V164h-7.3v3.5h-2.6V164h-4.7v-2.5h4.7v-3.8h2.6v3.8h7.3v-3.8h2.6v3.8h5.6
	v2.5h-5.6V167.5z M1246.3,170.6c0.1,1.2,0.2,2.1,0.3,2.8c-0.8,0.4-2.2,1.1-4.1,2.1V188c0,2.4-1,3.7-3,3.8c-1,0.1-2,0.1-3.2,0.1
	c-0.1-0.9-0.2-1.9-0.4-2.9c1.1,0.1,2.1,0.1,2.7,0.1c0.9,0,1.3-0.5,1.3-1.5v-10.8c-1.2,0.6-2.5,1.3-3.9,2l-0.4-3.1
	c1.5-0.6,2.9-1.2,4.3-1.9v-7h-4.2v-2.5h4.2v-6.8h2.6v6.8h4v2.5h-4v5.7C1243.8,171.9,1245.1,171.3,1246.3,170.6z M1227.6,190.7h-18.5
	c-3.7,0-5.6-1.9-5.6-5.8v-13.5h24v-9.1h-24.8v-2.6h27.6v16.2h-2.9V174h-21.2v10.7c0,2.2,1.1,3.2,3.2,3.2h17.2c2.1,0,3.3-0.7,3.7-2
	c0.4-1.1,0.6-3,0.9-5.7c1,0.4,2,0.8,3.1,1.1c-0.4,2.6-0.7,4.5-1,5.7C1232.9,189.5,1230.9,190.7,1227.6,190.7z M1191.8,189.9h-21.7
	v2.1h-2.8v-29.7h9.1c0.5-1.4,1.1-3,1.7-4.9l3,0.9c-0.6,1.5-1.2,2.8-1.7,3.9h15.3V192h-2.8V189.9z M1191.8,164.8h-21.7v5.8h21.7
	V164.8z M1191.8,173.1h-21.7v5.8h21.7V173.1z M1191.8,181.4h-21.7v5.9h21.7V181.4z M1266.8,192.3h-2.7v-1.9h-12.8v1.9h-2.7v-12.4
	h18.2V192.3z M1264.1,182.2h-12.8v5.8h12.8V182.2z"/>
<path fill="#7C8996" d="M589,164.5c-2.2,0-4,0.5-5.4,1.4c-1.4,0.9-2.1,2.2-2.1,3.9c0,1.5,0.5,2.7,1.5,3.6c1,0.9,3.1,2.2,6.3,3.8
	c3.6,1.7,6.1,3.4,7.5,5.1s2.1,3.6,2.1,5.7c0,3.2-1.2,5.6-3.5,7.3c-2.3,1.7-5.5,2.6-9.6,2.6c-1.4,0-3.1-0.2-5-0.6s-3.3-0.9-4.2-1.5
	v-5.3c1.1,1,2.6,1.8,4.5,2.4c1.9,0.6,3.6,0.9,5.3,0.9c5.1,0,7.6-1.8,7.6-5.4c0-1-0.3-1.9-0.8-2.7c-0.5-0.8-1.3-1.5-2.2-2.2
	c-1-0.6-2.7-1.6-5.4-2.9c-3.6-1.8-6-3.5-7.2-5c-1.2-1.6-1.7-3.3-1.7-5.3c0-3,1.2-5.4,3.6-7.2c2.4-1.8,5.5-2.6,9.2-2.6
	c3.6,0,6.3,0.4,7.9,1.3v5.1C595.1,165.2,592.4,164.5,589,164.5z M557.4,177.3h13v4.1h-13v15.9h-4.7v-36.3h18.7v4.2h-14V177.3z
	 M526.2,197.2h-10v-36.3h10.4c5.5,0,10.1,1.6,13.7,4.8c3.6,3.2,5.5,7.5,5.5,12.9c0,5.6-1.8,10.1-5.5,13.5
	C536.6,195.6,531.9,197.2,526.2,197.2z M536.8,168.5c-2.7-2.3-6.1-3.4-10.5-3.4h-5.5v28h5.3c4.6,0,8.2-1.3,10.8-3.8
	c2.6-2.5,3.9-6,3.9-10.6C540.8,174.2,539.5,170.8,536.8,168.5z M502.1,180.9h-18.4v16.4h-4.7v-36.3h4.7v15.8h18.4v-15.8h4.7v36.3
	h-4.7V180.9z M458.4,194.1h-3.5V184h-10.1v-3.6h10.1v-10.1h3.5v10.1h10.2v3.6h-10.2V194.1z M432.5,197.2l-11.1-12.5h-0.1v12.5h-4.6
	v-38.4h4.6v24.3h0.1l10.5-11.9h5.9l-11.7,12.5l12.6,13.5H432.5z M409.1,175.1c-1.8,0-3.2,0.8-4.4,2.5c-1.2,1.7-1.7,3.9-1.7,6.6v13.1
	h-4.6v-25.9h4.6v5.3h0.1c1.3-3.8,3.6-5.7,6.8-5.7c1,0,1.9,0.1,2.4,0.4v4.6C411.5,175.3,410.5,175.1,409.1,175.1z M386.2,193.2h-0.1
	c-1.8,3.1-4.4,4.6-7.9,4.6c-2.5,0-4.5-0.7-6-2c-1.5-1.4-2.2-3.2-2.2-5.5c0-4.8,2.9-7.7,8.6-8.5l7.7-1.1c0-4.2-1.8-6.4-5.2-6.4
	c-3.1,0-5.9,1-8.5,3.1v-4.4c2.6-1.6,5.6-2.4,8.9-2.4c6.2,0,9.4,3.3,9.4,9.8v16.7h-4.5V193.2z M386.2,184.2l-6.1,0.8
	c-2.1,0.3-3.6,0.8-4.4,1.6c-0.8,0.8-1.2,1.9-1.2,3.3c0,1.2,0.4,2.2,1.3,3c0.9,0.8,2,1.2,3.5,1.2c2,0,3.6-0.7,4.9-2.1
	c1.3-1.4,1.9-3.2,1.9-5.3V184.2z M353.6,197.9c-3.3,0-5.9-1.4-7.7-4.3h-0.1v15.6h-4.6v-37.9h4.6v4.5h0.1c2-3.4,5-5.1,8.9-5.1
	c3.3,0,5.9,1.2,7.8,3.5c1.9,2.3,2.8,5.4,2.8,9.3c0,4.3-1.1,7.8-3.2,10.4C360.1,196.6,357.2,197.9,353.6,197.9z M358.8,176.9
	c-1.3-1.6-3-2.4-5.2-2.4c-2.3,0-4.1,0.8-5.6,2.4s-2.2,3.7-2.2,6.2v3.4c0,2.1,0.7,3.9,2,5.3c1.4,1.4,3.1,2.2,5.1,2.2
	c2.4,0,4.3-0.9,5.7-2.8s2.1-4.5,2.1-7.8C360.7,180.7,360.1,178.5,358.8,176.9z M325.1,177.1c3.6,1.7,6.1,3.4,7.5,5.1
	c1.4,1.7,2.1,3.6,2.1,5.7c0,3.2-1.2,5.6-3.5,7.3c-2.3,1.7-5.5,2.6-9.6,2.6c-1.4,0-3.1-0.2-5-0.6s-3.3-0.9-4.2-1.5v-5.3
	c1.1,1,2.6,1.8,4.5,2.4c1.9,0.6,3.6,0.9,5.3,0.9c5.1,0,7.6-1.8,7.6-5.4c0-1-0.3-1.9-0.8-2.7c-0.5-0.8-1.3-1.5-2.2-2.2
	s-2.7-1.6-5.4-2.9c-3.6-1.8-6-3.5-7.2-5c-1.2-1.6-1.7-3.3-1.7-5.3c0-3,1.2-5.4,3.6-7.2c2.4-1.8,5.5-2.6,9.2-2.6
	c3.6,0,6.3,0.4,7.9,1.3v5.1c-2.2-1.5-5-2.3-8.3-2.3c-2.2,0-4,0.5-5.4,1.4c-1.4,0.9-2.1,2.2-2.1,3.9c0,1.5,0.5,2.7,1.5,3.6
	C319.8,174.3,321.9,175.5,325.1,177.1z M281.4,185.9h20.2v17.7h-3.3v-2.2h-23.8v2.2h-3.3V190c-2.5,1-5.1,1.9-7.6,2.7
	c-0.4-0.8-1-1.8-1.9-3c7-2,13.9-4.6,20.7-7.6h-19.9v-2.7h17.6v-3.6h-13.1v-2.6h13.1v-2.8h3.3v2.8h11.1v2.6h-11.1v3.6h4.8
	c4.8-2.3,9.4-4.9,14.1-7.7l2.1,2.4c-3.3,1.9-6.5,3.6-9.8,5.3h13.6v2.7h-19C286.7,183.5,284,184.7,281.4,185.9z M274.6,198.7h23.8
	V195h-23.8V198.7z M274.6,188.7v3.6h23.8v-3.8h-23.4L274.6,188.7z M301.5,169.7h-32.5v1.5h-3.2v-12.1h38.9v11.5h-3.2V169.7z
	 M277.8,161.9h-8.8v5h8.8V161.9z M289.7,161.9h-8.8v5h8.8V161.9z M301.5,161.9h-8.8v5h8.8V161.9z M254.2,196.6
	c-1.6,0.2-3.7,0.1-6.4-0.2c-0.2-1.1-0.4-2.5-0.6-4.1c2.3,0.4,4.2,0.6,5.9,0.6c2.8,0,4-1.9,3.8-5.7c-0.1-3.3-2.5-6.8-7.2-10.3
	c2-4,4.1-8.5,6.2-13.5h-9.6v40h-3.6V160h16.9v3.8c-1.2,3.2-3.1,7.2-5.7,12.3c4.4,3.4,6.6,7.4,6.6,11.8
	C260.6,193.3,258.5,196.2,254.2,196.6z M214.3,176.1h15c1.9-3.2,3.4-6.2,4.5-8.8l3.5,1.8c-1.4,2.4-2.8,4.7-4.3,7h8.2v3.1h-26.9
	V176.1z M222.5,176c-1-2-2.3-4.2-3.9-6.8l2.9-1.7c1.6,2.2,3,4.4,4.3,6.7L222.5,176z M215.4,163.7h11.7c-0.6-1.4-1.5-3.1-2.8-5.2
	l3.2-1.5c1.4,2.3,2.4,4.2,3,5.6l-2.3,1.1h12.1v3.1h-25V163.7z M197.6,201.7c-5-0.1-9.1-1.9-12.4-5.6c-1.5,2.8-3.3,5.3-5.6,7.5
	c-0.4-0.7-1.2-1.6-2.3-2.8c2.4-2.1,4.3-4.6,5.7-7.5c-1.5-2.3-2.8-5.1-3.8-8.4l2.7-1.2c0.8,2.3,1.6,4.3,2.6,6c1-3.1,1.5-6.6,1.6-10.5
	h-5.9V176l5.8-11.1h-5.4V162h8.9v3l-5.9,11.3h5.6v2.7c-0.1,5.2-1,9.8-2.6,13.9c2.8,3.5,6.4,5.4,10.6,5.6c3.8,0.3,9,0.2,15.6-0.1
	c-0.4,1-0.9,2.1-1.4,3.4C206.1,202,201.5,202,197.6,201.7z M209.1,179.1h-3.1V178h-5.1v4.2h8.3v2.7h-8.3v4.3h8.8v2.7h-8.8v5.3h-3.2
	v-5.3h-8.2v-2.7h8.2v-4.3h-7.2v-2.7h7.2V178h-6.4v-2.7h6.4v-4h-8.7v-2.7h8.7v-3.9h-6.5v-2.7h6.5v-4.6h3.2v4.6h8.2v6.7h3.1v2.7h-3.1
	V179.1z M206.1,164.6h-5.1v3.9h5.1V164.6z M206.1,171.3h-5.1v4h5.1V171.3z M169.3,172.5h9.5v3.1h-4.3v5.2h5.7v3.1h-5.7v10.3
	c1.2-0.9,2.6-2.1,4.2-3.7c0.2,1.2,0.4,2.4,0.8,3.7c-1.5,1.2-3.2,2.5-4.9,3.9c-0.9,0.7-1.7,1.5-2.6,2.4l-2.3-3c1.1-1,1.6-2.4,1.6-4
	v-9.6h-5v-3.1h5v-5.2h-2.4v-2.3c-0.3,0.6-0.7,1.2-1,1.8c-0.8-1.1-1.5-2-2.2-2.8c2.7-4.5,4.6-9.5,5.9-15l3.3,0.8
	c-0.6,2.2-1.2,4.3-1.9,6.3h6.7v3.1h-7.9C171,169.2,170.2,170.9,169.3,172.5z M118.2,177h46.6v4.1h-46.6V177z M238,203.2h-3.5v-3.5
	h-13.3v3.5h-3.5v-19.1H238V203.2z M234.5,187.2h-13.3v9.2h13.3V187.2z"/>
<path fill="#6BC042" d="M378,837l344-245v111L518,838L378,837z"/>
<path fill="#7C8996" d="M990.4,389.2c-10,0-18.2,2.1-24.5,6.3c-6.3,4.2-9.5,10-9.5,17.5c0,6.6,2.2,12,6.6,16.2
	c4.4,4.2,13.9,9.8,28.5,17c16.1,7.7,27.3,15.4,33.8,23.1c6.4,7.7,9.6,16.3,9.6,25.9c0,14.4-5.2,25.4-15.7,33.1
	c-10.4,7.7-24.9,11.5-43.5,11.5c-6.5,0-14.1-0.9-22.7-2.7c-8.6-1.8-14.9-4-18.9-6.7v-24.1c5,4.4,11.7,8,20.1,10.8
	c8.4,2.8,16.4,4.2,23.9,4.2c23,0,34.5-8.2,34.5-24.6c0-4.6-1.2-8.7-3.7-12.4c-2.5-3.7-5.9-6.9-10.2-9.7c-4.3-2.8-12.4-7.2-24.2-13
	c-16.4-8.2-27.3-15.8-32.5-22.8c-5.2-7-7.8-15-7.8-24.1c0-13.6,5.5-24.4,16.4-32.4c10.9-8,24.7-12,41.4-12c16.3,0,28.3,2,35.9,5.9
	v23.1C1018,392.6,1005.5,389.2,990.4,389.2z M835,537.2l-59.1-164h23.5l44.1,128.2c1.5,4.2,2.6,9.1,3.3,14.7h0.5
	c0.6-4.9,1.8-9.8,3.7-14.9l45-128h22.6l-60.2,164H835z"/>
<path fill="#6BC042" d="M540.3,722c-0.4,0-0.8,0-1.3-0.2c-0.8-0.2-18.9-4.7-22.5-20.1c-3.4-14.3,6.8-31.1,30.9-51.5
	c16.6-14,24.3-25.2,22.5-32.4c-3.4-13.5-39.6-21.2-77.9-29.4c-5-1.1-10.2-2.2-15.5-3.3c-20.8-4.5-32.7-12.9-35.2-24.9
	c-5.2-24.8,32.9-53.1,37.2-56.2c2.4-1.7,5.7-1.2,7.4,1.2c1.7,2.4,1.2,5.7-1.2,7.4c-9.6,6.9-36.2,30.2-33,45.5
	c2,9.4,15.8,14.3,27.1,16.7c5.2,1.1,10.4,2.2,15.4,3.3c47,10,81,17.2,86,37.2c3,11.9-5.3,25.6-26,43.1
	c-19.9,16.8-29.7,31.3-27.5,40.9c2.1,9,14.5,12.2,14.7,12.3c2.8,0.7,4.6,3.6,3.9,6.4C544.9,720.4,542.7,722,540.3,722z"/>
<path fill="#FFFFFF" d="M676.7,693.5c-0.2,1-0.7,1.9-1.6,2.5c-1.1,0.8-2.2,1.1-3.3,1c-1.1-0.1-1.9-0.6-2.5-1.5
	c-0.6-0.9-0.8-1.9-0.6-2.9c0.2-1,0.8-1.9,1.8-2.6c1-0.7,2-1,3-0.8c1.1,0.1,1.9,0.6,2.5,1.5C676.7,691.5,676.9,692.5,676.7,693.5z
	 M651.7,670.2l6.1-4.3l13,19.7l-4.7,3.3L651.7,670.2z M643.5,731.2l-3.3-4.6c1.1-0.1,2.1-0.5,3-1.2c1.6-1.1,2.1-2.7,1.7-4.7
	l-0.8-3.4L622,703.3l6.4-4.6l12.7,9.7c0.8,0.6,1.5,1.3,2.3,2.2l0.1-0.1c-0.4-0.7-0.8-1.7-1.2-2.9l-4.9-15.3l5.7-4.1l7.2,27.4
	c1.7,6.4,0.6,10.9-3.2,13.6C645.8,730.3,644.5,731,643.5,731.2z M617.3,712c-0.9,0.7-1.5,1.3-1.9,2.1c-0.3,0.7-0.3,1.4,0.1,1.9
	c0.6,0.9,2,1,4.1,0.4c2.2-0.7,4-1.1,5.2-1.3c1.3-0.2,2.4,0,3.4,0.5c1,0.5,1.9,1.2,2.7,2.3c1.5,2,1.8,4.2,0.9,6.5
	c-0.8,2.3-2.6,4.4-5.4,6.4c-2.1,1.5-4.4,2.6-6.7,3.2l-3.4-4.8c2.8-0.2,5.2-1,7.1-2.3c2.4-1.7,3.1-3.2,2.2-4.5
	c-0.6-0.9-2.2-1-4.6-0.2c-3,1-5.3,1.3-6.9,1.1c-1.6-0.3-3-1.2-4.1-2.8c-1.4-1.9-1.7-4-0.9-6.3c0.8-2.2,2.5-4.3,5-6.1
	c1.8-1.3,3.8-2.3,5.8-2.9l3.2,4.6C621.1,709.9,619.1,710.7,617.3,712z M610.2,741.6l-2.1-2.9l-0.1,0.1c0.3,3.2-0.9,5.7-3.5,7.6
	c-1.9,1.3-3.8,1.9-5.7,1.6c-1.9-0.3-3.5-1.3-4.8-3.2c-2.7-3.8-2-7.6,2.1-11.5l4.9-4.6c-1.6-2.3-3.7-2.6-6.1-0.9
	c-2.4,1.7-4.1,4-5.2,6.9l-3.2-4.5c0.5-1.1,1.4-2.4,2.7-3.8c1.3-1.4,2.4-2.4,3.5-3.2c5.5-4,10.3-3.2,14.3,2.4l8.5,12L610.2,741.6z
	 M604.5,733.5l-1-1.4l-3.4,3.2c-1.9,1.8-2.3,3.5-1.1,5.1c0.5,0.7,1.2,1.2,2,1.2c0.8,0.1,1.7-0.2,2.5-0.8c1.2-0.8,1.9-2,2-3.3
	C605.8,736.1,605.4,734.8,604.5,733.5z M589.8,743.7l-13,9.3c2.4,2.9,5.3,3.1,8.8,0.6c2.2-1.6,3.7-3.5,4.6-5.7l3,4.2
	c-1.1,2.3-3.1,4.5-6,6.6c-3.2,2.2-6.2,3.1-9.3,2.6c-3-0.5-5.7-2.4-7.9-5.6c-2.3-3.2-3.2-6.4-2.7-9.7c0.5-3.3,2.1-6,4.9-8
	c2.8-2,5.6-2.7,8.4-2.1s5.3,2.3,7.4,5.3L589.8,743.7z M575.1,742c-1,0.7-1.6,1.7-1.8,3.1c-0.2,1.4,0.1,2.8,0.9,4.2l7.7-5.5
	C579.7,740.9,577.5,740.3,575.1,742z M552.8,783.3c-3.2,2.3-6.4,3.2-9.7,2.7c-3.2-0.5-5.9-2.3-8.2-5.5c-2.3-3.3-3.2-6.5-2.6-9.8
	c0.6-3.3,2.6-6.1,5.9-8.4c3.2-2.3,6.4-3.2,9.6-2.7c3.2,0.5,5.9,2.3,8.1,5.4c2.3,3.2,3.2,6.5,2.6,9.8
	C558,778.2,556.1,781,552.8,783.3z M550.1,769.3c-2.8-3.9-5.7-4.7-8.8-2.5c-1.5,1.1-2.3,2.4-2.4,4.1c-0.1,1.6,0.5,3.4,1.9,5.3
	c2.8,4,5.8,4.8,9.1,2.5C552.9,776.5,553,773.4,550.1,769.3z M535.2,786.1c1.5,2,1.8,4.2,0.9,6.5c-0.8,2.3-2.6,4.4-5.3,6.4
	c-2.2,1.5-4.4,2.6-6.7,3.2l-3.4-4.8c2.8-0.2,5.2-1,7.1-2.3c2.4-1.7,3.1-3.2,2.2-4.5c-0.6-0.9-2.2-1-4.6-0.2c-3,1-5.3,1.3-6.9,1.1
	c-1.6-0.3-3-1.2-4.1-2.8c-1.4-1.9-1.7-4-0.9-6.3c0.8-2.2,2.5-4.3,5-6.1c1.8-1.3,3.8-2.3,5.8-2.9l3.2,4.6c-2.2,0.2-4.2,0.9-6.1,2.3
	c-0.9,0.7-1.5,1.3-1.9,2.1c-0.3,0.7-0.3,1.4,0.1,1.9c0.6,0.9,2,1,4.1,0.4c2.2-0.7,4-1.1,5.2-1.3c1.3-0.2,2.4,0,3.4,0.5
	C533.5,784.3,534.4,785.1,535.2,786.1z"/>
<path fill="#F48530" d="M1455,838l344-245v111l-204,135L1455,838z"/>
<path fill="#FFFFFF" d="M1740.1,704c-0.2,1-0.7,1.9-1.6,2.5c-1.1,0.8-2.2,1.1-3.3,1s-1.9-0.6-2.5-1.5c-0.6-0.9-0.8-1.9-0.6-2.9
	c0.2-1,0.9-1.9,1.8-2.6c1-0.7,2-1,3-0.9c1.1,0.1,1.9,0.6,2.5,1.5C1740.1,702,1740.3,703,1740.1,704z M1715.2,680.7l6.1-4.3l13,19.7
	l-4.7,3.3L1715.2,680.7z M1722.9,700.9l1.8,2.5l-13,9.3c2.4,2.9,5.3,3.1,8.8,0.6c2.2-1.6,3.7-3.5,4.6-5.7l3,4.2
	c-1.1,2.3-3.1,4.5-6,6.6c-3.2,2.2-6.2,3.1-9.3,2.6c-3-0.5-5.7-2.4-7.9-5.6c-2.3-3.2-3.2-6.4-2.7-9.7c0.5-3.3,2.1-6,4.9-8
	c2.8-2,5.6-2.7,8.4-2.1S1720.7,697.9,1722.9,700.9z M1709.9,701.7c-1,0.7-1.6,1.7-1.8,3.1c-0.2,1.4,0.1,2.8,0.9,4.2l7.7-5.5
	C1714.5,700.6,1712.3,700,1709.9,701.7z M1702,732l-20.9-29.3l5.8-4.1l20.9,29.3L1702,732z M1683.2,718.6c2.7,0.7,5.1,2.6,7.3,5.7
	c2.3,3.3,3.4,6.5,3.2,9.7c-0.2,3.2-1.6,5.7-4.3,7.6c-2.5,1.8-5,2.1-7.6,1.1l-0.1,0.1l1.7,2.4l-5.8,4.1l-20.9-29.3l5.8-4.1l8.9,12.5
	l0.1-0.1c-0.2-3.4,1.2-6.1,4-8.1C1678,718.4,1680.6,717.9,1683.2,718.6z M1676.5,726.2c-1.3,0.9-2,2.2-2.2,3.7
	c-0.2,1.6,0.3,3.1,1.4,4.6l1.5,2.1c0.9,1.3,2.1,2.1,3.5,2.4c1.4,0.3,2.7,0.1,3.9-0.8c1.4-1,2.2-2.4,2.2-4.1s-0.7-3.6-2.2-5.6
	c-1.2-1.7-2.5-2.8-4-3.2C1679.2,725,1677.8,725.2,1676.5,726.2z M1652.5,737.4l5.8-4.1l14.1,19.8l-5.8,4.1l-2.2-3l-0.1,0.1
	c0.2,3.4-1,6-3.6,7.8c-4.6,3.3-8.9,2.2-12.9-3.4l-8.5-12l5.8-4.1l8.1,11.4c2.1,3,4.3,3.6,6.6,2c1.2-0.8,1.8-1.9,1.9-3.2
	c0.1-1.3-0.3-2.7-1.3-4L1652.5,737.4z M1642.5,759c2.3,3.2,3.2,6.5,2.6,9.8c-0.6,3.3-2.5,6.1-5.8,8.5c-3.2,2.3-6.4,3.2-9.7,2.7
	c-3.2-0.5-5.9-2.3-8.2-5.5c-2.3-3.3-3.2-6.5-2.6-9.8c0.6-3.3,2.6-6.1,5.9-8.4c3.2-2.3,6.4-3.2,9.6-2.7
	C1637.6,754.2,1640.3,755.9,1642.5,759z M1636.7,763.3c-2.8-3.9-5.7-4.7-8.8-2.5c-1.5,1.1-2.3,2.4-2.4,4.1s0.5,3.4,1.9,5.3
	c2.8,4,5.8,4.8,9.1,2.5C1639.5,770.5,1639.6,767.4,1636.7,763.3z M1611.4,776c-0.1,1.6,0.5,3.2,1.8,5l6.8,9.5l-5.8,4.1l-14.1-19.8
	l5.8-4.1l2.7,3.7l0.1-0.1c-1-3.4-0.2-6,2.3-7.8c0.7-0.5,1.3-0.8,1.7-0.9l3.8,5.4c-1,0.1-2,0.5-3,1.2
	C1612.1,773.2,1611.4,774.4,1611.4,776z M1601,793.2c1.5,2.1,3.1,2.6,4.8,1.4c0.6-0.5,1.2-1.1,1.6-2l3.1,4.3
	c-0.5,1.1-1.7,2.3-3.4,3.5c-4.2,3-7.9,2.3-11-2.1l-6.7-9.4l-3.3,2.3l-3.1-4.3l3.3-2.3l-3.1-4.4l4.6-5.8l4.3,6l4.5-3.2l3.1,4.3
	l-4.5,3.2L1601,793.2z"/>
<path fill="#7C8996" d="M1564,720.1v1.7h-4.4v12.5h-1.8v-12.5h-5.2v0.9c0,5.1-1.3,9-3.9,11.7c-0.4-0.6-0.8-1.1-1.2-1.5
	c2.2-2.3,3.3-5.7,3.3-10.2v-9.4c3.9-0.1,7.7-0.4,11.6-1l0.6,1.7c-3.3,0.5-6.8,0.8-10.4,1v5.2H1564z M1547,719.8c1.4,1.7,2.5,3,3.1,4
	l-1.5,1.1c-0.7-1.2-1.6-2.4-2.5-3.6v13h-1.7v-12c-0.8,2.3-1.8,4.3-2.9,5.9c-0.2-0.5-0.5-1.2-0.8-2.1c1.6-2.4,2.9-5.1,3.7-8.2h-3.4
	v-1.6h3.4v-4.7h1.7v4.7h3.2v1.6h-3.2v2.7L1547,719.8z M1529.4,711.9l1.7-0.7c1.7,4.2,4.7,7.3,9,9.4c-0.7,0.7-1.2,1.3-1.5,1.8
	C1534.4,719.8,1531.3,716.4,1529.4,711.9z M1516.6,720.8c3.2-2.3,6-5.4,8.2-9.3l1.7,0.9c-2.4,4.2-5.2,7.5-8.6,10
	C1517.6,722,1517.1,721.4,1516.6,720.8z M1509.8,726.2h4.9v7.9h-1.7v-1.4h-8v1.4h-1.7v-7.9h4.8v-3h-5.5c-0.2,4.8-1.3,8.5-3.3,11.1
	c-0.4-0.5-0.8-1-1.3-1.5c2-2.4,2.9-6.1,2.9-11.1v-9.1h13.8v6.8h-1.7v-0.7h-10.5v2.9h5.4v-2.5h1.7v2.5h6.2v1.6h-6.2V726.2z
	 M1513.1,717.2v-3h-10.5v3H1513.1z M1504.9,727.8v3.5h8v-3.5H1504.9z M1497.7,722.4c0.7-0.2,1.5-0.5,2.2-0.7c0,0.7,0.1,1.3,0.1,1.8
	c-0.8,0.3-1.6,0.5-2.3,0.8v7.1c0,1.8-0.8,2.7-2.3,2.7c-0.5,0-1.2,0-2.2,0c-0.1-0.6-0.2-1.3-0.3-1.9c0.9,0.1,1.5,0.1,2,0.1
	c0.7,0,1.1-0.4,1.1-1.2v-6.2c-1.1,0.4-2.1,0.7-3,1l-0.2-2c1.1-0.3,2.2-0.6,3.2-0.9v-5.4h-3v-1.7h3v-4.5h1.7v4.5h2.6v1.7h-2.6V722.4z
	 M1492.8,662.2h-1.9V654h-8.1v-1.6h8.1v-5.9h-4.5c-0.6,1.7-1.3,3.2-2.1,4.5c-0.5-0.4-1-0.9-1.5-1.2c1.5-2.6,2.6-5.5,3.3-8.7l1.9,0.5
	c-0.3,1.2-0.6,2.3-1,3.3h3.9v-5.4h1.9v5.4h5.6v1.6h-5.6v5.9h6.4v1.6h-6.4V662.2z M1496.2,589.9h-2.1c-1.6,0-2.5-0.8-2.5-2.3v-3h-2.2
	c-0.2,1.7-0.9,3-2,3.8c-1,0.8-2.6,1.5-5,2.2c-0.3-0.5-0.7-1.1-1.1-1.6c2.4-0.5,4.1-1.1,5-1.9c0.8-0.6,1.2-1.4,1.4-2.5h-1.8v0.5h-1.6
	v-8h12.8v8h-1.6v-0.5h-2.2v2.5c0,0.9,0.4,1.3,1.2,1.3h1.5c0.8,0,1.2-0.4,1.3-1.2c0.1-0.6,0.2-1.3,0.2-2.2c0.6,0.3,1.2,0.5,1.7,0.7
	c-0.1,1-0.2,1.7-0.4,2.2C1498.5,589.2,1497.7,589.9,1496.2,589.9z M1495.4,578.4h-9.6v1.7h9.6V578.4z M1495.4,583.1v-1.7h-9.6v1.7
	H1495.4z M1483.4,574h4.2c-0.4-0.7-0.9-1.4-1.4-2l1.4-0.9c0.6,0.8,1.2,1.6,1.8,2.3l-0.9,0.6h3.5c0.6-1,1.2-1.9,1.8-2.9l1.7,0.9
	c-0.5,0.7-1.1,1.3-1.6,2h4.8v1.4h-15.3V574z M1484,569.6h6.2c-0.3-0.6-0.6-1.1-0.9-1.7l1.6-0.7c0.5,0.8,0.9,1.6,1.2,2.4h5.9v1.4h-14
	V569.6z M1483.3,582.7c0,0.7,0,1.3,0.1,1.8c-2.4,0.7-4.8,1.4-7.2,2.1l-0.4-1.9c0.8-0.2,1.8-0.4,2.9-0.7v-9h-2.7v-1.7h2.7v-5.9h1.7
	v5.9h2.4v1.7h-2.4v8.5C1481.4,583.3,1482.3,583,1483.3,582.7z M1482.9,640c-0.6,1.8-1.2,3.5-1.9,5.1v17.2h-1.9V649
	c-0.8,1.5-1.6,2.8-2.6,4.1c-0.2-0.7-0.5-1.4-0.8-2c2.2-3.2,3.9-7,5.2-11.6L1482.9,640z M1468.2,577.3l1.5-1c2.4,3.2,4.2,5.8,5.5,7.8
	l-1.6,1.2C1471.9,582.5,1470.1,579.8,1468.2,577.3z M1470.5,517.6h-11.8c-2.3,0-3.4-1.1-3.4-3.3v-10.7c-0.8,1-1.6,2-2.4,3
	c-0.4-0.6-0.8-1.2-1.2-1.6c2.7-3,4.7-6.2,6-9.7l1.9,0.5c-0.3,0.8-0.7,1.6-1.1,2.4h13.5c-0.1,5.6-0.2,9.4-0.4,11.6
	c-0.2,2.6-1.5,3.9-3.9,3.9c-0.6,0-1.7,0-3.3-0.1c-0.1-0.6-0.2-1.2-0.4-1.9c1.3,0.1,2.4,0.2,3.4,0.2c1.4,0,2.2-0.7,2.3-2.3
	c0.2-2,0.3-5.2,0.3-9.6h-12.5c-0.5,1-1.1,2-1.8,2.9h9.8v6.8h-8.5v4.4c0,1.2,0.6,1.9,1.9,1.9h10.9c1.5,0,2.4-0.5,2.6-1.4
	c0.2-0.9,0.4-2,0.6-3.4c0.7,0.3,1.3,0.5,1.9,0.7c-0.2,1.4-0.4,2.5-0.6,3.4C1474.1,516.7,1472.8,517.6,1470.5,517.6z M1463.8,507.9
	v-3.7h-6.7v3.7H1463.8z M1468.3,375.3h-2c2.6-3.2,3.9-6.8,3.9-11.1c0-4.2-1.3-8-4-11.2h2c2.6,3.1,4,6.8,4,11.2
	C1472.2,368.7,1470.9,372.4,1468.3,375.3z M1461.9,363.8c0-2.7-1-4-2.9-4c-1,0-1.8,0.4-2.5,1.1c-0.6,0.8-1,1.7-1,2.8v7.4h-2.3v-13
	h2.3v2.1h0c1-1.6,2.4-2.4,4.3-2.4c1.4,0,2.5,0.5,3.2,1.4c0.7,0.9,1.1,2.2,1.1,4v7.9h-2.3V363.8z M1451.6,289.4
	c-0.6,0.8-0.9,1.9-0.9,3.3v6.6h-2.3v-13h2.3v2.6h0c0.7-1.9,1.8-2.9,3.4-2.9c0.5,0,0.9,0.1,1.2,0.2v2.3c-0.4-0.3-0.9-0.4-1.6-0.4
	C1452.9,288.1,1452.1,288.5,1451.6,289.4z M1451,358.2v2.3c-0.4-0.3-0.9-0.4-1.6-0.4c-0.9,0-1.6,0.4-2.2,1.2s-0.9,1.9-0.9,3.3v6.6
	h-2.3v-13h2.3v2.6h0c0.7-1.9,1.8-2.9,3.4-2.9C1450.3,358,1450.7,358.1,1451,358.2z M1437.4,296.5c0.7,0.8,1.7,1.1,3,1.1
	c1.5,0,2.8-0.5,4-1.4v2.1c-1.1,0.8-2.7,1.2-4.5,1.2c-1.9,0-3.3-0.6-4.4-1.8c-1.1-1.2-1.6-2.8-1.6-4.9c0-2,0.6-3.6,1.7-4.9
	c1.2-1.3,2.6-1.9,4.3-1.9c1.7,0,3,0.5,4,1.6c1,1.1,1.4,2.6,1.4,4.6v1.2h-9.1C1436.3,294.7,1436.7,295.8,1437.4,296.5z M1443,291.5
	c0-1.2-0.3-2.1-0.8-2.7c-0.5-0.6-1.3-1-2.3-1c-0.9,0-1.7,0.3-2.4,1c-0.7,0.7-1.1,1.6-1.3,2.7H1443z M1429.9,297.6
	c-1.1,1.3-2.5,2-4.3,2c-1.7,0-3-0.7-3.9-2.1h0v7.8h-2.3v-18.9h2.3v2.2h0c1-1.7,2.5-2.5,4.5-2.5c1.7,0,3,0.6,3.9,1.7
	c0.9,1.2,1.4,2.7,1.4,4.7C1431.5,294.5,1431,296.2,1429.9,297.6z M1428.2,289c-0.6-0.8-1.5-1.2-2.6-1.2c-1.1,0-2.1,0.4-2.8,1.2
	c-0.7,0.8-1.1,1.8-1.1,3.1v1.7c0,1.1,0.3,1.9,1,2.7c0.7,0.7,1.5,1.1,2.6,1.1c1.2,0,2.2-0.5,2.9-1.4c0.7-0.9,1-2.2,1-3.9
	C1429.2,290.9,1428.9,289.8,1428.2,289z M1421.5,362.3L1421.5,362.3c0.1-0.3,0.3-0.7,0.5-1.1l4.1-8.1h2.5l-6,11.5v6.7h-2.4v-6.6
	l-5.8-11.5h2.7l3.9,8C1421.1,361.1,1421.2,361.5,1421.5,362.3z M1408.4,296.5c0.7,0.8,1.7,1.1,3,1.1c1.5,0,2.8-0.5,4-1.4v2.1
	c-1.1,0.8-2.7,1.2-4.5,1.2c-1.9,0-3.3-0.6-4.4-1.8c-1.1-1.2-1.6-2.8-1.6-4.9c0-2,0.6-3.6,1.7-4.9c1.2-1.3,2.6-1.9,4.3-1.9
	c1.7,0,3,0.5,4,1.6c1,1.1,1.4,2.6,1.4,4.6v1.2h-9.1C1407.3,294.7,1407.7,295.8,1408.4,296.5z M1414.1,291.5c0-1.2-0.3-2.1-0.8-2.7
	c-0.5-0.6-1.3-1-2.3-1c-0.9,0-1.7,0.3-2.4,1c-0.7,0.7-1.1,1.6-1.3,2.7H1414.1z M1399.3,362.8c0.3,0.3,1.1,0.7,2.2,1.1
	c1.4,0.5,2.4,1.1,2.9,1.7c0.5,0.6,0.8,1.3,0.8,2.1c0,1.2-0.5,2.1-1.5,2.8c-1,0.7-2.2,1-3.8,1c-1.3,0-2.5-0.3-3.5-0.8v-2.3
	c1.2,0.8,2.4,1.3,3.7,1.3c1.8,0,2.7-0.6,2.7-1.8c0-0.5-0.2-0.9-0.6-1.2c-0.4-0.3-1.2-0.7-2.4-1.2c-1.4-0.6-2.4-1.2-2.8-1.7
	c-0.4-0.6-0.6-1.3-0.6-2.1c0-1.1,0.5-2.1,1.5-2.8c1-0.7,2.2-1,3.6-1c1.1,0,2.1,0.2,3.1,0.6v2.2c-1-0.6-2.1-0.9-3.3-0.9
	c-0.7,0-1.3,0.2-1.8,0.5c-0.5,0.3-0.7,0.7-0.7,1.3C1398.8,362.1,1399,362.5,1399.3,362.8z M1394.8,296.5c0.7,0.8,1.7,1.1,3,1.1
	c1.5,0,2.8-0.5,4-1.4v2.1c-1.1,0.8-2.7,1.2-4.5,1.2c-1.9,0-3.3-0.6-4.4-1.8c-1.1-1.2-1.6-2.8-1.6-4.9c0-2,0.6-3.6,1.7-4.9
	c1.2-1.3,2.6-1.9,4.3-1.9c1.7,0,3,0.5,4,1.6c1,1.1,1.4,2.6,1.4,4.6v1.2h-9.1C1393.7,294.7,1394.1,295.8,1394.8,296.5z M1400.5,291.5
	c0-1.2-0.3-2.1-0.8-2.7c-0.5-0.6-1.3-1-2.3-1c-0.9,0-1.7,0.3-2.4,1s-1.1,1.6-1.3,2.7H1400.5z M1387,299.2l-5.5-6.2h0v6.2h-2.3V280
	h2.3v12.2h0l5.3-5.9h3l-5.9,6.2l6.3,6.7H1387z M1377.4,370.5c-1,0.7-2.2,1-3.8,1c-1.3,0-2.5-0.3-3.5-0.8v-2.3
	c1.2,0.8,2.4,1.3,3.7,1.3c1.8,0,2.7-0.6,2.7-1.8c0-0.5-0.2-0.9-0.6-1.2c-0.4-0.3-1.2-0.7-2.4-1.2c-1.4-0.6-2.4-1.2-2.8-1.7
	c-0.4-0.6-0.6-1.3-0.6-2.1c0-1.1,0.5-2.1,1.5-2.8c1-0.7,2.2-1,3.6-1c1.1,0,2.1,0.2,3.1,0.6v2.2c-1-0.6-2.1-0.9-3.3-0.9
	c-0.7,0-1.3,0.2-1.8,0.5c-0.5,0.3-0.7,0.7-0.7,1.3c0,0.5,0.2,0.9,0.5,1.2c0.3,0.3,1.1,0.7,2.2,1.1c1.4,0.5,2.4,1.1,2.9,1.7
	s0.8,1.3,0.8,2.1C1378.8,368.9,1378.3,369.8,1377.4,370.5z M1374.1,297.6c-1.2,1.3-2.8,1.9-4.7,1.9c-1.9,0-3.5-0.6-4.6-1.8
	c-1.2-1.2-1.7-2.8-1.7-4.8c0-2.1,0.6-3.8,1.8-5.1c1.2-1.2,2.8-1.9,4.9-1.9c1.9,0,3.5,0.6,4.6,1.8c1.1,1.2,1.7,2.8,1.7,4.9
	C1375.9,294.7,1375.3,296.4,1374.1,297.6z M1372.5,289.1c-0.7-0.8-1.7-1.3-3-1.3c-1.3,0-2.3,0.4-3.1,1.3c-0.7,0.9-1.1,2.1-1.1,3.6
	c0,1.5,0.4,2.7,1.1,3.5c0.8,0.9,1.8,1.3,3,1.3c1.3,0,2.3-0.4,3-1.3c0.7-0.8,1-2,1-3.6C1373.6,291.2,1373.2,290,1372.5,289.1z
	 M1367.7,364.2v1.2h-9.1c0,1.4,0.4,2.5,1.1,3.2c0.7,0.8,1.7,1.1,3,1.1c1.5,0,2.8-0.5,4-1.4v2.1c-1.1,0.8-2.7,1.2-4.5,1.2
	c-1.9,0-3.3-0.6-4.4-1.8c-1.1-1.2-1.6-2.8-1.6-4.9c0-2,0.6-3.6,1.7-4.9c1.2-1.3,2.6-1.9,4.3-1.9c1.7,0,3,0.5,4,1.6
	C1367.3,360.7,1367.7,362.2,1367.7,364.2z M1364.6,360.8c-0.5-0.6-1.3-1-2.3-1c-0.9,0-1.7,0.3-2.4,1s-1.1,1.6-1.3,2.7h6.8
	C1365.4,362.3,1365.2,361.4,1364.6,360.8z M1358.9,297.6c-1.2,1.3-2.8,1.9-4.7,1.9c-1.9,0-3.5-0.6-4.6-1.8c-1.2-1.2-1.7-2.8-1.7-4.8
	c0-2.1,0.6-3.8,1.8-5.1c1.2-1.2,2.8-1.9,4.9-1.9c1.9,0,3.5,0.6,4.6,1.8c1.1,1.2,1.7,2.8,1.7,4.9
	C1360.6,294.7,1360.1,296.4,1358.9,297.6z M1357.3,289.1c-0.7-0.8-1.7-1.3-3-1.3c-1.3,0-2.3,0.4-3.1,1.3c-0.7,0.9-1.1,2.1-1.1,3.6
	c0,1.5,0.4,2.7,1.1,3.5c0.8,0.9,1.8,1.3,3,1.3c1.3,0,2.3-0.4,3-1.3c0.7-0.8,1-2,1-3.6C1358.3,291.2,1358,290,1357.3,289.1z
	 M1345.8,297.1v2.1h-13.7v-0.8l10.4-15.3h-9.6v-2.1h13.1v0.7l-10.5,15.4H1345.8z M1319.7,731c0,1.9-1,2.9-2.9,2.9c-1.3,0-2.6,0-4,0
	c-0.1-0.6-0.2-1.3-0.4-2.1c1.2,0.1,2.4,0.2,3.7,0.2c1.1,0,1.6-0.5,1.6-1.6v-8.5h-8.3V720h14.8v1.8h-4.5V731z M1315.9,503.8
	c-2.2,1-4.7,1.9-7.7,2.6c-0.3-0.6-0.6-1.2-1-1.8c2.7-0.4,5-1,7.1-1.9c-1.8-1.3-3.1-2.8-3.9-4.7h-1.6v-1.6h14v1.6
	c-1.1,1.8-2.7,3.4-5,4.8c1.8,0.8,4,1.3,6.6,1.6c-0.3,0.6-0.7,1.2-1,1.8C1320.4,505.7,1317.9,504.9,1315.9,503.8z M1320.6,498h-8.4
	c0.9,1.6,2.2,2.9,3.8,3.9C1317.9,500.8,1319.4,499.5,1320.6,498z M1310.6,437.5h10.1v8.9h-1.6v-1.1h-11.9v1.1h-1.6v-6.8
	c-1.3,0.5-2.5,0.9-3.8,1.3c-0.2-0.4-0.5-0.9-0.9-1.5c3.5-1,7-2.3,10.3-3.8h-9.9v-1.4h8.8v-1.8h-6.5v-1.3h6.5v-1.4h1.6v1.4h5.5v1.3
	h-5.5v1.8h2.4c2.4-1.2,4.7-2.5,7-3.9l1.1,1.2c-1.6,0.9-3.3,1.8-4.9,2.6h6.8v1.4h-9.5C1313.2,436.3,1311.9,437,1310.6,437.5z
	 M1307.2,444h11.9v-1.9h-11.9V444z M1307.2,439v1.8h11.9v-1.9h-11.7L1307.2,439z M1302.8,430.2v-6h19.4v5.8h-1.6v-0.5h-16.2v0.8
	H1302.8z M1316.3,428h4.4v-2.5h-4.4V428z M1310.3,428h4.4v-2.5h-4.4V428z M1308.8,428v-2.5h-4.4v2.5H1308.8z M1310.6,365.5h10.1v8.9
	h-1.6v-1.1h-11.9v1.1h-1.6v-6.8c-1.3,0.5-2.5,0.9-3.8,1.3c-0.2-0.4-0.5-0.9-0.9-1.5c3.5-1,7-2.3,10.3-3.8h-9.9v-1.4h8.8v-1.8h-6.5
	v-1.3h6.5v-1.4h1.6v1.4h5.5v1.3h-5.5v1.8h2.4c2.4-1.2,4.7-2.5,7-3.9l1.1,1.2c-1.6,0.9-3.3,1.8-4.9,2.6h6.8v1.4h-9.5
	C1313.2,364.3,1311.9,365,1310.6,365.5z M1307.2,372h11.9v-1.9h-11.9V372z M1307.2,367v1.8h11.9v-1.9h-11.7L1307.2,367z
	 M1302.8,358.2v-6h19.4v5.8h-1.6v-0.5h-16.2v0.8H1302.8z M1316.3,356h4.4v-2.5h-4.4V356z M1310.3,356h4.4v-2.5h-4.4V356z
	 M1308.8,356v-2.5h-4.4v2.5H1308.8z M1310.6,293.5h10.1v8.9h-1.6v-1.1h-11.9v1.1h-1.6v-6.8c-1.3,0.5-2.5,0.9-3.8,1.3
	c-0.2-0.4-0.5-0.9-0.9-1.5c3.5-1,7-2.3,10.3-3.8h-9.9v-1.4h8.8v-1.8h-6.5v-1.3h6.5v-1.4h1.6v1.4h5.5v1.3h-5.5v1.8h2.4
	c2.4-1.2,4.7-2.5,7-3.9l1.1,1.2c-1.6,0.9-3.3,1.8-4.9,2.6h6.8v1.4h-9.5C1313.2,292.3,1311.9,293,1310.6,293.5z M1307.2,300h11.9
	v-1.9h-11.9V300z M1307.2,295v1.8h11.9v-1.9h-11.7L1307.2,295z M1320.7,285.4h-16.2v0.8h-1.6v-6h19.4v5.8h-1.6V285.4z M1308.8,281.5
	h-4.4v2.5h4.4V281.5z M1314.7,281.5h-4.4v2.5h4.4V281.5z M1320.7,281.5h-4.4v2.5h4.4V281.5z M1292.5,733.5l-6-0.1
	c-2.5-0.1-4.4-1-5.6-2.7c-1,0.8-2,1.9-3,3.1l-1-2c0,0,1.1-0.9,3.1-2.7v-8h-3v-1.7h4.9v10.1c1.2,1.5,2.8,2.2,5,2.2l6.9,0.1l6.5-0.3
	c-0.3,0.6-0.5,1.3-0.8,1.9L1292.5,733.5z M1297,586.9c-0.8,0.1-1.9,0.1-3.2-0.1c-0.1-0.6-0.2-1.2-0.3-2.1c1.1,0.2,2.1,0.3,2.9,0.3
	c1.4,0,2-0.9,1.9-2.8c-0.1-1.7-1.3-3.4-3.6-5.1c1-2,2-4.3,3.1-6.7h-4.8v20h-1.8v-21.7h8.4v1.9c-0.6,1.6-1.6,3.6-2.8,6.1
	c2.2,1.7,3.3,3.7,3.3,5.9C1300.2,585.2,1299.1,586.7,1297,586.9z M1297,442.9c-0.8,0.1-1.9,0.1-3.2-0.1c-0.1-0.6-0.2-1.2-0.3-2.1
	c1.1,0.2,2.1,0.3,2.9,0.3c1.4,0,2-0.9,1.9-2.8c-0.1-1.7-1.3-3.4-3.6-5.1c1-2,2-4.3,3.1-6.7h-4.8v20h-1.8v-21.7h8.4v1.9
	c-0.6,1.6-1.6,3.6-2.8,6.1c2.2,1.7,3.3,3.7,3.3,5.9C1300.2,441.2,1299.1,442.7,1297,442.9z M1297,370.9c-0.8,0.1-1.9,0.1-3.2-0.1
	c-0.1-0.6-0.2-1.2-0.3-2.1c1.1,0.2,2.1,0.3,2.9,0.3c1.4,0,2-0.9,1.9-2.8c-0.1-1.7-1.3-3.4-3.6-5.1c1-2,2-4.3,3.1-6.7h-4.8v20h-1.8
	v-21.7h8.4v1.9c-0.6,1.6-1.6,3.6-2.8,6.1c2.2,1.7,3.3,3.7,3.3,5.9C1300.2,369.2,1299.1,370.7,1297,370.9z M1300.2,294.5
	c0,2.7-1.1,4.1-3.2,4.4c-0.8,0.1-1.9,0.1-3.2-0.1c-0.1-0.6-0.2-1.2-0.3-2.1c1.1,0.2,2.1,0.3,2.9,0.3c1.4,0,2-0.9,1.9-2.8
	c-0.1-1.7-1.3-3.4-3.6-5.1c1-2,2-4.3,3.1-6.7h-4.8v20h-1.8v-21.7h8.4v1.9c-0.6,1.6-1.6,3.6-2.8,6.1
	C1299.1,290.4,1300.2,292.3,1300.2,294.5z M1277.1,432.6h7.5c0.9-1.6,1.7-3.1,2.3-4.4l1.7,0.9c-0.7,1.2-1.4,2.4-2.2,3.5h4.1v1.6
	h-13.4V432.6z M1278.7,374.2v-9.6h10.1v9.5h-1.7v-1.7h-6.7v1.8H1278.7z M1287.1,370.8v-4.6h-6.7v4.6H1287.1z M1282.7,431.7l-1.6,0.9
	c-0.5-1-1.1-2.1-2-3.4l1.4-0.9C1281.4,429.5,1282.1,430.6,1282.7,431.7z M1277.6,426.4h5.9c-0.3-0.7-0.8-1.6-1.4-2.6l1.6-0.8
	c0.7,1.2,1.2,2.1,1.5,2.8l-1.1,0.5h6v1.6h-12.5V426.4z M1277.1,360.6h7.5c0.9-1.6,1.7-3.1,2.3-4.4l1.7,0.9c-0.7,1.2-1.4,2.4-2.2,3.5
	h4.1v1.6h-13.4V360.6z M1278.7,302.2v-9.6h10.1v9.5h-1.7v-1.7h-6.7v1.8H1278.7z M1287.1,298.8v-4.6h-6.7v4.6H1287.1z M1282.7,359.7
	l-1.6,0.9c-0.5-1-1.1-2.1-2-3.4l1.4-0.9C1281.4,357.5,1282.1,358.6,1282.7,359.7z M1277.6,354.4h5.9c-0.3-0.7-0.8-1.6-1.4-2.6
	l1.6-0.8c0.7,1.2,1.2,2.1,1.5,2.8l-1.1,0.5h6v1.6h-12.5V354.4z M1277.1,288.6h7.5c0.9-1.6,1.7-3.1,2.3-4.4l1.7,0.9
	c-0.7,1.2-1.4,2.4-2.2,3.5h4.1v1.6h-13.4V288.6z M1282.7,287.7l-1.6,0.9c-0.5-1-1.1-2.1-2-3.4l1.4-0.9
	C1281.4,285.5,1282.1,286.6,1282.7,287.7z M1277.6,282.4h5.9c-0.3-0.7-0.8-1.6-1.4-2.6l1.6-0.8c0.7,1.2,1.2,2.1,1.5,2.8l-1.1,0.5h6
	v1.6h-12.5V282.4z M1282.7,496c-1.3,2.8-2.6,5.2-3.8,7.3c0.5,0,1.3,0,2.3,0c0.4-0.8,0.8-1.7,1.3-2.6l1.7,0.8c-2,3.6-3.5,6.2-4.5,7.8
	c0.7,0,2.1-0.1,4.1-0.3c-0.1,0.7-0.1,1.2-0.2,1.5c-3.1,0.3-5,0.5-5.8,0.6l-0.3-1.5c0.8-0.8,1.8-2.4,3.1-4.8
	c-1.2,0.1-2.2,0.2-3.1,0.3l-0.4-1.5c1.5-2.4,2.8-5.1,4-8.1L1282.7,496z M1278.7,446.2v-9.6h10.1v9.5h-1.7v-1.7h-6.7v1.8H1278.7z
	 M1287.1,442.8v-4.6h-6.7v4.6H1287.1z M1284.6,505.2v-7.6h6.6c-0.4-0.7-0.7-1.2-1-1.7l1.8-0.8c0.4,0.7,0.9,1.6,1.5,2.6h5.5v6.4h-1.6
	v-0.8h-11.2v1.9c0,6-1.1,10.4-3.4,13.1c-0.3-0.5-0.7-1-1.1-1.5c0.6-0.7,1.1-1.5,1.5-2.4c-2.4,0.5-4.3,0.9-5.7,1.2l-0.4-1.8
	c1.9-0.3,4.2-0.6,6.8-1C1284.2,510.8,1284.6,508.3,1284.6,505.2z M1286.2,501.8h11.2v-2.7h-11.2V501.8z M1279.1,573.2l1.4-0.9
	c0.8,1.1,1.5,2.2,2.1,3.3l-1.6,0.9C1280.6,575.6,1280,574.5,1279.1,573.2z M1286.8,572.2l1.7,0.9c-0.7,1.2-1.4,2.4-2.2,3.5h4.1v1.6
	h-13.4v-1.6h7.5C1285.5,575,1286.2,573.6,1286.8,572.2z M1278.7,590.2v-9.6h10.1v9.5h-1.7v-1.7h-6.7v1.8H1278.7z M1287.1,586.8v-4.6
	h-6.7v4.6H1287.1z M1276.9,647.4c1.5-2.4,2.8-5.1,4-8.1l1.8,0.7c-1.3,2.8-2.6,5.2-3.8,7.3c0.5,0,1.3,0,2.3,0
	c0.4-0.8,0.8-1.7,1.3-2.6l1.7,0.8c-2,3.6-3.5,6.2-4.5,7.8c0.7,0,2.1-0.1,4.1-0.3c-0.1,0.7-0.1,1.2-0.2,1.5c-3.1,0.3-5,0.5-5.8,0.6
	l-0.3-1.5c0.8-0.8,1.8-2.4,3.1-4.8c-1.2,0.1-2.2,0.2-3.1,0.3L1276.9,647.4z M1290.1,572h-12.5v-1.6h5.9c-0.3-0.7-0.8-1.6-1.4-2.6
	l1.6-0.8c0.7,1.2,1.2,2.1,1.5,2.8l-1.1,0.5h6V572z M1290.5,517v-4.8h-2.1v6h-1.5v-12.5h12.4v10.4c0,1.4-0.6,2-1.8,2
	c-0.9,0-1.5,0-2,0c-0.1-0.4-0.1-0.8-0.2-1.2h-1.1v-4.7h-2.1v4.8H1290.5z M1290.5,507.2h-2.1v3.6h2.1V507.2z M1295.5,516.6
	c0.4,0,0.8,0,1.3,0c0.6,0,0.9-0.3,0.9-1v-3.4h-2.2V516.6z M1295.5,510.8h2.2v-3.6h-2.2V510.8z M1294.1,510.8v-3.6h-2.1v3.6H1294.1z
	 M1298.5,714.4h-13.1v-1.8h13.1V714.4z M1299.3,660.1c0,1.4-0.6,2-1.8,2c-0.9,0-1.5,0-2,0c-0.1-0.4-0.1-0.8-0.2-1.2h-1.1v-4.7h-2.1
	v4.8h-1.4v-4.8h-2.1v6h-1.5v-12.5h12.4V660.1z M1290.5,651.2h-2.1v3.6h2.1V651.2z M1294.1,651.2h-2.1v3.6h2.1V651.2z M1297.7,651.2
	h-2.2v3.6h2.2V651.2z M1297.7,656.2h-2.2v4.4c0.4,0,0.8,0,1.3,0c0.6,0,0.9-0.3,0.9-1V656.2z M1283.8,718.7h16.1v1.8h-8.8
	c-1.4,2.5-2.7,4.7-3.9,6.5c2.4-0.1,5.1-0.3,8.1-0.5c-0.8-1.2-1.6-2.4-2.4-3.5l1.5-0.9c1.8,2.3,3.3,4.5,4.7,6.7l-1.7,1.1
	c-0.4-0.6-0.7-1.2-1.1-1.8c-4.4,0.3-7.6,0.5-9.5,0.8c-0.5,0.1-1.1,0.2-1.7,0.4l-0.9-1.7c0.6-0.4,1.1-0.9,1.5-1.5
	c1.1-1.6,2.1-3.5,3.1-5.6h-5V718.7z M1281.5,717c-1-1.6-2.2-3.1-3.3-4.6l1.4-1c1.2,1.5,2.4,3,3.6,4.5L1281.5,717z M1276.9,657.9
	c1.9-0.3,4.2-0.6,6.8-1c0.6-2.1,0.9-4.6,0.9-7.7v-7.6h6.6c-0.4-0.7-0.7-1.2-1-1.7l1.8-0.8c0.4,0.7,0.9,1.6,1.5,2.6h5.5v6.4h-1.6
	v-0.8h-11.2v1.9c0,6-1.1,10.4-3.4,13.1c-0.3-0.5-0.7-1-1.1-1.5c0.6-0.7,1.1-1.5,1.5-2.4c-2.4,0.5-4.3,0.9-5.7,1.2L1276.9,657.9z
	 M1286.2,645.8h11.2v-2.7h-11.2V645.8z M1322.2,573.9h-1.6v-0.5h-16.2v0.8h-1.6v-6h19.4V573.9z M1308.8,569.5h-4.4v2.5h4.4V569.5z
	 M1314.7,569.5h-4.4v2.5h4.4V569.5z M1320.7,569.5h-4.4v2.5h4.4V569.5z M1303.6,495.8c1.3,1.3,2.5,2.6,3.7,3.8l-1.6,1.4
	c-1.1-1.3-2.2-2.7-3.5-4.1L1303.6,495.8z M1307.9,515.2c-1.5,1-2.8,1.8-3.8,2.7l-1.1-1.5c0.5-0.5,0.8-1.2,0.8-2.1v-9.2h-2.9v-1.7
	h4.6v11.3c0.6-0.4,1.4-1,2.2-1.5C1307.8,513.8,1307.8,514.4,1307.9,515.2z M1324.2,512.2v1.6h-7.4v4.5h-1.8v-4.5h-6.7v-1.6h6.7v-2.9
	h-5.7v-1.6h5.7v-2.5h1.8v2.5h6.3v1.6h-6.3v2.9H1324.2z M1301.2,579.7v-1.4h8.8v-1.8h-6.5v-1.3h6.5v-1.4h1.6v1.4h5.5v1.3h-5.5v1.8
	h2.4c2.4-1.2,4.7-2.5,7-3.9l1.1,1.2c-1.6,0.9-3.3,1.8-4.9,2.6h6.8v1.4h-9.5c-1.3,0.7-2.7,1.3-4,1.9h10.1v8.9h-1.6v-1.1h-11.9v1.1
	h-1.6v-6.8c-1.3,0.5-2.5,0.9-3.8,1.3c-0.2-0.4-0.5-0.9-0.9-1.5c3.5-1,7-2.3,10.3-3.8H1301.2z M1307.2,588h11.9v-1.9h-11.9V588z
	 M1307.2,583v1.8h11.9v-1.9h-11.7L1307.2,583z M1302,719.7c-0.3-0.6-0.6-1.2-0.9-1.8c2.5-1.9,4.5-4.2,6-6.7l1.7,1
	C1307,715,1304.7,717.5,1302,719.7z M1301,655.2h17.3v1.7H1301V655.2z M1310.8,713h12.2v1.8h-12.2V713z M1304.8,650.6l1.6-7.5h2
	l-0.6,2.8h13.7v1.7h-14.1l-0.6,2.9h15.3c-0.2,3.3-0.3,6-0.5,8.1c-0.3,2.2-1.6,3.4-4,3.4c-1.5,0-3.2,0-5.1-0.1
	c-0.1-0.6-0.2-1.3-0.3-2c1.7,0.2,3.4,0.3,5.1,0.3c1.4,0,2.2-0.6,2.4-1.9c0.2-1.5,0.3-3.5,0.4-5.9h-15.3V650.6z M1302,645v-4.4h21.3
	v4.4h-1.9v-2.6h-17.4v2.6H1302z M1307.6,716.9l1.6,1c-0.8,1.4-1.7,2.7-2.6,3.9v12.4h-1.9v-10c-0.9,1.1-1.9,2-2.9,2.9
	c-0.2-0.7-0.5-1.3-0.8-1.9C1303.4,723.3,1305.6,720.5,1307.6,716.9z M1338.1,513.5c2.5,0,3.8-0.9,3.8-2.7c0-0.5-0.1-1-0.4-1.4
	c-0.3-0.4-0.6-0.8-1.1-1.1c-0.5-0.3-1.4-0.8-2.7-1.4c-1.8-0.9-3-1.7-3.6-2.5c-0.6-0.8-0.9-1.7-0.9-2.7c0-1.5,0.6-2.7,1.8-3.6
	c1.2-0.9,2.7-1.3,4.6-1.3c1.8,0,3.1,0.2,4,0.7v2.6c-1.1-0.8-2.5-1.1-4.1-1.1c-1.1,0-2,0.2-2.7,0.7c-0.7,0.5-1,1.1-1,1.9
	c0,0.7,0.2,1.3,0.7,1.8c0.5,0.5,1.5,1.1,3.2,1.9c1.8,0.9,3,1.7,3.7,2.6c0.7,0.9,1.1,1.8,1.1,2.9c0,1.6-0.6,2.8-1.7,3.7
	c-1.2,0.9-2.8,1.3-4.8,1.3c-0.7,0-1.6-0.1-2.5-0.3c-1-0.2-1.7-0.4-2.1-0.7v-2.7c0.6,0.5,1.3,0.9,2.2,1.2
	C1336.3,513.3,1337.2,513.5,1338.1,513.5z M1338.1,585.5c2.5,0,3.8-0.9,3.8-2.7c0-0.5-0.1-1-0.4-1.4c-0.3-0.4-0.6-0.8-1.1-1.1
	c-0.5-0.3-1.4-0.8-2.7-1.4c-1.8-0.9-3-1.7-3.6-2.5c-0.6-0.8-0.9-1.7-0.9-2.7c0-1.5,0.6-2.7,1.8-3.6c1.2-0.9,2.7-1.3,4.6-1.3
	c1.8,0,3.1,0.2,4,0.7v2.6c-1.1-0.8-2.5-1.1-4.1-1.1c-1.1,0-2,0.2-2.7,0.7c-0.7,0.5-1,1.1-1,1.9c0,0.7,0.2,1.3,0.7,1.8
	c0.5,0.5,1.5,1.1,3.2,1.9c1.8,0.9,3,1.7,3.7,2.6c0.7,0.9,1.1,1.8,1.1,2.9c0,1.6-0.6,2.8-1.7,3.7c-1.2,0.9-2.8,1.3-4.8,1.3
	c-0.7,0-1.6-0.1-2.5-0.3c-1-0.2-1.7-0.4-2.1-0.7v-2.7c0.6,0.5,1.3,0.9,2.2,1.2C1336.3,585.3,1337.2,585.5,1338.1,585.5z
	 M1338.1,657.5c2.5,0,3.8-0.9,3.8-2.7c0-0.5-0.1-1-0.4-1.4c-0.3-0.4-0.6-0.8-1.1-1.1c-0.5-0.3-1.4-0.8-2.7-1.4
	c-1.8-0.9-3-1.7-3.6-2.5c-0.6-0.8-0.9-1.7-0.9-2.7c0-1.5,0.6-2.7,1.8-3.6c1.2-0.9,2.7-1.3,4.6-1.3c1.8,0,3.1,0.2,4,0.7v2.6
	c-1.1-0.8-2.5-1.1-4.1-1.1c-1.1,0-2,0.2-2.7,0.7c-0.7,0.5-1,1.1-1,1.9c0,0.7,0.2,1.3,0.7,1.8c0.5,0.5,1.5,1.1,3.2,1.9
	c1.8,0.9,3,1.7,3.7,2.6c0.7,0.9,1.1,1.8,1.1,2.9c0,1.6-0.6,2.8-1.7,3.7c-1.2,0.9-2.8,1.3-4.8,1.3c-0.7,0-1.6-0.1-2.5-0.3
	c-1-0.2-1.7-0.4-2.1-0.7v-2.7c0.6,0.5,1.3,0.9,2.2,1.2C1336.3,657.3,1337.2,657.5,1338.1,657.5z M1338.1,729.5
	c2.5,0,3.8-0.9,3.8-2.7c0-0.5-0.1-1-0.4-1.4c-0.3-0.4-0.6-0.8-1.1-1.1c-0.5-0.3-1.4-0.8-2.7-1.4c-1.8-0.9-3-1.7-3.6-2.5
	c-0.6-0.8-0.9-1.7-0.9-2.7c0-1.5,0.6-2.7,1.8-3.6c1.2-0.9,2.7-1.3,4.6-1.3c1.8,0,3.1,0.2,4,0.7v2.6c-1.1-0.8-2.5-1.1-4.1-1.1
	c-1.1,0-2,0.2-2.7,0.7c-0.7,0.5-1,1.1-1,1.9c0,0.7,0.2,1.3,0.7,1.8c0.5,0.5,1.5,1.1,3.2,1.9c1.8,0.9,3,1.7,3.7,2.6
	c0.7,0.9,1.1,1.8,1.1,2.9c0,1.6-0.6,2.8-1.7,3.7c-1.2,0.9-2.8,1.3-4.8,1.3c-0.7,0-1.6-0.1-2.5-0.3c-1-0.2-1.7-0.4-2.1-0.7v-2.7
	c0.6,0.5,1.3,0.9,2.2,1.2C1336.3,729.3,1337.2,729.5,1338.1,729.5z M1336.4,443.2h-2.3v-18.2h2.3v7.9h9.2v-7.9h2.3v18.2h-2.3V435
	h-9.2V443.2z M1349.9,504.5L1349.9,504.5c1.1-1.7,2.5-2.5,4.5-2.5c1.7,0,3,0.6,3.9,1.7s1.4,2.7,1.4,4.7c0,2.2-0.5,3.9-1.6,5.2
	c-1.1,1.3-2.5,2-4.3,2c-1.7,0-2.9-0.7-3.9-2.1h0v7.8h-2.3v-18.9h2.3V504.5z M1349.9,509.9c0,1.1,0.3,1.9,1,2.7
	c0.7,0.7,1.5,1.1,2.6,1.1c1.2,0,2.2-0.5,2.9-1.4c0.7-0.9,1-2.2,1-3.9c0-1.4-0.3-2.5-1-3.3c-0.6-0.8-1.5-1.2-2.6-1.2
	c-1.1,0-2.1,0.4-2.8,1.2c-0.7,0.8-1.1,1.8-1.1,3.1V509.9z M1349.9,576.5L1349.9,576.5c1.1-1.7,2.5-2.5,4.5-2.5c1.7,0,3,0.6,3.9,1.7
	c0.9,1.2,1.4,2.7,1.4,4.7c0,2.2-0.5,3.9-1.6,5.2c-1.1,1.3-2.5,2-4.3,2c-1.7,0-2.9-0.7-3.9-2.1h0v7.8h-2.3v-18.9h2.3V576.5z
	 M1349.9,581.9c0,1.1,0.3,1.9,1,2.7c0.7,0.7,1.5,1.1,2.6,1.1c1.2,0,2.2-0.5,2.9-1.4c0.7-0.9,1-2.2,1-3.9c0-1.4-0.3-2.5-1-3.3
	c-0.6-0.8-1.5-1.2-2.6-1.2c-1.1,0-2.1,0.4-2.8,1.2c-0.7,0.8-1.1,1.8-1.1,3.1V581.9z M1349.9,648.5L1349.9,648.5
	c1.1-1.7,2.5-2.5,4.5-2.5c1.7,0,3,0.6,3.9,1.7c0.9,1.2,1.4,2.7,1.4,4.7c0,2.2-0.5,3.9-1.6,5.2c-1.1,1.3-2.5,2-4.3,2
	c-1.7,0-2.9-0.7-3.9-2.1h0v7.8h-2.3v-18.9h2.3V648.5z M1349.9,653.9c0,1.1,0.3,1.9,1,2.7c0.7,0.7,1.5,1.1,2.6,1.1
	c1.2,0,2.2-0.5,2.9-1.4c0.7-0.9,1-2.2,1-3.9c0-1.4-0.3-2.5-1-3.3c-0.6-0.8-1.5-1.2-2.6-1.2c-1.1,0-2.1,0.4-2.8,1.2
	c-0.7,0.8-1.1,1.8-1.1,3.1V653.9z M1349.9,720.5L1349.9,720.5c1.1-1.7,2.5-2.5,4.5-2.5c1.7,0,3,0.6,3.9,1.7c0.9,1.2,1.4,2.7,1.4,4.7
	c0,2.2-0.5,3.9-1.6,5.2c-1.1,1.3-2.5,2-4.3,2c-1.7,0-2.9-0.7-3.9-2.1h0v7.8h-2.3v-18.9h2.3V720.5z M1349.9,725.9
	c0,1.1,0.3,1.9,1,2.7c0.7,0.7,1.5,1.1,2.6,1.1c1.2,0,2.2-0.5,2.9-1.4c0.7-0.9,1-2.2,1-3.9c0-1.4-0.3-2.5-1-3.3
	c-0.6-0.8-1.5-1.2-2.6-1.2c-1.1,0-2.1,0.4-2.8,1.2c-0.7,0.8-1.1,1.8-1.1,3.1V725.9z M1364.6,427.5c1.8,1.6,2.7,3.8,2.7,6.4
	c0,2.8-0.9,5.1-2.7,6.8c-1.8,1.7-4.2,2.5-7,2.5h-5v-18.2h5.2C1360.5,425.1,1362.8,425.9,1364.6,427.5z M1354.9,427.1v14h2.6
	c2.3,0,4.1-0.6,5.4-1.9c1.3-1.3,1.9-3,1.9-5.3c0-2.3-0.7-4-2-5.1c-1.3-1.1-3.1-1.7-5.2-1.7H1354.9z M1336.3,371.2h-2.2v-18.2h3.2
	l5.4,12.4c0.4,1,0.7,1.7,0.8,2.2h0.1c0.4-1.1,0.7-1.9,0.9-2.3l5.4-12.4h3v18.2h-2.3v-12c0-1,0.1-2.2,0.2-3.6h-0.1
	c-0.2,0.9-0.4,1.5-0.5,1.8l-6,13.8h-1.3l-6-13.7c-0.1-0.3-0.3-1-0.5-1.9h-0.1c0.1,0.8,0.1,2.1,0.1,3.7V371.2z M1366.3,507.5l3.8-0.5
	c0-2.1-0.9-3.2-2.6-3.2c-1.6,0-3,0.5-4.3,1.6v-2.2c1.3-0.8,2.8-1.2,4.5-1.2c3.1,0,4.7,1.6,4.7,4.9v8.3h-2.3v-2h-0.1
	c-0.9,1.5-2.2,2.3-4,2.3c-1.3,0-2.3-0.3-3-1c-0.7-0.7-1.1-1.6-1.1-2.8C1362,509.3,1363.4,507.9,1366.3,507.5z M1364.9,513.1
	c0.4,0.4,1,0.6,1.7,0.6c1,0,1.8-0.4,2.5-1.1c0.6-0.7,1-1.6,1-2.6v-1.2l-3,0.4c-1.1,0.1-1.8,0.4-2.2,0.8c-0.4,0.4-0.6,0.9-0.6,1.6
	C1364.3,512.2,1364.5,512.7,1364.9,513.1z M1366.3,579.5l3.8-0.5c0-2.1-0.9-3.2-2.6-3.2c-1.6,0-3,0.5-4.3,1.6v-2.2
	c1.3-0.8,2.8-1.2,4.5-1.2c3.1,0,4.7,1.6,4.7,4.9v8.3h-2.3v-2h-0.1c-0.9,1.5-2.2,2.3-4,2.3c-1.3,0-2.3-0.3-3-1
	c-0.7-0.7-1.1-1.6-1.1-2.8C1362,581.3,1363.4,579.9,1366.3,579.5z M1364.9,585.1c0.4,0.4,1,0.6,1.7,0.6c1,0,1.8-0.4,2.5-1.1
	c0.6-0.7,1-1.6,1-2.6v-1.2l-3,0.4c-1.1,0.1-1.8,0.4-2.2,0.8c-0.4,0.4-0.6,0.9-0.6,1.6C1364.3,584.2,1364.5,584.7,1364.9,585.1z
	 M1366.3,651.5l3.8-0.5c0-2.1-0.9-3.2-2.6-3.2c-1.6,0-3,0.5-4.3,1.6v-2.2c1.3-0.8,2.8-1.2,4.5-1.2c3.1,0,4.7,1.6,4.7,4.9v8.3h-2.3
	v-2h-0.1c-0.9,1.5-2.2,2.3-4,2.3c-1.3,0-2.3-0.3-3-1c-0.7-0.7-1.1-1.6-1.1-2.8C1362,653.3,1363.4,651.9,1366.3,651.5z M1364.9,657.1
	c0.4,0.4,1,0.6,1.7,0.6c1,0,1.8-0.4,2.5-1.1c0.6-0.7,1-1.6,1-2.6v-1.2l-3,0.4c-1.1,0.1-1.8,0.4-2.2,0.8c-0.4,0.4-0.6,0.9-0.6,1.6
	C1364.3,656.2,1364.5,656.7,1364.9,657.1z M1366.3,723.5l3.8-0.5c0-2.1-0.9-3.2-2.6-3.2c-1.6,0-3,0.5-4.3,1.6v-2.2
	c1.3-0.8,2.8-1.2,4.5-1.2c3.1,0,4.7,1.6,4.7,4.9v8.3h-2.3v-2h-0.1c-0.9,1.5-2.2,2.3-4,2.3c-1.3,0-2.3-0.3-3-1
	c-0.7-0.7-1.1-1.6-1.1-2.8C1362,725.3,1363.4,723.9,1366.3,723.5z M1364.9,729.1c0.4,0.4,1,0.6,1.7,0.6c1,0,1.8-0.4,2.5-1.1
	c0.6-0.7,1-1.6,1-2.6v-1.2l-3,0.4c-1.1,0.1-1.8,0.4-2.2,0.8c-0.4,0.4-0.6,0.9-0.6,1.6C1364.3,728.2,1364.5,728.7,1364.9,729.1z
	 M1370.9,443.2v-18.2h9.4v2.1h-7v6.1h6.5v2.1h-6.5v7.9H1370.9z M1378.5,504.9L1378.5,504.9c0.7-1.9,1.8-2.9,3.4-2.9
	c0.5,0,0.9,0.1,1.2,0.2v2.3c-0.4-0.3-0.9-0.4-1.6-0.4c-0.9,0-1.6,0.4-2.2,1.2c-0.6,0.8-0.9,1.9-0.9,3.3v6.6h-2.3v-13h2.3V504.9z
	 M1378.5,576.9L1378.5,576.9c0.7-1.9,1.8-2.9,3.4-2.9c0.5,0,0.9,0.1,1.2,0.2v2.3c-0.4-0.3-0.9-0.4-1.6-0.4c-0.9,0-1.6,0.4-2.2,1.2
	c-0.6,0.8-0.9,1.9-0.9,3.3v6.6h-2.3v-13h2.3V576.9z M1378.5,648.9L1378.5,648.9c0.7-1.9,1.8-2.9,3.4-2.9c0.5,0,0.9,0.1,1.2,0.2v2.3
	c-0.4-0.3-0.9-0.4-1.6-0.4c-0.9,0-1.6,0.4-2.2,1.2c-0.6,0.8-0.9,1.9-0.9,3.3v6.6h-2.3v-13h2.3V648.9z M1378.5,720.9L1378.5,720.9
	c0.7-1.9,1.8-2.9,3.4-2.9c0.5,0,0.9,0.1,1.2,0.2v2.3c-0.4-0.3-0.9-0.4-1.6-0.4c-0.9,0-1.6,0.4-2.2,1.2c-0.6,0.8-0.9,1.9-0.9,3.3v6.6
	h-2.3v-13h2.3V720.9z M1392.2,369.6c-1.2,1.3-2.8,1.9-4.7,1.9c-1.9,0-3.5-0.6-4.6-1.8c-1.2-1.2-1.7-2.8-1.7-4.8
	c0-2.1,0.6-3.8,1.8-5.1c1.2-1.2,2.8-1.9,4.9-1.9c1.9,0,3.5,0.6,4.6,1.8c1.1,1.2,1.7,2.8,1.7,4.9
	C1393.9,366.7,1393.3,368.4,1392.2,369.6z M1390.6,361.1c-0.7-0.8-1.7-1.3-3-1.3c-1.3,0-2.3,0.4-3.1,1.3c-0.7,0.9-1.1,2.1-1.1,3.6
	c0,1.5,0.4,2.7,1.1,3.5c0.8,0.9,1.8,1.3,3,1.3c1.3,0,2.3-0.4,3-1.3c0.7-0.8,1-2,1-3.6C1391.6,363.2,1391.3,362,1390.6,361.1z
	 M1382.8,439.8c0.6,0.5,1.3,0.9,2.2,1.2c0.9,0.3,1.8,0.5,2.6,0.5c2.5,0,3.8-0.9,3.8-2.7c0-0.5-0.1-1-0.4-1.4
	c-0.3-0.4-0.6-0.8-1.1-1.1c-0.5-0.3-1.4-0.8-2.7-1.4c-1.8-0.9-3-1.7-3.6-2.5c-0.6-0.8-0.9-1.7-0.9-2.7c0-1.5,0.6-2.7,1.8-3.6
	c1.2-0.9,2.7-1.3,4.6-1.3c1.8,0,3.1,0.2,4,0.7v2.6c-1.1-0.8-2.5-1.1-4.1-1.1c-1.1,0-2,0.2-2.7,0.7c-0.7,0.5-1,1.1-1,1.9
	c0,0.7,0.2,1.3,0.7,1.8c0.5,0.5,1.5,1.1,3.2,1.9c1.8,0.9,3,1.7,3.7,2.6c0.7,0.9,1.1,1.8,1.1,2.9c0,1.6-0.6,2.8-1.7,3.7
	c-1.2,0.9-2.8,1.3-4.8,1.3c-0.7,0-1.6-0.1-2.5-0.3c-1-0.2-1.7-0.4-2.1-0.7V439.8z M1387.6,508.2L1387.6,508.2l5.3-5.9h3l-5.9,6.2
	l6.3,6.7h-3.1l-5.5-6.2h0v6.2h-2.3V496h2.3V508.2z M1387.6,580.2L1387.6,580.2l5.3-5.9h3l-5.9,6.2l6.3,6.7h-3.1l-5.5-6.2h0v6.2h-2.3
	V568h2.3V580.2z M1387.6,652.2L1387.6,652.2l5.3-5.9h3l-5.9,6.2l6.3,6.7h-3.1l-5.5-6.2h0v6.2h-2.3V640h2.3V652.2z M1387.6,724.2
	L1387.6,724.2l5.3-5.9h3l-5.9,6.2l6.3,6.7h-3.1l-5.5-6.2h0v6.2h-2.3V712h2.3V724.2z M1426.7,504.5h-8.8c-1.4,2.5-2.7,4.7-3.9,6.5
	c2.4-0.1,5.1-0.3,8.1-0.5c-0.8-1.2-1.6-2.4-2.4-3.5l1.5-0.9c1.8,2.3,3.3,4.5,4.7,6.7l-1.7,1.1c-0.4-0.6-0.7-1.2-1.1-1.8
	c-4.4,0.3-7.6,0.5-9.5,0.8c-0.5,0.1-1.1,0.2-1.7,0.4l-0.9-1.7c0.6-0.4,1.1-0.9,1.5-1.5c1.1-1.6,2.1-3.5,3.1-5.6h-5v-1.8h16.1V504.5z
	 M1425.4,498.4h-13.1v-1.8h13.1V498.4z M1405,496.5l1.4-1c1.2,1.5,2.4,3,3.6,4.5l-1.7,1.1C1407.3,499.5,1406.2,498,1405,496.5z
	 M1412,353.1h2c-2.6,3.2-4,7-4,11.2c0,4.2,1.3,7.9,3.9,11.1h-2c-2.6-3-3.9-6.7-3.9-11S1409.3,356.2,1412,353.1z M1407,505.2h-3v-1.7
	h4.9v10.1c1.2,1.5,2.8,2.2,5,2.2l6.9,0.1l6.5-0.3c-0.3,0.6-0.5,1.3-0.8,1.9l-7,0l-6-0.1c-2.5-0.1-4.4-1-5.6-2.7c-1,0.8-2,1.9-3,3.1
	l-1-2c0,0,1.1-0.9,3.1-2.7V505.2z M1405,568.5l1.4-1c1.2,1.5,2.4,3,3.6,4.5l-1.7,1.1C1407.3,571.5,1406.2,570,1405,568.5z
	 M1425.4,568.7v1.8h-13.1v-1.8H1425.4z M1426.7,576.5h-8.8c-1.4,2.5-2.7,4.7-3.9,6.5c2.4-0.1,5.1-0.3,8.1-0.5
	c-0.8-1.2-1.6-2.4-2.4-3.5l1.5-0.9c1.8,2.3,3.3,4.5,4.7,6.7l-1.7,1.1c-0.4-0.6-0.7-1.2-1.1-1.8c-4.4,0.3-7.6,0.5-9.5,0.8
	c-0.5,0.1-1.1,0.2-1.7,0.4l-0.9-1.7c0.6-0.4,1.1-0.9,1.5-1.5c1.1-1.6,2.1-3.5,3.1-5.6h-5v-1.8h16.1V576.5z M1407,577.2h-3v-1.7h4.9
	v10.1c1.2,1.5,2.8,2.2,5,2.2l6.9,0.1l6.5-0.3c-0.3,0.6-0.5,1.3-0.8,1.9l-7,0l-6-0.1c-2.5-0.1-4.4-1-5.6-2.7c-1,0.8-2,1.9-3,3.1l-1-2
	c0,0,1.1-0.9,3.1-2.7V577.2z M1416.6,642.3h-3.9v3.1h3.4v16.7h-1.6v-1.5h-8.1v1.5h-1.6v-16.8h3.2v-3.1h-3.9v-1.5h12.4V642.3z
	 M1414.6,646.9h-1.8v3.3c0,0.7,0.3,1,0.9,1h1V646.9z M1406.5,659.1h8.1v-2.8h-8.1V659.1z M1408.1,646.9h-1.6v5.8
	c1.1-1.2,1.6-2.9,1.6-5V646.9z M1411.2,642.3h-1.6v3.1h1.6V642.3z M1411.2,650.6v-3.8h-1.6v0.9c0,2.5-0.6,4.6-1.9,6.2
	c-0.4-0.4-0.8-0.8-1.2-1.1v1.9h8.1v-2.2h-1.7C1411.8,652.5,1411.2,651.9,1411.2,650.6z M1409.6,728.3l-2,6.2h-1.6l1.4-6.2H1409.6z
	 M1425.7,650.8h-1.7v-0.9h-4.5v8.1c0,1.2,0.5,1.9,1.6,1.9h2.2c0.9,0,1.4-0.5,1.6-1.4c0.2-1,0.3-2.3,0.4-3.8c0.4,0.2,1,0.5,1.8,0.8
	c-0.1,1.3-0.3,2.5-0.5,3.6c-0.3,1.7-1.3,2.5-3,2.5h-3c-1.9,0-2.8-1.1-2.8-3.3v-10h6.2v-6.1h-6.6v-1.6h8.3V650.8z M1421.9,712.7
	l1.5-1c1.2,1.5,2.3,3,3.3,4.4c-0.7,0.4-1.2,0.8-1.7,1.2C1424.1,715.8,1423.1,714.2,1421.9,712.7z M1423.6,721.3h-2.8v-1.7h4.6v10
	c1,1.5,2.5,2.3,4.7,2.4l5.6,0.1l8.3-0.2c-0.2,0.5-0.4,1.1-0.7,1.9l-7.8,0l-5.6-0.1c-2.6,0-4.4-1-5.5-2.7c-0.6,0.6-1.6,1.6-2.8,3.1
	l-1-1.9c1.4-1.3,2.4-2.3,3-2.9V721.3z M1451.4,716.9l1.6,1c-0.8,1.4-1.7,2.7-2.6,3.9v12.4h-1.9v-10c-0.9,1.1-1.9,2-2.9,2.9
	c-0.2-0.7-0.5-1.3-0.8-1.9C1447.2,723.3,1449.4,720.5,1451.4,716.9z M1468.1,721.8h-4.5v9.2c0,1.9-1,2.9-2.9,2.9c-1.3,0-2.6,0-4,0
	c-0.1-0.6-0.2-1.3-0.4-2.1c1.2,0.1,2.4,0.2,3.7,0.2c1.1,0,1.6-0.5,1.6-1.6v-8.5h-8.3V720h14.8V721.8z M1470.1,728.6
	c0.5-0.7,1-1.5,1.5-2.2h-2.7v-1.5h3.6c0.3-0.6,0.7-1.2,1-1.8l1.7,0.5c-0.2,0.4-0.5,0.9-0.8,1.3h5.7v1.5c-0.6,1.5-1.5,2.9-2.7,4
	c0.9,0.4,1.7,0.8,2.6,1.2l-1,1.6c-1-0.5-2-1.1-3-1.6c-1.8,1.3-4,2.3-6.7,3c-0.2-0.5-0.5-1-0.8-1.6c2.3-0.5,4.2-1.3,5.8-2.2
	C1473,730,1471.6,729.3,1470.1,728.6z M1478.4,726.4h-4.9c-0.4,0.6-0.7,1.1-1.1,1.7c1.1,0.5,2.2,1,3.4,1.6
	C1476.9,728.7,1477.8,727.6,1478.4,726.4z M1481.2,713.1c-0.9,1.1-1.7,2.2-2.6,3.1c-0.4-0.3-0.8-0.6-1.3-1c0.8-1,1.6-2,2.4-3.1
	L1481.2,713.1z M1476.3,716.8h4.5v1.5h-4.5v1.4l0.7-0.8c1.5,1.1,2.7,2,3.7,2.8l-1.1,1.3c-0.9-0.8-1.9-1.7-3.2-2.7v2.7h-1.7v-3.3
	c-1.4,1.5-3.1,2.8-5,3.9c-0.3-0.5-0.6-0.9-1-1.4c2-1.1,3.8-2.4,5.4-3.9h-4.8v-1.5h5.4v-5.2h1.7V716.8z M1471.9,716
	c-0.7-1-1.4-2-2.1-2.9l1.3-0.9c0.7,0.9,1.4,1.8,2.2,2.8L1471.9,716z M1466.7,714.7h-12.2V713h12.2V714.7z M1445.8,719.7
	c-0.3-0.6-0.6-1.2-0.9-1.8c2.5-1.9,4.5-4.2,6-6.7l1.7,1C1450.7,715,1448.5,717.5,1445.8,719.7z M1451.2,577.8h-4.5v9.2
	c0,1.9-1,2.9-2.9,2.9c-1.3,0-2.6,0-4,0c-0.1-0.6-0.2-1.3-0.4-2.1c1.2,0.1,2.4,0.2,3.7,0.2c1.1,0,1.6-0.5,1.6-1.6v-8.5h-8.3V576h14.8
	V577.8z M1449.9,570.7h-12.2V569h12.2V570.7z M1451.2,505.8h-4.5v9.2c0,1.9-1,2.9-2.9,2.9c-1.3,0-2.6,0-4,0
	c-0.1-0.6-0.2-1.3-0.4-2.1c1.2,0.1,2.4,0.2,3.7,0.2c1.1,0,1.6-0.5,1.6-1.6v-8.5h-8.3V504h14.8V505.8z M1449.9,498.7h-12.2V497h12.2
	V498.7z M1435.6,496.2c-1.8,2.8-4.1,5.3-6.8,7.5c-0.3-0.6-0.6-1.2-0.9-1.8c2.5-1.9,4.5-4.2,6-6.7L1435.6,496.2z M1434.5,500.9l1.6,1
	c-0.8,1.4-1.7,2.7-2.6,3.9v12.4h-1.9v-10c-0.9,1.1-1.9,2-2.9,2.9c-0.2-0.7-0.5-1.3-0.8-1.9C1430.3,507.3,1432.5,504.5,1434.5,500.9z
	 M1449.1,645.6h-1.6V645h-16v0.5h-1.6v-5.2h19.2V645.6z M1435.8,641.6h-4.3v2.2h4.3V641.6z M1441.6,641.6h-4.3v2.2h4.3V641.6z
	 M1447.5,641.6h-4.3v2.2h4.3V641.6z M1428,573.9c2.5-1.9,4.5-4.2,6-6.7l1.7,1c-1.8,2.8-4.1,5.3-6.8,7.5
	C1428.6,575.1,1428.3,574.5,1428,573.9z M1433.5,577.8v12.4h-1.9v-10c-0.9,1.1-1.9,2-2.9,2.9c-0.2-0.7-0.5-1.3-0.8-1.9
	c2.4-2,4.6-4.8,6.6-8.4l1.6,1C1435.3,575.3,1434.4,576.6,1433.5,577.8z M1431.3,649.4h7.2v-1.5h-10.1v-1.3h10.1v-1.2h1.7v1.2h10.4
	v1.3h-10.4v1.5h7.7v10.9h3.2v1.4h-23.2v-1.4h3.5V649.4z M1433,660.3h13.2v-1.5H1433V660.3z M1433,657.6h13.2v-1.5H1433V657.6z
	 M1433,654.9h13.2v-1.5H1433V654.9z M1433,652.2h13.2v-1.5H1433V652.2z M1427,722.2h4c0-1.2,0-2.9,0-5h-3v-1.7h3v-4.1h1.9v4.1h4.6
	v-4.1h1.9v4.1h3.5v1.7h-3.5v5h4.4v1.7h-4.4v7.1h-1.9v-7.1h-4.8c-0.5,3.2-1.8,5.6-4,7.1c-0.4-0.5-0.9-0.9-1.4-1.4
	c1.9-1.2,3.1-3.1,3.6-5.7h-3.8V722.2z M1437.5,722.2v-5h-4.6c0,2.7,0,4.3,0,5H1437.5z M1435.3,359.8c-1.6,0-3,0.5-4.3,1.6v-2.2
	c1.3-0.8,2.8-1.2,4.5-1.2c3.1,0,4.7,1.6,4.7,4.9v8.3h-2.3v-2h-0.1c-0.9,1.5-2.2,2.3-4,2.3c-1.3,0-2.3-0.3-3-1
	c-0.7-0.7-1.1-1.6-1.1-2.8c0-2.4,1.4-3.8,4.3-4.2l3.8-0.5C1438,360.9,1437.1,359.8,1435.3,359.8z M1434.9,365.1
	c-1.1,0.1-1.8,0.4-2.2,0.8c-0.4,0.4-0.6,0.9-0.6,1.6c0,0.6,0.2,1.1,0.7,1.5c0.4,0.4,1,0.6,1.7,0.6c1,0,1.8-0.4,2.5-1.1
	c0.6-0.7,1-1.6,1-2.6v-1.2L1434.9,365.1z M1452.1,571.3v-1.7h8.3v1.7h-3.1v4.3h3.1v1.7h-3.1v5c0.9-0.3,1.9-0.5,3-0.8
	c0,0.6-0.1,1.1,0,1.6c-3.1,1-5.8,1.9-8.1,2.6l-0.3-2c1.1-0.3,2.3-0.6,3.6-0.9v-5.5h-3.1v-1.7h3.1v-4.3H1452.1z M1461.2,568.8h12.9
	v1.8h-6c-0.5,1.8-1.1,3.6-1.8,5.2h1.5v14.5h-1.9v-13.7c-1.6,3.7-3.5,6.9-5.8,9.7c-0.4-0.4-0.9-0.8-1.5-1.1c3.4-4.1,5.8-8.9,7.4-14.6
	h-4.9V568.8z M1473.2,661.9c-4.4-1.5-7.7-3.1-9.8-4.8c-2.1,1.6-5.5,3.3-10.1,5c-0.4-0.5-0.9-1.2-1.4-1.8c4.5-1.3,7.8-2.8,10.1-4.5
	c-2.9-3-4.7-6.6-5.4-10.7h-4.4v-1.7h11.2c-0.8-1.5-1.4-2.6-1.9-3.3l1.8-0.8c0.4,0.7,1.1,1.8,2,3.3l-1.7,0.8h11v1.7h-4.3
	c-0.8,4.5-2.6,8-5.4,10.8c2.1,1.5,5.4,2.9,9.9,4.1C1474.2,660.7,1473.6,661.4,1473.2,661.9z M1468.4,645h-9.9c0.7,3.8,2.4,7,5,9.5
	C1466.1,652.2,1467.7,649,1468.4,645z M1482.6,720.8c-0.3,0.6-0.7,1.1-1,1.6c-0.3-0.5-0.7-1-1.2-1.5c1.8-2.6,3-5.8,3.6-9.5l1.9,0.3
	c-0.3,1.5-0.7,2.9-1.1,4.2h7.2v1.6h-1.5c-0.4,4.6-1.4,8.2-3,10.9c1.3,1.7,2.9,3.1,4.8,4.2c-0.5,0.7-0.9,1.3-1.3,1.9
	c-1.9-1.2-3.5-2.7-4.8-4.4c-1.4,1.8-3.1,3.3-5.1,4.6c-0.3-0.5-0.8-0.9-1.3-1.5c2.2-1.4,4-3.1,5.3-4.9
	C1483.8,726.1,1483,723.6,1482.6,720.8z M1486.3,726.5c1.2-2.3,2-5.3,2.3-9.1h-4.4c-0.1,0.2-0.2,0.4-0.3,0.6
	C1484.2,721.3,1485,724.2,1486.3,726.5z M1524.3,723.4h-4.5v-1.7h15.6c-0.1,2.7-0.2,5.2-0.4,7.8c-0.2,2.9-1.6,4.4-4.1,4.4
	c-1.3,0-2.6,0-4-0.1c-0.1-0.7-0.2-1.3-0.3-2c1.2,0.2,2.5,0.3,4,0.3c1.6,0,2.4-0.9,2.6-2.7c0.1-1.7,0.2-3.6,0.3-5.8h-7.2
	c-0.2,2.6-0.7,4.7-1.6,6.3c-1.2,2.1-3.2,3.7-6,4.9c-0.4-0.5-0.9-1.1-1.3-1.6c2.6-1,4.5-2.4,5.6-4.2
	C1523.7,727.3,1524.1,725.5,1524.3,723.4z"/>
</svg>
